M48
; DRILL file {KiCad 5.1.4-e60b266~84~ubuntu18.04.1} date Sat 07 Sep 2019 04:25:44 PM PKT
; FORMAT={-:-/ absolute / metric / decimal}
; #@! TF.CreationDate,2019-09-07T16:25:44+05:00
; #@! TF.GenerationSoftware,Kicad,Pcbnew,5.1.4-e60b266~84~ubuntu18.04.1
FMAT,2
METRIC
T1C0.200
T2C0.400
T3C0.500
T4C0.750
T5C0.900
T6C1.000
T7C1.200
T8C1.300
T9C2.200
T10C2.500
T11C2.524
%
G90
G05
T1
X102.022Y-102.479
X102.634Y-105.58
X102.639Y-108.339
X105.159Y-85.26
X106.576Y-101.862
X106.897Y-77.883
X106.897Y-80.948
X109.083Y-88.271
X109.083Y-89.321
X110.98Y-119.299
X111.102Y-79.606
X112.537Y-108.166
X112.57Y-87.409
X112.677Y-99.446
X113.312Y-88.151
X113.807Y-81.275
X115.258Y-81.117
X116.797Y-89.858
X119.558Y-80.246
X121.572Y-122.608
X121.91Y-92.789
X123.802Y-109.134
X124.729Y-83.233
X125.125Y-113.467
X125.616Y-110.769
X126.426Y-112.011
X127.785Y-78.77
X128.039Y-110.312
X128.267Y-77.216
X128.422Y-80.96
X128.443Y-84.597
X128.603Y-75.611
X128.935Y-73.932
X129.259Y-109.099
X130.335Y-112.339
X131.412Y-100.935
X131.681Y-116.533
X132.908Y-113.251
X133.693Y-100.952
X133.804Y-80.521
X133.988Y-115.125
X134.64Y-79.863
X135.979Y-80.185
X138.364Y-115.062
X140.254Y-108.072
X140.269Y-81.714
X142.804Y-122.352
X144.363Y-87.765
X144.943Y-86.103
X145.151Y-100.112
X146.009Y-86.957
X146.738Y-84.501
X147.95Y-85.481
X148.438Y-107.597
X148.76Y-111.262
X166.345Y-111.91
X168.087Y-95.702
X171.105Y-76.464
X173.573Y-112.936
X178.676Y-100.79
X131.067Y-63.218
X131.079Y-61.874
T2
X119.728Y-98.778
X121.851Y-90.135
X150.63Y-114.397
X152.062Y-112.075
T3
X181.005Y-59.69
X181.554Y-58.364
X181.554Y-61.016
X182.88Y-57.815
X182.88Y-61.565
X184.206Y-58.364
X184.206Y-61.016
X184.755Y-59.69
X181.005Y-119.38
X181.554Y-118.054
X181.554Y-120.706
X182.88Y-117.505
X182.88Y-121.255
X184.206Y-118.054
X184.206Y-120.706
X184.755Y-119.38
X95.915Y-119.38
X96.464Y-118.054
X96.464Y-120.706
X97.79Y-117.505
X97.79Y-121.255
X99.116Y-118.054
X99.116Y-120.706
X99.665Y-119.38
X95.915Y-59.746
X96.464Y-58.42
X96.464Y-61.072
X97.79Y-57.871
X97.79Y-61.621
X99.116Y-58.42
X99.116Y-61.072
X99.665Y-59.746
T4
X159.736Y-117.188
X161.736Y-117.188
X99.06Y-81.28
X99.06Y-83.82
X99.06Y-86.36
X99.06Y-88.9
X99.06Y-91.44
X99.06Y-93.98
X99.06Y-96.52
X99.06Y-99.06
X154.94Y-81.28
X154.94Y-83.82
X154.94Y-86.36
X154.94Y-88.9
X154.94Y-91.44
X154.94Y-93.98
X154.94Y-96.52
X154.94Y-99.06
T6
X168.93Y-120.503
X176.784Y-120.503
X98.1Y-74.138
X164.302Y-106.893
X166.842Y-106.893
X172.72Y-120.503
X173.573Y-107.036
X176.113Y-107.036
T7
X172.326Y-83.599
X172.326Y-98.099
X174.826Y-98.099
X177.326Y-83.599
X177.326Y-98.099
T8
X182.118Y-68.58
X182.118Y-73.58
X142.26Y-61.196
X147.26Y-61.196
X160.094Y-61.227
X165.094Y-61.227
T10
X182.88Y-59.69
X182.88Y-119.38
X97.79Y-119.38
X97.79Y-59.746
T11
X169.126Y-90.599
X180.526Y-90.599
T5
G00X107.458Y-56.116
M15
G01X107.458Y-57.016
M16
G05
G00X108.458Y-69.616
M15
G01X108.458Y-70.516
M16
G05
G00X122.158Y-69.616
M15
G01X122.158Y-70.516
M16
G05
G00X123.158Y-56.116
M15
G01X123.158Y-57.016
M16
G05
T9
G00X110.215Y-63.678
M15
G01X110.715Y-63.678
M16
G05
G00X120.265Y-63.678
M15
G01X120.665Y-63.678
M16
G05
T0
M30
