G04 #@! TF.GenerationSoftware,KiCad,Pcbnew,5.1.4-e60b266~84~ubuntu18.04.1*
G04 #@! TF.CreationDate,2019-09-07T16:25:42+05:00*
G04 #@! TF.ProjectId,rck22,72636b32-322e-46b6-9963-61645f706362,rev?*
G04 #@! TF.SameCoordinates,Original*
G04 #@! TF.FileFunction,Legend,Top*
G04 #@! TF.FilePolarity,Positive*
%FSLAX46Y46*%
G04 Gerber Fmt 4.6, Leading zero omitted, Abs format (unit mm)*
G04 Created by KiCad (PCBNEW 5.1.4-e60b266~84~ubuntu18.04.1) date 2019-09-07 16:25:42*
%MOMM*%
%LPD*%
G04 APERTURE LIST*
%ADD10C,0.150000*%
%ADD11C,0.300000*%
%ADD12C,0.100000*%
%ADD13C,0.124000*%
%ADD14C,0.120000*%
%ADD15C,0.200000*%
%ADD16C,0.050000*%
%ADD17C,0.254000*%
G04 APERTURE END LIST*
D10*
X129208827Y-66515240D02*
X129208827Y-65515240D01*
X129780256Y-66515240D02*
X129351684Y-65943812D01*
X129780256Y-65515240D02*
X129208827Y-66086669D01*
X130161208Y-66229526D02*
X130637399Y-66229526D01*
X130065970Y-66515240D02*
X130399303Y-65515240D01*
X130732637Y-66515240D01*
X131637399Y-66515240D02*
X131304065Y-66039050D01*
X131065970Y-66515240D02*
X131065970Y-65515240D01*
X131446922Y-65515240D01*
X131542160Y-65562860D01*
X131589780Y-65610479D01*
X131637399Y-65705717D01*
X131637399Y-65848574D01*
X131589780Y-65943812D01*
X131542160Y-65991431D01*
X131446922Y-66039050D01*
X131065970Y-66039050D01*
X132065970Y-66515240D02*
X132065970Y-65515240D01*
X132875494Y-65991431D02*
X133018351Y-66039050D01*
X133065970Y-66086669D01*
X133113589Y-66181907D01*
X133113589Y-66324764D01*
X133065970Y-66420002D01*
X133018351Y-66467621D01*
X132923113Y-66515240D01*
X132542160Y-66515240D01*
X132542160Y-65515240D01*
X132875494Y-65515240D01*
X132970732Y-65562860D01*
X133018351Y-65610479D01*
X133065970Y-65705717D01*
X133065970Y-65800955D01*
X133018351Y-65896193D01*
X132970732Y-65943812D01*
X132875494Y-65991431D01*
X132542160Y-65991431D01*
X133542160Y-65991431D02*
X133875494Y-65991431D01*
X134018351Y-66515240D02*
X133542160Y-66515240D01*
X133542160Y-65515240D01*
X134018351Y-65515240D01*
D11*
X122656131Y-107636561D02*
X121989464Y-106684180D01*
X121513274Y-107636561D02*
X121513274Y-105636561D01*
X122275179Y-105636561D01*
X122465655Y-105731800D01*
X122560893Y-105827038D01*
X122656131Y-106017514D01*
X122656131Y-106303228D01*
X122560893Y-106493704D01*
X122465655Y-106588942D01*
X122275179Y-106684180D01*
X121513274Y-106684180D01*
X124275179Y-107541323D02*
X124084702Y-107636561D01*
X123703750Y-107636561D01*
X123513274Y-107541323D01*
X123418036Y-107350847D01*
X123418036Y-106588942D01*
X123513274Y-106398466D01*
X123703750Y-106303228D01*
X124084702Y-106303228D01*
X124275179Y-106398466D01*
X124370417Y-106588942D01*
X124370417Y-106779419D01*
X123418036Y-106969895D01*
X124941845Y-106303228D02*
X125703750Y-106303228D01*
X125227560Y-107636561D02*
X125227560Y-105922276D01*
X125322798Y-105731800D01*
X125513274Y-105636561D01*
X125703750Y-105636561D01*
X126656131Y-107636561D02*
X126465655Y-107541323D01*
X126370417Y-107350847D01*
X126370417Y-105636561D01*
X127703750Y-107636561D02*
X127513274Y-107541323D01*
X127418036Y-107446085D01*
X127322798Y-107255609D01*
X127322798Y-106684180D01*
X127418036Y-106493704D01*
X127513274Y-106398466D01*
X127703750Y-106303228D01*
X127989464Y-106303228D01*
X128179940Y-106398466D01*
X128275179Y-106493704D01*
X128370417Y-106684180D01*
X128370417Y-107255609D01*
X128275179Y-107446085D01*
X128179940Y-107541323D01*
X127989464Y-107636561D01*
X127703750Y-107636561D01*
X129037083Y-106303228D02*
X129418036Y-107636561D01*
X129798988Y-106684180D01*
X130179940Y-107636561D01*
X130560893Y-106303228D01*
X133227560Y-105636561D02*
X133608512Y-105636561D01*
X133798988Y-105731800D01*
X133989464Y-105922276D01*
X134084702Y-106303228D01*
X134084702Y-106969895D01*
X133989464Y-107350847D01*
X133798988Y-107541323D01*
X133608512Y-107636561D01*
X133227560Y-107636561D01*
X133037083Y-107541323D01*
X132846607Y-107350847D01*
X132751369Y-106969895D01*
X132751369Y-106303228D01*
X132846607Y-105922276D01*
X133037083Y-105731800D01*
X133227560Y-105636561D01*
X134751369Y-106303228D02*
X135227560Y-107636561D01*
X135703750Y-106303228D01*
X137227560Y-107541323D02*
X137037083Y-107636561D01*
X136656131Y-107636561D01*
X136465655Y-107541323D01*
X136370417Y-107350847D01*
X136370417Y-106588942D01*
X136465655Y-106398466D01*
X136656131Y-106303228D01*
X137037083Y-106303228D01*
X137227560Y-106398466D01*
X137322798Y-106588942D01*
X137322798Y-106779419D01*
X136370417Y-106969895D01*
X138179940Y-106303228D02*
X138179940Y-107636561D01*
X138179940Y-106493704D02*
X138275179Y-106398466D01*
X138465655Y-106303228D01*
X138751369Y-106303228D01*
X138941845Y-106398466D01*
X139037083Y-106588942D01*
X139037083Y-107636561D01*
X142656131Y-107446085D02*
X142560893Y-107541323D01*
X142275179Y-107636561D01*
X142084702Y-107636561D01*
X141798988Y-107541323D01*
X141608512Y-107350847D01*
X141513274Y-107160371D01*
X141418036Y-106779419D01*
X141418036Y-106493704D01*
X141513274Y-106112752D01*
X141608512Y-105922276D01*
X141798988Y-105731800D01*
X142084702Y-105636561D01*
X142275179Y-105636561D01*
X142560893Y-105731800D01*
X142656131Y-105827038D01*
X143798988Y-107636561D02*
X143608512Y-107541323D01*
X143513274Y-107446085D01*
X143418036Y-107255609D01*
X143418036Y-106684180D01*
X143513274Y-106493704D01*
X143608512Y-106398466D01*
X143798988Y-106303228D01*
X144084702Y-106303228D01*
X144275179Y-106398466D01*
X144370417Y-106493704D01*
X144465655Y-106684180D01*
X144465655Y-107255609D01*
X144370417Y-107446085D01*
X144275179Y-107541323D01*
X144084702Y-107636561D01*
X143798988Y-107636561D01*
X145322798Y-106303228D02*
X145322798Y-107636561D01*
X145322798Y-106493704D02*
X145418036Y-106398466D01*
X145608512Y-106303228D01*
X145894226Y-106303228D01*
X146084702Y-106398466D01*
X146179940Y-106588942D01*
X146179940Y-107636561D01*
X146846607Y-106303228D02*
X147608512Y-106303228D01*
X147132321Y-105636561D02*
X147132321Y-107350847D01*
X147227560Y-107541323D01*
X147418036Y-107636561D01*
X147608512Y-107636561D01*
X148275179Y-107636561D02*
X148275179Y-106303228D01*
X148275179Y-106684180D02*
X148370417Y-106493704D01*
X148465655Y-106398466D01*
X148656131Y-106303228D01*
X148846607Y-106303228D01*
X149798988Y-107636561D02*
X149608512Y-107541323D01*
X149513274Y-107446085D01*
X149418036Y-107255609D01*
X149418036Y-106684180D01*
X149513274Y-106493704D01*
X149608512Y-106398466D01*
X149798988Y-106303228D01*
X150084702Y-106303228D01*
X150275179Y-106398466D01*
X150370417Y-106493704D01*
X150465655Y-106684180D01*
X150465655Y-107255609D01*
X150370417Y-107446085D01*
X150275179Y-107541323D01*
X150084702Y-107636561D01*
X149798988Y-107636561D01*
X151608512Y-107636561D02*
X151418036Y-107541323D01*
X151322798Y-107350847D01*
X151322798Y-105636561D01*
X152656131Y-107636561D02*
X152465655Y-107541323D01*
X152370417Y-107350847D01*
X152370417Y-105636561D01*
X154179940Y-107541323D02*
X153989464Y-107636561D01*
X153608512Y-107636561D01*
X153418036Y-107541323D01*
X153322798Y-107350847D01*
X153322798Y-106588942D01*
X153418036Y-106398466D01*
X153608512Y-106303228D01*
X153989464Y-106303228D01*
X154179940Y-106398466D01*
X154275179Y-106588942D01*
X154275179Y-106779419D01*
X153322798Y-106969895D01*
X155132321Y-107636561D02*
X155132321Y-106303228D01*
X155132321Y-106684180D02*
X155227560Y-106493704D01*
X155322798Y-106398466D01*
X155513274Y-106303228D01*
X155703750Y-106303228D01*
X135418036Y-108936561D02*
X136084702Y-110936561D01*
X136751369Y-108936561D01*
X139322798Y-108936561D02*
X139513274Y-108936561D01*
X139703750Y-109031800D01*
X139798988Y-109127038D01*
X139894226Y-109317514D01*
X139989464Y-109698466D01*
X139989464Y-110174657D01*
X139894226Y-110555609D01*
X139798988Y-110746085D01*
X139703750Y-110841323D01*
X139513274Y-110936561D01*
X139322798Y-110936561D01*
X139132321Y-110841323D01*
X139037083Y-110746085D01*
X138941845Y-110555609D01*
X138846607Y-110174657D01*
X138846607Y-109698466D01*
X138941845Y-109317514D01*
X139037083Y-109127038D01*
X139132321Y-109031800D01*
X139322798Y-108936561D01*
X140846607Y-110746085D02*
X140941845Y-110841323D01*
X140846607Y-110936561D01*
X140751369Y-110841323D01*
X140846607Y-110746085D01*
X140846607Y-110936561D01*
X142846607Y-110936561D02*
X141703750Y-110936561D01*
X142275179Y-110936561D02*
X142275179Y-108936561D01*
X142084702Y-109222276D01*
X141894226Y-109412752D01*
X141703750Y-109507990D01*
D10*
X177989717Y-107437821D02*
X178132574Y-107485440D01*
X178370669Y-107485440D01*
X178465907Y-107437821D01*
X178513526Y-107390202D01*
X178561145Y-107294964D01*
X178561145Y-107199726D01*
X178513526Y-107104488D01*
X178465907Y-107056869D01*
X178370669Y-107009250D01*
X178180193Y-106961631D01*
X178084955Y-106914012D01*
X178037336Y-106866393D01*
X177989717Y-106771155D01*
X177989717Y-106675917D01*
X178037336Y-106580679D01*
X178084955Y-106533060D01*
X178180193Y-106485440D01*
X178418288Y-106485440D01*
X178561145Y-106533060D01*
X178894479Y-106485440D02*
X179132574Y-107485440D01*
X179323050Y-106771155D01*
X179513526Y-107485440D01*
X179751621Y-106485440D01*
X180704002Y-107485440D02*
X180370669Y-107009250D01*
X180132574Y-107485440D02*
X180132574Y-106485440D01*
X180513526Y-106485440D01*
X180608764Y-106533060D01*
X180656383Y-106580679D01*
X180704002Y-106675917D01*
X180704002Y-106818774D01*
X180656383Y-106914012D01*
X180608764Y-106961631D01*
X180513526Y-107009250D01*
X180132574Y-107009250D01*
X159883315Y-107503861D02*
X160026172Y-107551480D01*
X160264267Y-107551480D01*
X160359505Y-107503861D01*
X160407124Y-107456242D01*
X160454743Y-107361004D01*
X160454743Y-107265766D01*
X160407124Y-107170528D01*
X160359505Y-107122909D01*
X160264267Y-107075290D01*
X160073791Y-107027671D01*
X159978553Y-106980052D01*
X159930934Y-106932433D01*
X159883315Y-106837195D01*
X159883315Y-106741957D01*
X159930934Y-106646719D01*
X159978553Y-106599100D01*
X160073791Y-106551480D01*
X160311886Y-106551480D01*
X160454743Y-106599100D01*
X160788077Y-106551480D02*
X161026172Y-107551480D01*
X161216648Y-106837195D01*
X161407124Y-107551480D01*
X161645220Y-106551480D01*
X162502362Y-107551480D02*
X162026172Y-107551480D01*
X162026172Y-106551480D01*
X134647204Y-58281201D02*
X134790061Y-58328820D01*
X135028157Y-58328820D01*
X135123395Y-58281201D01*
X135171014Y-58233582D01*
X135218633Y-58138344D01*
X135218633Y-58043106D01*
X135171014Y-57947868D01*
X135123395Y-57900249D01*
X135028157Y-57852630D01*
X134837680Y-57805011D01*
X134742442Y-57757392D01*
X134694823Y-57709773D01*
X134647204Y-57614535D01*
X134647204Y-57519297D01*
X134694823Y-57424059D01*
X134742442Y-57376440D01*
X134837680Y-57328820D01*
X135075776Y-57328820D01*
X135218633Y-57376440D01*
X135599585Y-58281201D02*
X135742442Y-58328820D01*
X135980538Y-58328820D01*
X136075776Y-58281201D01*
X136123395Y-58233582D01*
X136171014Y-58138344D01*
X136171014Y-58043106D01*
X136123395Y-57947868D01*
X136075776Y-57900249D01*
X135980538Y-57852630D01*
X135790061Y-57805011D01*
X135694823Y-57757392D01*
X135647204Y-57709773D01*
X135599585Y-57614535D01*
X135599585Y-57519297D01*
X135647204Y-57424059D01*
X135694823Y-57376440D01*
X135790061Y-57328820D01*
X136028157Y-57328820D01*
X136171014Y-57376440D01*
X137171014Y-58328820D02*
X136837680Y-57852630D01*
X136599585Y-58328820D02*
X136599585Y-57328820D01*
X136980538Y-57328820D01*
X137075776Y-57376440D01*
X137123395Y-57424059D01*
X137171014Y-57519297D01*
X137171014Y-57662154D01*
X137123395Y-57757392D01*
X137075776Y-57805011D01*
X136980538Y-57852630D01*
X136599585Y-57852630D01*
X138123395Y-58328820D02*
X137551966Y-58328820D01*
X137837680Y-58328820D02*
X137837680Y-57328820D01*
X137742442Y-57471678D01*
X137647204Y-57566916D01*
X137551966Y-57614535D01*
X169272484Y-58281201D02*
X169415341Y-58328820D01*
X169653437Y-58328820D01*
X169748675Y-58281201D01*
X169796294Y-58233582D01*
X169843913Y-58138344D01*
X169843913Y-58043106D01*
X169796294Y-57947868D01*
X169748675Y-57900249D01*
X169653437Y-57852630D01*
X169462960Y-57805011D01*
X169367722Y-57757392D01*
X169320103Y-57709773D01*
X169272484Y-57614535D01*
X169272484Y-57519297D01*
X169320103Y-57424059D01*
X169367722Y-57376440D01*
X169462960Y-57328820D01*
X169701056Y-57328820D01*
X169843913Y-57376440D01*
X170224865Y-58281201D02*
X170367722Y-58328820D01*
X170605818Y-58328820D01*
X170701056Y-58281201D01*
X170748675Y-58233582D01*
X170796294Y-58138344D01*
X170796294Y-58043106D01*
X170748675Y-57947868D01*
X170701056Y-57900249D01*
X170605818Y-57852630D01*
X170415341Y-57805011D01*
X170320103Y-57757392D01*
X170272484Y-57709773D01*
X170224865Y-57614535D01*
X170224865Y-57519297D01*
X170272484Y-57424059D01*
X170320103Y-57376440D01*
X170415341Y-57328820D01*
X170653437Y-57328820D01*
X170796294Y-57376440D01*
X171796294Y-58328820D02*
X171462960Y-57852630D01*
X171224865Y-58328820D02*
X171224865Y-57328820D01*
X171605818Y-57328820D01*
X171701056Y-57376440D01*
X171748675Y-57424059D01*
X171796294Y-57519297D01*
X171796294Y-57662154D01*
X171748675Y-57757392D01*
X171701056Y-57805011D01*
X171605818Y-57852630D01*
X171224865Y-57852630D01*
X172177246Y-57424059D02*
X172224865Y-57376440D01*
X172320103Y-57328820D01*
X172558199Y-57328820D01*
X172653437Y-57376440D01*
X172701056Y-57424059D01*
X172748675Y-57519297D01*
X172748675Y-57614535D01*
X172701056Y-57757392D01*
X172129627Y-58328820D01*
X172748675Y-58328820D01*
X176009395Y-116842920D02*
X175914157Y-116795300D01*
X175771300Y-116795300D01*
X175628442Y-116842920D01*
X175533204Y-116938158D01*
X175485585Y-117033396D01*
X175437966Y-117223872D01*
X175437966Y-117366729D01*
X175485585Y-117557205D01*
X175533204Y-117652443D01*
X175628442Y-117747681D01*
X175771300Y-117795300D01*
X175866538Y-117795300D01*
X176009395Y-117747681D01*
X176057014Y-117700062D01*
X176057014Y-117366729D01*
X175866538Y-117366729D01*
X176485585Y-117795300D02*
X176485585Y-116795300D01*
X177057014Y-117795300D01*
X177057014Y-116795300D01*
X177533204Y-117795300D02*
X177533204Y-116795300D01*
X177771300Y-116795300D01*
X177914157Y-116842920D01*
X178009395Y-116938158D01*
X178057014Y-117033396D01*
X178104633Y-117223872D01*
X178104633Y-117366729D01*
X178057014Y-117557205D01*
X178009395Y-117652443D01*
X177914157Y-117747681D01*
X177771300Y-117795300D01*
X177533204Y-117795300D01*
X158851220Y-114338360D02*
X158851220Y-113338360D01*
X159089316Y-113338360D01*
X159232173Y-113385980D01*
X159327411Y-113481218D01*
X159375030Y-113576456D01*
X159422649Y-113766932D01*
X159422649Y-113909789D01*
X159375030Y-114100265D01*
X159327411Y-114195503D01*
X159232173Y-114290741D01*
X159089316Y-114338360D01*
X158851220Y-114338360D01*
X160422649Y-114243122D02*
X160375030Y-114290741D01*
X160232173Y-114338360D01*
X160136935Y-114338360D01*
X159994078Y-114290741D01*
X159898840Y-114195503D01*
X159851220Y-114100265D01*
X159803601Y-113909789D01*
X159803601Y-113766932D01*
X159851220Y-113576456D01*
X159898840Y-113481218D01*
X159994078Y-113385980D01*
X160136935Y-113338360D01*
X160232173Y-113338360D01*
X160375030Y-113385980D01*
X160422649Y-113433599D01*
X162089316Y-113338360D02*
X161613125Y-113338360D01*
X161565506Y-113814551D01*
X161613125Y-113766932D01*
X161708363Y-113719313D01*
X161946459Y-113719313D01*
X162041697Y-113766932D01*
X162089316Y-113814551D01*
X162136935Y-113909789D01*
X162136935Y-114147884D01*
X162089316Y-114243122D01*
X162041697Y-114290741D01*
X161946459Y-114338360D01*
X161708363Y-114338360D01*
X161613125Y-114290741D01*
X161565506Y-114243122D01*
X162422649Y-113338360D02*
X162755982Y-114338360D01*
X163089316Y-113338360D01*
X128504274Y-96433900D02*
X128504274Y-95433900D01*
X128837607Y-96148186D01*
X129170940Y-95433900D01*
X129170940Y-96433900D01*
X129647131Y-96433900D02*
X129647131Y-95433900D01*
X130218560Y-96433900D02*
X129789988Y-95862472D01*
X130218560Y-95433900D02*
X129647131Y-96005329D01*
X130599512Y-95529139D02*
X130647131Y-95481520D01*
X130742369Y-95433900D01*
X130980464Y-95433900D01*
X131075702Y-95481520D01*
X131123321Y-95529139D01*
X131170940Y-95624377D01*
X131170940Y-95719615D01*
X131123321Y-95862472D01*
X130551893Y-96433900D01*
X131170940Y-96433900D01*
X131551893Y-95529139D02*
X131599512Y-95481520D01*
X131694750Y-95433900D01*
X131932845Y-95433900D01*
X132028083Y-95481520D01*
X132075702Y-95529139D01*
X132123321Y-95624377D01*
X132123321Y-95719615D01*
X132075702Y-95862472D01*
X131504274Y-96433900D01*
X132123321Y-96433900D01*
X132885226Y-95910091D02*
X132551893Y-95910091D01*
X132551893Y-96433900D02*
X132551893Y-95433900D01*
X133028083Y-95433900D01*
X107609047Y-119784761D02*
X107751904Y-119832380D01*
X107990000Y-119832380D01*
X108085238Y-119784761D01*
X108132857Y-119737142D01*
X108180476Y-119641904D01*
X108180476Y-119546666D01*
X108132857Y-119451428D01*
X108085238Y-119403809D01*
X107990000Y-119356190D01*
X107799523Y-119308571D01*
X107704285Y-119260952D01*
X107656666Y-119213333D01*
X107609047Y-119118095D01*
X107609047Y-119022857D01*
X107656666Y-118927619D01*
X107704285Y-118880000D01*
X107799523Y-118832380D01*
X108037619Y-118832380D01*
X108180476Y-118880000D01*
X108609047Y-119832380D02*
X108609047Y-118832380D01*
X108847142Y-118832380D01*
X108990000Y-118880000D01*
X109085238Y-118975238D01*
X109132857Y-119070476D01*
X109180476Y-119260952D01*
X109180476Y-119403809D01*
X109132857Y-119594285D01*
X109085238Y-119689523D01*
X108990000Y-119784761D01*
X108847142Y-119832380D01*
X108609047Y-119832380D01*
X110942380Y-119737142D02*
X110894761Y-119784761D01*
X110751904Y-119832380D01*
X110656666Y-119832380D01*
X110513809Y-119784761D01*
X110418571Y-119689523D01*
X110370952Y-119594285D01*
X110323333Y-119403809D01*
X110323333Y-119260952D01*
X110370952Y-119070476D01*
X110418571Y-118975238D01*
X110513809Y-118880000D01*
X110656666Y-118832380D01*
X110751904Y-118832380D01*
X110894761Y-118880000D01*
X110942380Y-118927619D01*
X111799523Y-119832380D02*
X111799523Y-119308571D01*
X111751904Y-119213333D01*
X111656666Y-119165714D01*
X111466190Y-119165714D01*
X111370952Y-119213333D01*
X111799523Y-119784761D02*
X111704285Y-119832380D01*
X111466190Y-119832380D01*
X111370952Y-119784761D01*
X111323333Y-119689523D01*
X111323333Y-119594285D01*
X111370952Y-119499047D01*
X111466190Y-119451428D01*
X111704285Y-119451428D01*
X111799523Y-119403809D01*
X112275714Y-119832380D02*
X112275714Y-119165714D01*
X112275714Y-119356190D02*
X112323333Y-119260952D01*
X112370952Y-119213333D01*
X112466190Y-119165714D01*
X112561428Y-119165714D01*
X113323333Y-119832380D02*
X113323333Y-118832380D01*
X113323333Y-119784761D02*
X113228095Y-119832380D01*
X113037619Y-119832380D01*
X112942380Y-119784761D01*
X112894761Y-119737142D01*
X112847142Y-119641904D01*
X112847142Y-119356190D01*
X112894761Y-119260952D01*
X112942380Y-119213333D01*
X113037619Y-119165714D01*
X113228095Y-119165714D01*
X113323333Y-119213333D01*
X124340264Y-123761760D02*
X124340264Y-122761760D01*
X124578360Y-122761760D01*
X124721217Y-122809380D01*
X124816455Y-122904618D01*
X124864074Y-122999856D01*
X124911693Y-123190332D01*
X124911693Y-123333189D01*
X124864074Y-123523665D01*
X124816455Y-123618903D01*
X124721217Y-123714141D01*
X124578360Y-123761760D01*
X124340264Y-123761760D01*
X125340264Y-123237951D02*
X125673598Y-123237951D01*
X125816455Y-123761760D02*
X125340264Y-123761760D01*
X125340264Y-122761760D01*
X125816455Y-122761760D01*
X126578360Y-123237951D02*
X126721217Y-123285570D01*
X126768836Y-123333189D01*
X126816455Y-123428427D01*
X126816455Y-123571284D01*
X126768836Y-123666522D01*
X126721217Y-123714141D01*
X126625979Y-123761760D01*
X126245026Y-123761760D01*
X126245026Y-122761760D01*
X126578360Y-122761760D01*
X126673598Y-122809380D01*
X126721217Y-122856999D01*
X126768836Y-122952237D01*
X126768836Y-123047475D01*
X126721217Y-123142713D01*
X126673598Y-123190332D01*
X126578360Y-123237951D01*
X126245026Y-123237951D01*
X127245026Y-122761760D02*
X127245026Y-123571284D01*
X127292645Y-123666522D01*
X127340264Y-123714141D01*
X127435502Y-123761760D01*
X127625979Y-123761760D01*
X127721217Y-123714141D01*
X127768836Y-123666522D01*
X127816455Y-123571284D01*
X127816455Y-122761760D01*
X128816455Y-122809380D02*
X128721217Y-122761760D01*
X128578360Y-122761760D01*
X128435502Y-122809380D01*
X128340264Y-122904618D01*
X128292645Y-122999856D01*
X128245026Y-123190332D01*
X128245026Y-123333189D01*
X128292645Y-123523665D01*
X128340264Y-123618903D01*
X128435502Y-123714141D01*
X128578360Y-123761760D01*
X128673598Y-123761760D01*
X128816455Y-123714141D01*
X128864074Y-123666522D01*
X128864074Y-123333189D01*
X128673598Y-123333189D01*
D12*
X118260211Y-73014371D02*
X118860211Y-73014371D01*
X118431640Y-73214371D01*
X118860211Y-73414371D01*
X118260211Y-73414371D01*
X118431640Y-73671514D02*
X118431640Y-73957228D01*
X118260211Y-73614371D02*
X118860211Y-73814371D01*
X118260211Y-74014371D01*
X118860211Y-74157228D02*
X118260211Y-74557228D01*
X118860211Y-74557228D02*
X118260211Y-74157228D01*
X118860211Y-74728657D02*
X118860211Y-75100085D01*
X118631640Y-74900085D01*
X118631640Y-74985800D01*
X118603068Y-75042942D01*
X118574497Y-75071514D01*
X118517354Y-75100085D01*
X118374497Y-75100085D01*
X118317354Y-75071514D01*
X118288782Y-75042942D01*
X118260211Y-74985800D01*
X118260211Y-74814371D01*
X118288782Y-74757228D01*
X118317354Y-74728657D01*
X118260211Y-75671514D02*
X118260211Y-75328657D01*
X118260211Y-75500085D02*
X118860211Y-75500085D01*
X118774497Y-75442942D01*
X118717354Y-75385800D01*
X118688782Y-75328657D01*
X118603068Y-76014371D02*
X118631640Y-75957228D01*
X118660211Y-75928657D01*
X118717354Y-75900085D01*
X118745925Y-75900085D01*
X118803068Y-75928657D01*
X118831640Y-75957228D01*
X118860211Y-76014371D01*
X118860211Y-76128657D01*
X118831640Y-76185800D01*
X118803068Y-76214371D01*
X118745925Y-76242942D01*
X118717354Y-76242942D01*
X118660211Y-76214371D01*
X118631640Y-76185800D01*
X118603068Y-76128657D01*
X118603068Y-76014371D01*
X118574497Y-75957228D01*
X118545925Y-75928657D01*
X118488782Y-75900085D01*
X118374497Y-75900085D01*
X118317354Y-75928657D01*
X118288782Y-75957228D01*
X118260211Y-76014371D01*
X118260211Y-76128657D01*
X118288782Y-76185800D01*
X118317354Y-76214371D01*
X118374497Y-76242942D01*
X118488782Y-76242942D01*
X118545925Y-76214371D01*
X118574497Y-76185800D01*
X118603068Y-76128657D01*
X118860211Y-76785800D02*
X118860211Y-76500085D01*
X118574497Y-76471514D01*
X118603068Y-76500085D01*
X118631640Y-76557228D01*
X118631640Y-76700085D01*
X118603068Y-76757228D01*
X118574497Y-76785800D01*
X118517354Y-76814371D01*
X118374497Y-76814371D01*
X118317354Y-76785800D01*
X118288782Y-76757228D01*
X118260211Y-76700085D01*
X118260211Y-76557228D01*
X118288782Y-76500085D01*
X118317354Y-76471514D01*
X118860211Y-77357228D02*
X118860211Y-77071514D01*
X118574497Y-77042942D01*
X118603068Y-77071514D01*
X118631640Y-77128657D01*
X118631640Y-77271514D01*
X118603068Y-77328657D01*
X118574497Y-77357228D01*
X118517354Y-77385800D01*
X118374497Y-77385800D01*
X118317354Y-77357228D01*
X118288782Y-77328657D01*
X118260211Y-77271514D01*
X118260211Y-77128657D01*
X118288782Y-77071514D01*
X118317354Y-77042942D01*
X118260211Y-77642942D02*
X118860211Y-77642942D01*
X118260211Y-77985800D02*
X118603068Y-77728657D01*
X118860211Y-77985800D02*
X118517354Y-77642942D01*
X118431640Y-78214371D02*
X118431640Y-78500085D01*
X118260211Y-78157228D02*
X118860211Y-78357228D01*
X118260211Y-78557228D01*
X118288782Y-78728657D02*
X118260211Y-78814371D01*
X118260211Y-78957228D01*
X118288782Y-79014371D01*
X118317354Y-79042942D01*
X118374497Y-79071514D01*
X118431640Y-79071514D01*
X118488782Y-79042942D01*
X118517354Y-79014371D01*
X118545925Y-78957228D01*
X118574497Y-78842942D01*
X118603068Y-78785800D01*
X118631640Y-78757228D01*
X118688782Y-78728657D01*
X118745925Y-78728657D01*
X118803068Y-78757228D01*
X118831640Y-78785800D01*
X118860211Y-78842942D01*
X118860211Y-78985800D01*
X118831640Y-79071514D01*
X118431640Y-79300085D02*
X118431640Y-79585800D01*
X118260211Y-79242942D02*
X118860211Y-79442942D01*
X118260211Y-79642942D01*
X118488782Y-79842942D02*
X118488782Y-80300085D01*
X118260211Y-80071514D02*
X118717354Y-80071514D01*
X118860211Y-80500085D02*
X118860211Y-80842942D01*
X118260211Y-80671514D02*
X118860211Y-80671514D01*
D10*
X168797622Y-116917220D02*
X168321432Y-116917220D01*
X168273813Y-117393411D01*
X168321432Y-117345792D01*
X168416670Y-117298173D01*
X168654765Y-117298173D01*
X168750003Y-117345792D01*
X168797622Y-117393411D01*
X168845241Y-117488649D01*
X168845241Y-117726744D01*
X168797622Y-117821982D01*
X168750003Y-117869601D01*
X168654765Y-117917220D01*
X168416670Y-117917220D01*
X168321432Y-117869601D01*
X168273813Y-117821982D01*
X169178575Y-117250554D02*
X169416670Y-117917220D01*
X169654765Y-117250554D01*
X171695288Y-116871500D02*
X172314336Y-116871500D01*
X171981002Y-117252453D01*
X172123860Y-117252453D01*
X172219098Y-117300072D01*
X172266717Y-117347691D01*
X172314336Y-117442929D01*
X172314336Y-117681024D01*
X172266717Y-117776262D01*
X172219098Y-117823881D01*
X172123860Y-117871500D01*
X171838145Y-117871500D01*
X171742907Y-117823881D01*
X171695288Y-117776262D01*
X172742907Y-117776262D02*
X172790526Y-117823881D01*
X172742907Y-117871500D01*
X172695288Y-117823881D01*
X172742907Y-117776262D01*
X172742907Y-117871500D01*
X173123860Y-116871500D02*
X173742907Y-116871500D01*
X173409574Y-117252453D01*
X173552431Y-117252453D01*
X173647669Y-117300072D01*
X173695288Y-117347691D01*
X173742907Y-117442929D01*
X173742907Y-117681024D01*
X173695288Y-117776262D01*
X173647669Y-117823881D01*
X173552431Y-117871500D01*
X173266717Y-117871500D01*
X173171479Y-117823881D01*
X173123860Y-117776262D01*
X174076240Y-117204834D02*
X174314336Y-117871500D01*
X174552431Y-117204834D01*
X179884604Y-78410701D02*
X180027461Y-78458320D01*
X180265557Y-78458320D01*
X180360795Y-78410701D01*
X180408414Y-78363082D01*
X180456033Y-78267844D01*
X180456033Y-78172606D01*
X180408414Y-78077368D01*
X180360795Y-78029749D01*
X180265557Y-77982130D01*
X180075080Y-77934511D01*
X179979842Y-77886892D01*
X179932223Y-77839273D01*
X179884604Y-77744035D01*
X179884604Y-77648797D01*
X179932223Y-77553559D01*
X179979842Y-77505940D01*
X180075080Y-77458320D01*
X180313176Y-77458320D01*
X180456033Y-77505940D01*
X180836985Y-78410701D02*
X180979842Y-78458320D01*
X181217938Y-78458320D01*
X181313176Y-78410701D01*
X181360795Y-78363082D01*
X181408414Y-78267844D01*
X181408414Y-78172606D01*
X181360795Y-78077368D01*
X181313176Y-78029749D01*
X181217938Y-77982130D01*
X181027461Y-77934511D01*
X180932223Y-77886892D01*
X180884604Y-77839273D01*
X180836985Y-77744035D01*
X180836985Y-77648797D01*
X180884604Y-77553559D01*
X180932223Y-77505940D01*
X181027461Y-77458320D01*
X181265557Y-77458320D01*
X181408414Y-77505940D01*
X182408414Y-78458320D02*
X182075080Y-77982130D01*
X181836985Y-78458320D02*
X181836985Y-77458320D01*
X182217938Y-77458320D01*
X182313176Y-77505940D01*
X182360795Y-77553559D01*
X182408414Y-77648797D01*
X182408414Y-77791654D01*
X182360795Y-77886892D01*
X182313176Y-77934511D01*
X182217938Y-77982130D01*
X181836985Y-77982130D01*
X182741747Y-77458320D02*
X183360795Y-77458320D01*
X183027461Y-77839273D01*
X183170319Y-77839273D01*
X183265557Y-77886892D01*
X183313176Y-77934511D01*
X183360795Y-78029749D01*
X183360795Y-78267844D01*
X183313176Y-78363082D01*
X183265557Y-78410701D01*
X183170319Y-78458320D01*
X182884604Y-78458320D01*
X182789366Y-78410701D01*
X182741747Y-78363082D01*
X106694219Y-58860371D02*
X106694219Y-59431800D01*
X105694219Y-59146085D02*
X106694219Y-59146085D01*
X105694219Y-59765133D02*
X106694219Y-59765133D01*
X105694219Y-60193704D02*
X106218028Y-60193704D01*
X106313266Y-60146085D01*
X106360885Y-60050847D01*
X106360885Y-59907990D01*
X106313266Y-59812752D01*
X106265647Y-59765133D01*
X105741838Y-61050847D02*
X105694219Y-60955609D01*
X105694219Y-60765133D01*
X105741838Y-60669895D01*
X105837076Y-60622276D01*
X106218028Y-60622276D01*
X106313266Y-60669895D01*
X106360885Y-60765133D01*
X106360885Y-60955609D01*
X106313266Y-61050847D01*
X106218028Y-61098466D01*
X106122790Y-61098466D01*
X106027552Y-60622276D01*
X105694219Y-61527038D02*
X106360885Y-61527038D01*
X106170409Y-61527038D02*
X106265647Y-61574657D01*
X106313266Y-61622276D01*
X106360885Y-61717514D01*
X106360885Y-61812752D01*
X105694219Y-62146085D02*
X106360885Y-62146085D01*
X106265647Y-62146085D02*
X106313266Y-62193704D01*
X106360885Y-62288942D01*
X106360885Y-62431800D01*
X106313266Y-62527038D01*
X106218028Y-62574657D01*
X105694219Y-62574657D01*
X106218028Y-62574657D02*
X106313266Y-62622276D01*
X106360885Y-62717514D01*
X106360885Y-62860371D01*
X106313266Y-62955609D01*
X106218028Y-63003228D01*
X105694219Y-63003228D01*
X105694219Y-63622276D02*
X105741838Y-63527038D01*
X105789457Y-63479419D01*
X105884695Y-63431800D01*
X106170409Y-63431800D01*
X106265647Y-63479419D01*
X106313266Y-63527038D01*
X106360885Y-63622276D01*
X106360885Y-63765133D01*
X106313266Y-63860371D01*
X106265647Y-63907990D01*
X106170409Y-63955609D01*
X105884695Y-63955609D01*
X105789457Y-63907990D01*
X105741838Y-63860371D01*
X105694219Y-63765133D01*
X105694219Y-63622276D01*
X105741838Y-64812752D02*
X105694219Y-64717514D01*
X105694219Y-64527038D01*
X105741838Y-64431800D01*
X105789457Y-64384180D01*
X105884695Y-64336561D01*
X106170409Y-64336561D01*
X106265647Y-64384180D01*
X106313266Y-64431800D01*
X106360885Y-64527038D01*
X106360885Y-64717514D01*
X106313266Y-64812752D01*
X105694219Y-65384180D02*
X105741838Y-65288942D01*
X105789457Y-65241323D01*
X105884695Y-65193704D01*
X106170409Y-65193704D01*
X106265647Y-65241323D01*
X106313266Y-65288942D01*
X106360885Y-65384180D01*
X106360885Y-65527038D01*
X106313266Y-65622276D01*
X106265647Y-65669895D01*
X106170409Y-65717514D01*
X105884695Y-65717514D01*
X105789457Y-65669895D01*
X105741838Y-65622276D01*
X105694219Y-65527038D01*
X105694219Y-65384180D01*
X106360885Y-66574657D02*
X105694219Y-66574657D01*
X106360885Y-66146085D02*
X105837076Y-66146085D01*
X105741838Y-66193704D01*
X105694219Y-66288942D01*
X105694219Y-66431800D01*
X105741838Y-66527038D01*
X105789457Y-66574657D01*
X106360885Y-67050847D02*
X105360885Y-67050847D01*
X106313266Y-67050847D02*
X106360885Y-67146085D01*
X106360885Y-67336561D01*
X106313266Y-67431800D01*
X106265647Y-67479419D01*
X106170409Y-67527038D01*
X105884695Y-67527038D01*
X105789457Y-67479419D01*
X105741838Y-67431800D01*
X105694219Y-67336561D01*
X105694219Y-67146085D01*
X105741838Y-67050847D01*
X105694219Y-68098466D02*
X105741838Y-68003228D01*
X105837076Y-67955609D01*
X106694219Y-67955609D01*
X105741838Y-68860371D02*
X105694219Y-68765133D01*
X105694219Y-68574657D01*
X105741838Y-68479419D01*
X105837076Y-68431800D01*
X106218028Y-68431800D01*
X106313266Y-68479419D01*
X106360885Y-68574657D01*
X106360885Y-68765133D01*
X106313266Y-68860371D01*
X106218028Y-68907990D01*
X106122790Y-68907990D01*
X106027552Y-68431800D01*
X139060419Y-123497600D02*
X138727085Y-123021410D01*
X138488990Y-123497600D02*
X138488990Y-122497600D01*
X138869942Y-122497600D01*
X138965180Y-122545220D01*
X139012800Y-122592839D01*
X139060419Y-122688077D01*
X139060419Y-122830934D01*
X139012800Y-122926172D01*
X138965180Y-122973791D01*
X138869942Y-123021410D01*
X138488990Y-123021410D01*
X139488990Y-122973791D02*
X139822323Y-122973791D01*
X139965180Y-123497600D02*
X139488990Y-123497600D01*
X139488990Y-122497600D01*
X139965180Y-122497600D01*
X140346133Y-123449981D02*
X140488990Y-123497600D01*
X140727085Y-123497600D01*
X140822323Y-123449981D01*
X140869942Y-123402362D01*
X140917561Y-123307124D01*
X140917561Y-123211886D01*
X140869942Y-123116648D01*
X140822323Y-123069029D01*
X140727085Y-123021410D01*
X140536609Y-122973791D01*
X140441371Y-122926172D01*
X140393752Y-122878553D01*
X140346133Y-122783315D01*
X140346133Y-122688077D01*
X140393752Y-122592839D01*
X140441371Y-122545220D01*
X140536609Y-122497600D01*
X140774704Y-122497600D01*
X140917561Y-122545220D01*
X141346133Y-122973791D02*
X141679466Y-122973791D01*
X141822323Y-123497600D02*
X141346133Y-123497600D01*
X141346133Y-122497600D01*
X141822323Y-122497600D01*
X142108038Y-122497600D02*
X142679466Y-122497600D01*
X142393752Y-123497600D02*
X142393752Y-122497600D01*
D13*
X96955812Y-71997534D02*
X96917717Y-72035629D01*
X96803431Y-72073724D01*
X96727240Y-72073724D01*
X96612955Y-72035629D01*
X96536764Y-71959439D01*
X96498669Y-71883248D01*
X96460574Y-71730867D01*
X96460574Y-71616581D01*
X96498669Y-71464200D01*
X96536764Y-71388010D01*
X96612955Y-71311820D01*
X96727240Y-71273724D01*
X96803431Y-71273724D01*
X96917717Y-71311820D01*
X96955812Y-71349915D01*
X97679621Y-72073724D02*
X97298669Y-72073724D01*
X97298669Y-71273724D01*
X97946288Y-72073724D02*
X97946288Y-71273724D01*
X98403431Y-72073724D02*
X98060574Y-71616581D01*
X98403431Y-71273724D02*
X97946288Y-71730867D01*
X98898669Y-71273724D02*
X99051050Y-71273724D01*
X99127240Y-71311820D01*
X99203431Y-71388010D01*
X99241526Y-71540391D01*
X99241526Y-71807058D01*
X99203431Y-71959439D01*
X99127240Y-72035629D01*
X99051050Y-72073724D01*
X98898669Y-72073724D01*
X98822479Y-72035629D01*
X98746288Y-71959439D01*
X98708193Y-71807058D01*
X98708193Y-71540391D01*
X98746288Y-71388010D01*
X98822479Y-71311820D01*
X98898669Y-71273724D01*
X99584383Y-71273724D02*
X99584383Y-71921343D01*
X99622479Y-71997534D01*
X99660574Y-72035629D01*
X99736764Y-72073724D01*
X99889145Y-72073724D01*
X99965336Y-72035629D01*
X100003431Y-71997534D01*
X100041526Y-71921343D01*
X100041526Y-71273724D01*
X100308193Y-71273724D02*
X100765336Y-71273724D01*
X100536764Y-72073724D02*
X100536764Y-71273724D01*
D14*
X152781502Y-122723980D02*
X153298658Y-122723980D01*
X152781502Y-121303980D02*
X153298658Y-121303980D01*
X152870402Y-116264760D02*
X153387558Y-116264760D01*
X152870402Y-114844760D02*
X153387558Y-114844760D01*
X96909122Y-114037180D02*
X97426278Y-114037180D01*
X96909122Y-112617180D02*
X97426278Y-112617180D01*
X166243219Y-93708760D02*
X165917661Y-93708760D01*
X166243219Y-94728760D02*
X165917661Y-94728760D01*
X166194959Y-96713580D02*
X165869401Y-96713580D01*
X166194959Y-97733580D02*
X165869401Y-97733580D01*
X176113440Y-105705600D02*
X177443440Y-105705600D01*
X177443440Y-105705600D02*
X177443440Y-107035600D01*
X174843440Y-105705600D02*
X174843440Y-108305600D01*
X174843440Y-108305600D02*
X177443440Y-108305600D01*
X177443440Y-108305600D02*
X177443440Y-108365600D01*
X172243440Y-108365600D02*
X177443440Y-108365600D01*
X172243440Y-105705600D02*
X172243440Y-108365600D01*
X172243440Y-105705600D02*
X174843440Y-105705600D01*
X166842440Y-105563360D02*
X168172440Y-105563360D01*
X168172440Y-105563360D02*
X168172440Y-106893360D01*
X165572440Y-105563360D02*
X165572440Y-108163360D01*
X165572440Y-108163360D02*
X168172440Y-108163360D01*
X168172440Y-108163360D02*
X168172440Y-108223360D01*
X162972440Y-108223360D02*
X168172440Y-108223360D01*
X162972440Y-105563360D02*
X162972440Y-108223360D01*
X162972440Y-105563360D02*
X165572440Y-105563360D01*
X122632040Y-99288960D02*
X120182040Y-99288960D01*
X120832040Y-102508960D02*
X122632040Y-102508960D01*
X162585940Y-72849521D02*
X162585940Y-73175079D01*
X163605940Y-72849521D02*
X163605940Y-73175079D01*
X160385541Y-69130640D02*
X160711099Y-69130640D01*
X160385541Y-68110640D02*
X160711099Y-68110640D01*
X144744980Y-72961281D02*
X144744980Y-73286839D01*
X145764980Y-72961281D02*
X145764980Y-73286839D01*
X142717301Y-69123020D02*
X143042859Y-69123020D01*
X142717301Y-68103020D02*
X143042859Y-68103020D01*
X164861780Y-71145520D02*
X163401780Y-71145520D01*
X164861780Y-67985520D02*
X162701780Y-67985520D01*
X164861780Y-67985520D02*
X164861780Y-68915520D01*
X164861780Y-71145520D02*
X164861780Y-70215520D01*
X147018280Y-71142980D02*
X145558280Y-71142980D01*
X147018280Y-67982980D02*
X144858280Y-67982980D01*
X147018280Y-67982980D02*
X147018280Y-68912980D01*
X147018280Y-71142980D02*
X147018280Y-70212980D01*
X157293660Y-66126700D02*
X157793660Y-66126700D01*
X157293660Y-65386700D02*
X157293660Y-66126700D01*
X163866660Y-62249700D02*
X163819660Y-62295700D01*
X166163660Y-59951700D02*
X166128660Y-59987700D01*
X164059660Y-62465700D02*
X164024660Y-62500700D01*
X166368660Y-60157700D02*
X166321660Y-60203700D01*
X167653660Y-55965700D02*
X167653660Y-65886700D01*
X157533660Y-55965700D02*
X157533660Y-65886700D01*
X157533660Y-65886700D02*
X167653660Y-65886700D01*
X157533660Y-55965700D02*
X167653660Y-55965700D01*
X157533660Y-58925700D02*
X167653660Y-58925700D01*
X157533660Y-63826700D02*
X167653660Y-63826700D01*
X157533660Y-65326700D02*
X167653660Y-65326700D01*
X166773660Y-61226700D02*
G75*
G03X166773660Y-61226700I-1680000J0D01*
G01*
X160122465Y-62906953D02*
G75*
G02X159409660Y-62761700I-28805J1680253D01*
G01*
X158558234Y-61909742D02*
G75*
G02X158558660Y-60542700I1535426J683042D01*
G01*
X159410618Y-59691274D02*
G75*
G02X160777660Y-59691700I683042J-1535426D01*
G01*
X161629086Y-60543658D02*
G75*
G02X161628660Y-61910700I-1535426J-683042D01*
G01*
X160776978Y-62761456D02*
G75*
G02X160093660Y-62906700I-683318J1534756D01*
G01*
X139460320Y-66096220D02*
X139960320Y-66096220D01*
X139460320Y-65356220D02*
X139460320Y-66096220D01*
X146033320Y-62219220D02*
X145986320Y-62265220D01*
X148330320Y-59921220D02*
X148295320Y-59957220D01*
X146226320Y-62435220D02*
X146191320Y-62470220D01*
X148535320Y-60127220D02*
X148488320Y-60173220D01*
X149820320Y-55935220D02*
X149820320Y-65856220D01*
X139700320Y-55935220D02*
X139700320Y-65856220D01*
X139700320Y-65856220D02*
X149820320Y-65856220D01*
X139700320Y-55935220D02*
X149820320Y-55935220D01*
X139700320Y-58895220D02*
X149820320Y-58895220D01*
X139700320Y-63796220D02*
X149820320Y-63796220D01*
X139700320Y-65296220D02*
X149820320Y-65296220D01*
X148940320Y-61196220D02*
G75*
G03X148940320Y-61196220I-1680000J0D01*
G01*
X142289125Y-62876473D02*
G75*
G02X141576320Y-62731220I-28805J1680253D01*
G01*
X140724894Y-61879262D02*
G75*
G02X140725320Y-60512220I1535426J683042D01*
G01*
X141577278Y-59660794D02*
G75*
G02X142944320Y-59661220I683042J-1535426D01*
G01*
X143795746Y-60513178D02*
G75*
G02X143795320Y-61880220I-1535426J-683042D01*
G01*
X142943638Y-62730976D02*
G75*
G02X142260320Y-62876220I-683318J1534756D01*
G01*
X116870600Y-64949800D02*
X116870600Y-66409800D01*
X113710600Y-64949800D02*
X113710600Y-67109800D01*
X113710600Y-64949800D02*
X114640600Y-64949800D01*
X116870600Y-64949800D02*
X115940600Y-64949800D01*
X117413821Y-69267800D02*
X117739379Y-69267800D01*
X117413821Y-68247800D02*
X117739379Y-68247800D01*
X113167379Y-68247800D02*
X112841821Y-68247800D01*
X113167379Y-69267800D02*
X112841821Y-69267800D01*
X108684600Y-74437021D02*
X108684600Y-74762579D01*
X109704600Y-74437021D02*
X109704600Y-74762579D01*
X115127821Y-72315800D02*
X115453379Y-72315800D01*
X115127821Y-71295800D02*
X115453379Y-71295800D01*
D15*
X123058380Y-67765800D02*
X107558380Y-67765800D01*
X107558380Y-51765800D02*
X123058380Y-51765800D01*
X108458380Y-72565800D02*
X122158380Y-72565800D01*
X122158380Y-72565800D02*
X122158380Y-71715800D01*
X122158380Y-67765800D02*
X122158380Y-68415800D01*
X108458380Y-72565800D02*
X108458380Y-71715800D01*
X108458380Y-67765800D02*
X108458380Y-68415800D01*
X107558380Y-67765800D02*
X107558380Y-58215800D01*
X107558380Y-51765800D02*
X107558380Y-54915800D01*
X123058380Y-51765800D02*
X123058380Y-54915800D01*
X123058380Y-67765800D02*
X123058380Y-58215800D01*
X115308380Y-67815800D02*
X115308380Y-69615800D01*
D14*
X129271880Y-97137320D02*
X126871880Y-97137320D01*
X129271880Y-98737320D02*
X129271880Y-97137320D01*
X126871880Y-98737320D02*
X129271880Y-98737320D01*
X174083440Y-110601979D02*
X174083440Y-110276421D01*
X173063440Y-110601979D02*
X173063440Y-110276421D01*
X164794660Y-110269239D02*
X164794660Y-109943681D01*
X163774660Y-110269239D02*
X163774660Y-109943681D01*
X172986481Y-101297200D02*
X173312039Y-101297200D01*
X172986481Y-100277200D02*
X173312039Y-100277200D01*
X176390081Y-101302280D02*
X176715639Y-101302280D01*
X176390081Y-100282280D02*
X176715639Y-100282280D01*
X175973621Y-110161800D02*
X176299179Y-110161800D01*
X175973621Y-109141800D02*
X176299179Y-109141800D01*
X166400261Y-109829060D02*
X166725819Y-109829060D01*
X166400261Y-108809060D02*
X166725819Y-108809060D01*
X170581860Y-79570361D02*
X170581860Y-79895919D01*
X171601860Y-79570361D02*
X171601860Y-79895919D01*
D15*
X172226300Y-82299020D02*
G75*
G02X172426300Y-82299020I100000J0D01*
G01*
X172426300Y-82299020D02*
G75*
G02X172226300Y-82299020I-100000J0D01*
G01*
D12*
X180726300Y-84599020D02*
X180726300Y-88399020D01*
X178226300Y-84599020D02*
X180726300Y-84599020D01*
X168926300Y-84599020D02*
X171426300Y-84599020D01*
X168926300Y-88399020D02*
X168926300Y-84599020D01*
D15*
X172426300Y-82299020D02*
X172426300Y-82299020D01*
X172226300Y-82299020D02*
X172226300Y-82299020D01*
D12*
X180726300Y-96599020D02*
X180726300Y-92799020D01*
X168926300Y-96599020D02*
X180726300Y-96599020D01*
X168926300Y-92799020D02*
X168926300Y-96599020D01*
D14*
X173662880Y-76684921D02*
X173662880Y-77010479D01*
X174682880Y-76684921D02*
X174682880Y-77010479D01*
X171795221Y-73141300D02*
X172120779Y-73141300D01*
X171795221Y-72121300D02*
X172120779Y-72121300D01*
X175938720Y-75168880D02*
X174478720Y-75168880D01*
X175938720Y-72008880D02*
X173778720Y-72008880D01*
X175938720Y-72008880D02*
X175938720Y-72938880D01*
X175938720Y-75168880D02*
X175938720Y-74238880D01*
X177218000Y-65780000D02*
X177218000Y-66280000D01*
X177958000Y-65780000D02*
X177218000Y-65780000D01*
X181095000Y-72353000D02*
X181049000Y-72306000D01*
X183393000Y-74650000D02*
X183357000Y-74615000D01*
X180879000Y-72546000D02*
X180844000Y-72511000D01*
X183187000Y-74855000D02*
X183141000Y-74808000D01*
X187379000Y-76140000D02*
X177458000Y-76140000D01*
X187379000Y-66020000D02*
X177458000Y-66020000D01*
X177458000Y-66020000D02*
X177458000Y-76140000D01*
X187379000Y-66020000D02*
X187379000Y-76140000D01*
X184419000Y-66020000D02*
X184419000Y-76140000D01*
X179518000Y-66020000D02*
X179518000Y-76140000D01*
X178018000Y-66020000D02*
X178018000Y-76140000D01*
X183798000Y-73580000D02*
G75*
G03X183798000Y-73580000I-1680000J0D01*
G01*
X180437747Y-68608805D02*
G75*
G02X180583000Y-67896000I1680253J28805D01*
G01*
X181434958Y-67044574D02*
G75*
G02X182802000Y-67045000I683042J-1535426D01*
G01*
X183653426Y-67896958D02*
G75*
G02X183653000Y-69264000I-1535426J-683042D01*
G01*
X182801042Y-70115426D02*
G75*
G02X181434000Y-70115000I-683042J1535426D01*
G01*
X180583244Y-69263318D02*
G75*
G02X180438000Y-68580000I1534756J683318D01*
G01*
X174220000Y-120502680D02*
G75*
G03X174220000Y-120502680I-1500000J0D01*
G01*
X144201420Y-117462081D02*
X144201420Y-117787639D01*
X145221420Y-117462081D02*
X145221420Y-117787639D01*
X145446420Y-122284860D02*
X145446420Y-119999860D01*
X143976420Y-122284860D02*
X145446420Y-122284860D01*
X143976420Y-119999860D02*
X143976420Y-122284860D01*
X158875520Y-117327980D02*
X158875520Y-116112980D01*
X158935520Y-121287980D02*
X158935520Y-123547980D01*
X159435520Y-121287980D02*
X159435520Y-123547980D01*
X162035520Y-119687980D02*
X163035520Y-119687980D01*
X162035520Y-121287980D02*
X162035520Y-119687980D01*
X163035520Y-121287980D02*
X162035520Y-121287980D01*
X163035520Y-119687980D02*
X163035520Y-121287980D01*
X159435520Y-119687980D02*
X158435520Y-119687980D01*
X159435520Y-121287980D02*
X159435520Y-119687980D01*
X158435520Y-121287980D02*
X159435520Y-121287980D01*
X158435520Y-119687980D02*
X158435520Y-121287980D01*
X163795520Y-117327980D02*
X162875520Y-117327980D01*
X157675520Y-117327980D02*
X158595520Y-117327980D01*
X161235520Y-119187980D02*
X161235520Y-123547980D01*
X160235520Y-119187980D02*
X161235520Y-119187980D01*
X160235520Y-123547980D02*
X160235520Y-119187980D01*
X162875520Y-117327980D02*
X162595520Y-117327980D01*
X162875520Y-115727980D02*
X162875520Y-117327980D01*
X163795520Y-115727980D02*
X162875520Y-115727980D01*
X163795520Y-123547980D02*
X163795520Y-115727980D01*
X157675520Y-123547980D02*
X163795520Y-123547980D01*
X157675520Y-115727980D02*
X157675520Y-123547980D01*
X158595520Y-115727980D02*
X157675520Y-115727980D01*
X158595520Y-117327980D02*
X158595520Y-115727980D01*
X158875520Y-117327980D02*
X158595520Y-117327980D01*
X135414000Y-98978620D02*
X135414000Y-99378620D01*
X135614000Y-98978620D02*
X135614000Y-99378620D01*
X139214000Y-98978620D02*
X139214000Y-99378620D01*
X135414000Y-96978620D02*
X135414000Y-98978620D01*
X136614000Y-99378620D02*
X136614000Y-99778620D01*
X136614000Y-99378620D02*
X135614000Y-99378620D01*
X135614000Y-98978620D02*
X135614000Y-96978620D01*
X135614000Y-96978620D02*
X136614000Y-96978620D01*
X138414000Y-96978620D02*
X139214000Y-96978620D01*
X139214000Y-96978620D02*
X139214000Y-98978620D01*
X139214000Y-99378620D02*
X138414000Y-99378620D01*
X130058240Y-117277180D02*
X130123240Y-117277180D01*
X130058240Y-120807180D02*
X130123240Y-120807180D01*
X123653240Y-117277180D02*
X123718240Y-117277180D01*
X123653240Y-120807180D02*
X123718240Y-120807180D01*
X123718240Y-122132180D02*
X123718240Y-120807180D01*
X130123240Y-120807180D02*
X130123240Y-117277180D01*
X123653240Y-120807180D02*
X123653240Y-117277180D01*
X117827740Y-76250800D02*
X117827740Y-72800800D01*
X117827740Y-76250800D02*
X117827740Y-78200800D01*
X112707740Y-76250800D02*
X112707740Y-74300800D01*
X112707740Y-76250800D02*
X112707740Y-78200800D01*
X126589000Y-84493620D02*
X125249000Y-84493620D01*
X126589000Y-83543620D02*
X126589000Y-84493620D01*
X127539000Y-83543620D02*
X126589000Y-83543620D01*
X136809000Y-83543620D02*
X136809000Y-84493620D01*
X135859000Y-83543620D02*
X136809000Y-83543620D01*
X126589000Y-93763620D02*
X126589000Y-92813620D01*
X127539000Y-93763620D02*
X126589000Y-93763620D01*
X136809000Y-93763620D02*
X136809000Y-92813620D01*
X135859000Y-93763620D02*
X136809000Y-93763620D01*
X99599880Y-74137520D02*
G75*
G03X99599880Y-74137520I-1500000J0D01*
G01*
X178284000Y-120502680D02*
G75*
G03X178284000Y-120502680I-1500000J0D01*
G01*
X170430320Y-120502680D02*
G75*
G03X170430320Y-120502680I-1500000J0D01*
G01*
X138901700Y-117037760D02*
X138901700Y-121437760D01*
X138901700Y-121437760D02*
X139021700Y-121437760D01*
X140031700Y-121437760D02*
X141171700Y-121437760D01*
X142181700Y-121437760D02*
X142301700Y-121437760D01*
X142301700Y-121437760D02*
X142301700Y-117037760D01*
X142301700Y-117037760D02*
X142181700Y-117037760D01*
X141171700Y-117037760D02*
X140031700Y-117037760D01*
X139021700Y-117037760D02*
X138901700Y-117037760D01*
X146868420Y-117462081D02*
X146868420Y-117787639D01*
X147888420Y-117462081D02*
X147888420Y-117787639D01*
X141166120Y-114254061D02*
X141166120Y-114579619D01*
X142186120Y-114254061D02*
X142186120Y-114579619D01*
X119701540Y-90791540D02*
X118301540Y-90791540D01*
X117601540Y-90091540D02*
X117601540Y-89491540D01*
X118301540Y-88791540D02*
X119701540Y-88791540D01*
X120401540Y-89491540D02*
X120401540Y-90091540D01*
X120401540Y-90091540D02*
G75*
G02X119701540Y-90791540I-700000J0D01*
G01*
X119701540Y-88791540D02*
G75*
G02X120401540Y-89491540I0J-700000D01*
G01*
X117601540Y-89491540D02*
G75*
G02X118301540Y-88791540I700000J0D01*
G01*
X118301540Y-90791540D02*
G75*
G02X117601540Y-90091540I0J700000D01*
G01*
X94080020Y-103585520D02*
X94340020Y-103585520D01*
X96620020Y-103585520D02*
X98390020Y-103585520D01*
X98390020Y-103585520D02*
X98390020Y-103965520D01*
X98390020Y-111205520D02*
X96620020Y-111205520D01*
X94340020Y-111205520D02*
X94080020Y-111205520D01*
X98390020Y-111205520D02*
X98390020Y-110825520D01*
X148136280Y-122274800D02*
X148136280Y-119989800D01*
X146666280Y-122274800D02*
X148136280Y-122274800D01*
X146666280Y-119989800D02*
X146666280Y-122274800D01*
X104933600Y-103080220D02*
X101983600Y-103080220D01*
X102533600Y-106180220D02*
X104933600Y-106180220D01*
X150385240Y-116911000D02*
X151845240Y-116911000D01*
X150385240Y-120071000D02*
X152545240Y-120071000D01*
X150385240Y-120071000D02*
X150385240Y-119141000D01*
X150385240Y-116911000D02*
X150385240Y-117841000D01*
D16*
X116456000Y-117729000D02*
X116456000Y-110129000D01*
X105156000Y-110129000D02*
X116456000Y-110129000D01*
X105156000Y-117729000D02*
X105156000Y-110129000D01*
X105156000Y-117729000D02*
X116456000Y-117729000D01*
X106666000Y-111919000D02*
X106666000Y-116429000D01*
X106666000Y-116429000D02*
X114606000Y-116429000D01*
X114606000Y-116429000D02*
X114606000Y-111919000D01*
X114606000Y-111919000D02*
X106666000Y-111919000D01*
D14*
X110820740Y-74437021D02*
X110820740Y-74762579D01*
X111840740Y-74437021D02*
X111840740Y-74762579D01*
X125453359Y-95489300D02*
X125127801Y-95489300D01*
X125453359Y-96509300D02*
X125127801Y-96509300D01*
X123098779Y-84206620D02*
X122773221Y-84206620D01*
X123098779Y-85226620D02*
X122773221Y-85226620D01*
X133475000Y-97888841D02*
X133475000Y-98214399D01*
X134495000Y-97888841D02*
X134495000Y-98214399D01*
X139977400Y-83741041D02*
X139977400Y-84066599D01*
X140997400Y-83741041D02*
X140997400Y-84066599D01*
X119134160Y-92371961D02*
X119134160Y-92697519D01*
X120154160Y-92371961D02*
X120154160Y-92697519D01*
X110144779Y-107694000D02*
X109819221Y-107694000D01*
X110144779Y-108714000D02*
X109819221Y-108714000D01*
X122807000Y-90649841D02*
X122807000Y-90975399D01*
X123827000Y-90649841D02*
X123827000Y-90975399D01*
X138063700Y-119527539D02*
X138063700Y-119201981D01*
X137043700Y-119527539D02*
X137043700Y-119201981D01*
D10*
X155305522Y-122444782D02*
X155257903Y-122492401D01*
X155115046Y-122540020D01*
X155019808Y-122540020D01*
X154876951Y-122492401D01*
X154781713Y-122397163D01*
X154734094Y-122301925D01*
X154686475Y-122111449D01*
X154686475Y-121968592D01*
X154734094Y-121778116D01*
X154781713Y-121682878D01*
X154876951Y-121587640D01*
X155019808Y-121540020D01*
X155115046Y-121540020D01*
X155257903Y-121587640D01*
X155305522Y-121635259D01*
X156257903Y-122540020D02*
X155686475Y-122540020D01*
X155972189Y-122540020D02*
X155972189Y-121540020D01*
X155876951Y-121682878D01*
X155781713Y-121778116D01*
X155686475Y-121825735D01*
X157115046Y-121873354D02*
X157115046Y-122540020D01*
X156876951Y-121492401D02*
X156638856Y-122206687D01*
X157257903Y-122206687D01*
X152962313Y-114261902D02*
X152914694Y-114309521D01*
X152771837Y-114357140D01*
X152676599Y-114357140D01*
X152533741Y-114309521D01*
X152438503Y-114214283D01*
X152390884Y-114119045D01*
X152343265Y-113928569D01*
X152343265Y-113785712D01*
X152390884Y-113595236D01*
X152438503Y-113499998D01*
X152533741Y-113404760D01*
X152676599Y-113357140D01*
X152771837Y-113357140D01*
X152914694Y-113404760D01*
X152962313Y-113452379D01*
X153343265Y-113452379D02*
X153390884Y-113404760D01*
X153486122Y-113357140D01*
X153724218Y-113357140D01*
X153819456Y-113404760D01*
X153867075Y-113452379D01*
X153914694Y-113547617D01*
X153914694Y-113642855D01*
X153867075Y-113785712D01*
X153295646Y-114357140D01*
X153914694Y-114357140D01*
X120821153Y-86723480D02*
X120487820Y-86247290D01*
X120249724Y-86723480D02*
X120249724Y-85723480D01*
X120630677Y-85723480D01*
X120725915Y-85771100D01*
X120773534Y-85818719D01*
X120821153Y-85913957D01*
X120821153Y-86056814D01*
X120773534Y-86152052D01*
X120725915Y-86199671D01*
X120630677Y-86247290D01*
X120249724Y-86247290D01*
X121678296Y-86056814D02*
X121678296Y-86723480D01*
X121440200Y-85675861D02*
X121202105Y-86390147D01*
X121821153Y-86390147D01*
X120838933Y-88493860D02*
X120505600Y-88017670D01*
X120267504Y-88493860D02*
X120267504Y-87493860D01*
X120648457Y-87493860D01*
X120743695Y-87541480D01*
X120791314Y-87589099D01*
X120838933Y-87684337D01*
X120838933Y-87827194D01*
X120791314Y-87922432D01*
X120743695Y-87970051D01*
X120648457Y-88017670D01*
X120267504Y-88017670D01*
X121172266Y-87493860D02*
X121791314Y-87493860D01*
X121457980Y-87874813D01*
X121600838Y-87874813D01*
X121696076Y-87922432D01*
X121743695Y-87970051D01*
X121791314Y-88065289D01*
X121791314Y-88303384D01*
X121743695Y-88398622D01*
X121696076Y-88446241D01*
X121600838Y-88493860D01*
X121315123Y-88493860D01*
X121219885Y-88446241D01*
X121172266Y-88398622D01*
X96334366Y-114805151D02*
X96001033Y-114805151D01*
X96001033Y-115328960D02*
X96001033Y-114328960D01*
X96477223Y-114328960D01*
X97191509Y-114805151D02*
X97334366Y-114852770D01*
X97381985Y-114900389D01*
X97429604Y-114995627D01*
X97429604Y-115138484D01*
X97381985Y-115233722D01*
X97334366Y-115281341D01*
X97239128Y-115328960D01*
X96858176Y-115328960D01*
X96858176Y-114328960D01*
X97191509Y-114328960D01*
X97286747Y-114376580D01*
X97334366Y-114424199D01*
X97381985Y-114519437D01*
X97381985Y-114614675D01*
X97334366Y-114709913D01*
X97286747Y-114757532D01*
X97191509Y-114805151D01*
X96858176Y-114805151D01*
X98381985Y-115328960D02*
X97810557Y-115328960D01*
X98096271Y-115328960D02*
X98096271Y-114328960D01*
X98001033Y-114471818D01*
X97905795Y-114567056D01*
X97810557Y-114614675D01*
X165437582Y-96101140D02*
X165104249Y-95624950D01*
X164866154Y-96101140D02*
X164866154Y-95101140D01*
X165247106Y-95101140D01*
X165342344Y-95148760D01*
X165389963Y-95196379D01*
X165437582Y-95291617D01*
X165437582Y-95434474D01*
X165389963Y-95529712D01*
X165342344Y-95577331D01*
X165247106Y-95624950D01*
X164866154Y-95624950D01*
X166389963Y-96101140D02*
X165818535Y-96101140D01*
X166104249Y-96101140D02*
X166104249Y-95101140D01*
X166009011Y-95243998D01*
X165913773Y-95339236D01*
X165818535Y-95386855D01*
X166723297Y-95101140D02*
X167389963Y-95101140D01*
X166961392Y-96101140D01*
X165389322Y-99105960D02*
X165055989Y-98629770D01*
X164817894Y-99105960D02*
X164817894Y-98105960D01*
X165198846Y-98105960D01*
X165294084Y-98153580D01*
X165341703Y-98201199D01*
X165389322Y-98296437D01*
X165389322Y-98439294D01*
X165341703Y-98534532D01*
X165294084Y-98582151D01*
X165198846Y-98629770D01*
X164817894Y-98629770D01*
X166341703Y-99105960D02*
X165770275Y-99105960D01*
X166055989Y-99105960D02*
X166055989Y-98105960D01*
X165960751Y-98248818D01*
X165865513Y-98344056D01*
X165770275Y-98391675D01*
X167198846Y-98105960D02*
X167008370Y-98105960D01*
X166913132Y-98153580D01*
X166865513Y-98201199D01*
X166770275Y-98344056D01*
X166722656Y-98534532D01*
X166722656Y-98915484D01*
X166770275Y-99010722D01*
X166817894Y-99058341D01*
X166913132Y-99105960D01*
X167103608Y-99105960D01*
X167198846Y-99058341D01*
X167246465Y-99010722D01*
X167294084Y-98915484D01*
X167294084Y-98677389D01*
X167246465Y-98582151D01*
X167198846Y-98534532D01*
X167103608Y-98486913D01*
X166913132Y-98486913D01*
X166817894Y-98534532D01*
X166770275Y-98582151D01*
X166722656Y-98677389D01*
X120970135Y-97451340D02*
X120970135Y-98260864D01*
X121017754Y-98356102D01*
X121065373Y-98403721D01*
X121160611Y-98451340D01*
X121351087Y-98451340D01*
X121446325Y-98403721D01*
X121493944Y-98356102D01*
X121541563Y-98260864D01*
X121541563Y-97451340D01*
X122541563Y-98451340D02*
X121970135Y-98451340D01*
X122255849Y-98451340D02*
X122255849Y-97451340D01*
X122160611Y-97594198D01*
X122065373Y-97689436D01*
X121970135Y-97737055D01*
X126131922Y-100958946D02*
X126179541Y-101006565D01*
X126227160Y-101149422D01*
X126227160Y-101244660D01*
X126179541Y-101387518D01*
X126084303Y-101482756D01*
X125989065Y-101530375D01*
X125798589Y-101577994D01*
X125655732Y-101577994D01*
X125465256Y-101530375D01*
X125370018Y-101482756D01*
X125274780Y-101387518D01*
X125227160Y-101244660D01*
X125227160Y-101149422D01*
X125274780Y-101006565D01*
X125322399Y-100958946D01*
X125227160Y-100101803D02*
X125227160Y-100292280D01*
X125274780Y-100387518D01*
X125322399Y-100435137D01*
X125465256Y-100530375D01*
X125655732Y-100577994D01*
X126036684Y-100577994D01*
X126131922Y-100530375D01*
X126179541Y-100482756D01*
X126227160Y-100387518D01*
X126227160Y-100197041D01*
X126179541Y-100101803D01*
X126131922Y-100054184D01*
X126036684Y-100006565D01*
X125798589Y-100006565D01*
X125703351Y-100054184D01*
X125655732Y-100101803D01*
X125608113Y-100197041D01*
X125608113Y-100387518D01*
X125655732Y-100482756D01*
X125703351Y-100530375D01*
X125798589Y-100577994D01*
X117295633Y-100852242D02*
X117248014Y-100899861D01*
X117105157Y-100947480D01*
X117009919Y-100947480D01*
X116867061Y-100899861D01*
X116771823Y-100804623D01*
X116724204Y-100709385D01*
X116676585Y-100518909D01*
X116676585Y-100376052D01*
X116724204Y-100185576D01*
X116771823Y-100090338D01*
X116867061Y-99995100D01*
X117009919Y-99947480D01*
X117105157Y-99947480D01*
X117248014Y-99995100D01*
X117295633Y-100042719D01*
X118200395Y-99947480D02*
X117724204Y-99947480D01*
X117676585Y-100423671D01*
X117724204Y-100376052D01*
X117819442Y-100328433D01*
X118057538Y-100328433D01*
X118152776Y-100376052D01*
X118200395Y-100423671D01*
X118248014Y-100518909D01*
X118248014Y-100757004D01*
X118200395Y-100852242D01*
X118152776Y-100899861D01*
X118057538Y-100947480D01*
X117819442Y-100947480D01*
X117724204Y-100899861D01*
X117676585Y-100852242D01*
X102194620Y-98383574D02*
X101194620Y-98383574D01*
X102194620Y-97812145D01*
X101194620Y-97812145D01*
X102194620Y-96812145D02*
X102194620Y-97383574D01*
X102194620Y-97097860D02*
X101194620Y-97097860D01*
X101337478Y-97193098D01*
X101432716Y-97288336D01*
X101480335Y-97383574D01*
X101194620Y-95955002D02*
X101194620Y-96145479D01*
X101242240Y-96240717D01*
X101289859Y-96288336D01*
X101432716Y-96383574D01*
X101623192Y-96431193D01*
X102004144Y-96431193D01*
X102099382Y-96383574D01*
X102147001Y-96335955D01*
X102194620Y-96240717D01*
X102194620Y-96050240D01*
X102147001Y-95955002D01*
X102099382Y-95907383D01*
X102004144Y-95859764D01*
X101766049Y-95859764D01*
X101670811Y-95907383D01*
X101623192Y-95955002D01*
X101575573Y-96050240D01*
X101575573Y-96240717D01*
X101623192Y-96335955D01*
X101670811Y-96383574D01*
X101766049Y-96431193D01*
X102194620Y-94907383D02*
X102194620Y-95478812D01*
X102194620Y-95193098D02*
X101194620Y-95193098D01*
X101337478Y-95288336D01*
X101432716Y-95383574D01*
X101480335Y-95478812D01*
X101194620Y-94050240D02*
X101194620Y-94240717D01*
X101242240Y-94335955D01*
X101289859Y-94383574D01*
X101432716Y-94478812D01*
X101623192Y-94526431D01*
X102004144Y-94526431D01*
X102099382Y-94478812D01*
X102147001Y-94431193D01*
X102194620Y-94335955D01*
X102194620Y-94145479D01*
X102147001Y-94050240D01*
X102099382Y-94002621D01*
X102004144Y-93955002D01*
X101766049Y-93955002D01*
X101670811Y-94002621D01*
X101623192Y-94050240D01*
X101575573Y-94145479D01*
X101575573Y-94335955D01*
X101623192Y-94431193D01*
X101670811Y-94478812D01*
X101766049Y-94526431D01*
X102194620Y-93050240D02*
X102194620Y-93526431D01*
X101194620Y-93526431D01*
X102099382Y-92145479D02*
X102147001Y-92193098D01*
X102194620Y-92335955D01*
X102194620Y-92431193D01*
X102147001Y-92574050D01*
X102051763Y-92669288D01*
X101956525Y-92716907D01*
X101766049Y-92764526D01*
X101623192Y-92764526D01*
X101432716Y-92716907D01*
X101337478Y-92669288D01*
X101242240Y-92574050D01*
X101194620Y-92431193D01*
X101194620Y-92335955D01*
X101242240Y-92193098D01*
X101289859Y-92145479D01*
X102194620Y-91716907D02*
X101194620Y-91716907D01*
X101194620Y-91478812D01*
X101242240Y-91335955D01*
X101337478Y-91240717D01*
X101432716Y-91193098D01*
X101623192Y-91145479D01*
X101766049Y-91145479D01*
X101956525Y-91193098D01*
X102051763Y-91240717D01*
X102147001Y-91335955D01*
X102194620Y-91478812D01*
X102194620Y-91716907D01*
X102289859Y-90955002D02*
X102289859Y-90193098D01*
X102147001Y-90002621D02*
X102194620Y-89859764D01*
X102194620Y-89621669D01*
X102147001Y-89526431D01*
X102099382Y-89478812D01*
X102004144Y-89431193D01*
X101908906Y-89431193D01*
X101813668Y-89478812D01*
X101766049Y-89526431D01*
X101718430Y-89621669D01*
X101670811Y-89812145D01*
X101623192Y-89907383D01*
X101575573Y-89955002D01*
X101480335Y-90002621D01*
X101385097Y-90002621D01*
X101289859Y-89955002D01*
X101242240Y-89907383D01*
X101194620Y-89812145D01*
X101194620Y-89574050D01*
X101242240Y-89431193D01*
X102194620Y-89002621D02*
X101194620Y-89002621D01*
X102194620Y-88574050D02*
X101670811Y-88574050D01*
X101575573Y-88621669D01*
X101527954Y-88716907D01*
X101527954Y-88859764D01*
X101575573Y-88955002D01*
X101623192Y-89002621D01*
X102194620Y-88097860D02*
X101527954Y-88097860D01*
X101194620Y-88097860D02*
X101242240Y-88145479D01*
X101289859Y-88097860D01*
X101242240Y-88050240D01*
X101194620Y-88097860D01*
X101289859Y-88097860D01*
X102147001Y-87240717D02*
X102194620Y-87335955D01*
X102194620Y-87526431D01*
X102147001Y-87621669D01*
X102051763Y-87669288D01*
X101670811Y-87669288D01*
X101575573Y-87621669D01*
X101527954Y-87526431D01*
X101527954Y-87335955D01*
X101575573Y-87240717D01*
X101670811Y-87193098D01*
X101766049Y-87193098D01*
X101861287Y-87669288D01*
X102194620Y-86621669D02*
X102147001Y-86716907D01*
X102051763Y-86764526D01*
X101194620Y-86764526D01*
X102194620Y-85812145D02*
X101194620Y-85812145D01*
X102147001Y-85812145D02*
X102194620Y-85907383D01*
X102194620Y-86097860D01*
X102147001Y-86193098D01*
X102099382Y-86240717D01*
X102004144Y-86288336D01*
X101718430Y-86288336D01*
X101623192Y-86240717D01*
X101575573Y-86193098D01*
X101527954Y-86097860D01*
X101527954Y-85907383D01*
X101575573Y-85812145D01*
X160169622Y-73584060D02*
X159836289Y-73107870D01*
X159598194Y-73584060D02*
X159598194Y-72584060D01*
X159979146Y-72584060D01*
X160074384Y-72631680D01*
X160122003Y-72679299D01*
X160169622Y-72774537D01*
X160169622Y-72917394D01*
X160122003Y-73012632D01*
X160074384Y-73060251D01*
X159979146Y-73107870D01*
X159598194Y-73107870D01*
X161122003Y-73584060D02*
X160550575Y-73584060D01*
X160836289Y-73584060D02*
X160836289Y-72584060D01*
X160741051Y-72726918D01*
X160645813Y-72822156D01*
X160550575Y-72869775D01*
X162026765Y-72584060D02*
X161550575Y-72584060D01*
X161502956Y-73060251D01*
X161550575Y-73012632D01*
X161645813Y-72965013D01*
X161883908Y-72965013D01*
X161979146Y-73012632D01*
X162026765Y-73060251D01*
X162074384Y-73155489D01*
X162074384Y-73393584D01*
X162026765Y-73488822D01*
X161979146Y-73536441D01*
X161883908Y-73584060D01*
X161645813Y-73584060D01*
X161550575Y-73536441D01*
X161502956Y-73488822D01*
X159905462Y-67643020D02*
X159572129Y-67166830D01*
X159334034Y-67643020D02*
X159334034Y-66643020D01*
X159714986Y-66643020D01*
X159810224Y-66690640D01*
X159857843Y-66738259D01*
X159905462Y-66833497D01*
X159905462Y-66976354D01*
X159857843Y-67071592D01*
X159810224Y-67119211D01*
X159714986Y-67166830D01*
X159334034Y-67166830D01*
X160857843Y-67643020D02*
X160286415Y-67643020D01*
X160572129Y-67643020D02*
X160572129Y-66643020D01*
X160476891Y-66785878D01*
X160381653Y-66881116D01*
X160286415Y-66928735D01*
X161714986Y-66976354D02*
X161714986Y-67643020D01*
X161476891Y-66595401D02*
X161238796Y-67309687D01*
X161857843Y-67309687D01*
X142379462Y-73576440D02*
X142046129Y-73100250D01*
X141808034Y-73576440D02*
X141808034Y-72576440D01*
X142188986Y-72576440D01*
X142284224Y-72624060D01*
X142331843Y-72671679D01*
X142379462Y-72766917D01*
X142379462Y-72909774D01*
X142331843Y-73005012D01*
X142284224Y-73052631D01*
X142188986Y-73100250D01*
X141808034Y-73100250D01*
X143331843Y-73576440D02*
X142760415Y-73576440D01*
X143046129Y-73576440D02*
X143046129Y-72576440D01*
X142950891Y-72719298D01*
X142855653Y-72814536D01*
X142760415Y-72862155D01*
X143665177Y-72576440D02*
X144284224Y-72576440D01*
X143950891Y-72957393D01*
X144093748Y-72957393D01*
X144188986Y-73005012D01*
X144236605Y-73052631D01*
X144284224Y-73147869D01*
X144284224Y-73385964D01*
X144236605Y-73481202D01*
X144188986Y-73528821D01*
X144093748Y-73576440D01*
X143808034Y-73576440D01*
X143712796Y-73528821D01*
X143665177Y-73481202D01*
X142713413Y-67635400D02*
X142380080Y-67159210D01*
X142141984Y-67635400D02*
X142141984Y-66635400D01*
X142522937Y-66635400D01*
X142618175Y-66683020D01*
X142665794Y-66730639D01*
X142713413Y-66825877D01*
X142713413Y-66968734D01*
X142665794Y-67063972D01*
X142618175Y-67111591D01*
X142522937Y-67159210D01*
X142141984Y-67159210D01*
X143094365Y-66730639D02*
X143141984Y-66683020D01*
X143237222Y-66635400D01*
X143475318Y-66635400D01*
X143570556Y-66683020D01*
X143618175Y-66730639D01*
X143665794Y-66825877D01*
X143665794Y-66921115D01*
X143618175Y-67063972D01*
X143046746Y-67635400D01*
X143665794Y-67635400D01*
X164006541Y-67613139D02*
X163911303Y-67565520D01*
X163816065Y-67470281D01*
X163673208Y-67327424D01*
X163577970Y-67279805D01*
X163482732Y-67279805D01*
X163530351Y-67517900D02*
X163435113Y-67470281D01*
X163339875Y-67375043D01*
X163292256Y-67184567D01*
X163292256Y-66851234D01*
X163339875Y-66660758D01*
X163435113Y-66565520D01*
X163530351Y-66517900D01*
X163720827Y-66517900D01*
X163816065Y-66565520D01*
X163911303Y-66660758D01*
X163958922Y-66851234D01*
X163958922Y-67184567D01*
X163911303Y-67375043D01*
X163816065Y-67470281D01*
X163720827Y-67517900D01*
X163530351Y-67517900D01*
X164292256Y-66517900D02*
X164911303Y-66517900D01*
X164577970Y-66898853D01*
X164720827Y-66898853D01*
X164816065Y-66946472D01*
X164863684Y-66994091D01*
X164911303Y-67089329D01*
X164911303Y-67327424D01*
X164863684Y-67422662D01*
X164816065Y-67470281D01*
X164720827Y-67517900D01*
X164435113Y-67517900D01*
X164339875Y-67470281D01*
X164292256Y-67422662D01*
X146163041Y-67610599D02*
X146067803Y-67562980D01*
X145972565Y-67467741D01*
X145829708Y-67324884D01*
X145734470Y-67277265D01*
X145639232Y-67277265D01*
X145686851Y-67515360D02*
X145591613Y-67467741D01*
X145496375Y-67372503D01*
X145448756Y-67182027D01*
X145448756Y-66848694D01*
X145496375Y-66658218D01*
X145591613Y-66562980D01*
X145686851Y-66515360D01*
X145877327Y-66515360D01*
X145972565Y-66562980D01*
X146067803Y-66658218D01*
X146115422Y-66848694D01*
X146115422Y-67182027D01*
X146067803Y-67372503D01*
X145972565Y-67467741D01*
X145877327Y-67515360D01*
X145686851Y-67515360D01*
X147067803Y-67515360D02*
X146496375Y-67515360D01*
X146782089Y-67515360D02*
X146782089Y-66515360D01*
X146686851Y-66658218D01*
X146591613Y-66753456D01*
X146496375Y-66801075D01*
X166778346Y-66246760D02*
X166778346Y-66961046D01*
X166730727Y-67103903D01*
X166635489Y-67199141D01*
X166492632Y-67246760D01*
X166397394Y-67246760D01*
X167397394Y-66675332D02*
X167302156Y-66627713D01*
X167254537Y-66580094D01*
X167206918Y-66484856D01*
X167206918Y-66437237D01*
X167254537Y-66341999D01*
X167302156Y-66294380D01*
X167397394Y-66246760D01*
X167587870Y-66246760D01*
X167683108Y-66294380D01*
X167730727Y-66341999D01*
X167778346Y-66437237D01*
X167778346Y-66484856D01*
X167730727Y-66580094D01*
X167683108Y-66627713D01*
X167587870Y-66675332D01*
X167397394Y-66675332D01*
X167302156Y-66722951D01*
X167254537Y-66770570D01*
X167206918Y-66865808D01*
X167206918Y-67056284D01*
X167254537Y-67151522D01*
X167302156Y-67199141D01*
X167397394Y-67246760D01*
X167587870Y-67246760D01*
X167683108Y-67199141D01*
X167730727Y-67151522D01*
X167778346Y-67056284D01*
X167778346Y-66865808D01*
X167730727Y-66770570D01*
X167683108Y-66722951D01*
X167587870Y-66675332D01*
X148630046Y-66297560D02*
X148630046Y-67011846D01*
X148582427Y-67154703D01*
X148487189Y-67249941D01*
X148344332Y-67297560D01*
X148249094Y-67297560D01*
X149010999Y-66297560D02*
X149677665Y-66297560D01*
X149249094Y-67297560D01*
X118028980Y-66701895D02*
X117028980Y-66701895D01*
X117028980Y-66463800D01*
X117076600Y-66320942D01*
X117171838Y-66225704D01*
X117267076Y-66178085D01*
X117457552Y-66130466D01*
X117600409Y-66130466D01*
X117790885Y-66178085D01*
X117886123Y-66225704D01*
X117981361Y-66320942D01*
X118028980Y-66463800D01*
X118028980Y-66701895D01*
X117124219Y-65749514D02*
X117076600Y-65701895D01*
X117028980Y-65606657D01*
X117028980Y-65368561D01*
X117076600Y-65273323D01*
X117124219Y-65225704D01*
X117219457Y-65178085D01*
X117314695Y-65178085D01*
X117457552Y-65225704D01*
X118028980Y-65797133D01*
X118028980Y-65178085D01*
X116235266Y-70210371D02*
X115901933Y-70210371D01*
X115901933Y-70734180D02*
X115901933Y-69734180D01*
X116378123Y-69734180D01*
X117092409Y-70210371D02*
X117235266Y-70257990D01*
X117282885Y-70305609D01*
X117330504Y-70400847D01*
X117330504Y-70543704D01*
X117282885Y-70638942D01*
X117235266Y-70686561D01*
X117140028Y-70734180D01*
X116759076Y-70734180D01*
X116759076Y-69734180D01*
X117092409Y-69734180D01*
X117187647Y-69781800D01*
X117235266Y-69829419D01*
X117282885Y-69924657D01*
X117282885Y-70019895D01*
X117235266Y-70115133D01*
X117187647Y-70162752D01*
X117092409Y-70210371D01*
X116759076Y-70210371D01*
X117663838Y-69734180D02*
X118282885Y-69734180D01*
X117949552Y-70115133D01*
X118092409Y-70115133D01*
X118187647Y-70162752D01*
X118235266Y-70210371D01*
X118282885Y-70305609D01*
X118282885Y-70543704D01*
X118235266Y-70638942D01*
X118187647Y-70686561D01*
X118092409Y-70734180D01*
X117806695Y-70734180D01*
X117711457Y-70686561D01*
X117663838Y-70638942D01*
X112679266Y-70210371D02*
X112345933Y-70210371D01*
X112345933Y-70734180D02*
X112345933Y-69734180D01*
X112822123Y-69734180D01*
X113536409Y-70210371D02*
X113679266Y-70257990D01*
X113726885Y-70305609D01*
X113774504Y-70400847D01*
X113774504Y-70543704D01*
X113726885Y-70638942D01*
X113679266Y-70686561D01*
X113584028Y-70734180D01*
X113203076Y-70734180D01*
X113203076Y-69734180D01*
X113536409Y-69734180D01*
X113631647Y-69781800D01*
X113679266Y-69829419D01*
X113726885Y-69924657D01*
X113726885Y-70019895D01*
X113679266Y-70115133D01*
X113631647Y-70162752D01*
X113536409Y-70210371D01*
X113203076Y-70210371D01*
X114155457Y-69829419D02*
X114203076Y-69781800D01*
X114298314Y-69734180D01*
X114536409Y-69734180D01*
X114631647Y-69781800D01*
X114679266Y-69829419D01*
X114726885Y-69924657D01*
X114726885Y-70019895D01*
X114679266Y-70162752D01*
X114107838Y-70734180D01*
X114726885Y-70734180D01*
X106359722Y-75014080D02*
X106026389Y-74537890D01*
X105788294Y-75014080D02*
X105788294Y-74014080D01*
X106169246Y-74014080D01*
X106264484Y-74061700D01*
X106312103Y-74109319D01*
X106359722Y-74204557D01*
X106359722Y-74347414D01*
X106312103Y-74442652D01*
X106264484Y-74490271D01*
X106169246Y-74537890D01*
X105788294Y-74537890D01*
X107312103Y-75014080D02*
X106740675Y-75014080D01*
X107026389Y-75014080D02*
X107026389Y-74014080D01*
X106931151Y-74156938D01*
X106835913Y-74252176D01*
X106740675Y-74299795D01*
X107693056Y-74109319D02*
X107740675Y-74061700D01*
X107835913Y-74014080D01*
X108074008Y-74014080D01*
X108169246Y-74061700D01*
X108216865Y-74109319D01*
X108264484Y-74204557D01*
X108264484Y-74299795D01*
X108216865Y-74442652D01*
X107645437Y-75014080D01*
X108264484Y-75014080D01*
X111599742Y-72162942D02*
X111552123Y-72210561D01*
X111409266Y-72258180D01*
X111314028Y-72258180D01*
X111171171Y-72210561D01*
X111075933Y-72115323D01*
X111028314Y-72020085D01*
X110980695Y-71829609D01*
X110980695Y-71686752D01*
X111028314Y-71496276D01*
X111075933Y-71401038D01*
X111171171Y-71305800D01*
X111314028Y-71258180D01*
X111409266Y-71258180D01*
X111552123Y-71305800D01*
X111599742Y-71353419D01*
X112552123Y-72258180D02*
X111980695Y-72258180D01*
X112266409Y-72258180D02*
X112266409Y-71258180D01*
X112171171Y-71401038D01*
X112075933Y-71496276D01*
X111980695Y-71543895D01*
X113028314Y-72258180D02*
X113218790Y-72258180D01*
X113314028Y-72210561D01*
X113361647Y-72162942D01*
X113456885Y-72020085D01*
X113504504Y-71829609D01*
X113504504Y-71448657D01*
X113456885Y-71353419D01*
X113409266Y-71305800D01*
X113314028Y-71258180D01*
X113123552Y-71258180D01*
X113028314Y-71305800D01*
X112980695Y-71353419D01*
X112933076Y-71448657D01*
X112933076Y-71686752D01*
X112980695Y-71781990D01*
X113028314Y-71829609D01*
X113123552Y-71877228D01*
X113314028Y-71877228D01*
X113409266Y-71829609D01*
X113456885Y-71781990D01*
X113504504Y-71686752D01*
X124251126Y-66617600D02*
X124251126Y-67331886D01*
X124203507Y-67474743D01*
X124108269Y-67569981D01*
X123965412Y-67617600D01*
X123870174Y-67617600D01*
X124632079Y-66617600D02*
X125251126Y-66617600D01*
X124917793Y-66998553D01*
X125060650Y-66998553D01*
X125155888Y-67046172D01*
X125203507Y-67093791D01*
X125251126Y-67189029D01*
X125251126Y-67427124D01*
X125203507Y-67522362D01*
X125155888Y-67569981D01*
X125060650Y-67617600D01*
X124774936Y-67617600D01*
X124679698Y-67569981D01*
X124632079Y-67522362D01*
X110715040Y-57703980D02*
X110715040Y-56703980D01*
X111095993Y-56703980D01*
X111191231Y-56751600D01*
X111238850Y-56799219D01*
X111286469Y-56894457D01*
X111286469Y-57037314D01*
X111238850Y-57132552D01*
X111191231Y-57180171D01*
X111095993Y-57227790D01*
X110715040Y-57227790D01*
X112286469Y-57608742D02*
X112238850Y-57656361D01*
X112095993Y-57703980D01*
X112000755Y-57703980D01*
X111857898Y-57656361D01*
X111762660Y-57561123D01*
X111715040Y-57465885D01*
X111667421Y-57275409D01*
X111667421Y-57132552D01*
X111715040Y-56942076D01*
X111762660Y-56846838D01*
X111857898Y-56751600D01*
X112000755Y-56703980D01*
X112095993Y-56703980D01*
X112238850Y-56751600D01*
X112286469Y-56799219D01*
X113286469Y-57608742D02*
X113238850Y-57656361D01*
X113095993Y-57703980D01*
X113000755Y-57703980D01*
X112857898Y-57656361D01*
X112762660Y-57561123D01*
X112715040Y-57465885D01*
X112667421Y-57275409D01*
X112667421Y-57132552D01*
X112715040Y-56942076D01*
X112762660Y-56846838D01*
X112857898Y-56751600D01*
X113000755Y-56703980D01*
X113095993Y-56703980D01*
X113238850Y-56751600D01*
X113286469Y-56799219D01*
X113715040Y-57323028D02*
X114476945Y-57323028D01*
X114905517Y-57656361D02*
X115048374Y-57703980D01*
X115286469Y-57703980D01*
X115381707Y-57656361D01*
X115429326Y-57608742D01*
X115476945Y-57513504D01*
X115476945Y-57418266D01*
X115429326Y-57323028D01*
X115381707Y-57275409D01*
X115286469Y-57227790D01*
X115095993Y-57180171D01*
X115000755Y-57132552D01*
X114953136Y-57084933D01*
X114905517Y-56989695D01*
X114905517Y-56894457D01*
X114953136Y-56799219D01*
X115000755Y-56751600D01*
X115095993Y-56703980D01*
X115334088Y-56703980D01*
X115476945Y-56751600D01*
X115905517Y-57703980D02*
X115905517Y-56703980D01*
X116238850Y-57418266D01*
X116572183Y-56703980D01*
X116572183Y-57703980D01*
X117048374Y-57703980D02*
X117048374Y-56703980D01*
X117429326Y-56703980D01*
X117524564Y-56751600D01*
X117572183Y-56799219D01*
X117619802Y-56894457D01*
X117619802Y-57037314D01*
X117572183Y-57132552D01*
X117524564Y-57180171D01*
X117429326Y-57227790D01*
X117048374Y-57227790D01*
X118048374Y-57323028D02*
X118810279Y-57323028D01*
X119286469Y-57703980D02*
X119286469Y-56703980D01*
X119857898Y-57703980D02*
X119429326Y-57132552D01*
X119857898Y-56703980D02*
X119286469Y-57275409D01*
D11*
X110446475Y-70208657D02*
X111970284Y-70208657D01*
X111208380Y-70970561D02*
X111208380Y-69446752D01*
X119234570Y-71170561D02*
X119234570Y-69170561D01*
X120377427Y-71170561D02*
X119520284Y-70027704D01*
X120377427Y-69170561D02*
X119234570Y-70313419D01*
D10*
X127595689Y-99713510D02*
X127595689Y-100189700D01*
X127262356Y-99189700D02*
X127595689Y-99713510D01*
X127929022Y-99189700D01*
X128214737Y-99284939D02*
X128262356Y-99237320D01*
X128357594Y-99189700D01*
X128595689Y-99189700D01*
X128690927Y-99237320D01*
X128738546Y-99284939D01*
X128786165Y-99380177D01*
X128786165Y-99475415D01*
X128738546Y-99618272D01*
X128167118Y-100189700D01*
X128786165Y-100189700D01*
X170723322Y-110840780D02*
X170389989Y-110364590D01*
X170151894Y-110840780D02*
X170151894Y-109840780D01*
X170532846Y-109840780D01*
X170628084Y-109888400D01*
X170675703Y-109936019D01*
X170723322Y-110031257D01*
X170723322Y-110174114D01*
X170675703Y-110269352D01*
X170628084Y-110316971D01*
X170532846Y-110364590D01*
X170151894Y-110364590D01*
X171675703Y-110840780D02*
X171104275Y-110840780D01*
X171389989Y-110840780D02*
X171389989Y-109840780D01*
X171294751Y-109983638D01*
X171199513Y-110078876D01*
X171104275Y-110126495D01*
X172628084Y-110840780D02*
X172056656Y-110840780D01*
X172342370Y-110840780D02*
X172342370Y-109840780D01*
X172247132Y-109983638D01*
X172151894Y-110078876D01*
X172056656Y-110126495D01*
X161393902Y-110558840D02*
X161060569Y-110082650D01*
X160822474Y-110558840D02*
X160822474Y-109558840D01*
X161203426Y-109558840D01*
X161298664Y-109606460D01*
X161346283Y-109654079D01*
X161393902Y-109749317D01*
X161393902Y-109892174D01*
X161346283Y-109987412D01*
X161298664Y-110035031D01*
X161203426Y-110082650D01*
X160822474Y-110082650D01*
X162346283Y-110558840D02*
X161774855Y-110558840D01*
X162060569Y-110558840D02*
X162060569Y-109558840D01*
X161965331Y-109701698D01*
X161870093Y-109796936D01*
X161774855Y-109844555D01*
X162965331Y-109558840D02*
X163060569Y-109558840D01*
X163155807Y-109606460D01*
X163203426Y-109654079D01*
X163251045Y-109749317D01*
X163298664Y-109939793D01*
X163298664Y-110177888D01*
X163251045Y-110368364D01*
X163203426Y-110463602D01*
X163155807Y-110511221D01*
X163060569Y-110558840D01*
X162965331Y-110558840D01*
X162870093Y-110511221D01*
X162822474Y-110463602D01*
X162774855Y-110368364D01*
X162727236Y-110177888D01*
X162727236Y-109939793D01*
X162774855Y-109749317D01*
X162822474Y-109654079D01*
X162870093Y-109606460D01*
X162965331Y-109558840D01*
X172572442Y-102625162D02*
X172524823Y-102672781D01*
X172381966Y-102720400D01*
X172286728Y-102720400D01*
X172143871Y-102672781D01*
X172048633Y-102577543D01*
X172001014Y-102482305D01*
X171953395Y-102291829D01*
X171953395Y-102148972D01*
X172001014Y-101958496D01*
X172048633Y-101863258D01*
X172143871Y-101768020D01*
X172286728Y-101720400D01*
X172381966Y-101720400D01*
X172524823Y-101768020D01*
X172572442Y-101815639D01*
X173524823Y-102720400D02*
X172953395Y-102720400D01*
X173239109Y-102720400D02*
X173239109Y-101720400D01*
X173143871Y-101863258D01*
X173048633Y-101958496D01*
X172953395Y-102006115D01*
X174096252Y-102148972D02*
X174001014Y-102101353D01*
X173953395Y-102053734D01*
X173905776Y-101958496D01*
X173905776Y-101910877D01*
X173953395Y-101815639D01*
X174001014Y-101768020D01*
X174096252Y-101720400D01*
X174286728Y-101720400D01*
X174381966Y-101768020D01*
X174429585Y-101815639D01*
X174477204Y-101910877D01*
X174477204Y-101958496D01*
X174429585Y-102053734D01*
X174381966Y-102101353D01*
X174286728Y-102148972D01*
X174096252Y-102148972D01*
X174001014Y-102196591D01*
X173953395Y-102244210D01*
X173905776Y-102339448D01*
X173905776Y-102529924D01*
X173953395Y-102625162D01*
X174001014Y-102672781D01*
X174096252Y-102720400D01*
X174286728Y-102720400D01*
X174381966Y-102672781D01*
X174429585Y-102625162D01*
X174477204Y-102529924D01*
X174477204Y-102339448D01*
X174429585Y-102244210D01*
X174381966Y-102196591D01*
X174286728Y-102148972D01*
X175874442Y-102625162D02*
X175826823Y-102672781D01*
X175683966Y-102720400D01*
X175588728Y-102720400D01*
X175445871Y-102672781D01*
X175350633Y-102577543D01*
X175303014Y-102482305D01*
X175255395Y-102291829D01*
X175255395Y-102148972D01*
X175303014Y-101958496D01*
X175350633Y-101863258D01*
X175445871Y-101768020D01*
X175588728Y-101720400D01*
X175683966Y-101720400D01*
X175826823Y-101768020D01*
X175874442Y-101815639D01*
X176826823Y-102720400D02*
X176255395Y-102720400D01*
X176541109Y-102720400D02*
X176541109Y-101720400D01*
X176445871Y-101863258D01*
X176350633Y-101958496D01*
X176255395Y-102006115D01*
X177160157Y-101720400D02*
X177826823Y-101720400D01*
X177398252Y-102720400D01*
X175361462Y-111482142D02*
X175313843Y-111529761D01*
X175170986Y-111577380D01*
X175075748Y-111577380D01*
X174932891Y-111529761D01*
X174837653Y-111434523D01*
X174790034Y-111339285D01*
X174742415Y-111148809D01*
X174742415Y-111005952D01*
X174790034Y-110815476D01*
X174837653Y-110720238D01*
X174932891Y-110625000D01*
X175075748Y-110577380D01*
X175170986Y-110577380D01*
X175313843Y-110625000D01*
X175361462Y-110672619D01*
X176313843Y-111577380D02*
X175742415Y-111577380D01*
X176028129Y-111577380D02*
X176028129Y-110577380D01*
X175932891Y-110720238D01*
X175837653Y-110815476D01*
X175742415Y-110863095D01*
X177170986Y-110577380D02*
X176980510Y-110577380D01*
X176885272Y-110625000D01*
X176837653Y-110672619D01*
X176742415Y-110815476D01*
X176694796Y-111005952D01*
X176694796Y-111386904D01*
X176742415Y-111482142D01*
X176790034Y-111529761D01*
X176885272Y-111577380D01*
X177075748Y-111577380D01*
X177170986Y-111529761D01*
X177218605Y-111482142D01*
X177266224Y-111386904D01*
X177266224Y-111148809D01*
X177218605Y-111053571D01*
X177170986Y-111005952D01*
X177075748Y-110958333D01*
X176885272Y-110958333D01*
X176790034Y-111005952D01*
X176742415Y-111053571D01*
X176694796Y-111148809D01*
X165823662Y-111068122D02*
X165776043Y-111115741D01*
X165633186Y-111163360D01*
X165537948Y-111163360D01*
X165395091Y-111115741D01*
X165299853Y-111020503D01*
X165252234Y-110925265D01*
X165204615Y-110734789D01*
X165204615Y-110591932D01*
X165252234Y-110401456D01*
X165299853Y-110306218D01*
X165395091Y-110210980D01*
X165537948Y-110163360D01*
X165633186Y-110163360D01*
X165776043Y-110210980D01*
X165823662Y-110258599D01*
X166776043Y-111163360D02*
X166204615Y-111163360D01*
X166490329Y-111163360D02*
X166490329Y-110163360D01*
X166395091Y-110306218D01*
X166299853Y-110401456D01*
X166204615Y-110449075D01*
X167680805Y-110163360D02*
X167204615Y-110163360D01*
X167156996Y-110639551D01*
X167204615Y-110591932D01*
X167299853Y-110544313D01*
X167537948Y-110544313D01*
X167633186Y-110591932D01*
X167680805Y-110639551D01*
X167728424Y-110734789D01*
X167728424Y-110972884D01*
X167680805Y-111068122D01*
X167633186Y-111115741D01*
X167537948Y-111163360D01*
X167299853Y-111163360D01*
X167204615Y-111115741D01*
X167156996Y-111068122D01*
X169312293Y-80221080D02*
X168978960Y-79744890D01*
X168740864Y-80221080D02*
X168740864Y-79221080D01*
X169121817Y-79221080D01*
X169217055Y-79268700D01*
X169264674Y-79316319D01*
X169312293Y-79411557D01*
X169312293Y-79554414D01*
X169264674Y-79649652D01*
X169217055Y-79697271D01*
X169121817Y-79744890D01*
X168740864Y-79744890D01*
X169788483Y-80221080D02*
X169978960Y-80221080D01*
X170074198Y-80173461D01*
X170121817Y-80125842D01*
X170217055Y-79982985D01*
X170264674Y-79792509D01*
X170264674Y-79411557D01*
X170217055Y-79316319D01*
X170169436Y-79268700D01*
X170074198Y-79221080D01*
X169883721Y-79221080D01*
X169788483Y-79268700D01*
X169740864Y-79316319D01*
X169693245Y-79411557D01*
X169693245Y-79649652D01*
X169740864Y-79744890D01*
X169788483Y-79792509D01*
X169883721Y-79840128D01*
X170074198Y-79840128D01*
X170169436Y-79792509D01*
X170217055Y-79744890D01*
X170264674Y-79649652D01*
D17*
X173372538Y-82522543D02*
X173372538Y-81252543D01*
X174703014Y-82401591D02*
X174642538Y-82462067D01*
X174461109Y-82522543D01*
X174340157Y-82522543D01*
X174158728Y-82462067D01*
X174037776Y-82341115D01*
X173977300Y-82220162D01*
X173916823Y-81978258D01*
X173916823Y-81796829D01*
X173977300Y-81554924D01*
X174037776Y-81433972D01*
X174158728Y-81313020D01*
X174340157Y-81252543D01*
X174461109Y-81252543D01*
X174642538Y-81313020D01*
X174703014Y-81373496D01*
X175912538Y-82522543D02*
X175186823Y-82522543D01*
X175549680Y-82522543D02*
X175549680Y-81252543D01*
X175428728Y-81433972D01*
X175307776Y-81554924D01*
X175186823Y-81615400D01*
D10*
X175502273Y-77312780D02*
X175168940Y-76836590D01*
X174930844Y-77312780D02*
X174930844Y-76312780D01*
X175311797Y-76312780D01*
X175407035Y-76360400D01*
X175454654Y-76408019D01*
X175502273Y-76503257D01*
X175502273Y-76646114D01*
X175454654Y-76741352D01*
X175407035Y-76788971D01*
X175311797Y-76836590D01*
X174930844Y-76836590D01*
X176073701Y-76741352D02*
X175978463Y-76693733D01*
X175930844Y-76646114D01*
X175883225Y-76550876D01*
X175883225Y-76503257D01*
X175930844Y-76408019D01*
X175978463Y-76360400D01*
X176073701Y-76312780D01*
X176264178Y-76312780D01*
X176359416Y-76360400D01*
X176407035Y-76408019D01*
X176454654Y-76503257D01*
X176454654Y-76550876D01*
X176407035Y-76646114D01*
X176359416Y-76693733D01*
X176264178Y-76741352D01*
X176073701Y-76741352D01*
X175978463Y-76788971D01*
X175930844Y-76836590D01*
X175883225Y-76931828D01*
X175883225Y-77122304D01*
X175930844Y-77217542D01*
X175978463Y-77265161D01*
X176073701Y-77312780D01*
X176264178Y-77312780D01*
X176359416Y-77265161D01*
X176407035Y-77217542D01*
X176454654Y-77122304D01*
X176454654Y-76931828D01*
X176407035Y-76836590D01*
X176359416Y-76788971D01*
X176264178Y-76741352D01*
X171791333Y-71653680D02*
X171458000Y-71177490D01*
X171219904Y-71653680D02*
X171219904Y-70653680D01*
X171600857Y-70653680D01*
X171696095Y-70701300D01*
X171743714Y-70748919D01*
X171791333Y-70844157D01*
X171791333Y-70987014D01*
X171743714Y-71082252D01*
X171696095Y-71129871D01*
X171600857Y-71177490D01*
X171219904Y-71177490D01*
X172124666Y-70653680D02*
X172791333Y-70653680D01*
X172362761Y-71653680D01*
X175083481Y-71636499D02*
X174988243Y-71588880D01*
X174893005Y-71493641D01*
X174750148Y-71350784D01*
X174654910Y-71303165D01*
X174559672Y-71303165D01*
X174607291Y-71541260D02*
X174512053Y-71493641D01*
X174416815Y-71398403D01*
X174369196Y-71207927D01*
X174369196Y-70874594D01*
X174416815Y-70684118D01*
X174512053Y-70588880D01*
X174607291Y-70541260D01*
X174797767Y-70541260D01*
X174893005Y-70588880D01*
X174988243Y-70684118D01*
X175035862Y-70874594D01*
X175035862Y-71207927D01*
X174988243Y-71398403D01*
X174893005Y-71493641D01*
X174797767Y-71541260D01*
X174607291Y-71541260D01*
X175416815Y-70636499D02*
X175464434Y-70588880D01*
X175559672Y-70541260D01*
X175797767Y-70541260D01*
X175893005Y-70588880D01*
X175940624Y-70636499D01*
X175988243Y-70731737D01*
X175988243Y-70826975D01*
X175940624Y-70969832D01*
X175369196Y-71541260D01*
X175988243Y-71541260D01*
X178891606Y-64504320D02*
X178891606Y-65218606D01*
X178843987Y-65361463D01*
X178748749Y-65456701D01*
X178605892Y-65504320D01*
X178510654Y-65504320D01*
X179796368Y-64504320D02*
X179605892Y-64504320D01*
X179510654Y-64551940D01*
X179463035Y-64599559D01*
X179367797Y-64742416D01*
X179320178Y-64932892D01*
X179320178Y-65313844D01*
X179367797Y-65409082D01*
X179415416Y-65456701D01*
X179510654Y-65504320D01*
X179701130Y-65504320D01*
X179796368Y-65456701D01*
X179843987Y-65409082D01*
X179891606Y-65313844D01*
X179891606Y-65075749D01*
X179843987Y-64980511D01*
X179796368Y-64932892D01*
X179701130Y-64885273D01*
X179510654Y-64885273D01*
X179415416Y-64932892D01*
X179367797Y-64980511D01*
X179320178Y-65075749D01*
X144605713Y-115816640D02*
X144272380Y-115340450D01*
X144034284Y-115816640D02*
X144034284Y-114816640D01*
X144415237Y-114816640D01*
X144510475Y-114864260D01*
X144558094Y-114911879D01*
X144605713Y-115007117D01*
X144605713Y-115149974D01*
X144558094Y-115245212D01*
X144510475Y-115292831D01*
X144415237Y-115340450D01*
X144034284Y-115340450D01*
X145462856Y-114816640D02*
X145272380Y-114816640D01*
X145177141Y-114864260D01*
X145129522Y-114911879D01*
X145034284Y-115054736D01*
X144986665Y-115245212D01*
X144986665Y-115626164D01*
X145034284Y-115721402D01*
X145081903Y-115769021D01*
X145177141Y-115816640D01*
X145367618Y-115816640D01*
X145462856Y-115769021D01*
X145510475Y-115721402D01*
X145558094Y-115626164D01*
X145558094Y-115388069D01*
X145510475Y-115292831D01*
X145462856Y-115245212D01*
X145367618Y-115197593D01*
X145177141Y-115197593D01*
X145081903Y-115245212D01*
X145034284Y-115292831D01*
X144986665Y-115388069D01*
X143919984Y-123812560D02*
X143919984Y-122812560D01*
X144158080Y-122812560D01*
X144300937Y-122860180D01*
X144396175Y-122955418D01*
X144443794Y-123050656D01*
X144491413Y-123241132D01*
X144491413Y-123383989D01*
X144443794Y-123574465D01*
X144396175Y-123669703D01*
X144300937Y-123764941D01*
X144158080Y-123812560D01*
X143919984Y-123812560D01*
X145396175Y-122812560D02*
X144919984Y-122812560D01*
X144872365Y-123288751D01*
X144919984Y-123241132D01*
X145015222Y-123193513D01*
X145253318Y-123193513D01*
X145348556Y-123241132D01*
X145396175Y-123288751D01*
X145443794Y-123383989D01*
X145443794Y-123622084D01*
X145396175Y-123717322D01*
X145348556Y-123764941D01*
X145253318Y-123812560D01*
X145015222Y-123812560D01*
X144919984Y-123764941D01*
X144872365Y-123717322D01*
X164776826Y-116620040D02*
X164776826Y-117334326D01*
X164729207Y-117477183D01*
X164633969Y-117572421D01*
X164491112Y-117620040D01*
X164395874Y-117620040D01*
X165681588Y-116953374D02*
X165681588Y-117620040D01*
X165443493Y-116572421D02*
X165205398Y-117286707D01*
X165824445Y-117286707D01*
X139985809Y-98027810D02*
X139985809Y-98504000D01*
X139652476Y-97504000D02*
X139985809Y-98027810D01*
X140319142Y-97504000D01*
X141176285Y-98504000D02*
X140604857Y-98504000D01*
X140890571Y-98504000D02*
X140890571Y-97504000D01*
X140795333Y-97646858D01*
X140700095Y-97742096D01*
X140604857Y-97789715D01*
X122224206Y-118646960D02*
X122224206Y-119361246D01*
X122176587Y-119504103D01*
X122081349Y-119599341D01*
X121938492Y-119646960D01*
X121843254Y-119646960D01*
X123224206Y-119646960D02*
X122652778Y-119646960D01*
X122938492Y-119646960D02*
X122938492Y-118646960D01*
X122843254Y-118789818D01*
X122748016Y-118885056D01*
X122652778Y-118932675D01*
X114973195Y-80508860D02*
X114973195Y-81318384D01*
X115020814Y-81413622D01*
X115068433Y-81461241D01*
X115163671Y-81508860D01*
X115354147Y-81508860D01*
X115449385Y-81461241D01*
X115497004Y-81413622D01*
X115544623Y-81318384D01*
X115544623Y-80508860D01*
X115925576Y-80508860D02*
X116544623Y-80508860D01*
X116211290Y-80889813D01*
X116354147Y-80889813D01*
X116449385Y-80937432D01*
X116497004Y-80985051D01*
X116544623Y-81080289D01*
X116544623Y-81318384D01*
X116497004Y-81413622D01*
X116449385Y-81461241D01*
X116354147Y-81508860D01*
X116068433Y-81508860D01*
X115973195Y-81461241D01*
X115925576Y-81413622D01*
X130937095Y-80706000D02*
X130937095Y-81515524D01*
X130984714Y-81610762D01*
X131032333Y-81658381D01*
X131127571Y-81706000D01*
X131318047Y-81706000D01*
X131413285Y-81658381D01*
X131460904Y-81610762D01*
X131508523Y-81515524D01*
X131508523Y-80706000D01*
X131937095Y-80801239D02*
X131984714Y-80753620D01*
X132079952Y-80706000D01*
X132318047Y-80706000D01*
X132413285Y-80753620D01*
X132460904Y-80801239D01*
X132508523Y-80896477D01*
X132508523Y-80991715D01*
X132460904Y-81134572D01*
X131889476Y-81706000D01*
X132508523Y-81706000D01*
X147318433Y-115991900D02*
X146985100Y-115515710D01*
X146747004Y-115991900D02*
X146747004Y-114991900D01*
X147127957Y-114991900D01*
X147223195Y-115039520D01*
X147270814Y-115087139D01*
X147318433Y-115182377D01*
X147318433Y-115325234D01*
X147270814Y-115420472D01*
X147223195Y-115468091D01*
X147127957Y-115515710D01*
X146747004Y-115515710D01*
X148223195Y-114991900D02*
X147747004Y-114991900D01*
X147699385Y-115468091D01*
X147747004Y-115420472D01*
X147842242Y-115372853D01*
X148080338Y-115372853D01*
X148175576Y-115420472D01*
X148223195Y-115468091D01*
X148270814Y-115563329D01*
X148270814Y-115801424D01*
X148223195Y-115896662D01*
X148175576Y-115944281D01*
X148080338Y-115991900D01*
X147842242Y-115991900D01*
X147747004Y-115944281D01*
X147699385Y-115896662D01*
X139896553Y-114996220D02*
X139563220Y-114520030D01*
X139325124Y-114996220D02*
X139325124Y-113996220D01*
X139706077Y-113996220D01*
X139801315Y-114043840D01*
X139848934Y-114091459D01*
X139896553Y-114186697D01*
X139896553Y-114329554D01*
X139848934Y-114424792D01*
X139801315Y-114472411D01*
X139706077Y-114520030D01*
X139325124Y-114520030D01*
X140848934Y-114996220D02*
X140277505Y-114996220D01*
X140563220Y-114996220D02*
X140563220Y-113996220D01*
X140467981Y-114139078D01*
X140372743Y-114234316D01*
X140277505Y-114281935D01*
X115371666Y-89348060D02*
X115371666Y-90062346D01*
X115324047Y-90205203D01*
X115228809Y-90300441D01*
X115085952Y-90348060D01*
X114990714Y-90348060D01*
X115847857Y-90348060D02*
X115847857Y-89348060D01*
X116228809Y-89348060D01*
X116324047Y-89395680D01*
X116371666Y-89443299D01*
X116419285Y-89538537D01*
X116419285Y-89681394D01*
X116371666Y-89776632D01*
X116324047Y-89824251D01*
X116228809Y-89871870D01*
X115847857Y-89871870D01*
X117371666Y-90348060D02*
X116800238Y-90348060D01*
X117085952Y-90348060D02*
X117085952Y-89348060D01*
X116990714Y-89490918D01*
X116895476Y-89586156D01*
X116800238Y-89633775D01*
X96092686Y-101640900D02*
X96092686Y-102355186D01*
X96045067Y-102498043D01*
X95949829Y-102593281D01*
X95806972Y-102640900D01*
X95711734Y-102640900D01*
X96521258Y-101736139D02*
X96568877Y-101688520D01*
X96664115Y-101640900D01*
X96902210Y-101640900D01*
X96997448Y-101688520D01*
X97045067Y-101736139D01*
X97092686Y-101831377D01*
X97092686Y-101926615D01*
X97045067Y-102069472D01*
X96473639Y-102640900D01*
X97092686Y-102640900D01*
X146675884Y-123749060D02*
X146675884Y-122749060D01*
X146913980Y-122749060D01*
X147056837Y-122796680D01*
X147152075Y-122891918D01*
X147199694Y-122987156D01*
X147247313Y-123177632D01*
X147247313Y-123320489D01*
X147199694Y-123510965D01*
X147152075Y-123606203D01*
X147056837Y-123701441D01*
X146913980Y-123749060D01*
X146675884Y-123749060D01*
X148104456Y-123082394D02*
X148104456Y-123749060D01*
X147866360Y-122701441D02*
X147628265Y-123415727D01*
X148247313Y-123415727D01*
X105878404Y-105023160D02*
X105878404Y-104023160D01*
X106116500Y-104023160D01*
X106259357Y-104070780D01*
X106354595Y-104166018D01*
X106402214Y-104261256D01*
X106449833Y-104451732D01*
X106449833Y-104594589D01*
X106402214Y-104785065D01*
X106354595Y-104880303D01*
X106259357Y-104975541D01*
X106116500Y-105023160D01*
X105878404Y-105023160D01*
X106783166Y-104023160D02*
X107402214Y-104023160D01*
X107068880Y-104404113D01*
X107211738Y-104404113D01*
X107306976Y-104451732D01*
X107354595Y-104499351D01*
X107402214Y-104594589D01*
X107402214Y-104832684D01*
X107354595Y-104927922D01*
X107306976Y-104975541D01*
X107211738Y-105023160D01*
X106926023Y-105023160D01*
X106830785Y-104975541D01*
X106783166Y-104927922D01*
X153056364Y-118966240D02*
X153056364Y-117966240D01*
X153294460Y-117966240D01*
X153437317Y-118013860D01*
X153532555Y-118109098D01*
X153580174Y-118204336D01*
X153627793Y-118394812D01*
X153627793Y-118537669D01*
X153580174Y-118728145D01*
X153532555Y-118823383D01*
X153437317Y-118918621D01*
X153294460Y-118966240D01*
X153056364Y-118966240D01*
X154580174Y-118966240D02*
X154008745Y-118966240D01*
X154294460Y-118966240D02*
X154294460Y-117966240D01*
X154199221Y-118109098D01*
X154103983Y-118204336D01*
X154008745Y-118251955D01*
X112704761Y-109624761D02*
X112609523Y-109672380D01*
X112419047Y-109672380D01*
X112323809Y-109624761D01*
X112276190Y-109577142D01*
X112228571Y-109481904D01*
X112228571Y-109196190D01*
X112276190Y-109100952D01*
X112323809Y-109053333D01*
X112419047Y-109005714D01*
X112609523Y-109005714D01*
X112704761Y-109053333D01*
X113276190Y-109672380D02*
X113180952Y-109624761D01*
X113133333Y-109577142D01*
X113085714Y-109481904D01*
X113085714Y-109196190D01*
X113133333Y-109100952D01*
X113180952Y-109053333D01*
X113276190Y-109005714D01*
X113419047Y-109005714D01*
X113514285Y-109053333D01*
X113561904Y-109100952D01*
X113609523Y-109196190D01*
X113609523Y-109481904D01*
X113561904Y-109577142D01*
X113514285Y-109624761D01*
X113419047Y-109672380D01*
X113276190Y-109672380D01*
X114038095Y-109005714D02*
X114038095Y-109672380D01*
X114038095Y-109100952D02*
X114085714Y-109053333D01*
X114180952Y-109005714D01*
X114323809Y-109005714D01*
X114419047Y-109053333D01*
X114466666Y-109148571D01*
X114466666Y-109672380D01*
X114942857Y-109005714D02*
X114942857Y-109672380D01*
X114942857Y-109100952D02*
X114990476Y-109053333D01*
X115085714Y-109005714D01*
X115228571Y-109005714D01*
X115323809Y-109053333D01*
X115371428Y-109148571D01*
X115371428Y-109672380D01*
X116371428Y-109672380D02*
X115800000Y-109672380D01*
X116085714Y-109672380D02*
X116085714Y-108672380D01*
X115990476Y-108815238D01*
X115895238Y-108910476D01*
X115800000Y-108958095D01*
X110342442Y-77372482D02*
X110294823Y-77420101D01*
X110151966Y-77467720D01*
X110056728Y-77467720D01*
X109913871Y-77420101D01*
X109818633Y-77324863D01*
X109771014Y-77229625D01*
X109723395Y-77039149D01*
X109723395Y-76896292D01*
X109771014Y-76705816D01*
X109818633Y-76610578D01*
X109913871Y-76515340D01*
X110056728Y-76467720D01*
X110151966Y-76467720D01*
X110294823Y-76515340D01*
X110342442Y-76562959D01*
X111294823Y-77467720D02*
X110723395Y-77467720D01*
X111009109Y-77467720D02*
X111009109Y-76467720D01*
X110913871Y-76610578D01*
X110818633Y-76705816D01*
X110723395Y-76753435D01*
X111628157Y-76467720D02*
X112247204Y-76467720D01*
X111913871Y-76848673D01*
X112056728Y-76848673D01*
X112151966Y-76896292D01*
X112199585Y-76943911D01*
X112247204Y-77039149D01*
X112247204Y-77277244D01*
X112199585Y-77372482D01*
X112151966Y-77420101D01*
X112056728Y-77467720D01*
X111771014Y-77467720D01*
X111675776Y-77420101D01*
X111628157Y-77372482D01*
X124238782Y-97771222D02*
X124191163Y-97818841D01*
X124048306Y-97866460D01*
X123953068Y-97866460D01*
X123810211Y-97818841D01*
X123714973Y-97723603D01*
X123667354Y-97628365D01*
X123619735Y-97437889D01*
X123619735Y-97295032D01*
X123667354Y-97104556D01*
X123714973Y-97009318D01*
X123810211Y-96914080D01*
X123953068Y-96866460D01*
X124048306Y-96866460D01*
X124191163Y-96914080D01*
X124238782Y-96961699D01*
X125191163Y-97866460D02*
X124619735Y-97866460D01*
X124905449Y-97866460D02*
X124905449Y-96866460D01*
X124810211Y-97009318D01*
X124714973Y-97104556D01*
X124619735Y-97152175D01*
X125572116Y-96961699D02*
X125619735Y-96914080D01*
X125714973Y-96866460D01*
X125953068Y-96866460D01*
X126048306Y-96914080D01*
X126095925Y-96961699D01*
X126143544Y-97056937D01*
X126143544Y-97152175D01*
X126095925Y-97295032D01*
X125524497Y-97866460D01*
X126143544Y-97866460D01*
X122420142Y-83676762D02*
X122372523Y-83724381D01*
X122229666Y-83772000D01*
X122134428Y-83772000D01*
X121991571Y-83724381D01*
X121896333Y-83629143D01*
X121848714Y-83533905D01*
X121801095Y-83343429D01*
X121801095Y-83200572D01*
X121848714Y-83010096D01*
X121896333Y-82914858D01*
X121991571Y-82819620D01*
X122134428Y-82772000D01*
X122229666Y-82772000D01*
X122372523Y-82819620D01*
X122420142Y-82867239D01*
X123372523Y-83772000D02*
X122801095Y-83772000D01*
X123086809Y-83772000D02*
X123086809Y-82772000D01*
X122991571Y-82914858D01*
X122896333Y-83010096D01*
X122801095Y-83057715D01*
X124324904Y-83772000D02*
X123753476Y-83772000D01*
X124039190Y-83772000D02*
X124039190Y-82772000D01*
X123943952Y-82914858D01*
X123848714Y-83010096D01*
X123753476Y-83057715D01*
X133342142Y-100567762D02*
X133294523Y-100615381D01*
X133151666Y-100663000D01*
X133056428Y-100663000D01*
X132913571Y-100615381D01*
X132818333Y-100520143D01*
X132770714Y-100424905D01*
X132723095Y-100234429D01*
X132723095Y-100091572D01*
X132770714Y-99901096D01*
X132818333Y-99805858D01*
X132913571Y-99710620D01*
X133056428Y-99663000D01*
X133151666Y-99663000D01*
X133294523Y-99710620D01*
X133342142Y-99758239D01*
X134294523Y-100663000D02*
X133723095Y-100663000D01*
X134008809Y-100663000D02*
X134008809Y-99663000D01*
X133913571Y-99805858D01*
X133818333Y-99901096D01*
X133723095Y-99948715D01*
X134913571Y-99663000D02*
X135008809Y-99663000D01*
X135104047Y-99710620D01*
X135151666Y-99758239D01*
X135199285Y-99853477D01*
X135246904Y-100043953D01*
X135246904Y-100282048D01*
X135199285Y-100472524D01*
X135151666Y-100567762D01*
X135104047Y-100615381D01*
X135008809Y-100663000D01*
X134913571Y-100663000D01*
X134818333Y-100615381D01*
X134770714Y-100567762D01*
X134723095Y-100472524D01*
X134675476Y-100282048D01*
X134675476Y-100043953D01*
X134723095Y-99853477D01*
X134770714Y-99758239D01*
X134818333Y-99710620D01*
X134913571Y-99663000D01*
X140320733Y-82101962D02*
X140273114Y-82149581D01*
X140130257Y-82197200D01*
X140035019Y-82197200D01*
X139892161Y-82149581D01*
X139796923Y-82054343D01*
X139749304Y-81959105D01*
X139701685Y-81768629D01*
X139701685Y-81625772D01*
X139749304Y-81435296D01*
X139796923Y-81340058D01*
X139892161Y-81244820D01*
X140035019Y-81197200D01*
X140130257Y-81197200D01*
X140273114Y-81244820D01*
X140320733Y-81292439D01*
X140796923Y-82197200D02*
X140987400Y-82197200D01*
X141082638Y-82149581D01*
X141130257Y-82101962D01*
X141225495Y-81959105D01*
X141273114Y-81768629D01*
X141273114Y-81387677D01*
X141225495Y-81292439D01*
X141177876Y-81244820D01*
X141082638Y-81197200D01*
X140892161Y-81197200D01*
X140796923Y-81244820D01*
X140749304Y-81292439D01*
X140701685Y-81387677D01*
X140701685Y-81625772D01*
X140749304Y-81721010D01*
X140796923Y-81768629D01*
X140892161Y-81816248D01*
X141082638Y-81816248D01*
X141177876Y-81768629D01*
X141225495Y-81721010D01*
X141273114Y-81625772D01*
X119528293Y-95071202D02*
X119480674Y-95118821D01*
X119337817Y-95166440D01*
X119242579Y-95166440D01*
X119099721Y-95118821D01*
X119004483Y-95023583D01*
X118956864Y-94928345D01*
X118909245Y-94737869D01*
X118909245Y-94595012D01*
X118956864Y-94404536D01*
X119004483Y-94309298D01*
X119099721Y-94214060D01*
X119242579Y-94166440D01*
X119337817Y-94166440D01*
X119480674Y-94214060D01*
X119528293Y-94261679D01*
X120099721Y-94595012D02*
X120004483Y-94547393D01*
X119956864Y-94499774D01*
X119909245Y-94404536D01*
X119909245Y-94356917D01*
X119956864Y-94261679D01*
X120004483Y-94214060D01*
X120099721Y-94166440D01*
X120290198Y-94166440D01*
X120385436Y-94214060D01*
X120433055Y-94261679D01*
X120480674Y-94356917D01*
X120480674Y-94404536D01*
X120433055Y-94499774D01*
X120385436Y-94547393D01*
X120290198Y-94595012D01*
X120099721Y-94595012D01*
X120004483Y-94642631D01*
X119956864Y-94690250D01*
X119909245Y-94785488D01*
X119909245Y-94975964D01*
X119956864Y-95071202D01*
X120004483Y-95118821D01*
X120099721Y-95166440D01*
X120290198Y-95166440D01*
X120385436Y-95118821D01*
X120433055Y-95071202D01*
X120480674Y-94975964D01*
X120480674Y-94785488D01*
X120433055Y-94690250D01*
X120385436Y-94642631D01*
X120290198Y-94595012D01*
X109779773Y-107235262D02*
X109732154Y-107282881D01*
X109589297Y-107330500D01*
X109494059Y-107330500D01*
X109351201Y-107282881D01*
X109255963Y-107187643D01*
X109208344Y-107092405D01*
X109160725Y-106901929D01*
X109160725Y-106759072D01*
X109208344Y-106568596D01*
X109255963Y-106473358D01*
X109351201Y-106378120D01*
X109494059Y-106330500D01*
X109589297Y-106330500D01*
X109732154Y-106378120D01*
X109779773Y-106425739D01*
X110113106Y-106330500D02*
X110779773Y-106330500D01*
X110351201Y-107330500D01*
X123150333Y-93201762D02*
X123102714Y-93249381D01*
X122959857Y-93297000D01*
X122864619Y-93297000D01*
X122721761Y-93249381D01*
X122626523Y-93154143D01*
X122578904Y-93058905D01*
X122531285Y-92868429D01*
X122531285Y-92725572D01*
X122578904Y-92535096D01*
X122626523Y-92439858D01*
X122721761Y-92344620D01*
X122864619Y-92297000D01*
X122959857Y-92297000D01*
X123102714Y-92344620D01*
X123150333Y-92392239D01*
X124007476Y-92630334D02*
X124007476Y-93297000D01*
X123769380Y-92249381D02*
X123531285Y-92963667D01*
X124150333Y-92963667D01*
X137371793Y-117481622D02*
X137324174Y-117529241D01*
X137181317Y-117576860D01*
X137086079Y-117576860D01*
X136943221Y-117529241D01*
X136847983Y-117434003D01*
X136800364Y-117338765D01*
X136752745Y-117148289D01*
X136752745Y-117005432D01*
X136800364Y-116814956D01*
X136847983Y-116719718D01*
X136943221Y-116624480D01*
X137086079Y-116576860D01*
X137181317Y-116576860D01*
X137324174Y-116624480D01*
X137371793Y-116672099D01*
X137705126Y-116576860D02*
X138324174Y-116576860D01*
X137990840Y-116957813D01*
X138133698Y-116957813D01*
X138228936Y-117005432D01*
X138276555Y-117053051D01*
X138324174Y-117148289D01*
X138324174Y-117386384D01*
X138276555Y-117481622D01*
X138228936Y-117529241D01*
X138133698Y-117576860D01*
X137847983Y-117576860D01*
X137752745Y-117529241D01*
X137705126Y-117481622D01*
M02*
