G04 #@! TF.GenerationSoftware,KiCad,Pcbnew,5.1.4-e60b266~84~ubuntu18.04.1*
G04 #@! TF.CreationDate,2019-12-12T06:09:26+05:00*
G04 #@! TF.ProjectId,rck22,72636b32-322e-46b6-9963-61645f706362,rev?*
G04 #@! TF.SameCoordinates,Original*
G04 #@! TF.FileFunction,Soldermask,Bot*
G04 #@! TF.FilePolarity,Negative*
%FSLAX46Y46*%
G04 Gerber Fmt 4.6, Leading zero omitted, Abs format (unit mm)*
G04 Created by KiCad (PCBNEW 5.1.4-e60b266~84~ubuntu18.04.1) date 2019-12-12 06:09:26*
%MOMM*%
%LPD*%
G04 APERTURE LIST*
%ADD10C,0.100000*%
G04 APERTURE END LIST*
D10*
G36*
X183624098Y-116927032D02*
G01*
X184088351Y-117119332D01*
X184506165Y-117398506D01*
X184861494Y-117753835D01*
X185140668Y-118171649D01*
X185332968Y-118635902D01*
X185431000Y-119128746D01*
X185431000Y-119631254D01*
X185332968Y-120124098D01*
X185140668Y-120588351D01*
X184861494Y-121006165D01*
X184506165Y-121361494D01*
X184088351Y-121640668D01*
X183624098Y-121832968D01*
X183131254Y-121931000D01*
X182628746Y-121931000D01*
X182135902Y-121832968D01*
X181671649Y-121640668D01*
X181253835Y-121361494D01*
X180898506Y-121006165D01*
X180619332Y-120588351D01*
X180427032Y-120124098D01*
X180329000Y-119631254D01*
X180329000Y-119128746D01*
X180427032Y-118635902D01*
X180619332Y-118171649D01*
X180898506Y-117753835D01*
X181253835Y-117398506D01*
X181671649Y-117119332D01*
X182135902Y-116927032D01*
X182628746Y-116829000D01*
X183131254Y-116829000D01*
X183624098Y-116927032D01*
X183624098Y-116927032D01*
G37*
G36*
X98534098Y-116927032D02*
G01*
X98998351Y-117119332D01*
X99416165Y-117398506D01*
X99771494Y-117753835D01*
X100050668Y-118171649D01*
X100242968Y-118635902D01*
X100341000Y-119128746D01*
X100341000Y-119631254D01*
X100242968Y-120124098D01*
X100050668Y-120588351D01*
X99771494Y-121006165D01*
X99416165Y-121361494D01*
X98998351Y-121640668D01*
X98534098Y-121832968D01*
X98041254Y-121931000D01*
X97538746Y-121931000D01*
X97045902Y-121832968D01*
X96581649Y-121640668D01*
X96163835Y-121361494D01*
X95808506Y-121006165D01*
X95529332Y-120588351D01*
X95337032Y-120124098D01*
X95239000Y-119631254D01*
X95239000Y-119128746D01*
X95337032Y-118635902D01*
X95529332Y-118171649D01*
X95808506Y-117753835D01*
X96163835Y-117398506D01*
X96581649Y-117119332D01*
X97045902Y-116927032D01*
X97538746Y-116829000D01*
X98041254Y-116829000D01*
X98534098Y-116927032D01*
X98534098Y-116927032D01*
G37*
G36*
X173026564Y-119492068D02*
G01*
X173217835Y-119571295D01*
X173389193Y-119685794D01*
X173389973Y-119686315D01*
X173536365Y-119832707D01*
X173536367Y-119832710D01*
X173651385Y-120004845D01*
X173730612Y-120196116D01*
X173771000Y-120399163D01*
X173771000Y-120606197D01*
X173730612Y-120809244D01*
X173651385Y-121000515D01*
X173581238Y-121105496D01*
X173536365Y-121172653D01*
X173389973Y-121319045D01*
X173389970Y-121319047D01*
X173217835Y-121434065D01*
X173026564Y-121513292D01*
X172823517Y-121553680D01*
X172616483Y-121553680D01*
X172413436Y-121513292D01*
X172222165Y-121434065D01*
X172050030Y-121319047D01*
X172050027Y-121319045D01*
X171903635Y-121172653D01*
X171858762Y-121105496D01*
X171788615Y-121000515D01*
X171709388Y-120809244D01*
X171669000Y-120606197D01*
X171669000Y-120399163D01*
X171709388Y-120196116D01*
X171788615Y-120004845D01*
X171903633Y-119832710D01*
X171903635Y-119832707D01*
X172050027Y-119686315D01*
X172050807Y-119685794D01*
X172222165Y-119571295D01*
X172413436Y-119492068D01*
X172616483Y-119451680D01*
X172823517Y-119451680D01*
X173026564Y-119492068D01*
X173026564Y-119492068D01*
G37*
G36*
X177090564Y-119492068D02*
G01*
X177281835Y-119571295D01*
X177453193Y-119685794D01*
X177453973Y-119686315D01*
X177600365Y-119832707D01*
X177600367Y-119832710D01*
X177715385Y-120004845D01*
X177794612Y-120196116D01*
X177835000Y-120399163D01*
X177835000Y-120606197D01*
X177794612Y-120809244D01*
X177715385Y-121000515D01*
X177645238Y-121105496D01*
X177600365Y-121172653D01*
X177453973Y-121319045D01*
X177453970Y-121319047D01*
X177281835Y-121434065D01*
X177090564Y-121513292D01*
X176887517Y-121553680D01*
X176680483Y-121553680D01*
X176477436Y-121513292D01*
X176286165Y-121434065D01*
X176114030Y-121319047D01*
X176114027Y-121319045D01*
X175967635Y-121172653D01*
X175922762Y-121105496D01*
X175852615Y-121000515D01*
X175773388Y-120809244D01*
X175733000Y-120606197D01*
X175733000Y-120399163D01*
X175773388Y-120196116D01*
X175852615Y-120004845D01*
X175967633Y-119832710D01*
X175967635Y-119832707D01*
X176114027Y-119686315D01*
X176114807Y-119685794D01*
X176286165Y-119571295D01*
X176477436Y-119492068D01*
X176680483Y-119451680D01*
X176887517Y-119451680D01*
X177090564Y-119492068D01*
X177090564Y-119492068D01*
G37*
G36*
X113334960Y-119780353D02*
G01*
X113435236Y-119821889D01*
X113525073Y-119881917D01*
X113525482Y-119882190D01*
X113602230Y-119958938D01*
X113602232Y-119958941D01*
X113662531Y-120049184D01*
X113704067Y-120149460D01*
X113725240Y-120255909D01*
X113725240Y-120364451D01*
X113704067Y-120470900D01*
X113662531Y-120571176D01*
X113602503Y-120661013D01*
X113602230Y-120661422D01*
X113525482Y-120738170D01*
X113525479Y-120738172D01*
X113435236Y-120798471D01*
X113334960Y-120840007D01*
X113228511Y-120861180D01*
X113119969Y-120861180D01*
X113013520Y-120840007D01*
X112913244Y-120798471D01*
X112823001Y-120738172D01*
X112822998Y-120738170D01*
X112746250Y-120661422D01*
X112745977Y-120661013D01*
X112685949Y-120571176D01*
X112644413Y-120470900D01*
X112623240Y-120364451D01*
X112623240Y-120255909D01*
X112644413Y-120149460D01*
X112685949Y-120049184D01*
X112746248Y-119958941D01*
X112746250Y-119958938D01*
X112822998Y-119882190D01*
X112823407Y-119881917D01*
X112913244Y-119821889D01*
X113013520Y-119780353D01*
X113119969Y-119759180D01*
X113228511Y-119759180D01*
X113334960Y-119780353D01*
X113334960Y-119780353D01*
G37*
G36*
X105334960Y-119780353D02*
G01*
X105435236Y-119821889D01*
X105525073Y-119881917D01*
X105525482Y-119882190D01*
X105602230Y-119958938D01*
X105602232Y-119958941D01*
X105662531Y-120049184D01*
X105704067Y-120149460D01*
X105725240Y-120255909D01*
X105725240Y-120364451D01*
X105704067Y-120470900D01*
X105662531Y-120571176D01*
X105602503Y-120661013D01*
X105602230Y-120661422D01*
X105525482Y-120738170D01*
X105525479Y-120738172D01*
X105435236Y-120798471D01*
X105334960Y-120840007D01*
X105228511Y-120861180D01*
X105119969Y-120861180D01*
X105013520Y-120840007D01*
X104913244Y-120798471D01*
X104823001Y-120738172D01*
X104822998Y-120738170D01*
X104746250Y-120661422D01*
X104745977Y-120661013D01*
X104685949Y-120571176D01*
X104644413Y-120470900D01*
X104623240Y-120364451D01*
X104623240Y-120255909D01*
X104644413Y-120149460D01*
X104685949Y-120049184D01*
X104746248Y-119958941D01*
X104746250Y-119958938D01*
X104822998Y-119882190D01*
X104823407Y-119881917D01*
X104913244Y-119821889D01*
X105013520Y-119780353D01*
X105119969Y-119759180D01*
X105228511Y-119759180D01*
X105334960Y-119780353D01*
X105334960Y-119780353D01*
G37*
G36*
X162118508Y-117190553D02*
G01*
X162147617Y-117193420D01*
X162270331Y-117230645D01*
X162270333Y-117230646D01*
X162383424Y-117291094D01*
X162482553Y-117372447D01*
X162563906Y-117471575D01*
X162605515Y-117549420D01*
X162624355Y-117584668D01*
X162661580Y-117707382D01*
X162661580Y-117707385D01*
X162671000Y-117803021D01*
X162671000Y-118416979D01*
X162664720Y-118480736D01*
X162661580Y-118512618D01*
X162624355Y-118635332D01*
X162624354Y-118635334D01*
X162563906Y-118748425D01*
X162482553Y-118847553D01*
X162383425Y-118928906D01*
X162270334Y-118989354D01*
X162270332Y-118989355D01*
X162147618Y-119026580D01*
X162118509Y-119029447D01*
X162020000Y-119039150D01*
X161921492Y-119029447D01*
X161892383Y-119026580D01*
X161769669Y-118989355D01*
X161769667Y-118989354D01*
X161656576Y-118928906D01*
X161557447Y-118847553D01*
X161476094Y-118748425D01*
X161415646Y-118635334D01*
X161415645Y-118635332D01*
X161378420Y-118512618D01*
X161375280Y-118480736D01*
X161369000Y-118416979D01*
X161369000Y-117803022D01*
X161375280Y-117739265D01*
X161378420Y-117707383D01*
X161415645Y-117584669D01*
X161476095Y-117471575D01*
X161536059Y-117398509D01*
X161557447Y-117372447D01*
X161656575Y-117291094D01*
X161769666Y-117230646D01*
X161769668Y-117230645D01*
X161892382Y-117193420D01*
X161921491Y-117190553D01*
X162020000Y-117180850D01*
X162118508Y-117190553D01*
X162118508Y-117190553D01*
G37*
G36*
X160471408Y-117188952D02*
G01*
X160517885Y-117203051D01*
X160560710Y-117225941D01*
X160598250Y-117256750D01*
X160629059Y-117294290D01*
X160651949Y-117337115D01*
X160666048Y-117383592D01*
X160671000Y-117433876D01*
X160671000Y-118786124D01*
X160666048Y-118836408D01*
X160651949Y-118882885D01*
X160629059Y-118925710D01*
X160598250Y-118963250D01*
X160560710Y-118994059D01*
X160517885Y-119016949D01*
X160471408Y-119031048D01*
X160421124Y-119036000D01*
X159618876Y-119036000D01*
X159568592Y-119031048D01*
X159522115Y-119016949D01*
X159479290Y-118994059D01*
X159441750Y-118963250D01*
X159410941Y-118925710D01*
X159388051Y-118882885D01*
X159373952Y-118836408D01*
X159369000Y-118786124D01*
X159369000Y-117433876D01*
X159373952Y-117383592D01*
X159388051Y-117337115D01*
X159410941Y-117294290D01*
X159441750Y-117256750D01*
X159479290Y-117225941D01*
X159522115Y-117203051D01*
X159568592Y-117188952D01*
X159618876Y-117184000D01*
X160421124Y-117184000D01*
X160471408Y-117188952D01*
X160471408Y-117188952D01*
G37*
G36*
X177926300Y-107349860D02*
G01*
X176124300Y-107349860D01*
X176124300Y-105547860D01*
X177926300Y-105547860D01*
X177926300Y-107349860D01*
X177926300Y-107349860D01*
G37*
G36*
X174622216Y-105556986D02*
G01*
X174661927Y-105560897D01*
X174831766Y-105612417D01*
X174831768Y-105612418D01*
X174988290Y-105696080D01*
X175125485Y-105808675D01*
X175238080Y-105945870D01*
X175321742Y-106102392D01*
X175321743Y-106102394D01*
X175373263Y-106272233D01*
X175373263Y-106272236D01*
X175390660Y-106448860D01*
X175377231Y-106585200D01*
X175373263Y-106625487D01*
X175321743Y-106795326D01*
X175321742Y-106795328D01*
X175238080Y-106951850D01*
X175125485Y-107089045D01*
X174988290Y-107201640D01*
X174831768Y-107285302D01*
X174831766Y-107285303D01*
X174661927Y-107336823D01*
X174622216Y-107340734D01*
X174529565Y-107349860D01*
X174441035Y-107349860D01*
X174348384Y-107340734D01*
X174308673Y-107336823D01*
X174138834Y-107285303D01*
X174138832Y-107285302D01*
X173982310Y-107201640D01*
X173845115Y-107089045D01*
X173732520Y-106951850D01*
X173648858Y-106795328D01*
X173648857Y-106795326D01*
X173597337Y-106625487D01*
X173593369Y-106585200D01*
X173579940Y-106448860D01*
X173597337Y-106272236D01*
X173597337Y-106272233D01*
X173648857Y-106102394D01*
X173648858Y-106102392D01*
X173732520Y-105945870D01*
X173845115Y-105808675D01*
X173982310Y-105696080D01*
X174138832Y-105612418D01*
X174138834Y-105612417D01*
X174308673Y-105560897D01*
X174348384Y-105556986D01*
X174441035Y-105547860D01*
X174529565Y-105547860D01*
X174622216Y-105556986D01*
X174622216Y-105556986D01*
G37*
G36*
X164304736Y-105556986D02*
G01*
X164344447Y-105560897D01*
X164514286Y-105612417D01*
X164514288Y-105612418D01*
X164670810Y-105696080D01*
X164808005Y-105808675D01*
X164920600Y-105945870D01*
X165004262Y-106102392D01*
X165004263Y-106102394D01*
X165055783Y-106272233D01*
X165055783Y-106272236D01*
X165073180Y-106448860D01*
X165059751Y-106585200D01*
X165055783Y-106625487D01*
X165004263Y-106795326D01*
X165004262Y-106795328D01*
X164920600Y-106951850D01*
X164808005Y-107089045D01*
X164670810Y-107201640D01*
X164514288Y-107285302D01*
X164514286Y-107285303D01*
X164344447Y-107336823D01*
X164304736Y-107340734D01*
X164212085Y-107349860D01*
X164123555Y-107349860D01*
X164030904Y-107340734D01*
X163991193Y-107336823D01*
X163821354Y-107285303D01*
X163821352Y-107285302D01*
X163664830Y-107201640D01*
X163527635Y-107089045D01*
X163415040Y-106951850D01*
X163331378Y-106795328D01*
X163331377Y-106795326D01*
X163279857Y-106625487D01*
X163275889Y-106585200D01*
X163262460Y-106448860D01*
X163279857Y-106272236D01*
X163279857Y-106272233D01*
X163331377Y-106102394D01*
X163331378Y-106102392D01*
X163415040Y-105945870D01*
X163527635Y-105808675D01*
X163664830Y-105696080D01*
X163821352Y-105612418D01*
X163821354Y-105612417D01*
X163991193Y-105560897D01*
X164030904Y-105556986D01*
X164123555Y-105547860D01*
X164212085Y-105547860D01*
X164304736Y-105556986D01*
X164304736Y-105556986D01*
G37*
G36*
X167608820Y-107349860D02*
G01*
X165806820Y-107349860D01*
X165806820Y-105547860D01*
X167608820Y-105547860D01*
X167608820Y-107349860D01*
X167608820Y-107349860D01*
G37*
G36*
X155310736Y-98415280D02*
G01*
X155342618Y-98418420D01*
X155465332Y-98455645D01*
X155465334Y-98455646D01*
X155578425Y-98516094D01*
X155677553Y-98597447D01*
X155758906Y-98696575D01*
X155763541Y-98705247D01*
X155819355Y-98809668D01*
X155856580Y-98932382D01*
X155856580Y-98932385D01*
X155869150Y-99060000D01*
X155859447Y-99158509D01*
X155856580Y-99187618D01*
X155819355Y-99310332D01*
X155819354Y-99310334D01*
X155758906Y-99423425D01*
X155677553Y-99522553D01*
X155578425Y-99603906D01*
X155465334Y-99664354D01*
X155465332Y-99664355D01*
X155342618Y-99701580D01*
X155310736Y-99704720D01*
X155246979Y-99711000D01*
X154633021Y-99711000D01*
X154569264Y-99704720D01*
X154537382Y-99701580D01*
X154414668Y-99664355D01*
X154414666Y-99664354D01*
X154301575Y-99603906D01*
X154202447Y-99522553D01*
X154121094Y-99423425D01*
X154060646Y-99310334D01*
X154060645Y-99310332D01*
X154023420Y-99187618D01*
X154020553Y-99158509D01*
X154010850Y-99060000D01*
X154023420Y-98932385D01*
X154023420Y-98932382D01*
X154060645Y-98809668D01*
X154116459Y-98705247D01*
X154121094Y-98696575D01*
X154202447Y-98597447D01*
X154301575Y-98516094D01*
X154414666Y-98455646D01*
X154414668Y-98455645D01*
X154537382Y-98418420D01*
X154569264Y-98415280D01*
X154633021Y-98409000D01*
X155246979Y-98409000D01*
X155310736Y-98415280D01*
X155310736Y-98415280D01*
G37*
G36*
X99430736Y-98415280D02*
G01*
X99462618Y-98418420D01*
X99585332Y-98455645D01*
X99585334Y-98455646D01*
X99698425Y-98516094D01*
X99797553Y-98597447D01*
X99878906Y-98696575D01*
X99883541Y-98705247D01*
X99939355Y-98809668D01*
X99976580Y-98932382D01*
X99976580Y-98932385D01*
X99989150Y-99060000D01*
X99979447Y-99158509D01*
X99976580Y-99187618D01*
X99939355Y-99310332D01*
X99939354Y-99310334D01*
X99878906Y-99423425D01*
X99797553Y-99522553D01*
X99698425Y-99603906D01*
X99585334Y-99664354D01*
X99585332Y-99664355D01*
X99462618Y-99701580D01*
X99430736Y-99704720D01*
X99366979Y-99711000D01*
X98753021Y-99711000D01*
X98689264Y-99704720D01*
X98657382Y-99701580D01*
X98534668Y-99664355D01*
X98534666Y-99664354D01*
X98421575Y-99603906D01*
X98322447Y-99522553D01*
X98241094Y-99423425D01*
X98180646Y-99310334D01*
X98180645Y-99310332D01*
X98143420Y-99187618D01*
X98140553Y-99158509D01*
X98130850Y-99060000D01*
X98143420Y-98932385D01*
X98143420Y-98932382D01*
X98180645Y-98809668D01*
X98236459Y-98705247D01*
X98241094Y-98696575D01*
X98322447Y-98597447D01*
X98421575Y-98516094D01*
X98534666Y-98455646D01*
X98534668Y-98455645D01*
X98657382Y-98418420D01*
X98689264Y-98415280D01*
X98753021Y-98409000D01*
X99366979Y-98409000D01*
X99430736Y-98415280D01*
X99430736Y-98415280D01*
G37*
G36*
X177603696Y-97184566D02*
G01*
X177776767Y-97256254D01*
X177931822Y-97359859D01*
X177932527Y-97360330D01*
X178064990Y-97492793D01*
X178064992Y-97492796D01*
X178169066Y-97648553D01*
X178240754Y-97821624D01*
X178277300Y-98005353D01*
X178277300Y-98192687D01*
X178240754Y-98376416D01*
X178169066Y-98549487D01*
X178070785Y-98696574D01*
X178064990Y-98705247D01*
X177932527Y-98837710D01*
X177932524Y-98837712D01*
X177776767Y-98941786D01*
X177603696Y-99013474D01*
X177419967Y-99050020D01*
X177232633Y-99050020D01*
X177048904Y-99013474D01*
X176875833Y-98941786D01*
X176720076Y-98837712D01*
X176720073Y-98837710D01*
X176587610Y-98705247D01*
X176581815Y-98696574D01*
X176483534Y-98549487D01*
X176411846Y-98376416D01*
X176375300Y-98192687D01*
X176375300Y-98005353D01*
X176411846Y-97821624D01*
X176483534Y-97648553D01*
X176587608Y-97492796D01*
X176587610Y-97492793D01*
X176720073Y-97360330D01*
X176720778Y-97359859D01*
X176875833Y-97256254D01*
X177048904Y-97184566D01*
X177232633Y-97148020D01*
X177419967Y-97148020D01*
X177603696Y-97184566D01*
X177603696Y-97184566D01*
G37*
G36*
X172603696Y-97184566D02*
G01*
X172776767Y-97256254D01*
X172931822Y-97359859D01*
X172932527Y-97360330D01*
X173064990Y-97492793D01*
X173064992Y-97492796D01*
X173169066Y-97648553D01*
X173240754Y-97821624D01*
X173277300Y-98005353D01*
X173277300Y-98192687D01*
X173240754Y-98376416D01*
X173169066Y-98549487D01*
X173070785Y-98696574D01*
X173064990Y-98705247D01*
X172932527Y-98837710D01*
X172932524Y-98837712D01*
X172776767Y-98941786D01*
X172603696Y-99013474D01*
X172419967Y-99050020D01*
X172232633Y-99050020D01*
X172048904Y-99013474D01*
X171875833Y-98941786D01*
X171720076Y-98837712D01*
X171720073Y-98837710D01*
X171587610Y-98705247D01*
X171581815Y-98696574D01*
X171483534Y-98549487D01*
X171411846Y-98376416D01*
X171375300Y-98192687D01*
X171375300Y-98005353D01*
X171411846Y-97821624D01*
X171483534Y-97648553D01*
X171587608Y-97492796D01*
X171587610Y-97492793D01*
X171720073Y-97360330D01*
X171720778Y-97359859D01*
X171875833Y-97256254D01*
X172048904Y-97184566D01*
X172232633Y-97148020D01*
X172419967Y-97148020D01*
X172603696Y-97184566D01*
X172603696Y-97184566D01*
G37*
G36*
X175103696Y-97184566D02*
G01*
X175276767Y-97256254D01*
X175431822Y-97359859D01*
X175432527Y-97360330D01*
X175564990Y-97492793D01*
X175564992Y-97492796D01*
X175669066Y-97648553D01*
X175740754Y-97821624D01*
X175777300Y-98005353D01*
X175777300Y-98192687D01*
X175740754Y-98376416D01*
X175669066Y-98549487D01*
X175570785Y-98696574D01*
X175564990Y-98705247D01*
X175432527Y-98837710D01*
X175432524Y-98837712D01*
X175276767Y-98941786D01*
X175103696Y-99013474D01*
X174919967Y-99050020D01*
X174732633Y-99050020D01*
X174548904Y-99013474D01*
X174375833Y-98941786D01*
X174220076Y-98837712D01*
X174220073Y-98837710D01*
X174087610Y-98705247D01*
X174081815Y-98696574D01*
X173983534Y-98549487D01*
X173911846Y-98376416D01*
X173875300Y-98192687D01*
X173875300Y-98005353D01*
X173911846Y-97821624D01*
X173983534Y-97648553D01*
X174087608Y-97492796D01*
X174087610Y-97492793D01*
X174220073Y-97360330D01*
X174220778Y-97359859D01*
X174375833Y-97256254D01*
X174548904Y-97184566D01*
X174732633Y-97148020D01*
X174919967Y-97148020D01*
X175103696Y-97184566D01*
X175103696Y-97184566D01*
G37*
G36*
X155310736Y-95875280D02*
G01*
X155342618Y-95878420D01*
X155465332Y-95915645D01*
X155465334Y-95915646D01*
X155578425Y-95976094D01*
X155578427Y-95976095D01*
X155578426Y-95976095D01*
X155677553Y-96057447D01*
X155758905Y-96156574D01*
X155819355Y-96269668D01*
X155856580Y-96392382D01*
X155856580Y-96392385D01*
X155869150Y-96520000D01*
X155859447Y-96618509D01*
X155856580Y-96647618D01*
X155819355Y-96770332D01*
X155819354Y-96770334D01*
X155758906Y-96883425D01*
X155677553Y-96982553D01*
X155578425Y-97063906D01*
X155465334Y-97124354D01*
X155465332Y-97124355D01*
X155342618Y-97161580D01*
X155310736Y-97164720D01*
X155246979Y-97171000D01*
X154633021Y-97171000D01*
X154569264Y-97164720D01*
X154537382Y-97161580D01*
X154414668Y-97124355D01*
X154414666Y-97124354D01*
X154301575Y-97063906D01*
X154202447Y-96982553D01*
X154121094Y-96883425D01*
X154060646Y-96770334D01*
X154060645Y-96770332D01*
X154023420Y-96647618D01*
X154020553Y-96618509D01*
X154010850Y-96520000D01*
X154023420Y-96392385D01*
X154023420Y-96392382D01*
X154060645Y-96269668D01*
X154121095Y-96156574D01*
X154202447Y-96057447D01*
X154301574Y-95976095D01*
X154301573Y-95976095D01*
X154301575Y-95976094D01*
X154414666Y-95915646D01*
X154414668Y-95915645D01*
X154537382Y-95878420D01*
X154569264Y-95875280D01*
X154633021Y-95869000D01*
X155246979Y-95869000D01*
X155310736Y-95875280D01*
X155310736Y-95875280D01*
G37*
G36*
X99430736Y-95875280D02*
G01*
X99462618Y-95878420D01*
X99585332Y-95915645D01*
X99585334Y-95915646D01*
X99698425Y-95976094D01*
X99698427Y-95976095D01*
X99698426Y-95976095D01*
X99797553Y-96057447D01*
X99878905Y-96156574D01*
X99939355Y-96269668D01*
X99976580Y-96392382D01*
X99976580Y-96392385D01*
X99989150Y-96520000D01*
X99979447Y-96618509D01*
X99976580Y-96647618D01*
X99939355Y-96770332D01*
X99939354Y-96770334D01*
X99878906Y-96883425D01*
X99797553Y-96982553D01*
X99698425Y-97063906D01*
X99585334Y-97124354D01*
X99585332Y-97124355D01*
X99462618Y-97161580D01*
X99430736Y-97164720D01*
X99366979Y-97171000D01*
X98753021Y-97171000D01*
X98689264Y-97164720D01*
X98657382Y-97161580D01*
X98534668Y-97124355D01*
X98534666Y-97124354D01*
X98421575Y-97063906D01*
X98322447Y-96982553D01*
X98241094Y-96883425D01*
X98180646Y-96770334D01*
X98180645Y-96770332D01*
X98143420Y-96647618D01*
X98140553Y-96618509D01*
X98130850Y-96520000D01*
X98143420Y-96392385D01*
X98143420Y-96392382D01*
X98180645Y-96269668D01*
X98241095Y-96156574D01*
X98322447Y-96057447D01*
X98421574Y-95976095D01*
X98421573Y-95976095D01*
X98421575Y-95976094D01*
X98534666Y-95915646D01*
X98534668Y-95915645D01*
X98657382Y-95878420D01*
X98689264Y-95875280D01*
X98753021Y-95869000D01*
X99366979Y-95869000D01*
X99430736Y-95875280D01*
X99430736Y-95875280D01*
G37*
G36*
X155310736Y-93335280D02*
G01*
X155342618Y-93338420D01*
X155465332Y-93375645D01*
X155465334Y-93375646D01*
X155578425Y-93436094D01*
X155578427Y-93436095D01*
X155578426Y-93436095D01*
X155677553Y-93517447D01*
X155758905Y-93616574D01*
X155819355Y-93729668D01*
X155856580Y-93852382D01*
X155856580Y-93852385D01*
X155869150Y-93980000D01*
X155859447Y-94078509D01*
X155856580Y-94107618D01*
X155819355Y-94230332D01*
X155819354Y-94230334D01*
X155758906Y-94343425D01*
X155677553Y-94442553D01*
X155578425Y-94523906D01*
X155465334Y-94584354D01*
X155465332Y-94584355D01*
X155342618Y-94621580D01*
X155310736Y-94624720D01*
X155246979Y-94631000D01*
X154633021Y-94631000D01*
X154569264Y-94624720D01*
X154537382Y-94621580D01*
X154414668Y-94584355D01*
X154414666Y-94584354D01*
X154301575Y-94523906D01*
X154202447Y-94442553D01*
X154121094Y-94343425D01*
X154060646Y-94230334D01*
X154060645Y-94230332D01*
X154023420Y-94107618D01*
X154020553Y-94078509D01*
X154010850Y-93980000D01*
X154023420Y-93852385D01*
X154023420Y-93852382D01*
X154060645Y-93729668D01*
X154121095Y-93616574D01*
X154202447Y-93517447D01*
X154301574Y-93436095D01*
X154301573Y-93436095D01*
X154301575Y-93436094D01*
X154414666Y-93375646D01*
X154414668Y-93375645D01*
X154537382Y-93338420D01*
X154569264Y-93335280D01*
X154633021Y-93329000D01*
X155246979Y-93329000D01*
X155310736Y-93335280D01*
X155310736Y-93335280D01*
G37*
G36*
X99430736Y-93335280D02*
G01*
X99462618Y-93338420D01*
X99585332Y-93375645D01*
X99585334Y-93375646D01*
X99698425Y-93436094D01*
X99698427Y-93436095D01*
X99698426Y-93436095D01*
X99797553Y-93517447D01*
X99878905Y-93616574D01*
X99939355Y-93729668D01*
X99976580Y-93852382D01*
X99976580Y-93852385D01*
X99989150Y-93980000D01*
X99979447Y-94078509D01*
X99976580Y-94107618D01*
X99939355Y-94230332D01*
X99939354Y-94230334D01*
X99878906Y-94343425D01*
X99797553Y-94442553D01*
X99698425Y-94523906D01*
X99585334Y-94584354D01*
X99585332Y-94584355D01*
X99462618Y-94621580D01*
X99430736Y-94624720D01*
X99366979Y-94631000D01*
X98753021Y-94631000D01*
X98689264Y-94624720D01*
X98657382Y-94621580D01*
X98534668Y-94584355D01*
X98534666Y-94584354D01*
X98421575Y-94523906D01*
X98322447Y-94442553D01*
X98241094Y-94343425D01*
X98180646Y-94230334D01*
X98180645Y-94230332D01*
X98143420Y-94107618D01*
X98140553Y-94078509D01*
X98130850Y-93980000D01*
X98143420Y-93852385D01*
X98143420Y-93852382D01*
X98180645Y-93729668D01*
X98241095Y-93616574D01*
X98322447Y-93517447D01*
X98421574Y-93436095D01*
X98421573Y-93436095D01*
X98421575Y-93436094D01*
X98534666Y-93375646D01*
X98534668Y-93375645D01*
X98657382Y-93338420D01*
X98689264Y-93335280D01*
X98753021Y-93329000D01*
X99366979Y-93329000D01*
X99430736Y-93335280D01*
X99430736Y-93335280D01*
G37*
G36*
X181093342Y-88729726D02*
G01*
X181447129Y-88876269D01*
X181765525Y-89089014D01*
X182036306Y-89359795D01*
X182249051Y-89678191D01*
X182395594Y-90031978D01*
X182470300Y-90407550D01*
X182470300Y-90790490D01*
X182395594Y-91166062D01*
X182249051Y-91519849D01*
X182036306Y-91838245D01*
X181765525Y-92109026D01*
X181447129Y-92321771D01*
X181093342Y-92468314D01*
X180717770Y-92543020D01*
X180334830Y-92543020D01*
X179959258Y-92468314D01*
X179605471Y-92321771D01*
X179287075Y-92109026D01*
X179016294Y-91838245D01*
X178803549Y-91519849D01*
X178657006Y-91166062D01*
X178582300Y-90790490D01*
X178582300Y-90407550D01*
X178657006Y-90031978D01*
X178803549Y-89678191D01*
X179016294Y-89359795D01*
X179287075Y-89089014D01*
X179605471Y-88876269D01*
X179959258Y-88729726D01*
X180334830Y-88655020D01*
X180717770Y-88655020D01*
X181093342Y-88729726D01*
X181093342Y-88729726D01*
G37*
G36*
X169693342Y-88729726D02*
G01*
X170047129Y-88876269D01*
X170365525Y-89089014D01*
X170636306Y-89359795D01*
X170849051Y-89678191D01*
X170995594Y-90031978D01*
X171070300Y-90407550D01*
X171070300Y-90790490D01*
X170995594Y-91166062D01*
X170849051Y-91519849D01*
X170636306Y-91838245D01*
X170365525Y-92109026D01*
X170047129Y-92321771D01*
X169693342Y-92468314D01*
X169317770Y-92543020D01*
X168934830Y-92543020D01*
X168559258Y-92468314D01*
X168205471Y-92321771D01*
X167887075Y-92109026D01*
X167616294Y-91838245D01*
X167403549Y-91519849D01*
X167257006Y-91166062D01*
X167182300Y-90790490D01*
X167182300Y-90407550D01*
X167257006Y-90031978D01*
X167403549Y-89678191D01*
X167616294Y-89359795D01*
X167887075Y-89089014D01*
X168205471Y-88876269D01*
X168559258Y-88729726D01*
X168934830Y-88655020D01*
X169317770Y-88655020D01*
X169693342Y-88729726D01*
X169693342Y-88729726D01*
G37*
G36*
X155310736Y-90795280D02*
G01*
X155342618Y-90798420D01*
X155465332Y-90835645D01*
X155465334Y-90835646D01*
X155578425Y-90896094D01*
X155677553Y-90977447D01*
X155758906Y-91076575D01*
X155819354Y-91189666D01*
X155819355Y-91189668D01*
X155856580Y-91312382D01*
X155856580Y-91312385D01*
X155869150Y-91440000D01*
X155861285Y-91519849D01*
X155856580Y-91567618D01*
X155819355Y-91690332D01*
X155819354Y-91690334D01*
X155758906Y-91803425D01*
X155677553Y-91902553D01*
X155578425Y-91983906D01*
X155465334Y-92044354D01*
X155465332Y-92044355D01*
X155342618Y-92081580D01*
X155310736Y-92084720D01*
X155246979Y-92091000D01*
X154633021Y-92091000D01*
X154569264Y-92084720D01*
X154537382Y-92081580D01*
X154414668Y-92044355D01*
X154414666Y-92044354D01*
X154301575Y-91983906D01*
X154202447Y-91902553D01*
X154121094Y-91803425D01*
X154060646Y-91690334D01*
X154060645Y-91690332D01*
X154023420Y-91567618D01*
X154018715Y-91519849D01*
X154010850Y-91440000D01*
X154023420Y-91312385D01*
X154023420Y-91312382D01*
X154060645Y-91189668D01*
X154060646Y-91189666D01*
X154121094Y-91076575D01*
X154202447Y-90977447D01*
X154301575Y-90896094D01*
X154414666Y-90835646D01*
X154414668Y-90835645D01*
X154537382Y-90798420D01*
X154569264Y-90795280D01*
X154633021Y-90789000D01*
X155246979Y-90789000D01*
X155310736Y-90795280D01*
X155310736Y-90795280D01*
G37*
G36*
X99430736Y-90795280D02*
G01*
X99462618Y-90798420D01*
X99585332Y-90835645D01*
X99585334Y-90835646D01*
X99698425Y-90896094D01*
X99797553Y-90977447D01*
X99878906Y-91076575D01*
X99939354Y-91189666D01*
X99939355Y-91189668D01*
X99976580Y-91312382D01*
X99976580Y-91312385D01*
X99989150Y-91440000D01*
X99981285Y-91519849D01*
X99976580Y-91567618D01*
X99939355Y-91690332D01*
X99939354Y-91690334D01*
X99878906Y-91803425D01*
X99797553Y-91902553D01*
X99698425Y-91983906D01*
X99585334Y-92044354D01*
X99585332Y-92044355D01*
X99462618Y-92081580D01*
X99430736Y-92084720D01*
X99366979Y-92091000D01*
X98753021Y-92091000D01*
X98689264Y-92084720D01*
X98657382Y-92081580D01*
X98534668Y-92044355D01*
X98534666Y-92044354D01*
X98421575Y-91983906D01*
X98322447Y-91902553D01*
X98241094Y-91803425D01*
X98180646Y-91690334D01*
X98180645Y-91690332D01*
X98143420Y-91567618D01*
X98138715Y-91519849D01*
X98130850Y-91440000D01*
X98143420Y-91312385D01*
X98143420Y-91312382D01*
X98180645Y-91189668D01*
X98180646Y-91189666D01*
X98241094Y-91076575D01*
X98322447Y-90977447D01*
X98421575Y-90896094D01*
X98534666Y-90835646D01*
X98534668Y-90835645D01*
X98657382Y-90798420D01*
X98689264Y-90795280D01*
X98753021Y-90789000D01*
X99366979Y-90789000D01*
X99430736Y-90795280D01*
X99430736Y-90795280D01*
G37*
G36*
X99430736Y-88255280D02*
G01*
X99462618Y-88258420D01*
X99585332Y-88295645D01*
X99585334Y-88295646D01*
X99698425Y-88356094D01*
X99698427Y-88356095D01*
X99698426Y-88356095D01*
X99797553Y-88437447D01*
X99878905Y-88536574D01*
X99939355Y-88649668D01*
X99976580Y-88772382D01*
X99976580Y-88772385D01*
X99989150Y-88900000D01*
X99979447Y-88998509D01*
X99976580Y-89027618D01*
X99939355Y-89150332D01*
X99939354Y-89150334D01*
X99878906Y-89263425D01*
X99797553Y-89362553D01*
X99698425Y-89443906D01*
X99585334Y-89504354D01*
X99585332Y-89504355D01*
X99462618Y-89541580D01*
X99430736Y-89544720D01*
X99366979Y-89551000D01*
X98753021Y-89551000D01*
X98689264Y-89544720D01*
X98657382Y-89541580D01*
X98534668Y-89504355D01*
X98534666Y-89504354D01*
X98421575Y-89443906D01*
X98322447Y-89362553D01*
X98241094Y-89263425D01*
X98180646Y-89150334D01*
X98180645Y-89150332D01*
X98143420Y-89027618D01*
X98140553Y-88998509D01*
X98130850Y-88900000D01*
X98143420Y-88772385D01*
X98143420Y-88772382D01*
X98180645Y-88649668D01*
X98241095Y-88536574D01*
X98322447Y-88437447D01*
X98421574Y-88356095D01*
X98421573Y-88356095D01*
X98421575Y-88356094D01*
X98534666Y-88295646D01*
X98534668Y-88295645D01*
X98657382Y-88258420D01*
X98689264Y-88255280D01*
X98753021Y-88249000D01*
X99366979Y-88249000D01*
X99430736Y-88255280D01*
X99430736Y-88255280D01*
G37*
G36*
X155310736Y-88255280D02*
G01*
X155342618Y-88258420D01*
X155465332Y-88295645D01*
X155465334Y-88295646D01*
X155578425Y-88356094D01*
X155578427Y-88356095D01*
X155578426Y-88356095D01*
X155677553Y-88437447D01*
X155758905Y-88536574D01*
X155819355Y-88649668D01*
X155856580Y-88772382D01*
X155856580Y-88772385D01*
X155869150Y-88900000D01*
X155859447Y-88998509D01*
X155856580Y-89027618D01*
X155819355Y-89150332D01*
X155819354Y-89150334D01*
X155758906Y-89263425D01*
X155677553Y-89362553D01*
X155578425Y-89443906D01*
X155465334Y-89504354D01*
X155465332Y-89504355D01*
X155342618Y-89541580D01*
X155310736Y-89544720D01*
X155246979Y-89551000D01*
X154633021Y-89551000D01*
X154569264Y-89544720D01*
X154537382Y-89541580D01*
X154414668Y-89504355D01*
X154414666Y-89504354D01*
X154301575Y-89443906D01*
X154202447Y-89362553D01*
X154121094Y-89263425D01*
X154060646Y-89150334D01*
X154060645Y-89150332D01*
X154023420Y-89027618D01*
X154020553Y-88998509D01*
X154010850Y-88900000D01*
X154023420Y-88772385D01*
X154023420Y-88772382D01*
X154060645Y-88649668D01*
X154121095Y-88536574D01*
X154202447Y-88437447D01*
X154301574Y-88356095D01*
X154301573Y-88356095D01*
X154301575Y-88356094D01*
X154414666Y-88295646D01*
X154414668Y-88295645D01*
X154537382Y-88258420D01*
X154569264Y-88255280D01*
X154633021Y-88249000D01*
X155246979Y-88249000D01*
X155310736Y-88255280D01*
X155310736Y-88255280D01*
G37*
G36*
X99430736Y-85715280D02*
G01*
X99462618Y-85718420D01*
X99585332Y-85755645D01*
X99585334Y-85755646D01*
X99698425Y-85816094D01*
X99698427Y-85816095D01*
X99698426Y-85816095D01*
X99797553Y-85897447D01*
X99878905Y-85996574D01*
X99939355Y-86109668D01*
X99976580Y-86232382D01*
X99976580Y-86232385D01*
X99989150Y-86360000D01*
X99979447Y-86458509D01*
X99976580Y-86487618D01*
X99939355Y-86610332D01*
X99939354Y-86610334D01*
X99878906Y-86723425D01*
X99797553Y-86822553D01*
X99698425Y-86903906D01*
X99585334Y-86964354D01*
X99585332Y-86964355D01*
X99462618Y-87001580D01*
X99430736Y-87004720D01*
X99366979Y-87011000D01*
X98753021Y-87011000D01*
X98689264Y-87004720D01*
X98657382Y-87001580D01*
X98534668Y-86964355D01*
X98534666Y-86964354D01*
X98421575Y-86903906D01*
X98322447Y-86822553D01*
X98241094Y-86723425D01*
X98180646Y-86610334D01*
X98180645Y-86610332D01*
X98143420Y-86487618D01*
X98140553Y-86458509D01*
X98130850Y-86360000D01*
X98143420Y-86232385D01*
X98143420Y-86232382D01*
X98180645Y-86109668D01*
X98241095Y-85996574D01*
X98322447Y-85897447D01*
X98421574Y-85816095D01*
X98421573Y-85816095D01*
X98421575Y-85816094D01*
X98534666Y-85755646D01*
X98534668Y-85755645D01*
X98657382Y-85718420D01*
X98689264Y-85715280D01*
X98753021Y-85709000D01*
X99366979Y-85709000D01*
X99430736Y-85715280D01*
X99430736Y-85715280D01*
G37*
G36*
X155310736Y-85715280D02*
G01*
X155342618Y-85718420D01*
X155465332Y-85755645D01*
X155465334Y-85755646D01*
X155578425Y-85816094D01*
X155578427Y-85816095D01*
X155578426Y-85816095D01*
X155677553Y-85897447D01*
X155758905Y-85996574D01*
X155819355Y-86109668D01*
X155856580Y-86232382D01*
X155856580Y-86232385D01*
X155869150Y-86360000D01*
X155859447Y-86458509D01*
X155856580Y-86487618D01*
X155819355Y-86610332D01*
X155819354Y-86610334D01*
X155758906Y-86723425D01*
X155677553Y-86822553D01*
X155578425Y-86903906D01*
X155465334Y-86964354D01*
X155465332Y-86964355D01*
X155342618Y-87001580D01*
X155310736Y-87004720D01*
X155246979Y-87011000D01*
X154633021Y-87011000D01*
X154569264Y-87004720D01*
X154537382Y-87001580D01*
X154414668Y-86964355D01*
X154414666Y-86964354D01*
X154301575Y-86903906D01*
X154202447Y-86822553D01*
X154121094Y-86723425D01*
X154060646Y-86610334D01*
X154060645Y-86610332D01*
X154023420Y-86487618D01*
X154020553Y-86458509D01*
X154010850Y-86360000D01*
X154023420Y-86232385D01*
X154023420Y-86232382D01*
X154060645Y-86109668D01*
X154121095Y-85996574D01*
X154202447Y-85897447D01*
X154301574Y-85816095D01*
X154301573Y-85816095D01*
X154301575Y-85816094D01*
X154414666Y-85755646D01*
X154414668Y-85755645D01*
X154537382Y-85718420D01*
X154569264Y-85715280D01*
X154633021Y-85709000D01*
X155246979Y-85709000D01*
X155310736Y-85715280D01*
X155310736Y-85715280D01*
G37*
G36*
X177603696Y-82684566D02*
G01*
X177776767Y-82756254D01*
X177931822Y-82859859D01*
X177932527Y-82860330D01*
X178064990Y-82992793D01*
X178064992Y-82992796D01*
X178169066Y-83148553D01*
X178240754Y-83321624D01*
X178277300Y-83505353D01*
X178277300Y-83692687D01*
X178240754Y-83876416D01*
X178169066Y-84049487D01*
X178155136Y-84070334D01*
X178064990Y-84205247D01*
X177932527Y-84337710D01*
X177932524Y-84337712D01*
X177776767Y-84441786D01*
X177603696Y-84513474D01*
X177419967Y-84550020D01*
X177232633Y-84550020D01*
X177048904Y-84513474D01*
X176875833Y-84441786D01*
X176720076Y-84337712D01*
X176720073Y-84337710D01*
X176587610Y-84205247D01*
X176497464Y-84070334D01*
X176483534Y-84049487D01*
X176411846Y-83876416D01*
X176375300Y-83692687D01*
X176375300Y-83505353D01*
X176411846Y-83321624D01*
X176483534Y-83148553D01*
X176587608Y-82992796D01*
X176587610Y-82992793D01*
X176720073Y-82860330D01*
X176720778Y-82859859D01*
X176875833Y-82756254D01*
X177048904Y-82684566D01*
X177232633Y-82648020D01*
X177419967Y-82648020D01*
X177603696Y-82684566D01*
X177603696Y-82684566D01*
G37*
G36*
X172603696Y-82684566D02*
G01*
X172776767Y-82756254D01*
X172931822Y-82859859D01*
X172932527Y-82860330D01*
X173064990Y-82992793D01*
X173064992Y-82992796D01*
X173169066Y-83148553D01*
X173240754Y-83321624D01*
X173277300Y-83505353D01*
X173277300Y-83692687D01*
X173240754Y-83876416D01*
X173169066Y-84049487D01*
X173155136Y-84070334D01*
X173064990Y-84205247D01*
X172932527Y-84337710D01*
X172932524Y-84337712D01*
X172776767Y-84441786D01*
X172603696Y-84513474D01*
X172419967Y-84550020D01*
X172232633Y-84550020D01*
X172048904Y-84513474D01*
X171875833Y-84441786D01*
X171720076Y-84337712D01*
X171720073Y-84337710D01*
X171587610Y-84205247D01*
X171497464Y-84070334D01*
X171483534Y-84049487D01*
X171411846Y-83876416D01*
X171375300Y-83692687D01*
X171375300Y-83505353D01*
X171411846Y-83321624D01*
X171483534Y-83148553D01*
X171587608Y-82992796D01*
X171587610Y-82992793D01*
X171720073Y-82860330D01*
X171720778Y-82859859D01*
X171875833Y-82756254D01*
X172048904Y-82684566D01*
X172232633Y-82648020D01*
X172419967Y-82648020D01*
X172603696Y-82684566D01*
X172603696Y-82684566D01*
G37*
G36*
X99430736Y-83175280D02*
G01*
X99462618Y-83178420D01*
X99585332Y-83215645D01*
X99585334Y-83215646D01*
X99698425Y-83276094D01*
X99698427Y-83276095D01*
X99698426Y-83276095D01*
X99797553Y-83357447D01*
X99878905Y-83456574D01*
X99939355Y-83569668D01*
X99976580Y-83692382D01*
X99976580Y-83692385D01*
X99989150Y-83820000D01*
X99983593Y-83876416D01*
X99976580Y-83947618D01*
X99945678Y-84049487D01*
X99939354Y-84070334D01*
X99878906Y-84183425D01*
X99797553Y-84282553D01*
X99698425Y-84363906D01*
X99585334Y-84424354D01*
X99585332Y-84424355D01*
X99462618Y-84461580D01*
X99430736Y-84464720D01*
X99366979Y-84471000D01*
X98753021Y-84471000D01*
X98689264Y-84464720D01*
X98657382Y-84461580D01*
X98534668Y-84424355D01*
X98534666Y-84424354D01*
X98421575Y-84363906D01*
X98322447Y-84282553D01*
X98241094Y-84183425D01*
X98180646Y-84070334D01*
X98174322Y-84049487D01*
X98143420Y-83947618D01*
X98136407Y-83876416D01*
X98130850Y-83820000D01*
X98143420Y-83692385D01*
X98143420Y-83692382D01*
X98180645Y-83569668D01*
X98241095Y-83456574D01*
X98322447Y-83357447D01*
X98421574Y-83276095D01*
X98421573Y-83276095D01*
X98421575Y-83276094D01*
X98534666Y-83215646D01*
X98534668Y-83215645D01*
X98657382Y-83178420D01*
X98689264Y-83175280D01*
X98753021Y-83169000D01*
X99366979Y-83169000D01*
X99430736Y-83175280D01*
X99430736Y-83175280D01*
G37*
G36*
X155310736Y-83175280D02*
G01*
X155342618Y-83178420D01*
X155465332Y-83215645D01*
X155465334Y-83215646D01*
X155578425Y-83276094D01*
X155578427Y-83276095D01*
X155578426Y-83276095D01*
X155677553Y-83357447D01*
X155758905Y-83456574D01*
X155819355Y-83569668D01*
X155856580Y-83692382D01*
X155856580Y-83692385D01*
X155869150Y-83820000D01*
X155863593Y-83876416D01*
X155856580Y-83947618D01*
X155825678Y-84049487D01*
X155819354Y-84070334D01*
X155758906Y-84183425D01*
X155677553Y-84282553D01*
X155578425Y-84363906D01*
X155465334Y-84424354D01*
X155465332Y-84424355D01*
X155342618Y-84461580D01*
X155310736Y-84464720D01*
X155246979Y-84471000D01*
X154633021Y-84471000D01*
X154569264Y-84464720D01*
X154537382Y-84461580D01*
X154414668Y-84424355D01*
X154414666Y-84424354D01*
X154301575Y-84363906D01*
X154202447Y-84282553D01*
X154121094Y-84183425D01*
X154060646Y-84070334D01*
X154054322Y-84049487D01*
X154023420Y-83947618D01*
X154016407Y-83876416D01*
X154010850Y-83820000D01*
X154023420Y-83692385D01*
X154023420Y-83692382D01*
X154060645Y-83569668D01*
X154121095Y-83456574D01*
X154202447Y-83357447D01*
X154301574Y-83276095D01*
X154301573Y-83276095D01*
X154301575Y-83276094D01*
X154414666Y-83215646D01*
X154414668Y-83215645D01*
X154537382Y-83178420D01*
X154569264Y-83175280D01*
X154633021Y-83169000D01*
X155246979Y-83169000D01*
X155310736Y-83175280D01*
X155310736Y-83175280D01*
G37*
G36*
X155310736Y-80635280D02*
G01*
X155342618Y-80638420D01*
X155465332Y-80675645D01*
X155465334Y-80675646D01*
X155578425Y-80736094D01*
X155578427Y-80736095D01*
X155578426Y-80736095D01*
X155677553Y-80817447D01*
X155758905Y-80916574D01*
X155819355Y-81029668D01*
X155856580Y-81152382D01*
X155856580Y-81152385D01*
X155869150Y-81280000D01*
X155859447Y-81378509D01*
X155856580Y-81407618D01*
X155819355Y-81530332D01*
X155819354Y-81530334D01*
X155758906Y-81643425D01*
X155677553Y-81742553D01*
X155578425Y-81823906D01*
X155465334Y-81884354D01*
X155465332Y-81884355D01*
X155342618Y-81921580D01*
X155310736Y-81924720D01*
X155246979Y-81931000D01*
X154633021Y-81931000D01*
X154569264Y-81924720D01*
X154537382Y-81921580D01*
X154414668Y-81884355D01*
X154414666Y-81884354D01*
X154301575Y-81823906D01*
X154202447Y-81742553D01*
X154121094Y-81643425D01*
X154060646Y-81530334D01*
X154060645Y-81530332D01*
X154023420Y-81407618D01*
X154020553Y-81378509D01*
X154010850Y-81280000D01*
X154023420Y-81152385D01*
X154023420Y-81152382D01*
X154060645Y-81029668D01*
X154121095Y-80916574D01*
X154202447Y-80817447D01*
X154301574Y-80736095D01*
X154301573Y-80736095D01*
X154301575Y-80736094D01*
X154414666Y-80675646D01*
X154414668Y-80675645D01*
X154537382Y-80638420D01*
X154569264Y-80635280D01*
X154633021Y-80629000D01*
X155246979Y-80629000D01*
X155310736Y-80635280D01*
X155310736Y-80635280D01*
G37*
G36*
X99430736Y-80635280D02*
G01*
X99462618Y-80638420D01*
X99585332Y-80675645D01*
X99585334Y-80675646D01*
X99698425Y-80736094D01*
X99698427Y-80736095D01*
X99698426Y-80736095D01*
X99797553Y-80817447D01*
X99878905Y-80916574D01*
X99939355Y-81029668D01*
X99976580Y-81152382D01*
X99976580Y-81152385D01*
X99989150Y-81280000D01*
X99979447Y-81378509D01*
X99976580Y-81407618D01*
X99939355Y-81530332D01*
X99939354Y-81530334D01*
X99878906Y-81643425D01*
X99797553Y-81742553D01*
X99698425Y-81823906D01*
X99585334Y-81884354D01*
X99585332Y-81884355D01*
X99462618Y-81921580D01*
X99430736Y-81924720D01*
X99366979Y-81931000D01*
X98753021Y-81931000D01*
X98689264Y-81924720D01*
X98657382Y-81921580D01*
X98534668Y-81884355D01*
X98534666Y-81884354D01*
X98421575Y-81823906D01*
X98322447Y-81742553D01*
X98241094Y-81643425D01*
X98180646Y-81530334D01*
X98180645Y-81530332D01*
X98143420Y-81407618D01*
X98140553Y-81378509D01*
X98130850Y-81280000D01*
X98143420Y-81152385D01*
X98143420Y-81152382D01*
X98180645Y-81029668D01*
X98241095Y-80916574D01*
X98322447Y-80817447D01*
X98421574Y-80736095D01*
X98421573Y-80736095D01*
X98421575Y-80736094D01*
X98534666Y-80675646D01*
X98534668Y-80675645D01*
X98657382Y-80638420D01*
X98689264Y-80635280D01*
X98753021Y-80629000D01*
X99366979Y-80629000D01*
X99430736Y-80635280D01*
X99430736Y-80635280D01*
G37*
G36*
X182381567Y-72254959D02*
G01*
X182512072Y-72280918D01*
X182757939Y-72382759D01*
X182979212Y-72530610D01*
X183167390Y-72718788D01*
X183315241Y-72940061D01*
X183417082Y-73185928D01*
X183469000Y-73446938D01*
X183469000Y-73713062D01*
X183417082Y-73974072D01*
X183315241Y-74219939D01*
X183167390Y-74441212D01*
X182979212Y-74629390D01*
X182757939Y-74777241D01*
X182512072Y-74879082D01*
X182381567Y-74905041D01*
X182251063Y-74931000D01*
X181984937Y-74931000D01*
X181854433Y-74905041D01*
X181723928Y-74879082D01*
X181478061Y-74777241D01*
X181256788Y-74629390D01*
X181068610Y-74441212D01*
X180920759Y-74219939D01*
X180818918Y-73974072D01*
X180767000Y-73713062D01*
X180767000Y-73446938D01*
X180818918Y-73185928D01*
X180920759Y-72940061D01*
X181068610Y-72718788D01*
X181256788Y-72530610D01*
X181478061Y-72382759D01*
X181723928Y-72280918D01*
X181854433Y-72254959D01*
X181984937Y-72229000D01*
X182251063Y-72229000D01*
X182381567Y-72254959D01*
X182381567Y-72254959D01*
G37*
G36*
X98096564Y-70109388D02*
G01*
X98287835Y-70188615D01*
X98459193Y-70303114D01*
X98459973Y-70303635D01*
X98606365Y-70450027D01*
X98606367Y-70450030D01*
X98721385Y-70622165D01*
X98800612Y-70813436D01*
X98841000Y-71016483D01*
X98841000Y-71223517D01*
X98800612Y-71426564D01*
X98721385Y-71617835D01*
X98606886Y-71789193D01*
X98606365Y-71789973D01*
X98459973Y-71936365D01*
X98459970Y-71936367D01*
X98287835Y-72051385D01*
X98096564Y-72130612D01*
X97893517Y-72171000D01*
X97686483Y-72171000D01*
X97483436Y-72130612D01*
X97292165Y-72051385D01*
X97120030Y-71936367D01*
X97120027Y-71936365D01*
X96973635Y-71789973D01*
X96973114Y-71789193D01*
X96858615Y-71617835D01*
X96779388Y-71426564D01*
X96739000Y-71223517D01*
X96739000Y-71016483D01*
X96779388Y-70813436D01*
X96858615Y-70622165D01*
X96973633Y-70450030D01*
X96973635Y-70450027D01*
X97120027Y-70303635D01*
X97120807Y-70303114D01*
X97292165Y-70188615D01*
X97483436Y-70109388D01*
X97686483Y-70069000D01*
X97893517Y-70069000D01*
X98096564Y-70109388D01*
X98096564Y-70109388D01*
G37*
G36*
X108605598Y-68675666D02*
G01*
X108605601Y-68675667D01*
X108747165Y-68718610D01*
X108747167Y-68718611D01*
X108877630Y-68788344D01*
X108991986Y-68882194D01*
X109085836Y-68996549D01*
X109155569Y-69127012D01*
X109198515Y-69268582D01*
X109209380Y-69378903D01*
X109209380Y-70752697D01*
X109198515Y-70863018D01*
X109155569Y-71004588D01*
X109085836Y-71135051D01*
X108991986Y-71249406D01*
X108877631Y-71343256D01*
X108747168Y-71412989D01*
X108747166Y-71412990D01*
X108702415Y-71426565D01*
X108605598Y-71455935D01*
X108458381Y-71470434D01*
X108311162Y-71455934D01*
X108284809Y-71447940D01*
X108169595Y-71412990D01*
X108169593Y-71412989D01*
X108039130Y-71343256D01*
X107924775Y-71249406D01*
X107830925Y-71135051D01*
X107761192Y-71004588D01*
X107718246Y-70863018D01*
X107707381Y-70752697D01*
X107707380Y-69378904D01*
X107718245Y-69268583D01*
X107761191Y-69127013D01*
X107830924Y-68996550D01*
X107924774Y-68882194D01*
X108039129Y-68788344D01*
X108169592Y-68718611D01*
X108169594Y-68718610D01*
X108216782Y-68704296D01*
X108311162Y-68675665D01*
X108458379Y-68661166D01*
X108605598Y-68675666D01*
X108605598Y-68675666D01*
G37*
G36*
X122305598Y-68675666D02*
G01*
X122305601Y-68675667D01*
X122447165Y-68718610D01*
X122447167Y-68718611D01*
X122577630Y-68788344D01*
X122691986Y-68882194D01*
X122785836Y-68996549D01*
X122855569Y-69127012D01*
X122898515Y-69268582D01*
X122909380Y-69378903D01*
X122909380Y-70752697D01*
X122898515Y-70863018D01*
X122855569Y-71004588D01*
X122785836Y-71135051D01*
X122691986Y-71249406D01*
X122577631Y-71343256D01*
X122447168Y-71412989D01*
X122447166Y-71412990D01*
X122402415Y-71426565D01*
X122305598Y-71455935D01*
X122158381Y-71470434D01*
X122011162Y-71455934D01*
X121984809Y-71447940D01*
X121869595Y-71412990D01*
X121869593Y-71412989D01*
X121739130Y-71343256D01*
X121624775Y-71249406D01*
X121530925Y-71135051D01*
X121461192Y-71004588D01*
X121418246Y-70863018D01*
X121407381Y-70752697D01*
X121407380Y-69378904D01*
X121418245Y-69268583D01*
X121461191Y-69127013D01*
X121530924Y-68996550D01*
X121624774Y-68882194D01*
X121739129Y-68788344D01*
X121869592Y-68718611D01*
X121869594Y-68718610D01*
X121916782Y-68704296D01*
X122011162Y-68675665D01*
X122158379Y-68661166D01*
X122305598Y-68675666D01*
X122305598Y-68675666D01*
G37*
G36*
X183469000Y-69931000D02*
G01*
X180767000Y-69931000D01*
X180767000Y-67229000D01*
X183469000Y-67229000D01*
X183469000Y-69931000D01*
X183469000Y-69931000D01*
G37*
G36*
X98096564Y-66299388D02*
G01*
X98287835Y-66378615D01*
X98437343Y-66478514D01*
X98459973Y-66493635D01*
X98606365Y-66640027D01*
X98606367Y-66640030D01*
X98721385Y-66812165D01*
X98800612Y-67003436D01*
X98841000Y-67206483D01*
X98841000Y-67413517D01*
X98800612Y-67616564D01*
X98721385Y-67807835D01*
X98606886Y-67979193D01*
X98606365Y-67979973D01*
X98459973Y-68126365D01*
X98459970Y-68126367D01*
X98287835Y-68241385D01*
X98096564Y-68320612D01*
X97893517Y-68361000D01*
X97686483Y-68361000D01*
X97483436Y-68320612D01*
X97292165Y-68241385D01*
X97120030Y-68126367D01*
X97120027Y-68126365D01*
X96973635Y-67979973D01*
X96973114Y-67979193D01*
X96858615Y-67807835D01*
X96779388Y-67616564D01*
X96739000Y-67413517D01*
X96739000Y-67206483D01*
X96779388Y-67003436D01*
X96858615Y-66812165D01*
X96973633Y-66640030D01*
X96973635Y-66640027D01*
X97120027Y-66493635D01*
X97142657Y-66478514D01*
X97292165Y-66378615D01*
X97483436Y-66299388D01*
X97686483Y-66259000D01*
X97893517Y-66259000D01*
X98096564Y-66299388D01*
X98096564Y-66299388D01*
G37*
G36*
X120837260Y-60354306D02*
G01*
X121195600Y-60463007D01*
X121525849Y-60639528D01*
X121815314Y-60877086D01*
X122052872Y-61166551D01*
X122229393Y-61496799D01*
X122338094Y-61855139D01*
X122365600Y-62134411D01*
X122365600Y-65221189D01*
X122338094Y-65500461D01*
X122229393Y-65858801D01*
X122052872Y-66189049D01*
X121815314Y-66478514D01*
X121525849Y-66716072D01*
X121195601Y-66892593D01*
X120837261Y-67001294D01*
X120464600Y-67037998D01*
X120091940Y-67001294D01*
X119733600Y-66892593D01*
X119403352Y-66716072D01*
X119113887Y-66478514D01*
X118876329Y-66189049D01*
X118699808Y-65858801D01*
X118591107Y-65500461D01*
X118563601Y-65221189D01*
X118563600Y-62134412D01*
X118591106Y-61855140D01*
X118699807Y-61496800D01*
X118876328Y-61166551D01*
X119113886Y-60877086D01*
X119403351Y-60639528D01*
X119733599Y-60463007D01*
X120091939Y-60354306D01*
X120464600Y-60317602D01*
X120837260Y-60354306D01*
X120837260Y-60354306D01*
G37*
G36*
X112365600Y-67028800D02*
G01*
X108563600Y-67028800D01*
X108563600Y-60326800D01*
X112365600Y-60326800D01*
X112365600Y-67028800D01*
X112365600Y-67028800D01*
G37*
G36*
X129622581Y-62715328D02*
G01*
X129632305Y-62717262D01*
X129659785Y-62728645D01*
X129684517Y-62745170D01*
X129705550Y-62766203D01*
X129722075Y-62790935D01*
X129733458Y-62818415D01*
X129739260Y-62847588D01*
X129739260Y-62877332D01*
X129733458Y-62906505D01*
X129722075Y-62933985D01*
X129705550Y-62958717D01*
X129684517Y-62979750D01*
X129659785Y-62996275D01*
X129632305Y-63007658D01*
X129622581Y-63009592D01*
X129603134Y-63013460D01*
X129573386Y-63013460D01*
X129553939Y-63009592D01*
X129544215Y-63007658D01*
X129516735Y-62996275D01*
X129492003Y-62979750D01*
X129470970Y-62958717D01*
X129454445Y-62933985D01*
X129443062Y-62906505D01*
X129437260Y-62877332D01*
X129437260Y-62847588D01*
X129443062Y-62818415D01*
X129454445Y-62790935D01*
X129470970Y-62766203D01*
X129492003Y-62745170D01*
X129516735Y-62728645D01*
X129544215Y-62717262D01*
X129553939Y-62715328D01*
X129573386Y-62711460D01*
X129603134Y-62711460D01*
X129622581Y-62715328D01*
X129622581Y-62715328D01*
G37*
G36*
X161444660Y-62577700D02*
G01*
X158742660Y-62577700D01*
X158742660Y-59875700D01*
X161444660Y-59875700D01*
X161444660Y-62577700D01*
X161444660Y-62577700D01*
G37*
G36*
X165357227Y-59901659D02*
G01*
X165487732Y-59927618D01*
X165733599Y-60029459D01*
X165954872Y-60177310D01*
X166143050Y-60365488D01*
X166290901Y-60586761D01*
X166392742Y-60832628D01*
X166444660Y-61093638D01*
X166444660Y-61359762D01*
X166392742Y-61620772D01*
X166290901Y-61866639D01*
X166143050Y-62087912D01*
X165954872Y-62276090D01*
X165733599Y-62423941D01*
X165487732Y-62525782D01*
X165357227Y-62551741D01*
X165226723Y-62577700D01*
X164960597Y-62577700D01*
X164830093Y-62551741D01*
X164699588Y-62525782D01*
X164453721Y-62423941D01*
X164232448Y-62276090D01*
X164044270Y-62087912D01*
X163896419Y-61866639D01*
X163794578Y-61620772D01*
X163742660Y-61359762D01*
X163742660Y-61093638D01*
X163794578Y-60832628D01*
X163896419Y-60586761D01*
X164044270Y-60365488D01*
X164232448Y-60177310D01*
X164453721Y-60029459D01*
X164699588Y-59927618D01*
X164830093Y-59901659D01*
X164960597Y-59875700D01*
X165226723Y-59875700D01*
X165357227Y-59901659D01*
X165357227Y-59901659D01*
G37*
G36*
X147523887Y-59871179D02*
G01*
X147654392Y-59897138D01*
X147900259Y-59998979D01*
X148121532Y-60146830D01*
X148309710Y-60335008D01*
X148457561Y-60556281D01*
X148559402Y-60802148D01*
X148611320Y-61063158D01*
X148611320Y-61329282D01*
X148559402Y-61590292D01*
X148457561Y-61836159D01*
X148309710Y-62057432D01*
X148121532Y-62245610D01*
X147900259Y-62393461D01*
X147654392Y-62495302D01*
X147523887Y-62521261D01*
X147393383Y-62547220D01*
X147127257Y-62547220D01*
X146996753Y-62521261D01*
X146866248Y-62495302D01*
X146620381Y-62393461D01*
X146399108Y-62245610D01*
X146210930Y-62057432D01*
X146063079Y-61836159D01*
X145961238Y-61590292D01*
X145909320Y-61329282D01*
X145909320Y-61063158D01*
X145961238Y-60802148D01*
X146063079Y-60556281D01*
X146210930Y-60335008D01*
X146399108Y-60146830D01*
X146620381Y-59998979D01*
X146866248Y-59897138D01*
X146996753Y-59871179D01*
X147127257Y-59845220D01*
X147393383Y-59845220D01*
X147523887Y-59871179D01*
X147523887Y-59871179D01*
G37*
G36*
X143611320Y-62547220D02*
G01*
X140909320Y-62547220D01*
X140909320Y-59845220D01*
X143611320Y-59845220D01*
X143611320Y-62547220D01*
X143611320Y-62547220D01*
G37*
G36*
X129635281Y-61371668D02*
G01*
X129645005Y-61373602D01*
X129672485Y-61384985D01*
X129697217Y-61401510D01*
X129718250Y-61422543D01*
X129734775Y-61447275D01*
X129734776Y-61447278D01*
X129746158Y-61474756D01*
X129750543Y-61496800D01*
X129751960Y-61503928D01*
X129751960Y-61533672D01*
X129746158Y-61562845D01*
X129734775Y-61590325D01*
X129718250Y-61615057D01*
X129697217Y-61636090D01*
X129672485Y-61652615D01*
X129645005Y-61663998D01*
X129635281Y-61665932D01*
X129615834Y-61669800D01*
X129586086Y-61669800D01*
X129566639Y-61665932D01*
X129556915Y-61663998D01*
X129529435Y-61652615D01*
X129504703Y-61636090D01*
X129483670Y-61615057D01*
X129467145Y-61590325D01*
X129455762Y-61562845D01*
X129449960Y-61533672D01*
X129449960Y-61503928D01*
X129451378Y-61496800D01*
X129455762Y-61474756D01*
X129467144Y-61447278D01*
X129467145Y-61447275D01*
X129483670Y-61422543D01*
X129504703Y-61401510D01*
X129529435Y-61384985D01*
X129556915Y-61373602D01*
X129566639Y-61371668D01*
X129586086Y-61367800D01*
X129615834Y-61367800D01*
X129635281Y-61371668D01*
X129635281Y-61371668D01*
G37*
G36*
X183624098Y-54697032D02*
G01*
X184088351Y-54889332D01*
X184506165Y-55168506D01*
X184861494Y-55523835D01*
X185140668Y-55941649D01*
X185332968Y-56405902D01*
X185431000Y-56898746D01*
X185431000Y-57401254D01*
X185332968Y-57894098D01*
X185140668Y-58358351D01*
X184861494Y-58776165D01*
X184506165Y-59131494D01*
X184088351Y-59410668D01*
X183624098Y-59602968D01*
X183131254Y-59701000D01*
X182628746Y-59701000D01*
X182135902Y-59602968D01*
X181671649Y-59410668D01*
X181253835Y-59131494D01*
X180898506Y-58776165D01*
X180619332Y-58358351D01*
X180427032Y-57894098D01*
X180329000Y-57401254D01*
X180329000Y-56898746D01*
X180427032Y-56405902D01*
X180619332Y-55941649D01*
X180898506Y-55523835D01*
X181253835Y-55168506D01*
X181671649Y-54889332D01*
X182135902Y-54697032D01*
X182628746Y-54599000D01*
X183131254Y-54599000D01*
X183624098Y-54697032D01*
X183624098Y-54697032D01*
G37*
G36*
X98534098Y-54697032D02*
G01*
X98998351Y-54889332D01*
X99416165Y-55168506D01*
X99771494Y-55523835D01*
X100050668Y-55941649D01*
X100242968Y-56405902D01*
X100341000Y-56898746D01*
X100341000Y-57401254D01*
X100242968Y-57894098D01*
X100050668Y-58358351D01*
X99771494Y-58776165D01*
X99416165Y-59131494D01*
X98998351Y-59410668D01*
X98534098Y-59602968D01*
X98041254Y-59701000D01*
X97538746Y-59701000D01*
X97045902Y-59602968D01*
X96581649Y-59410668D01*
X96163835Y-59131494D01*
X95808506Y-58776165D01*
X95529332Y-58358351D01*
X95337032Y-57894098D01*
X95239000Y-57401254D01*
X95239000Y-56898746D01*
X95337032Y-56405902D01*
X95529332Y-55941649D01*
X95808506Y-55523835D01*
X96163835Y-55168506D01*
X96581649Y-54889332D01*
X97045902Y-54697032D01*
X97538746Y-54599000D01*
X98041254Y-54599000D01*
X98534098Y-54697032D01*
X98534098Y-54697032D01*
G37*
G36*
X107605598Y-55175666D02*
G01*
X107605601Y-55175667D01*
X107747165Y-55218610D01*
X107747167Y-55218611D01*
X107877630Y-55288344D01*
X107991986Y-55382194D01*
X108085836Y-55496549D01*
X108155569Y-55627012D01*
X108198515Y-55768582D01*
X108209380Y-55878903D01*
X108209380Y-57252697D01*
X108198515Y-57363018D01*
X108155569Y-57504588D01*
X108085836Y-57635051D01*
X107991986Y-57749406D01*
X107877631Y-57843256D01*
X107747168Y-57912989D01*
X107747166Y-57912990D01*
X107699978Y-57927304D01*
X107605598Y-57955935D01*
X107458381Y-57970434D01*
X107311162Y-57955934D01*
X107284809Y-57947940D01*
X107169595Y-57912990D01*
X107169593Y-57912989D01*
X107039130Y-57843256D01*
X106924775Y-57749406D01*
X106830925Y-57635051D01*
X106761192Y-57504588D01*
X106718246Y-57363018D01*
X106707381Y-57252697D01*
X106707380Y-55878904D01*
X106718245Y-55768583D01*
X106761191Y-55627013D01*
X106830924Y-55496550D01*
X106924774Y-55382194D01*
X107039129Y-55288344D01*
X107169592Y-55218611D01*
X107169594Y-55218610D01*
X107216782Y-55204296D01*
X107311162Y-55175665D01*
X107458379Y-55161166D01*
X107605598Y-55175666D01*
X107605598Y-55175666D01*
G37*
G36*
X123305598Y-55175666D02*
G01*
X123305601Y-55175667D01*
X123447165Y-55218610D01*
X123447167Y-55218611D01*
X123577630Y-55288344D01*
X123691986Y-55382194D01*
X123785836Y-55496549D01*
X123855569Y-55627012D01*
X123898515Y-55768582D01*
X123909380Y-55878903D01*
X123909380Y-57252697D01*
X123898515Y-57363018D01*
X123855569Y-57504588D01*
X123785836Y-57635051D01*
X123691986Y-57749406D01*
X123577631Y-57843256D01*
X123447168Y-57912989D01*
X123447166Y-57912990D01*
X123399978Y-57927304D01*
X123305598Y-57955935D01*
X123158381Y-57970434D01*
X123011162Y-57955934D01*
X122984809Y-57947940D01*
X122869595Y-57912990D01*
X122869593Y-57912989D01*
X122739130Y-57843256D01*
X122624775Y-57749406D01*
X122530925Y-57635051D01*
X122461192Y-57504588D01*
X122418246Y-57363018D01*
X122407381Y-57252697D01*
X122407380Y-55878904D01*
X122418245Y-55768583D01*
X122461191Y-55627013D01*
X122530924Y-55496550D01*
X122624774Y-55382194D01*
X122739129Y-55288344D01*
X122869592Y-55218611D01*
X122869594Y-55218610D01*
X122916782Y-55204296D01*
X123011162Y-55175665D01*
X123158379Y-55161166D01*
X123305598Y-55175666D01*
X123305598Y-55175666D01*
G37*
M02*
