G04 #@! TF.GenerationSoftware,KiCad,Pcbnew,5.1.4-e60b266~84~ubuntu18.04.1*
G04 #@! TF.CreationDate,2019-12-12T06:09:25+05:00*
G04 #@! TF.ProjectId,rck22,72636b32-322e-46b6-9963-61645f706362,rev?*
G04 #@! TF.SameCoordinates,Original*
G04 #@! TF.FileFunction,Copper,L2,Bot*
G04 #@! TF.FilePolarity,Positive*
%FSLAX46Y46*%
G04 Gerber Fmt 4.6, Leading zero omitted, Abs format (unit mm)*
G04 Created by KiCad (PCBNEW 5.1.4-e60b266~84~ubuntu18.04.1) date 2019-12-12 06:09:25*
%MOMM*%
%LPD*%
G04 APERTURE LIST*
%ADD10O,1.700000X1.700000*%
%ADD11R,1.700000X1.700000*%
%ADD12O,1.750000X1.200000*%
%ADD13C,2.600000*%
%ADD14R,2.600000X2.600000*%
%ADD15O,3.700000X6.600000*%
%ADD16R,3.700000X6.600000*%
%ADD17O,1.400000X2.700000*%
%ADD18C,3.786000*%
%ADD19C,1.800000*%
%ADD20C,2.000000*%
%ADD21C,0.800000*%
%ADD22C,5.000000*%
%ADD23O,1.200000X1.750000*%
%ADD24C,0.100000*%
%ADD25C,1.200000*%
%ADD26C,1.500000*%
%ADD27C,0.500000*%
%ADD28C,0.250000*%
%ADD29C,0.300000*%
%ADD30C,0.200000*%
%ADD31C,0.254000*%
G04 APERTURE END LIST*
D10*
X174485300Y-106448860D03*
D11*
X177025300Y-106448860D03*
D10*
X164167820Y-106448860D03*
D11*
X166707820Y-106448860D03*
D12*
X154940000Y-81280000D03*
X154940000Y-83820000D03*
X154940000Y-86360000D03*
X154940000Y-88900000D03*
X154940000Y-91440000D03*
X154940000Y-93980000D03*
X154940000Y-96520000D03*
X154940000Y-99060000D03*
X99060000Y-99060000D03*
X99060000Y-96520000D03*
X99060000Y-93980000D03*
X99060000Y-91440000D03*
X99060000Y-88900000D03*
X99060000Y-86360000D03*
X99060000Y-83820000D03*
X99060000Y-81280000D03*
D13*
X165093660Y-61226700D03*
D14*
X160093660Y-61226700D03*
D13*
X147260320Y-61196220D03*
D14*
X142260320Y-61196220D03*
D15*
X120464600Y-63677800D03*
D16*
X110464600Y-63677800D03*
D17*
X122158380Y-70065800D03*
X108458380Y-70065800D03*
X123158380Y-56565800D03*
X107458380Y-56565800D03*
D18*
X180526300Y-90599020D03*
X169126300Y-90599020D03*
D19*
X174826300Y-98099020D03*
X177326300Y-98099020D03*
X172326300Y-98099020D03*
X177326300Y-83599020D03*
X172326300Y-83599020D03*
D13*
X182118000Y-73580000D03*
D14*
X182118000Y-68580000D03*
D20*
X172720000Y-120502680D03*
D21*
X99115825Y-55824175D03*
X97790000Y-55275000D03*
X96464175Y-55824175D03*
X95915000Y-57150000D03*
X96464175Y-58475825D03*
X97790000Y-59025000D03*
X99115825Y-58475825D03*
X99665000Y-57150000D03*
D22*
X97790000Y-57150000D03*
D21*
X184205825Y-55824175D03*
X182880000Y-55275000D03*
X181554175Y-55824175D03*
X181005000Y-57150000D03*
X181554175Y-58475825D03*
X182880000Y-59025000D03*
X184205825Y-58475825D03*
X184755000Y-57150000D03*
D22*
X182880000Y-57150000D03*
D21*
X184205825Y-118054175D03*
X182880000Y-117505000D03*
X181554175Y-118054175D03*
X181005000Y-119380000D03*
X181554175Y-120705825D03*
X182880000Y-121255000D03*
X184205825Y-120705825D03*
X184755000Y-119380000D03*
D22*
X182880000Y-119380000D03*
D21*
X99115825Y-118054175D03*
X97790000Y-117505000D03*
X96464175Y-118054175D03*
X95915000Y-119380000D03*
X96464175Y-120705825D03*
X97790000Y-121255000D03*
X99115825Y-120705825D03*
X99665000Y-119380000D03*
D22*
X97790000Y-119380000D03*
D23*
X162020000Y-118110000D03*
D24*
G36*
X160394505Y-117236204D02*
G01*
X160418773Y-117239804D01*
X160442572Y-117245765D01*
X160465671Y-117254030D01*
X160487850Y-117264520D01*
X160508893Y-117277132D01*
X160528599Y-117291747D01*
X160546777Y-117308223D01*
X160563253Y-117326401D01*
X160577868Y-117346107D01*
X160590480Y-117367150D01*
X160600970Y-117389329D01*
X160609235Y-117412428D01*
X160615196Y-117436227D01*
X160618796Y-117460495D01*
X160620000Y-117484999D01*
X160620000Y-118735001D01*
X160618796Y-118759505D01*
X160615196Y-118783773D01*
X160609235Y-118807572D01*
X160600970Y-118830671D01*
X160590480Y-118852850D01*
X160577868Y-118873893D01*
X160563253Y-118893599D01*
X160546777Y-118911777D01*
X160528599Y-118928253D01*
X160508893Y-118942868D01*
X160487850Y-118955480D01*
X160465671Y-118965970D01*
X160442572Y-118974235D01*
X160418773Y-118980196D01*
X160394505Y-118983796D01*
X160370001Y-118985000D01*
X159669999Y-118985000D01*
X159645495Y-118983796D01*
X159621227Y-118980196D01*
X159597428Y-118974235D01*
X159574329Y-118965970D01*
X159552150Y-118955480D01*
X159531107Y-118942868D01*
X159511401Y-118928253D01*
X159493223Y-118911777D01*
X159476747Y-118893599D01*
X159462132Y-118873893D01*
X159449520Y-118852850D01*
X159439030Y-118830671D01*
X159430765Y-118807572D01*
X159424804Y-118783773D01*
X159421204Y-118759505D01*
X159420000Y-118735001D01*
X159420000Y-117484999D01*
X159421204Y-117460495D01*
X159424804Y-117436227D01*
X159430765Y-117412428D01*
X159439030Y-117389329D01*
X159449520Y-117367150D01*
X159462132Y-117346107D01*
X159476747Y-117326401D01*
X159493223Y-117308223D01*
X159511401Y-117291747D01*
X159531107Y-117277132D01*
X159552150Y-117264520D01*
X159574329Y-117254030D01*
X159597428Y-117245765D01*
X159621227Y-117239804D01*
X159645495Y-117236204D01*
X159669999Y-117235000D01*
X160370001Y-117235000D01*
X160394505Y-117236204D01*
X160394505Y-117236204D01*
G37*
D25*
X160020000Y-118110000D03*
D20*
X97790000Y-67310000D03*
X176784000Y-120502680D03*
X97790000Y-71120000D03*
D21*
X111102140Y-79606140D03*
X102021640Y-102478840D03*
X121206260Y-99293680D03*
X113639600Y-99014280D03*
X108760260Y-97782380D03*
X121638060Y-108981240D03*
D26*
X121851420Y-90134601D03*
X118859300Y-100853240D03*
D21*
X116796820Y-89857580D03*
X121909839Y-92788739D03*
X140268960Y-81714340D03*
X171104560Y-76464160D03*
X106897380Y-77882960D03*
X106897380Y-80948320D03*
X120888760Y-117688360D03*
X123797060Y-102240080D03*
X142890240Y-111970820D03*
X128935480Y-73931780D03*
X128602740Y-75610720D03*
X128267460Y-77216000D03*
X127784860Y-78770480D03*
X144363440Y-87764620D03*
X119357140Y-106822240D03*
X105760520Y-114950240D03*
X128939290Y-108779310D03*
X144942557Y-86103457D03*
X127848360Y-109694980D03*
X135262620Y-79375000D03*
X125252480Y-109189520D03*
X136601200Y-79573120D03*
X125407420Y-110992920D03*
X106217720Y-112649000D03*
X133995160Y-79326740D03*
X123370340Y-109037120D03*
X113256060Y-113050320D03*
D26*
X108270040Y-102783640D03*
D21*
X147949920Y-85481160D03*
X133908802Y-114970562D03*
X146738340Y-84500720D03*
X129385060Y-113842800D03*
X130335020Y-112339120D03*
X124310140Y-113456720D03*
X128442704Y-84597240D03*
X102509320Y-83797140D03*
X119946420Y-82875120D03*
X115257580Y-81117440D03*
X119557800Y-80246220D03*
X113807240Y-81274920D03*
X128422400Y-80959960D03*
X109082840Y-88270860D03*
X112569868Y-87408628D03*
X102633600Y-105580220D03*
X101683820Y-108183680D03*
X109082840Y-89320860D03*
X113312332Y-88151092D03*
X148760180Y-111262160D03*
X148437600Y-107596940D03*
D27*
X109476540Y-100853240D02*
X117200680Y-100853240D01*
X107934760Y-99311460D02*
X109476540Y-100853240D01*
X103225600Y-99311460D02*
X107934760Y-99311460D01*
X96784160Y-81280000D02*
X95029020Y-83035140D01*
X95029020Y-101028500D02*
X95719900Y-101719380D01*
X95029020Y-83035140D02*
X95029020Y-101028500D01*
X99060000Y-81280000D02*
X96784160Y-81280000D01*
X95719900Y-101719380D02*
X100817680Y-101719380D01*
X100817680Y-101719380D02*
X103225600Y-99311460D01*
X122601419Y-90884600D02*
X121851420Y-90134601D01*
X123126500Y-99618800D02*
X123126500Y-91409681D01*
X123126500Y-91409681D02*
X122601419Y-90884600D01*
X121892060Y-100853240D02*
X123126500Y-99618800D01*
X117200680Y-100853240D02*
X118859300Y-100853240D01*
X118859300Y-100853240D02*
X121892060Y-100853240D01*
D28*
X121344154Y-92788739D02*
X121909839Y-92788739D01*
X116796820Y-89857580D02*
X116796820Y-92120720D01*
X116796820Y-92120720D02*
X117464839Y-92788739D01*
D29*
X142260320Y-79722980D02*
X142260320Y-61196220D01*
X140268960Y-81714340D02*
X142260320Y-79722980D01*
X171104560Y-76464160D02*
X172130720Y-75438000D01*
X172130720Y-75438000D02*
X172130720Y-71640700D01*
X175191420Y-68580000D02*
X182118000Y-68580000D01*
X172130720Y-71640700D02*
X175191420Y-68580000D01*
X106897380Y-77882960D02*
X106897380Y-80948320D01*
D28*
X117464839Y-92788739D02*
X117662959Y-92788739D01*
X117662959Y-92788739D02*
X121344154Y-92788739D01*
D29*
X117662959Y-94216221D02*
X117662959Y-92788739D01*
X99060000Y-96520000D02*
X115359180Y-96520000D01*
X115359180Y-96520000D02*
X117662959Y-94216221D01*
X121288759Y-118088359D02*
X137448341Y-118088359D01*
X120888760Y-117688360D02*
X121288759Y-118088359D01*
X137448341Y-118088359D02*
X138849100Y-116687600D01*
X138849100Y-116687600D02*
X138849100Y-113050320D01*
X139928600Y-111970820D02*
X142890240Y-111970820D01*
X138849100Y-113050320D02*
X139928600Y-111970820D01*
X123797060Y-105305860D02*
X123797060Y-102240080D01*
X120563640Y-108539280D02*
X123797060Y-105305860D01*
X120888760Y-117688360D02*
X120563640Y-117363240D01*
X120563640Y-117363240D02*
X120563640Y-108539280D01*
D28*
X97935000Y-91440000D02*
X99060000Y-91440000D01*
X97261680Y-92113320D02*
X97935000Y-91440000D01*
X97261680Y-94853760D02*
X97261680Y-92113320D01*
X97673160Y-95265240D02*
X97261680Y-94853760D01*
X114312700Y-95265240D02*
X97673160Y-95265240D01*
X115021360Y-94556580D02*
X114312700Y-95265240D01*
X115021360Y-89585800D02*
X115021360Y-94556580D01*
X131709160Y-74945240D02*
X131709160Y-87985600D01*
X131709160Y-87985600D02*
X130754120Y-88940640D01*
X130695700Y-73931780D02*
X131709160Y-74945240D01*
X128935480Y-73931780D02*
X130695700Y-73931780D01*
X130754120Y-88940640D02*
X115666520Y-88940640D01*
X115666520Y-88940640D02*
X115021360Y-89585800D01*
X109319060Y-93980000D02*
X99060000Y-93980000D01*
X113512600Y-93980000D02*
X109319060Y-93980000D01*
X114167920Y-93324680D02*
X113512600Y-93980000D01*
X114167920Y-88480900D02*
X114167920Y-93324680D01*
X128602740Y-75610720D02*
X130154680Y-75610720D01*
X130154680Y-75610720D02*
X131081780Y-76537820D01*
X131081780Y-76537820D02*
X131081780Y-87040720D01*
X131081780Y-87040720D02*
X130154680Y-87967820D01*
X114681000Y-87967820D02*
X114167920Y-88480900D01*
X130154680Y-87967820D02*
X114681000Y-87967820D01*
X130456940Y-78252320D02*
X129420620Y-77216000D01*
X129842260Y-86324440D02*
X130456940Y-85709760D01*
X129420620Y-77216000D02*
X128267460Y-77216000D01*
X130456940Y-85709760D02*
X130456940Y-78252320D01*
X99060000Y-86360000D02*
X99095560Y-86324440D01*
X99095560Y-86324440D02*
X129842260Y-86324440D01*
X102074980Y-85234780D02*
X100660200Y-83820000D01*
X126748540Y-85234780D02*
X102074980Y-85234780D01*
X127784860Y-78770480D02*
X129128520Y-78770480D01*
X127071120Y-85557360D02*
X126748540Y-85234780D01*
X100660200Y-83820000D02*
X99060000Y-83820000D01*
X129128520Y-78770480D02*
X129768600Y-79410560D01*
X129768600Y-79410560D02*
X129768600Y-85003640D01*
X129768600Y-85003640D02*
X129214880Y-85557360D01*
X129214880Y-85557360D02*
X127071120Y-85557360D01*
X132439410Y-108779310D02*
X128939290Y-108779310D01*
X144363440Y-87764620D02*
X144363440Y-96855280D01*
X144363440Y-96855280D02*
X132439410Y-108779310D01*
X106326205Y-114950240D02*
X106697045Y-115321080D01*
X105760520Y-114950240D02*
X106326205Y-114950240D01*
X106697045Y-115321080D02*
X114523520Y-115321080D01*
X114523520Y-115321080D02*
X115298220Y-114546380D01*
X118026180Y-106822240D02*
X119357140Y-106822240D01*
X115298220Y-114546380D02*
X115298220Y-109550200D01*
X115298220Y-109550200D02*
X118026180Y-106822240D01*
X133101080Y-109694980D02*
X128414045Y-109694980D01*
X145342556Y-97453504D02*
X133101080Y-109694980D01*
X128414045Y-109694980D02*
X127848360Y-109694980D01*
X145342556Y-86503456D02*
X145342556Y-97453504D01*
X144942557Y-86103457D02*
X145342556Y-86503456D01*
X127114300Y-102570280D02*
X127114300Y-107152440D01*
X133606540Y-101820980D02*
X127863600Y-101820980D01*
X135262620Y-79375000D02*
X135262620Y-79809340D01*
X134216140Y-80855820D02*
X134216140Y-101211380D01*
X134216140Y-101211380D02*
X133606540Y-101820980D01*
X125252480Y-109014260D02*
X125252480Y-109189520D01*
X127114300Y-107152440D02*
X125252480Y-109014260D01*
X135262620Y-79809340D02*
X134216140Y-80855820D01*
X127863600Y-101820980D02*
X127114300Y-102570280D01*
X134949000Y-81225320D02*
X136601200Y-79573120D01*
X134183120Y-102730300D02*
X134949000Y-101964420D01*
X134949000Y-101964420D02*
X134949000Y-81225320D01*
X126677420Y-109722920D02*
X126677420Y-108971080D01*
X128234440Y-103471980D02*
X128976120Y-102730300D01*
X125407420Y-110992920D02*
X126677420Y-109722920D01*
X126677420Y-108971080D02*
X128234440Y-107414060D01*
X128976120Y-102730300D02*
X134183120Y-102730300D01*
X128234440Y-107414060D02*
X128234440Y-103471980D01*
X106217720Y-112649000D02*
X106619040Y-113050320D01*
X133416040Y-100248720D02*
X133416040Y-79921100D01*
X123370340Y-109037120D02*
X123370340Y-109024420D01*
X123370340Y-109024420D02*
X125935740Y-106459020D01*
X125935740Y-106459020D02*
X125935740Y-101714300D01*
X125935740Y-101714300D02*
X126718060Y-100931980D01*
X133995160Y-79341980D02*
X133995160Y-79326740D01*
X133416040Y-79921100D02*
X133995160Y-79341980D01*
X126718060Y-100931980D02*
X132732780Y-100931980D01*
X132732780Y-100931980D02*
X133416040Y-100248720D01*
X106619040Y-113050320D02*
X113256060Y-113050320D01*
D27*
X108270040Y-106408220D02*
X108270040Y-102783640D01*
X103941880Y-110736380D02*
X108270040Y-106408220D01*
X156210000Y-118110000D02*
X154045920Y-120274080D01*
X118043960Y-120274080D02*
X116601240Y-121716800D01*
X154045920Y-120274080D02*
X118043960Y-120274080D01*
X103941880Y-119072660D02*
X103941880Y-110736380D01*
X116601240Y-121716800D02*
X106586020Y-121716800D01*
X160020000Y-118110000D02*
X156210000Y-118110000D01*
X106586020Y-121716800D02*
X103941880Y-119072660D01*
D28*
X147949920Y-100929444D02*
X134308801Y-114570563D01*
X134308801Y-114570563D02*
X133908802Y-114970562D01*
X147949920Y-85481160D02*
X147949920Y-100929444D01*
X146959320Y-95062040D02*
X146725640Y-94828360D01*
X146959320Y-97525840D02*
X146959320Y-95062040D01*
X146725640Y-84513420D02*
X146738340Y-84500720D01*
X146725640Y-94828360D02*
X146725640Y-84513420D01*
X129385060Y-113842800D02*
X130642360Y-113842800D01*
X130642360Y-113842800D02*
X146959320Y-97525840D01*
X125427740Y-112339120D02*
X124710139Y-113056721D01*
X130335020Y-112339120D02*
X125427740Y-112339120D01*
X124710139Y-113056721D02*
X124310140Y-113456720D01*
X103309420Y-84597240D02*
X102909319Y-84197139D01*
X102909319Y-84197139D02*
X102509320Y-83797140D01*
X128442704Y-84597240D02*
X103309420Y-84597240D01*
X101826060Y-67884040D02*
X101252020Y-67310000D01*
X101826060Y-78861920D02*
X101826060Y-67884040D01*
X119946420Y-82875120D02*
X105839260Y-82875120D01*
X101252020Y-67310000D02*
X97790000Y-67310000D01*
X105839260Y-82875120D02*
X101826060Y-78861920D01*
X115257580Y-81117440D02*
X116128800Y-80246220D01*
X116128800Y-80246220D02*
X119557800Y-80246220D01*
X113807240Y-81274920D02*
X114520980Y-81988660D01*
X114520980Y-81988660D02*
X116182140Y-81988660D01*
X116182140Y-81988660D02*
X117027960Y-81142840D01*
X117027960Y-81142840D02*
X128239520Y-81142840D01*
X128239520Y-81142840D02*
X128422400Y-80959960D01*
D30*
X109082840Y-88270860D02*
X109382840Y-88570860D01*
X109382840Y-88570860D02*
X111831901Y-88570860D01*
X111831901Y-88570860D02*
X112569868Y-87832893D01*
X112569868Y-87832893D02*
X112569868Y-87408628D01*
X102633600Y-105580220D02*
X102633600Y-107233900D01*
X102633600Y-107233900D02*
X102083819Y-107783681D01*
X102083819Y-107783681D02*
X101683820Y-108183680D01*
X112018299Y-89020860D02*
X112888067Y-88151092D01*
X109082840Y-89320860D02*
X109382840Y-89020860D01*
X112888067Y-88151092D02*
X113312332Y-88151092D01*
X109382840Y-89020860D02*
X112018299Y-89020860D01*
D28*
X148760180Y-107919520D02*
X148437600Y-107596940D01*
X148760180Y-111262160D02*
X148760180Y-107919520D01*
D31*
G36*
X185764635Y-52869446D02*
G01*
X186096153Y-52969536D01*
X186401909Y-53132110D01*
X186670265Y-53350976D01*
X186890999Y-53617798D01*
X187055704Y-53922413D01*
X187158105Y-54253217D01*
X187198001Y-54632805D01*
X187198000Y-121882735D01*
X187160554Y-122264639D01*
X187060463Y-122596154D01*
X186897891Y-122901908D01*
X186679025Y-123170264D01*
X186412202Y-123390999D01*
X186107586Y-123555704D01*
X185776783Y-123658105D01*
X185397204Y-123698000D01*
X95287265Y-123698000D01*
X94905361Y-123660554D01*
X94573846Y-123560463D01*
X94268092Y-123397891D01*
X93999736Y-123179025D01*
X93779001Y-122912202D01*
X93614296Y-122607586D01*
X93511895Y-122276783D01*
X93472000Y-121897204D01*
X93472000Y-121583148D01*
X95766457Y-121583148D01*
X96042627Y-122001118D01*
X96587557Y-122291649D01*
X97178696Y-122470287D01*
X97793328Y-122530168D01*
X98407831Y-122468990D01*
X98998592Y-122289103D01*
X99537373Y-122001118D01*
X99813543Y-121583148D01*
X97790000Y-119559605D01*
X95766457Y-121583148D01*
X93472000Y-121583148D01*
X93472000Y-119383328D01*
X94639832Y-119383328D01*
X94701010Y-119997831D01*
X94880897Y-120588592D01*
X95168882Y-121127373D01*
X95586852Y-121403543D01*
X97610395Y-119380000D01*
X97969605Y-119380000D01*
X99993148Y-121403543D01*
X100411118Y-121127373D01*
X100701649Y-120582443D01*
X100880287Y-119991304D01*
X100940168Y-119376672D01*
X100878990Y-118762169D01*
X100699103Y-118171408D01*
X100411118Y-117632627D01*
X99993148Y-117356457D01*
X97969605Y-119380000D01*
X97610395Y-119380000D01*
X95586852Y-117356457D01*
X95168882Y-117632627D01*
X94878351Y-118177557D01*
X94699713Y-118768696D01*
X94639832Y-119383328D01*
X93472000Y-119383328D01*
X93472000Y-117176852D01*
X95766457Y-117176852D01*
X97790000Y-119200395D01*
X99813543Y-117176852D01*
X99537373Y-116758882D01*
X98992443Y-116468351D01*
X98401304Y-116289713D01*
X97786672Y-116229832D01*
X97172169Y-116291010D01*
X96581408Y-116470897D01*
X96042627Y-116758882D01*
X95766457Y-117176852D01*
X93472000Y-117176852D01*
X93472000Y-110736380D01*
X103052599Y-110736380D01*
X103056881Y-110779859D01*
X103056880Y-119029191D01*
X103052599Y-119072660D01*
X103056880Y-119116129D01*
X103056880Y-119116136D01*
X103069685Y-119246149D01*
X103120291Y-119412972D01*
X103202469Y-119566718D01*
X103313063Y-119701477D01*
X103346836Y-119729194D01*
X104039240Y-120421598D01*
X104039240Y-120421968D01*
X104082857Y-120641247D01*
X104168416Y-120847804D01*
X104292628Y-121033700D01*
X104450720Y-121191792D01*
X104636616Y-121316004D01*
X104843173Y-121401563D01*
X105062452Y-121445180D01*
X105062821Y-121445180D01*
X105929490Y-122311849D01*
X105957203Y-122345617D01*
X105990971Y-122373330D01*
X105990973Y-122373332D01*
X106091961Y-122456211D01*
X106245706Y-122538389D01*
X106342624Y-122567789D01*
X106412530Y-122588995D01*
X106542543Y-122601800D01*
X106542551Y-122601800D01*
X106586020Y-122606081D01*
X106629489Y-122601800D01*
X116557771Y-122601800D01*
X116601240Y-122606081D01*
X116644709Y-122601800D01*
X116644717Y-122601800D01*
X116774730Y-122588995D01*
X116941553Y-122538389D01*
X117095299Y-122456211D01*
X117230057Y-122345617D01*
X117257774Y-122311844D01*
X118410539Y-121159080D01*
X154002451Y-121159080D01*
X154045920Y-121163361D01*
X154089389Y-121159080D01*
X154089397Y-121159080D01*
X154219410Y-121146275D01*
X154386233Y-121095669D01*
X154539979Y-121013491D01*
X154674737Y-120902897D01*
X154702454Y-120869124D01*
X155229931Y-120341647D01*
X171085000Y-120341647D01*
X171085000Y-120663713D01*
X171147832Y-120979592D01*
X171271082Y-121277143D01*
X171450013Y-121544932D01*
X171677748Y-121772667D01*
X171945537Y-121951598D01*
X172243088Y-122074848D01*
X172558967Y-122137680D01*
X172881033Y-122137680D01*
X173196912Y-122074848D01*
X173494463Y-121951598D01*
X173762252Y-121772667D01*
X173896826Y-121638093D01*
X175828192Y-121638093D01*
X175923956Y-121902494D01*
X176213571Y-122043384D01*
X176525108Y-122125064D01*
X176846595Y-122144398D01*
X177165675Y-122100641D01*
X177470088Y-121995475D01*
X177644044Y-121902494D01*
X177739808Y-121638093D01*
X177684863Y-121583148D01*
X180856457Y-121583148D01*
X181132627Y-122001118D01*
X181677557Y-122291649D01*
X182268696Y-122470287D01*
X182883328Y-122530168D01*
X183497831Y-122468990D01*
X184088592Y-122289103D01*
X184627373Y-122001118D01*
X184903543Y-121583148D01*
X182880000Y-119559605D01*
X180856457Y-121583148D01*
X177684863Y-121583148D01*
X176784000Y-120682285D01*
X175828192Y-121638093D01*
X173896826Y-121638093D01*
X173989987Y-121544932D01*
X174168918Y-121277143D01*
X174292168Y-120979592D01*
X174355000Y-120663713D01*
X174355000Y-120565275D01*
X175142282Y-120565275D01*
X175186039Y-120884355D01*
X175291205Y-121188768D01*
X175384186Y-121362724D01*
X175648587Y-121458488D01*
X176604395Y-120502680D01*
X176963605Y-120502680D01*
X177919413Y-121458488D01*
X178183814Y-121362724D01*
X178324704Y-121073109D01*
X178406384Y-120761572D01*
X178425718Y-120440085D01*
X178381961Y-120121005D01*
X178276795Y-119816592D01*
X178183814Y-119642636D01*
X177919413Y-119546872D01*
X176963605Y-120502680D01*
X176604395Y-120502680D01*
X175648587Y-119546872D01*
X175384186Y-119642636D01*
X175243296Y-119932251D01*
X175161616Y-120243788D01*
X175142282Y-120565275D01*
X174355000Y-120565275D01*
X174355000Y-120341647D01*
X174292168Y-120025768D01*
X174168918Y-119728217D01*
X173989987Y-119460428D01*
X173896826Y-119367267D01*
X175828192Y-119367267D01*
X176784000Y-120323075D01*
X177723747Y-119383328D01*
X179729832Y-119383328D01*
X179791010Y-119997831D01*
X179970897Y-120588592D01*
X180258882Y-121127373D01*
X180676852Y-121403543D01*
X182700395Y-119380000D01*
X183059605Y-119380000D01*
X185083148Y-121403543D01*
X185501118Y-121127373D01*
X185791649Y-120582443D01*
X185970287Y-119991304D01*
X186030168Y-119376672D01*
X185968990Y-118762169D01*
X185789103Y-118171408D01*
X185501118Y-117632627D01*
X185083148Y-117356457D01*
X183059605Y-119380000D01*
X182700395Y-119380000D01*
X180676852Y-117356457D01*
X180258882Y-117632627D01*
X179968351Y-118177557D01*
X179789713Y-118768696D01*
X179729832Y-119383328D01*
X177723747Y-119383328D01*
X177739808Y-119367267D01*
X177644044Y-119102866D01*
X177354429Y-118961976D01*
X177042892Y-118880296D01*
X176721405Y-118860962D01*
X176402325Y-118904719D01*
X176097912Y-119009885D01*
X175923956Y-119102866D01*
X175828192Y-119367267D01*
X173896826Y-119367267D01*
X173762252Y-119232693D01*
X173494463Y-119053762D01*
X173196912Y-118930512D01*
X172881033Y-118867680D01*
X172558967Y-118867680D01*
X172243088Y-118930512D01*
X171945537Y-119053762D01*
X171677748Y-119232693D01*
X171450013Y-119460428D01*
X171271082Y-119728217D01*
X171147832Y-120025768D01*
X171085000Y-120341647D01*
X155229931Y-120341647D01*
X156576579Y-118995000D01*
X158825306Y-118995000D01*
X158849528Y-119074851D01*
X158931595Y-119228387D01*
X159042038Y-119362962D01*
X159176613Y-119473405D01*
X159330149Y-119555472D01*
X159496745Y-119606008D01*
X159669999Y-119623072D01*
X160370001Y-119623072D01*
X160543255Y-119606008D01*
X160709851Y-119555472D01*
X160863387Y-119473405D01*
X160997962Y-119362962D01*
X161108405Y-119228387D01*
X161110967Y-119223594D01*
X161236526Y-119348078D01*
X161439467Y-119482421D01*
X161664718Y-119574591D01*
X161702391Y-119578462D01*
X161893000Y-119453731D01*
X161893000Y-118237000D01*
X162147000Y-118237000D01*
X162147000Y-119453731D01*
X162337609Y-119578462D01*
X162375282Y-119574591D01*
X162600533Y-119482421D01*
X162803474Y-119348078D01*
X162976307Y-119176725D01*
X163112390Y-118974946D01*
X163206493Y-118750496D01*
X163255000Y-118512000D01*
X163255000Y-118237000D01*
X162147000Y-118237000D01*
X161893000Y-118237000D01*
X161873000Y-118237000D01*
X161873000Y-117983000D01*
X161893000Y-117983000D01*
X161893000Y-116766269D01*
X162147000Y-116766269D01*
X162147000Y-117983000D01*
X163255000Y-117983000D01*
X163255000Y-117708000D01*
X163206493Y-117469504D01*
X163112390Y-117245054D01*
X163066394Y-117176852D01*
X180856457Y-117176852D01*
X182880000Y-119200395D01*
X184903543Y-117176852D01*
X184627373Y-116758882D01*
X184082443Y-116468351D01*
X183491304Y-116289713D01*
X182876672Y-116229832D01*
X182262169Y-116291010D01*
X181671408Y-116470897D01*
X181132627Y-116758882D01*
X180856457Y-117176852D01*
X163066394Y-117176852D01*
X162976307Y-117043275D01*
X162803474Y-116871922D01*
X162600533Y-116737579D01*
X162375282Y-116645409D01*
X162337609Y-116641538D01*
X162147000Y-116766269D01*
X161893000Y-116766269D01*
X161702391Y-116641538D01*
X161664718Y-116645409D01*
X161439467Y-116737579D01*
X161236526Y-116871922D01*
X161110967Y-116996406D01*
X161108405Y-116991613D01*
X160997962Y-116857038D01*
X160863387Y-116746595D01*
X160709851Y-116664528D01*
X160543255Y-116613992D01*
X160370001Y-116596928D01*
X159669999Y-116596928D01*
X159496745Y-116613992D01*
X159330149Y-116664528D01*
X159176613Y-116746595D01*
X159042038Y-116857038D01*
X158931595Y-116991613D01*
X158849528Y-117145149D01*
X158825306Y-117225000D01*
X156253465Y-117225000D01*
X156209999Y-117220719D01*
X156166533Y-117225000D01*
X156166523Y-117225000D01*
X156036510Y-117237805D01*
X155869687Y-117288411D01*
X155715941Y-117370589D01*
X155715939Y-117370590D01*
X155715940Y-117370590D01*
X155614953Y-117453468D01*
X155614951Y-117453470D01*
X155581183Y-117481183D01*
X155553470Y-117514951D01*
X153679342Y-119389080D01*
X118087425Y-119389080D01*
X118043959Y-119384799D01*
X118000493Y-119389080D01*
X118000483Y-119389080D01*
X117870470Y-119401885D01*
X117703647Y-119452491D01*
X117549901Y-119534669D01*
X117549899Y-119534670D01*
X117549900Y-119534670D01*
X117448913Y-119617548D01*
X117448911Y-119617550D01*
X117415143Y-119645263D01*
X117387430Y-119679031D01*
X116234662Y-120831800D01*
X114186693Y-120831800D01*
X114265623Y-120641247D01*
X114309240Y-120421968D01*
X114309240Y-120198392D01*
X114265623Y-119979113D01*
X114180064Y-119772556D01*
X114055852Y-119586660D01*
X113897760Y-119428568D01*
X113711864Y-119304356D01*
X113505307Y-119218797D01*
X113286028Y-119175180D01*
X113062452Y-119175180D01*
X112843173Y-119218797D01*
X112636616Y-119304356D01*
X112450720Y-119428568D01*
X112292628Y-119586660D01*
X112168416Y-119772556D01*
X112082857Y-119979113D01*
X112039240Y-120198392D01*
X112039240Y-120421968D01*
X112082857Y-120641247D01*
X112161787Y-120831800D01*
X106952599Y-120831800D01*
X106306769Y-120185971D01*
X106265623Y-119979113D01*
X106180064Y-119772556D01*
X106055852Y-119586660D01*
X105897760Y-119428568D01*
X105711864Y-119304356D01*
X105505307Y-119218797D01*
X105298449Y-119177651D01*
X104826880Y-118706082D01*
X104826880Y-115400819D01*
X104843315Y-115440496D01*
X104956583Y-115610014D01*
X105100746Y-115754177D01*
X105270264Y-115867445D01*
X105458622Y-115945466D01*
X105658581Y-115985240D01*
X105862459Y-115985240D01*
X106062418Y-115945466D01*
X106193638Y-115891113D01*
X106272769Y-115956054D01*
X106404798Y-116026626D01*
X106548059Y-116070083D01*
X106659712Y-116081080D01*
X106659722Y-116081080D01*
X106697045Y-116084756D01*
X106734368Y-116081080D01*
X114486198Y-116081080D01*
X114523520Y-116084756D01*
X114560842Y-116081080D01*
X114560853Y-116081080D01*
X114672506Y-116070083D01*
X114815767Y-116026626D01*
X114947796Y-115956054D01*
X115063521Y-115861081D01*
X115087323Y-115832078D01*
X115809224Y-115110178D01*
X115838221Y-115086381D01*
X115933194Y-114970656D01*
X116003766Y-114838627D01*
X116047223Y-114695366D01*
X116058220Y-114583713D01*
X116058220Y-114583704D01*
X116061896Y-114546381D01*
X116058220Y-114509058D01*
X116058220Y-109865001D01*
X117383941Y-108539280D01*
X119774843Y-108539280D01*
X119778641Y-108577843D01*
X119778640Y-117324687D01*
X119774843Y-117363240D01*
X119778640Y-117401793D01*
X119778640Y-117401800D01*
X119789999Y-117517126D01*
X119834886Y-117665099D01*
X119853760Y-117700410D01*
X119853760Y-117790299D01*
X119893534Y-117990258D01*
X119971555Y-118178616D01*
X120084823Y-118348134D01*
X120228986Y-118492297D01*
X120398504Y-118605565D01*
X120586862Y-118683586D01*
X120786821Y-118723360D01*
X120825107Y-118723360D01*
X120850526Y-118744221D01*
X120986899Y-118817113D01*
X121134872Y-118862000D01*
X121250198Y-118873359D01*
X121250205Y-118873359D01*
X121288758Y-118877156D01*
X121327311Y-118873359D01*
X137409788Y-118873359D01*
X137448341Y-118877156D01*
X137486894Y-118873359D01*
X137486902Y-118873359D01*
X137602228Y-118862000D01*
X137750201Y-118817113D01*
X137886574Y-118744221D01*
X138006105Y-118646123D01*
X138030688Y-118616169D01*
X139376917Y-117269941D01*
X139406864Y-117245364D01*
X139504962Y-117125833D01*
X139577854Y-116989460D01*
X139622741Y-116841487D01*
X139634100Y-116726161D01*
X139634100Y-116726154D01*
X139637897Y-116687601D01*
X139634100Y-116649048D01*
X139634100Y-113375477D01*
X140253757Y-112755820D01*
X142211529Y-112755820D01*
X142230466Y-112774757D01*
X142399984Y-112888025D01*
X142588342Y-112966046D01*
X142788301Y-113005820D01*
X142992179Y-113005820D01*
X143192138Y-112966046D01*
X143380496Y-112888025D01*
X143550014Y-112774757D01*
X143694177Y-112630594D01*
X143807445Y-112461076D01*
X143885466Y-112272718D01*
X143925240Y-112072759D01*
X143925240Y-111868881D01*
X143885466Y-111668922D01*
X143807445Y-111480564D01*
X143694177Y-111311046D01*
X143550014Y-111166883D01*
X143380496Y-111053615D01*
X143192138Y-110975594D01*
X142992179Y-110935820D01*
X142788301Y-110935820D01*
X142588342Y-110975594D01*
X142399984Y-111053615D01*
X142230466Y-111166883D01*
X142211529Y-111185820D01*
X139967156Y-111185820D01*
X139928600Y-111182023D01*
X139890044Y-111185820D01*
X139890039Y-111185820D01*
X139849626Y-111189800D01*
X139774713Y-111197178D01*
X139626740Y-111242066D01*
X139490367Y-111314958D01*
X139370836Y-111413056D01*
X139346253Y-111443010D01*
X138321285Y-112467978D01*
X138291337Y-112492556D01*
X138266759Y-112522504D01*
X138266755Y-112522508D01*
X138246605Y-112547061D01*
X138193239Y-112612087D01*
X138173509Y-112649000D01*
X138120346Y-112748461D01*
X138075459Y-112896434D01*
X138060303Y-113050320D01*
X138064101Y-113088883D01*
X138064100Y-116362442D01*
X137123184Y-117303359D01*
X121849563Y-117303359D01*
X121805965Y-117198104D01*
X121692697Y-117028586D01*
X121548534Y-116884423D01*
X121379016Y-116771155D01*
X121348640Y-116758573D01*
X121348640Y-108935181D01*
X122335340Y-108935181D01*
X122335340Y-109139059D01*
X122375114Y-109339018D01*
X122453135Y-109527376D01*
X122566403Y-109696894D01*
X122710566Y-109841057D01*
X122880084Y-109954325D01*
X123068442Y-110032346D01*
X123268401Y-110072120D01*
X123472279Y-110072120D01*
X123672238Y-110032346D01*
X123860596Y-109954325D01*
X124030114Y-109841057D01*
X124174277Y-109696894D01*
X124278040Y-109541601D01*
X124335275Y-109679776D01*
X124448543Y-109849294D01*
X124592706Y-109993457D01*
X124762224Y-110106725D01*
X124829221Y-110134476D01*
X124747646Y-110188983D01*
X124603483Y-110333146D01*
X124490215Y-110502664D01*
X124412194Y-110691022D01*
X124372420Y-110890981D01*
X124372420Y-111094859D01*
X124412194Y-111294818D01*
X124490215Y-111483176D01*
X124603483Y-111652694D01*
X124747646Y-111796857D01*
X124836099Y-111855959D01*
X124270339Y-112421720D01*
X124208201Y-112421720D01*
X124008242Y-112461494D01*
X123819884Y-112539515D01*
X123650366Y-112652783D01*
X123506203Y-112796946D01*
X123392935Y-112966464D01*
X123314914Y-113154822D01*
X123275140Y-113354781D01*
X123275140Y-113558659D01*
X123314914Y-113758618D01*
X123392935Y-113946976D01*
X123506203Y-114116494D01*
X123650366Y-114260657D01*
X123819884Y-114373925D01*
X124008242Y-114451946D01*
X124208201Y-114491720D01*
X124412079Y-114491720D01*
X124612038Y-114451946D01*
X124800396Y-114373925D01*
X124969914Y-114260657D01*
X125114077Y-114116494D01*
X125227345Y-113946976D01*
X125305366Y-113758618D01*
X125345140Y-113558659D01*
X125345140Y-113496521D01*
X125742542Y-113099120D01*
X128665029Y-113099120D01*
X128581123Y-113183026D01*
X128467855Y-113352544D01*
X128389834Y-113540902D01*
X128350060Y-113740861D01*
X128350060Y-113944739D01*
X128389834Y-114144698D01*
X128467855Y-114333056D01*
X128581123Y-114502574D01*
X128725286Y-114646737D01*
X128894804Y-114760005D01*
X129083162Y-114838026D01*
X129283121Y-114877800D01*
X129486999Y-114877800D01*
X129686958Y-114838026D01*
X129875316Y-114760005D01*
X130044834Y-114646737D01*
X130088771Y-114602800D01*
X130605038Y-114602800D01*
X130642360Y-114606476D01*
X130679682Y-114602800D01*
X130679693Y-114602800D01*
X130791346Y-114591803D01*
X130934607Y-114548346D01*
X131066636Y-114477774D01*
X131182361Y-114382801D01*
X131206164Y-114353797D01*
X147189921Y-98370041D01*
X147189921Y-100614640D01*
X133869001Y-113935562D01*
X133806863Y-113935562D01*
X133606904Y-113975336D01*
X133418546Y-114053357D01*
X133249028Y-114166625D01*
X133104865Y-114310788D01*
X132991597Y-114480306D01*
X132913576Y-114668664D01*
X132873802Y-114868623D01*
X132873802Y-115072501D01*
X132913576Y-115272460D01*
X132991597Y-115460818D01*
X133104865Y-115630336D01*
X133249028Y-115774499D01*
X133418546Y-115887767D01*
X133606904Y-115965788D01*
X133806863Y-116005562D01*
X134010741Y-116005562D01*
X134210700Y-115965788D01*
X134399058Y-115887767D01*
X134568576Y-115774499D01*
X134712739Y-115630336D01*
X134826007Y-115460818D01*
X134904028Y-115272460D01*
X134943802Y-115072501D01*
X134943802Y-115010363D01*
X142459165Y-107495001D01*
X147402600Y-107495001D01*
X147402600Y-107698879D01*
X147442374Y-107898838D01*
X147520395Y-108087196D01*
X147633663Y-108256714D01*
X147777826Y-108400877D01*
X147947344Y-108514145D01*
X148000181Y-108536031D01*
X148000180Y-110558449D01*
X147956243Y-110602386D01*
X147842975Y-110771904D01*
X147764954Y-110960262D01*
X147725180Y-111160221D01*
X147725180Y-111364099D01*
X147764954Y-111564058D01*
X147842975Y-111752416D01*
X147956243Y-111921934D01*
X148100406Y-112066097D01*
X148269924Y-112179365D01*
X148458282Y-112257386D01*
X148658241Y-112297160D01*
X148862119Y-112297160D01*
X149062078Y-112257386D01*
X149250436Y-112179365D01*
X149419954Y-112066097D01*
X149564117Y-111921934D01*
X149677385Y-111752416D01*
X149755406Y-111564058D01*
X149795180Y-111364099D01*
X149795180Y-111160221D01*
X149755406Y-110960262D01*
X149677385Y-110771904D01*
X149564117Y-110602386D01*
X149520180Y-110558449D01*
X149520180Y-107956842D01*
X149523856Y-107919519D01*
X149520180Y-107882197D01*
X149520180Y-107882187D01*
X149509183Y-107770534D01*
X149472600Y-107649934D01*
X149472600Y-107495001D01*
X149432826Y-107295042D01*
X149354805Y-107106684D01*
X149241537Y-106937166D01*
X149097374Y-106793003D01*
X148927856Y-106679735D01*
X148739498Y-106601714D01*
X148539539Y-106561940D01*
X148335661Y-106561940D01*
X148135702Y-106601714D01*
X147947344Y-106679735D01*
X147777826Y-106793003D01*
X147633663Y-106937166D01*
X147520395Y-107106684D01*
X147442374Y-107295042D01*
X147402600Y-107495001D01*
X142459165Y-107495001D01*
X143505306Y-106448860D01*
X162675635Y-106448860D01*
X162704307Y-106739971D01*
X162789221Y-107019894D01*
X162927114Y-107277874D01*
X163112686Y-107503994D01*
X163338806Y-107689566D01*
X163596786Y-107827459D01*
X163876709Y-107912373D01*
X164094870Y-107933860D01*
X164240770Y-107933860D01*
X164458931Y-107912373D01*
X164738854Y-107827459D01*
X164996834Y-107689566D01*
X165222954Y-107503994D01*
X165247427Y-107474173D01*
X165268318Y-107543040D01*
X165327283Y-107653354D01*
X165406635Y-107750045D01*
X165503326Y-107829397D01*
X165613640Y-107888362D01*
X165733338Y-107924672D01*
X165857820Y-107936932D01*
X166422070Y-107933860D01*
X166580820Y-107775110D01*
X166580820Y-106575860D01*
X166834820Y-106575860D01*
X166834820Y-107775110D01*
X166993570Y-107933860D01*
X167557820Y-107936932D01*
X167682302Y-107924672D01*
X167802000Y-107888362D01*
X167912314Y-107829397D01*
X168009005Y-107750045D01*
X168088357Y-107653354D01*
X168147322Y-107543040D01*
X168183632Y-107423342D01*
X168195892Y-107298860D01*
X168192820Y-106734610D01*
X168034070Y-106575860D01*
X166834820Y-106575860D01*
X166580820Y-106575860D01*
X166560820Y-106575860D01*
X166560820Y-106448860D01*
X172993115Y-106448860D01*
X173021787Y-106739971D01*
X173106701Y-107019894D01*
X173244594Y-107277874D01*
X173430166Y-107503994D01*
X173656286Y-107689566D01*
X173914266Y-107827459D01*
X174194189Y-107912373D01*
X174412350Y-107933860D01*
X174558250Y-107933860D01*
X174776411Y-107912373D01*
X175056334Y-107827459D01*
X175314314Y-107689566D01*
X175540434Y-107503994D01*
X175564907Y-107474173D01*
X175585798Y-107543040D01*
X175644763Y-107653354D01*
X175724115Y-107750045D01*
X175820806Y-107829397D01*
X175931120Y-107888362D01*
X176050818Y-107924672D01*
X176175300Y-107936932D01*
X176739550Y-107933860D01*
X176898300Y-107775110D01*
X176898300Y-106575860D01*
X177152300Y-106575860D01*
X177152300Y-107775110D01*
X177311050Y-107933860D01*
X177875300Y-107936932D01*
X177999782Y-107924672D01*
X178119480Y-107888362D01*
X178229794Y-107829397D01*
X178326485Y-107750045D01*
X178405837Y-107653354D01*
X178464802Y-107543040D01*
X178501112Y-107423342D01*
X178513372Y-107298860D01*
X178510300Y-106734610D01*
X178351550Y-106575860D01*
X177152300Y-106575860D01*
X176898300Y-106575860D01*
X176878300Y-106575860D01*
X176878300Y-106321860D01*
X176898300Y-106321860D01*
X176898300Y-105122610D01*
X177152300Y-105122610D01*
X177152300Y-106321860D01*
X178351550Y-106321860D01*
X178510300Y-106163110D01*
X178513372Y-105598860D01*
X178501112Y-105474378D01*
X178464802Y-105354680D01*
X178405837Y-105244366D01*
X178326485Y-105147675D01*
X178229794Y-105068323D01*
X178119480Y-105009358D01*
X177999782Y-104973048D01*
X177875300Y-104960788D01*
X177311050Y-104963860D01*
X177152300Y-105122610D01*
X176898300Y-105122610D01*
X176739550Y-104963860D01*
X176175300Y-104960788D01*
X176050818Y-104973048D01*
X175931120Y-105009358D01*
X175820806Y-105068323D01*
X175724115Y-105147675D01*
X175644763Y-105244366D01*
X175585798Y-105354680D01*
X175564907Y-105423547D01*
X175540434Y-105393726D01*
X175314314Y-105208154D01*
X175056334Y-105070261D01*
X174776411Y-104985347D01*
X174558250Y-104963860D01*
X174412350Y-104963860D01*
X174194189Y-104985347D01*
X173914266Y-105070261D01*
X173656286Y-105208154D01*
X173430166Y-105393726D01*
X173244594Y-105619846D01*
X173106701Y-105877826D01*
X173021787Y-106157749D01*
X172993115Y-106448860D01*
X166560820Y-106448860D01*
X166560820Y-106321860D01*
X166580820Y-106321860D01*
X166580820Y-105122610D01*
X166834820Y-105122610D01*
X166834820Y-106321860D01*
X168034070Y-106321860D01*
X168192820Y-106163110D01*
X168195892Y-105598860D01*
X168183632Y-105474378D01*
X168147322Y-105354680D01*
X168088357Y-105244366D01*
X168009005Y-105147675D01*
X167912314Y-105068323D01*
X167802000Y-105009358D01*
X167682302Y-104973048D01*
X167557820Y-104960788D01*
X166993570Y-104963860D01*
X166834820Y-105122610D01*
X166580820Y-105122610D01*
X166422070Y-104963860D01*
X165857820Y-104960788D01*
X165733338Y-104973048D01*
X165613640Y-105009358D01*
X165503326Y-105068323D01*
X165406635Y-105147675D01*
X165327283Y-105244366D01*
X165268318Y-105354680D01*
X165247427Y-105423547D01*
X165222954Y-105393726D01*
X164996834Y-105208154D01*
X164738854Y-105070261D01*
X164458931Y-104985347D01*
X164240770Y-104963860D01*
X164094870Y-104963860D01*
X163876709Y-104985347D01*
X163596786Y-105070261D01*
X163338806Y-105208154D01*
X163112686Y-105393726D01*
X162927114Y-105619846D01*
X162789221Y-105877826D01*
X162704307Y-106157749D01*
X162675635Y-106448860D01*
X143505306Y-106448860D01*
X148460928Y-101493239D01*
X148489921Y-101469445D01*
X148513715Y-101440452D01*
X148513719Y-101440448D01*
X148571731Y-101369759D01*
X148584894Y-101353720D01*
X148655466Y-101221691D01*
X148698923Y-101078430D01*
X148709920Y-100966777D01*
X148709920Y-100966768D01*
X148713596Y-100929445D01*
X148709920Y-100892122D01*
X148709920Y-99060000D01*
X153424025Y-99060000D01*
X153447870Y-99302102D01*
X153518489Y-99534901D01*
X153633167Y-99749449D01*
X153787498Y-99937502D01*
X153975551Y-100091833D01*
X154190099Y-100206511D01*
X154422898Y-100277130D01*
X154604335Y-100295000D01*
X155275665Y-100295000D01*
X155457102Y-100277130D01*
X155689901Y-100206511D01*
X155904449Y-100091833D01*
X156092502Y-99937502D01*
X156246833Y-99749449D01*
X156361511Y-99534901D01*
X156432130Y-99302102D01*
X156455975Y-99060000D01*
X156432130Y-98817898D01*
X156361511Y-98585099D01*
X156246833Y-98370551D01*
X156092502Y-98182498D01*
X155904449Y-98028167D01*
X155754160Y-97947836D01*
X170791300Y-97947836D01*
X170791300Y-98250204D01*
X170850289Y-98546763D01*
X170966001Y-98826115D01*
X171133988Y-99077525D01*
X171347795Y-99291332D01*
X171599205Y-99459319D01*
X171878557Y-99575031D01*
X172175116Y-99634020D01*
X172477484Y-99634020D01*
X172774043Y-99575031D01*
X173053395Y-99459319D01*
X173304805Y-99291332D01*
X173433037Y-99163100D01*
X173941825Y-99163100D01*
X174025508Y-99417281D01*
X174298075Y-99548178D01*
X174590942Y-99623385D01*
X174892853Y-99640011D01*
X175192207Y-99597417D01*
X175477499Y-99497242D01*
X175627092Y-99417281D01*
X175710775Y-99163100D01*
X174826300Y-98278625D01*
X173941825Y-99163100D01*
X173433037Y-99163100D01*
X173518612Y-99077525D01*
X173614038Y-98934710D01*
X173762220Y-98983495D01*
X174646695Y-98099020D01*
X175005905Y-98099020D01*
X175890380Y-98983495D01*
X176038562Y-98934710D01*
X176133988Y-99077525D01*
X176347795Y-99291332D01*
X176599205Y-99459319D01*
X176878557Y-99575031D01*
X177175116Y-99634020D01*
X177477484Y-99634020D01*
X177774043Y-99575031D01*
X178053395Y-99459319D01*
X178304805Y-99291332D01*
X178518612Y-99077525D01*
X178686599Y-98826115D01*
X178802311Y-98546763D01*
X178861300Y-98250204D01*
X178861300Y-97947836D01*
X178802311Y-97651277D01*
X178686599Y-97371925D01*
X178518612Y-97120515D01*
X178304805Y-96906708D01*
X178053395Y-96738721D01*
X177774043Y-96623009D01*
X177477484Y-96564020D01*
X177175116Y-96564020D01*
X176878557Y-96623009D01*
X176599205Y-96738721D01*
X176347795Y-96906708D01*
X176133988Y-97120515D01*
X176038562Y-97263330D01*
X175890380Y-97214545D01*
X175005905Y-98099020D01*
X174646695Y-98099020D01*
X173762220Y-97214545D01*
X173614038Y-97263330D01*
X173518612Y-97120515D01*
X173433037Y-97034940D01*
X173941825Y-97034940D01*
X174826300Y-97919415D01*
X175710775Y-97034940D01*
X175627092Y-96780759D01*
X175354525Y-96649862D01*
X175061658Y-96574655D01*
X174759747Y-96558029D01*
X174460393Y-96600623D01*
X174175101Y-96700798D01*
X174025508Y-96780759D01*
X173941825Y-97034940D01*
X173433037Y-97034940D01*
X173304805Y-96906708D01*
X173053395Y-96738721D01*
X172774043Y-96623009D01*
X172477484Y-96564020D01*
X172175116Y-96564020D01*
X171878557Y-96623009D01*
X171599205Y-96738721D01*
X171347795Y-96906708D01*
X171133988Y-97120515D01*
X170966001Y-97371925D01*
X170850289Y-97651277D01*
X170791300Y-97947836D01*
X155754160Y-97947836D01*
X155689901Y-97913489D01*
X155457102Y-97842870D01*
X155275665Y-97825000D01*
X154604335Y-97825000D01*
X154422898Y-97842870D01*
X154190099Y-97913489D01*
X153975551Y-98028167D01*
X153787498Y-98182498D01*
X153633167Y-98370551D01*
X153518489Y-98585099D01*
X153447870Y-98817898D01*
X153424025Y-99060000D01*
X148709920Y-99060000D01*
X148709920Y-96520000D01*
X153424025Y-96520000D01*
X153447870Y-96762102D01*
X153518489Y-96994901D01*
X153633167Y-97209449D01*
X153787498Y-97397502D01*
X153975551Y-97551833D01*
X154190099Y-97666511D01*
X154422898Y-97737130D01*
X154604335Y-97755000D01*
X155275665Y-97755000D01*
X155457102Y-97737130D01*
X155689901Y-97666511D01*
X155904449Y-97551833D01*
X156092502Y-97397502D01*
X156246833Y-97209449D01*
X156361511Y-96994901D01*
X156432130Y-96762102D01*
X156455975Y-96520000D01*
X156432130Y-96277898D01*
X156361511Y-96045099D01*
X156246833Y-95830551D01*
X156092502Y-95642498D01*
X155904449Y-95488167D01*
X155689901Y-95373489D01*
X155457102Y-95302870D01*
X155275665Y-95285000D01*
X154604335Y-95285000D01*
X154422898Y-95302870D01*
X154190099Y-95373489D01*
X153975551Y-95488167D01*
X153787498Y-95642498D01*
X153633167Y-95830551D01*
X153518489Y-96045099D01*
X153447870Y-96277898D01*
X153424025Y-96520000D01*
X148709920Y-96520000D01*
X148709920Y-93980000D01*
X153424025Y-93980000D01*
X153447870Y-94222102D01*
X153518489Y-94454901D01*
X153633167Y-94669449D01*
X153787498Y-94857502D01*
X153975551Y-95011833D01*
X154190099Y-95126511D01*
X154422898Y-95197130D01*
X154604335Y-95215000D01*
X155275665Y-95215000D01*
X155457102Y-95197130D01*
X155689901Y-95126511D01*
X155904449Y-95011833D01*
X156092502Y-94857502D01*
X156246833Y-94669449D01*
X156361511Y-94454901D01*
X156432130Y-94222102D01*
X156455975Y-93980000D01*
X156432130Y-93737898D01*
X156361511Y-93505099D01*
X156246833Y-93290551D01*
X156092502Y-93102498D01*
X155904449Y-92948167D01*
X155689901Y-92833489D01*
X155457102Y-92762870D01*
X155275665Y-92745000D01*
X154604335Y-92745000D01*
X154422898Y-92762870D01*
X154190099Y-92833489D01*
X153975551Y-92948167D01*
X153787498Y-93102498D01*
X153633167Y-93290551D01*
X153518489Y-93505099D01*
X153447870Y-93737898D01*
X153424025Y-93980000D01*
X148709920Y-93980000D01*
X148709920Y-91440000D01*
X153424025Y-91440000D01*
X153447870Y-91682102D01*
X153518489Y-91914901D01*
X153633167Y-92129449D01*
X153787498Y-92317502D01*
X153975551Y-92471833D01*
X154190099Y-92586511D01*
X154422898Y-92657130D01*
X154604335Y-92675000D01*
X155275665Y-92675000D01*
X155457102Y-92657130D01*
X155689901Y-92586511D01*
X155904449Y-92471833D01*
X156092502Y-92317502D01*
X156246833Y-92129449D01*
X156361511Y-91914901D01*
X156432130Y-91682102D01*
X156455975Y-91440000D01*
X156432130Y-91197898D01*
X156361511Y-90965099D01*
X156246833Y-90750551D01*
X156092502Y-90562498D01*
X155904449Y-90408167D01*
X155795690Y-90350034D01*
X166598300Y-90350034D01*
X166598300Y-90848006D01*
X166695450Y-91336410D01*
X166886015Y-91796477D01*
X167162674Y-92210526D01*
X167514794Y-92562646D01*
X167928843Y-92839305D01*
X168388910Y-93029870D01*
X168877314Y-93127020D01*
X169375286Y-93127020D01*
X169863690Y-93029870D01*
X170323757Y-92839305D01*
X170737806Y-92562646D01*
X171089926Y-92210526D01*
X171366585Y-91796477D01*
X171557150Y-91336410D01*
X171654300Y-90848006D01*
X171654300Y-90350034D01*
X177998300Y-90350034D01*
X177998300Y-90848006D01*
X178095450Y-91336410D01*
X178286015Y-91796477D01*
X178562674Y-92210526D01*
X178914794Y-92562646D01*
X179328843Y-92839305D01*
X179788910Y-93029870D01*
X180277314Y-93127020D01*
X180775286Y-93127020D01*
X181263690Y-93029870D01*
X181723757Y-92839305D01*
X182137806Y-92562646D01*
X182489926Y-92210526D01*
X182766585Y-91796477D01*
X182957150Y-91336410D01*
X183054300Y-90848006D01*
X183054300Y-90350034D01*
X182957150Y-89861630D01*
X182766585Y-89401563D01*
X182489926Y-88987514D01*
X182137806Y-88635394D01*
X181723757Y-88358735D01*
X181263690Y-88168170D01*
X180775286Y-88071020D01*
X180277314Y-88071020D01*
X179788910Y-88168170D01*
X179328843Y-88358735D01*
X178914794Y-88635394D01*
X178562674Y-88987514D01*
X178286015Y-89401563D01*
X178095450Y-89861630D01*
X177998300Y-90350034D01*
X171654300Y-90350034D01*
X171557150Y-89861630D01*
X171366585Y-89401563D01*
X171089926Y-88987514D01*
X170737806Y-88635394D01*
X170323757Y-88358735D01*
X169863690Y-88168170D01*
X169375286Y-88071020D01*
X168877314Y-88071020D01*
X168388910Y-88168170D01*
X167928843Y-88358735D01*
X167514794Y-88635394D01*
X167162674Y-88987514D01*
X166886015Y-89401563D01*
X166695450Y-89861630D01*
X166598300Y-90350034D01*
X155795690Y-90350034D01*
X155689901Y-90293489D01*
X155457102Y-90222870D01*
X155275665Y-90205000D01*
X154604335Y-90205000D01*
X154422898Y-90222870D01*
X154190099Y-90293489D01*
X153975551Y-90408167D01*
X153787498Y-90562498D01*
X153633167Y-90750551D01*
X153518489Y-90965099D01*
X153447870Y-91197898D01*
X153424025Y-91440000D01*
X148709920Y-91440000D01*
X148709920Y-88900000D01*
X153424025Y-88900000D01*
X153447870Y-89142102D01*
X153518489Y-89374901D01*
X153633167Y-89589449D01*
X153787498Y-89777502D01*
X153975551Y-89931833D01*
X154190099Y-90046511D01*
X154422898Y-90117130D01*
X154604335Y-90135000D01*
X155275665Y-90135000D01*
X155457102Y-90117130D01*
X155689901Y-90046511D01*
X155904449Y-89931833D01*
X156092502Y-89777502D01*
X156246833Y-89589449D01*
X156361511Y-89374901D01*
X156432130Y-89142102D01*
X156455975Y-88900000D01*
X156432130Y-88657898D01*
X156361511Y-88425099D01*
X156246833Y-88210551D01*
X156092502Y-88022498D01*
X155904449Y-87868167D01*
X155689901Y-87753489D01*
X155457102Y-87682870D01*
X155275665Y-87665000D01*
X154604335Y-87665000D01*
X154422898Y-87682870D01*
X154190099Y-87753489D01*
X153975551Y-87868167D01*
X153787498Y-88022498D01*
X153633167Y-88210551D01*
X153518489Y-88425099D01*
X153447870Y-88657898D01*
X153424025Y-88900000D01*
X148709920Y-88900000D01*
X148709920Y-86360000D01*
X153424025Y-86360000D01*
X153447870Y-86602102D01*
X153518489Y-86834901D01*
X153633167Y-87049449D01*
X153787498Y-87237502D01*
X153975551Y-87391833D01*
X154190099Y-87506511D01*
X154422898Y-87577130D01*
X154604335Y-87595000D01*
X155275665Y-87595000D01*
X155457102Y-87577130D01*
X155689901Y-87506511D01*
X155904449Y-87391833D01*
X156092502Y-87237502D01*
X156246833Y-87049449D01*
X156361511Y-86834901D01*
X156432130Y-86602102D01*
X156455975Y-86360000D01*
X156432130Y-86117898D01*
X156361511Y-85885099D01*
X156246833Y-85670551D01*
X156092502Y-85482498D01*
X155904449Y-85328167D01*
X155689901Y-85213489D01*
X155457102Y-85142870D01*
X155275665Y-85125000D01*
X154604335Y-85125000D01*
X154422898Y-85142870D01*
X154190099Y-85213489D01*
X153975551Y-85328167D01*
X153787498Y-85482498D01*
X153633167Y-85670551D01*
X153518489Y-85885099D01*
X153447870Y-86117898D01*
X153424025Y-86360000D01*
X148709920Y-86360000D01*
X148709920Y-86184871D01*
X148753857Y-86140934D01*
X148867125Y-85971416D01*
X148945146Y-85783058D01*
X148984920Y-85583099D01*
X148984920Y-85379221D01*
X148945146Y-85179262D01*
X148867125Y-84990904D01*
X148753857Y-84821386D01*
X148609694Y-84677223D01*
X148440176Y-84563955D01*
X148251818Y-84485934D01*
X148051859Y-84446160D01*
X147847981Y-84446160D01*
X147773340Y-84461007D01*
X147773340Y-84398781D01*
X147733566Y-84198822D01*
X147655545Y-84010464D01*
X147542277Y-83840946D01*
X147521331Y-83820000D01*
X153424025Y-83820000D01*
X153447870Y-84062102D01*
X153518489Y-84294901D01*
X153633167Y-84509449D01*
X153787498Y-84697502D01*
X153975551Y-84851833D01*
X154190099Y-84966511D01*
X154422898Y-85037130D01*
X154604335Y-85055000D01*
X155275665Y-85055000D01*
X155457102Y-85037130D01*
X155689901Y-84966511D01*
X155904449Y-84851833D01*
X156092502Y-84697502D01*
X156246833Y-84509449D01*
X156361511Y-84294901D01*
X156432130Y-84062102D01*
X156455975Y-83820000D01*
X156432130Y-83577898D01*
X156392677Y-83447836D01*
X170791300Y-83447836D01*
X170791300Y-83750204D01*
X170850289Y-84046763D01*
X170966001Y-84326115D01*
X171133988Y-84577525D01*
X171347795Y-84791332D01*
X171599205Y-84959319D01*
X171878557Y-85075031D01*
X172175116Y-85134020D01*
X172477484Y-85134020D01*
X172774043Y-85075031D01*
X173053395Y-84959319D01*
X173304805Y-84791332D01*
X173433037Y-84663100D01*
X176441825Y-84663100D01*
X176525508Y-84917281D01*
X176798075Y-85048178D01*
X177090942Y-85123385D01*
X177392853Y-85140011D01*
X177692207Y-85097417D01*
X177977499Y-84997242D01*
X178127092Y-84917281D01*
X178210775Y-84663100D01*
X177326300Y-83778625D01*
X176441825Y-84663100D01*
X173433037Y-84663100D01*
X173518612Y-84577525D01*
X173686599Y-84326115D01*
X173802311Y-84046763D01*
X173861300Y-83750204D01*
X173861300Y-83665573D01*
X175785309Y-83665573D01*
X175827903Y-83964927D01*
X175928078Y-84250219D01*
X176008039Y-84399812D01*
X176262220Y-84483495D01*
X177146695Y-83599020D01*
X177505905Y-83599020D01*
X178390380Y-84483495D01*
X178644561Y-84399812D01*
X178775458Y-84127245D01*
X178850665Y-83834378D01*
X178867291Y-83532467D01*
X178824697Y-83233113D01*
X178724522Y-82947821D01*
X178644561Y-82798228D01*
X178390380Y-82714545D01*
X177505905Y-83599020D01*
X177146695Y-83599020D01*
X176262220Y-82714545D01*
X176008039Y-82798228D01*
X175877142Y-83070795D01*
X175801935Y-83363662D01*
X175785309Y-83665573D01*
X173861300Y-83665573D01*
X173861300Y-83447836D01*
X173802311Y-83151277D01*
X173686599Y-82871925D01*
X173518612Y-82620515D01*
X173433037Y-82534940D01*
X176441825Y-82534940D01*
X177326300Y-83419415D01*
X178210775Y-82534940D01*
X178127092Y-82280759D01*
X177854525Y-82149862D01*
X177561658Y-82074655D01*
X177259747Y-82058029D01*
X176960393Y-82100623D01*
X176675101Y-82200798D01*
X176525508Y-82280759D01*
X176441825Y-82534940D01*
X173433037Y-82534940D01*
X173304805Y-82406708D01*
X173053395Y-82238721D01*
X172774043Y-82123009D01*
X172477484Y-82064020D01*
X172175116Y-82064020D01*
X171878557Y-82123009D01*
X171599205Y-82238721D01*
X171347795Y-82406708D01*
X171133988Y-82620515D01*
X170966001Y-82871925D01*
X170850289Y-83151277D01*
X170791300Y-83447836D01*
X156392677Y-83447836D01*
X156361511Y-83345099D01*
X156246833Y-83130551D01*
X156092502Y-82942498D01*
X155904449Y-82788167D01*
X155689901Y-82673489D01*
X155457102Y-82602870D01*
X155275665Y-82585000D01*
X154604335Y-82585000D01*
X154422898Y-82602870D01*
X154190099Y-82673489D01*
X153975551Y-82788167D01*
X153787498Y-82942498D01*
X153633167Y-83130551D01*
X153518489Y-83345099D01*
X153447870Y-83577898D01*
X153424025Y-83820000D01*
X147521331Y-83820000D01*
X147398114Y-83696783D01*
X147228596Y-83583515D01*
X147040238Y-83505494D01*
X146840279Y-83465720D01*
X146636401Y-83465720D01*
X146436442Y-83505494D01*
X146248084Y-83583515D01*
X146078566Y-83696783D01*
X145934403Y-83840946D01*
X145821135Y-84010464D01*
X145743114Y-84198822D01*
X145703340Y-84398781D01*
X145703340Y-84602659D01*
X145743114Y-84802618D01*
X145821135Y-84990976D01*
X145934403Y-85160494D01*
X145965641Y-85191732D01*
X145965641Y-85941611D01*
X145937783Y-85801559D01*
X145859762Y-85613201D01*
X145746494Y-85443683D01*
X145602331Y-85299520D01*
X145432813Y-85186252D01*
X145244455Y-85108231D01*
X145044496Y-85068457D01*
X144840618Y-85068457D01*
X144640659Y-85108231D01*
X144452301Y-85186252D01*
X144282783Y-85299520D01*
X144138620Y-85443683D01*
X144025352Y-85613201D01*
X143947331Y-85801559D01*
X143907557Y-86001518D01*
X143907557Y-86205396D01*
X143947331Y-86405355D01*
X144025352Y-86593713D01*
X144133212Y-86755138D01*
X144061542Y-86769394D01*
X143873184Y-86847415D01*
X143703666Y-86960683D01*
X143559503Y-87104846D01*
X143446235Y-87274364D01*
X143368214Y-87462722D01*
X143328440Y-87662681D01*
X143328440Y-87866559D01*
X143368214Y-88066518D01*
X143446235Y-88254876D01*
X143559503Y-88424394D01*
X143603440Y-88468331D01*
X143603441Y-96540477D01*
X132124609Y-108019310D01*
X129643001Y-108019310D01*
X129599064Y-107975373D01*
X129429546Y-107862105D01*
X129241188Y-107784084D01*
X129041229Y-107744310D01*
X128919673Y-107744310D01*
X128939986Y-107706307D01*
X128983443Y-107563046D01*
X128994440Y-107451393D01*
X128994440Y-107451383D01*
X128998116Y-107414060D01*
X128994440Y-107376737D01*
X128994440Y-103786781D01*
X129290922Y-103490300D01*
X134145798Y-103490300D01*
X134183120Y-103493976D01*
X134220442Y-103490300D01*
X134220453Y-103490300D01*
X134332106Y-103479303D01*
X134475367Y-103435846D01*
X134607396Y-103365274D01*
X134723121Y-103270301D01*
X134746923Y-103241298D01*
X135460004Y-102528218D01*
X135489001Y-102504421D01*
X135515332Y-102472337D01*
X135583974Y-102388697D01*
X135654546Y-102256667D01*
X135660136Y-102238240D01*
X135698003Y-102113406D01*
X135709000Y-102001753D01*
X135709000Y-102001743D01*
X135712676Y-101964420D01*
X135709000Y-101927097D01*
X135709000Y-81612401D01*
X139233960Y-81612401D01*
X139233960Y-81816279D01*
X139273734Y-82016238D01*
X139351755Y-82204596D01*
X139465023Y-82374114D01*
X139609186Y-82518277D01*
X139778704Y-82631545D01*
X139967062Y-82709566D01*
X140167021Y-82749340D01*
X140370899Y-82749340D01*
X140570858Y-82709566D01*
X140759216Y-82631545D01*
X140928734Y-82518277D01*
X141072897Y-82374114D01*
X141186165Y-82204596D01*
X141264186Y-82016238D01*
X141303960Y-81816279D01*
X141303960Y-81789497D01*
X141813457Y-81280000D01*
X153424025Y-81280000D01*
X153447870Y-81522102D01*
X153518489Y-81754901D01*
X153633167Y-81969449D01*
X153787498Y-82157502D01*
X153975551Y-82311833D01*
X154190099Y-82426511D01*
X154422898Y-82497130D01*
X154604335Y-82515000D01*
X155275665Y-82515000D01*
X155457102Y-82497130D01*
X155689901Y-82426511D01*
X155904449Y-82311833D01*
X156092502Y-82157502D01*
X156246833Y-81969449D01*
X156361511Y-81754901D01*
X156432130Y-81522102D01*
X156455975Y-81280000D01*
X156432130Y-81037898D01*
X156361511Y-80805099D01*
X156246833Y-80590551D01*
X156092502Y-80402498D01*
X155904449Y-80248167D01*
X155689901Y-80133489D01*
X155457102Y-80062870D01*
X155275665Y-80045000D01*
X154604335Y-80045000D01*
X154422898Y-80062870D01*
X154190099Y-80133489D01*
X153975551Y-80248167D01*
X153787498Y-80402498D01*
X153633167Y-80590551D01*
X153518489Y-80805099D01*
X153447870Y-81037898D01*
X153424025Y-81280000D01*
X141813457Y-81280000D01*
X142788137Y-80305321D01*
X142818084Y-80280744D01*
X142916182Y-80161213D01*
X142989074Y-80024840D01*
X143033961Y-79876867D01*
X143045320Y-79761541D01*
X143045320Y-79761534D01*
X143049117Y-79722981D01*
X143045320Y-79684428D01*
X143045320Y-76362221D01*
X170069560Y-76362221D01*
X170069560Y-76566099D01*
X170109334Y-76766058D01*
X170187355Y-76954416D01*
X170300623Y-77123934D01*
X170444786Y-77268097D01*
X170614304Y-77381365D01*
X170802662Y-77459386D01*
X171002621Y-77499160D01*
X171206499Y-77499160D01*
X171406458Y-77459386D01*
X171594816Y-77381365D01*
X171764334Y-77268097D01*
X171908497Y-77123934D01*
X172021765Y-76954416D01*
X172099786Y-76766058D01*
X172139560Y-76566099D01*
X172139560Y-76539317D01*
X172658537Y-76020341D01*
X172688484Y-75995764D01*
X172786582Y-75876233D01*
X172859474Y-75739860D01*
X172904361Y-75591887D01*
X172915720Y-75476561D01*
X172915720Y-75476554D01*
X172919517Y-75438001D01*
X172915720Y-75399448D01*
X172915720Y-73389419D01*
X180183000Y-73389419D01*
X180183000Y-73770581D01*
X180257361Y-74144419D01*
X180403225Y-74496566D01*
X180614987Y-74813491D01*
X180884509Y-75083013D01*
X181201434Y-75294775D01*
X181553581Y-75440639D01*
X181927419Y-75515000D01*
X182308581Y-75515000D01*
X182682419Y-75440639D01*
X183034566Y-75294775D01*
X183351491Y-75083013D01*
X183621013Y-74813491D01*
X183832775Y-74496566D01*
X183978639Y-74144419D01*
X184053000Y-73770581D01*
X184053000Y-73389419D01*
X183978639Y-73015581D01*
X183832775Y-72663434D01*
X183621013Y-72346509D01*
X183351491Y-72076987D01*
X183034566Y-71865225D01*
X182682419Y-71719361D01*
X182308581Y-71645000D01*
X181927419Y-71645000D01*
X181553581Y-71719361D01*
X181201434Y-71865225D01*
X180884509Y-72076987D01*
X180614987Y-72346509D01*
X180403225Y-72663434D01*
X180257361Y-73015581D01*
X180183000Y-73389419D01*
X172915720Y-73389419D01*
X172915720Y-71965857D01*
X175516578Y-69365000D01*
X180179928Y-69365000D01*
X180179928Y-69880000D01*
X180192188Y-70004482D01*
X180228498Y-70124180D01*
X180287463Y-70234494D01*
X180366815Y-70331185D01*
X180463506Y-70410537D01*
X180573820Y-70469502D01*
X180693518Y-70505812D01*
X180818000Y-70518072D01*
X183418000Y-70518072D01*
X183542482Y-70505812D01*
X183662180Y-70469502D01*
X183772494Y-70410537D01*
X183869185Y-70331185D01*
X183948537Y-70234494D01*
X184007502Y-70124180D01*
X184043812Y-70004482D01*
X184056072Y-69880000D01*
X184056072Y-67280000D01*
X184043812Y-67155518D01*
X184007502Y-67035820D01*
X183948537Y-66925506D01*
X183869185Y-66828815D01*
X183772494Y-66749463D01*
X183662180Y-66690498D01*
X183542482Y-66654188D01*
X183418000Y-66641928D01*
X180818000Y-66641928D01*
X180693518Y-66654188D01*
X180573820Y-66690498D01*
X180463506Y-66749463D01*
X180366815Y-66828815D01*
X180287463Y-66925506D01*
X180228498Y-67035820D01*
X180192188Y-67155518D01*
X180179928Y-67280000D01*
X180179928Y-67795000D01*
X175229972Y-67795000D01*
X175191419Y-67791203D01*
X175152866Y-67795000D01*
X175152859Y-67795000D01*
X175051910Y-67804943D01*
X175037532Y-67806359D01*
X175003092Y-67816806D01*
X174889560Y-67851246D01*
X174753187Y-67924138D01*
X174727799Y-67944974D01*
X174663607Y-67997655D01*
X174663604Y-67997658D01*
X174633656Y-68022236D01*
X174609078Y-68052184D01*
X171602905Y-71058358D01*
X171572957Y-71082936D01*
X171548379Y-71112884D01*
X171548375Y-71112888D01*
X171515410Y-71153056D01*
X171474859Y-71202467D01*
X171460595Y-71229154D01*
X171401966Y-71338841D01*
X171357079Y-71486814D01*
X171341923Y-71640700D01*
X171345721Y-71679263D01*
X171345720Y-75112842D01*
X171029403Y-75429160D01*
X171002621Y-75429160D01*
X170802662Y-75468934D01*
X170614304Y-75546955D01*
X170444786Y-75660223D01*
X170300623Y-75804386D01*
X170187355Y-75973904D01*
X170109334Y-76162262D01*
X170069560Y-76362221D01*
X143045320Y-76362221D01*
X143045320Y-63134292D01*
X143560320Y-63134292D01*
X143684802Y-63122032D01*
X143804500Y-63085722D01*
X143914814Y-63026757D01*
X144011505Y-62947405D01*
X144090857Y-62850714D01*
X144149822Y-62740400D01*
X144186132Y-62620702D01*
X144198392Y-62496220D01*
X144198392Y-61005639D01*
X145325320Y-61005639D01*
X145325320Y-61386801D01*
X145399681Y-61760639D01*
X145545545Y-62112786D01*
X145757307Y-62429711D01*
X146026829Y-62699233D01*
X146343754Y-62910995D01*
X146695901Y-63056859D01*
X147069739Y-63131220D01*
X147450901Y-63131220D01*
X147824739Y-63056859D01*
X148176886Y-62910995D01*
X148493811Y-62699233D01*
X148763333Y-62429711D01*
X148975095Y-62112786D01*
X149120959Y-61760639D01*
X149195320Y-61386801D01*
X149195320Y-61005639D01*
X149120959Y-60631801D01*
X148975095Y-60279654D01*
X148763333Y-59962729D01*
X148727304Y-59926700D01*
X158155588Y-59926700D01*
X158155588Y-62526700D01*
X158167848Y-62651182D01*
X158204158Y-62770880D01*
X158263123Y-62881194D01*
X158342475Y-62977885D01*
X158439166Y-63057237D01*
X158549480Y-63116202D01*
X158669178Y-63152512D01*
X158793660Y-63164772D01*
X161393660Y-63164772D01*
X161518142Y-63152512D01*
X161637840Y-63116202D01*
X161748154Y-63057237D01*
X161844845Y-62977885D01*
X161924197Y-62881194D01*
X161983162Y-62770880D01*
X162019472Y-62651182D01*
X162031732Y-62526700D01*
X162031732Y-61036119D01*
X163158660Y-61036119D01*
X163158660Y-61417281D01*
X163233021Y-61791119D01*
X163378885Y-62143266D01*
X163590647Y-62460191D01*
X163860169Y-62729713D01*
X164177094Y-62941475D01*
X164529241Y-63087339D01*
X164903079Y-63161700D01*
X165284241Y-63161700D01*
X165658079Y-63087339D01*
X166010226Y-62941475D01*
X166327151Y-62729713D01*
X166596673Y-62460191D01*
X166808435Y-62143266D01*
X166954299Y-61791119D01*
X167028660Y-61417281D01*
X167028660Y-61036119D01*
X166954299Y-60662281D01*
X166808435Y-60310134D01*
X166596673Y-59993209D01*
X166327151Y-59723687D01*
X166010226Y-59511925D01*
X165658079Y-59366061D01*
X165593161Y-59353148D01*
X180856457Y-59353148D01*
X181132627Y-59771118D01*
X181677557Y-60061649D01*
X182268696Y-60240287D01*
X182883328Y-60300168D01*
X183497831Y-60238990D01*
X184088592Y-60059103D01*
X184627373Y-59771118D01*
X184903543Y-59353148D01*
X182880000Y-57329605D01*
X180856457Y-59353148D01*
X165593161Y-59353148D01*
X165284241Y-59291700D01*
X164903079Y-59291700D01*
X164529241Y-59366061D01*
X164177094Y-59511925D01*
X163860169Y-59723687D01*
X163590647Y-59993209D01*
X163378885Y-60310134D01*
X163233021Y-60662281D01*
X163158660Y-61036119D01*
X162031732Y-61036119D01*
X162031732Y-59926700D01*
X162019472Y-59802218D01*
X161983162Y-59682520D01*
X161924197Y-59572206D01*
X161844845Y-59475515D01*
X161748154Y-59396163D01*
X161637840Y-59337198D01*
X161518142Y-59300888D01*
X161393660Y-59288628D01*
X158793660Y-59288628D01*
X158669178Y-59300888D01*
X158549480Y-59337198D01*
X158439166Y-59396163D01*
X158342475Y-59475515D01*
X158263123Y-59572206D01*
X158204158Y-59682520D01*
X158167848Y-59802218D01*
X158155588Y-59926700D01*
X148727304Y-59926700D01*
X148493811Y-59693207D01*
X148176886Y-59481445D01*
X147824739Y-59335581D01*
X147450901Y-59261220D01*
X147069739Y-59261220D01*
X146695901Y-59335581D01*
X146343754Y-59481445D01*
X146026829Y-59693207D01*
X145757307Y-59962729D01*
X145545545Y-60279654D01*
X145399681Y-60631801D01*
X145325320Y-61005639D01*
X144198392Y-61005639D01*
X144198392Y-59896220D01*
X144186132Y-59771738D01*
X144149822Y-59652040D01*
X144090857Y-59541726D01*
X144011505Y-59445035D01*
X143914814Y-59365683D01*
X143804500Y-59306718D01*
X143684802Y-59270408D01*
X143560320Y-59258148D01*
X140960320Y-59258148D01*
X140835838Y-59270408D01*
X140716140Y-59306718D01*
X140605826Y-59365683D01*
X140509135Y-59445035D01*
X140429783Y-59541726D01*
X140370818Y-59652040D01*
X140334508Y-59771738D01*
X140322248Y-59896220D01*
X140322248Y-62496220D01*
X140334508Y-62620702D01*
X140370818Y-62740400D01*
X140429783Y-62850714D01*
X140509135Y-62947405D01*
X140605826Y-63026757D01*
X140716140Y-63085722D01*
X140835838Y-63122032D01*
X140960320Y-63134292D01*
X141475321Y-63134292D01*
X141475320Y-79397822D01*
X140193803Y-80679340D01*
X140167021Y-80679340D01*
X139967062Y-80719114D01*
X139778704Y-80797135D01*
X139609186Y-80910403D01*
X139465023Y-81054566D01*
X139351755Y-81224084D01*
X139273734Y-81412442D01*
X139233960Y-81612401D01*
X135709000Y-81612401D01*
X135709000Y-81540121D01*
X136641002Y-80608120D01*
X136703139Y-80608120D01*
X136903098Y-80568346D01*
X137091456Y-80490325D01*
X137260974Y-80377057D01*
X137405137Y-80232894D01*
X137518405Y-80063376D01*
X137596426Y-79875018D01*
X137636200Y-79675059D01*
X137636200Y-79471181D01*
X137596426Y-79271222D01*
X137518405Y-79082864D01*
X137405137Y-78913346D01*
X137260974Y-78769183D01*
X137091456Y-78655915D01*
X136903098Y-78577894D01*
X136703139Y-78538120D01*
X136499261Y-78538120D01*
X136299302Y-78577894D01*
X136110944Y-78655915D01*
X136048782Y-78697451D01*
X135922394Y-78571063D01*
X135752876Y-78457795D01*
X135564518Y-78379774D01*
X135364559Y-78340000D01*
X135160681Y-78340000D01*
X134960722Y-78379774D01*
X134772364Y-78457795D01*
X134663000Y-78530869D01*
X134654934Y-78522803D01*
X134485416Y-78409535D01*
X134297058Y-78331514D01*
X134097099Y-78291740D01*
X133893221Y-78291740D01*
X133693262Y-78331514D01*
X133504904Y-78409535D01*
X133335386Y-78522803D01*
X133191223Y-78666966D01*
X133077955Y-78836484D01*
X132999934Y-79024842D01*
X132960160Y-79224801D01*
X132960160Y-79302179D01*
X132905038Y-79357301D01*
X132876040Y-79381099D01*
X132852242Y-79410097D01*
X132852241Y-79410098D01*
X132781066Y-79496824D01*
X132710494Y-79628854D01*
X132692649Y-79687685D01*
X132667038Y-79772114D01*
X132659073Y-79852983D01*
X132652364Y-79921100D01*
X132656041Y-79958433D01*
X132656040Y-99933918D01*
X132417979Y-100171980D01*
X126755393Y-100171980D01*
X126718060Y-100168303D01*
X126680727Y-100171980D01*
X126569074Y-100182977D01*
X126425813Y-100226434D01*
X126293784Y-100297006D01*
X126178059Y-100391979D01*
X126154261Y-100420978D01*
X125424738Y-101150501D01*
X125395740Y-101174299D01*
X125371942Y-101203297D01*
X125371941Y-101203298D01*
X125300766Y-101290024D01*
X125230194Y-101422054D01*
X125203586Y-101509772D01*
X125186738Y-101565314D01*
X125185261Y-101580306D01*
X125172064Y-101714300D01*
X125175741Y-101751632D01*
X125175740Y-106144217D01*
X123317839Y-108002120D01*
X123268401Y-108002120D01*
X123068442Y-108041894D01*
X122880084Y-108119915D01*
X122710566Y-108233183D01*
X122566403Y-108377346D01*
X122453135Y-108546864D01*
X122375114Y-108735222D01*
X122335340Y-108935181D01*
X121348640Y-108935181D01*
X121348640Y-108864437D01*
X124324877Y-105888201D01*
X124354824Y-105863624D01*
X124384870Y-105827014D01*
X124403510Y-105804301D01*
X124452922Y-105744093D01*
X124525814Y-105607720D01*
X124570701Y-105459747D01*
X124582060Y-105344421D01*
X124582060Y-105344414D01*
X124585857Y-105305861D01*
X124582060Y-105267308D01*
X124582060Y-102918791D01*
X124600997Y-102899854D01*
X124714265Y-102730336D01*
X124792286Y-102541978D01*
X124832060Y-102342019D01*
X124832060Y-102138141D01*
X124792286Y-101938182D01*
X124714265Y-101749824D01*
X124600997Y-101580306D01*
X124456834Y-101436143D01*
X124287316Y-101322875D01*
X124098958Y-101244854D01*
X123898999Y-101205080D01*
X123695121Y-101205080D01*
X123495162Y-101244854D01*
X123306804Y-101322875D01*
X123137286Y-101436143D01*
X122993123Y-101580306D01*
X122879855Y-101749824D01*
X122801834Y-101938182D01*
X122762060Y-102138141D01*
X122762060Y-102342019D01*
X122801834Y-102541978D01*
X122879855Y-102730336D01*
X122993123Y-102899854D01*
X123012061Y-102918792D01*
X123012060Y-104980702D01*
X120035825Y-107956938D01*
X120005877Y-107981516D01*
X119981299Y-108011464D01*
X119981295Y-108011468D01*
X119958212Y-108039595D01*
X119907779Y-108101047D01*
X119874631Y-108163063D01*
X119834886Y-108237421D01*
X119789999Y-108385394D01*
X119774843Y-108539280D01*
X117383941Y-108539280D01*
X118340982Y-107582240D01*
X118653429Y-107582240D01*
X118697366Y-107626177D01*
X118866884Y-107739445D01*
X119055242Y-107817466D01*
X119255201Y-107857240D01*
X119459079Y-107857240D01*
X119659038Y-107817466D01*
X119847396Y-107739445D01*
X120016914Y-107626177D01*
X120161077Y-107482014D01*
X120274345Y-107312496D01*
X120352366Y-107124138D01*
X120392140Y-106924179D01*
X120392140Y-106720301D01*
X120352366Y-106520342D01*
X120274345Y-106331984D01*
X120161077Y-106162466D01*
X120016914Y-106018303D01*
X119847396Y-105905035D01*
X119659038Y-105827014D01*
X119459079Y-105787240D01*
X119255201Y-105787240D01*
X119055242Y-105827014D01*
X118866884Y-105905035D01*
X118697366Y-106018303D01*
X118653429Y-106062240D01*
X118063502Y-106062240D01*
X118026179Y-106058564D01*
X117988856Y-106062240D01*
X117988847Y-106062240D01*
X117877194Y-106073237D01*
X117733933Y-106116694D01*
X117601903Y-106187266D01*
X117518263Y-106255908D01*
X117486179Y-106282239D01*
X117462381Y-106311237D01*
X114787218Y-108986401D01*
X114758220Y-109010199D01*
X114734422Y-109039197D01*
X114734421Y-109039198D01*
X114663246Y-109125924D01*
X114592674Y-109257954D01*
X114549218Y-109401215D01*
X114534544Y-109550200D01*
X114538221Y-109587532D01*
X114538220Y-114231578D01*
X114208719Y-114561080D01*
X107011846Y-114561080D01*
X106890009Y-114439243D01*
X106866206Y-114410239D01*
X106750481Y-114315266D01*
X106618452Y-114244694D01*
X106475244Y-114201253D01*
X106420294Y-114146303D01*
X106250776Y-114033035D01*
X106062418Y-113955014D01*
X105862459Y-113915240D01*
X105658581Y-113915240D01*
X105458622Y-113955014D01*
X105270264Y-114033035D01*
X105100746Y-114146303D01*
X104956583Y-114290466D01*
X104843315Y-114459984D01*
X104826880Y-114499661D01*
X104826880Y-112547061D01*
X105182720Y-112547061D01*
X105182720Y-112750939D01*
X105222494Y-112950898D01*
X105300515Y-113139256D01*
X105413783Y-113308774D01*
X105557946Y-113452937D01*
X105727464Y-113566205D01*
X105915822Y-113644226D01*
X106115781Y-113684000D01*
X106193187Y-113684000D01*
X106194764Y-113685294D01*
X106326793Y-113755866D01*
X106470054Y-113799323D01*
X106581707Y-113810320D01*
X106581716Y-113810320D01*
X106619039Y-113813996D01*
X106656362Y-113810320D01*
X112552349Y-113810320D01*
X112596286Y-113854257D01*
X112765804Y-113967525D01*
X112954162Y-114045546D01*
X113154121Y-114085320D01*
X113357999Y-114085320D01*
X113557958Y-114045546D01*
X113746316Y-113967525D01*
X113915834Y-113854257D01*
X114059997Y-113710094D01*
X114173265Y-113540576D01*
X114251286Y-113352218D01*
X114291060Y-113152259D01*
X114291060Y-112948381D01*
X114251286Y-112748422D01*
X114173265Y-112560064D01*
X114059997Y-112390546D01*
X113915834Y-112246383D01*
X113746316Y-112133115D01*
X113557958Y-112055094D01*
X113357999Y-112015320D01*
X113154121Y-112015320D01*
X112954162Y-112055094D01*
X112765804Y-112133115D01*
X112596286Y-112246383D01*
X112552349Y-112290320D01*
X107189426Y-112290320D01*
X107134925Y-112158744D01*
X107021657Y-111989226D01*
X106877494Y-111845063D01*
X106707976Y-111731795D01*
X106519618Y-111653774D01*
X106319659Y-111614000D01*
X106115781Y-111614000D01*
X105915822Y-111653774D01*
X105727464Y-111731795D01*
X105557946Y-111845063D01*
X105413783Y-111989226D01*
X105300515Y-112158744D01*
X105222494Y-112347102D01*
X105182720Y-112547061D01*
X104826880Y-112547061D01*
X104826880Y-111102958D01*
X108865090Y-107064748D01*
X108898857Y-107037037D01*
X108930057Y-106999021D01*
X109009451Y-106902279D01*
X109091629Y-106748534D01*
X109142235Y-106581710D01*
X109145204Y-106551563D01*
X109155040Y-106451697D01*
X109155040Y-106451689D01*
X109159321Y-106408220D01*
X109155040Y-106364751D01*
X109155040Y-103857325D01*
X109345839Y-103666526D01*
X109497411Y-103439683D01*
X109601815Y-103187629D01*
X109655040Y-102920051D01*
X109655040Y-102647229D01*
X109601815Y-102379651D01*
X109497411Y-102127597D01*
X109345839Y-101900754D01*
X109152926Y-101707841D01*
X108926083Y-101556269D01*
X108674029Y-101451865D01*
X108406451Y-101398640D01*
X108133629Y-101398640D01*
X107866051Y-101451865D01*
X107613997Y-101556269D01*
X107387154Y-101707841D01*
X107194241Y-101900754D01*
X107042669Y-102127597D01*
X106938265Y-102379651D01*
X106885040Y-102647229D01*
X106885040Y-102920051D01*
X106938265Y-103187629D01*
X107042669Y-103439683D01*
X107194241Y-103666526D01*
X107385041Y-103857326D01*
X107385040Y-106041641D01*
X103346831Y-110079850D01*
X103313064Y-110107563D01*
X103285351Y-110141331D01*
X103285348Y-110141334D01*
X103202470Y-110242321D01*
X103120292Y-110396067D01*
X103069685Y-110562890D01*
X103052599Y-110736380D01*
X93472000Y-110736380D01*
X93472000Y-108081741D01*
X100648820Y-108081741D01*
X100648820Y-108285619D01*
X100688594Y-108485578D01*
X100766615Y-108673936D01*
X100879883Y-108843454D01*
X101024046Y-108987617D01*
X101193564Y-109100885D01*
X101381922Y-109178906D01*
X101581881Y-109218680D01*
X101785759Y-109218680D01*
X101985718Y-109178906D01*
X102174076Y-109100885D01*
X102343594Y-108987617D01*
X102487757Y-108843454D01*
X102601025Y-108673936D01*
X102679046Y-108485578D01*
X102718820Y-108285619D01*
X102718820Y-108188126D01*
X103127793Y-107779154D01*
X103155838Y-107756138D01*
X103247687Y-107644220D01*
X103286694Y-107571243D01*
X103315937Y-107516534D01*
X103357965Y-107377985D01*
X103372156Y-107233900D01*
X103368600Y-107197795D01*
X103368600Y-106308931D01*
X103437537Y-106239994D01*
X103550805Y-106070476D01*
X103628826Y-105882118D01*
X103668600Y-105682159D01*
X103668600Y-105478281D01*
X103628826Y-105278322D01*
X103550805Y-105089964D01*
X103437537Y-104920446D01*
X103293374Y-104776283D01*
X103123856Y-104663015D01*
X102935498Y-104584994D01*
X102735539Y-104545220D01*
X102531661Y-104545220D01*
X102331702Y-104584994D01*
X102143344Y-104663015D01*
X101973826Y-104776283D01*
X101829663Y-104920446D01*
X101716395Y-105089964D01*
X101638374Y-105278322D01*
X101598600Y-105478281D01*
X101598600Y-105682159D01*
X101638374Y-105882118D01*
X101716395Y-106070476D01*
X101829663Y-106239994D01*
X101898600Y-106308931D01*
X101898601Y-106929453D01*
X101679374Y-107148680D01*
X101581881Y-107148680D01*
X101381922Y-107188454D01*
X101193564Y-107266475D01*
X101024046Y-107379743D01*
X100879883Y-107523906D01*
X100766615Y-107693424D01*
X100688594Y-107881782D01*
X100648820Y-108081741D01*
X93472000Y-108081741D01*
X93472000Y-83035140D01*
X94139739Y-83035140D01*
X94144020Y-83078609D01*
X94144021Y-100985021D01*
X94139739Y-101028500D01*
X94156825Y-101201990D01*
X94207432Y-101368813D01*
X94289610Y-101522559D01*
X94372488Y-101623546D01*
X94372491Y-101623549D01*
X94400204Y-101657317D01*
X94433971Y-101685029D01*
X95063370Y-102314429D01*
X95091083Y-102348197D01*
X95124851Y-102375910D01*
X95124853Y-102375912D01*
X95140432Y-102388697D01*
X95225841Y-102458791D01*
X95379587Y-102540969D01*
X95546410Y-102591575D01*
X95676423Y-102604380D01*
X95676431Y-102604380D01*
X95719900Y-102608661D01*
X95763369Y-102604380D01*
X100774211Y-102604380D01*
X100817680Y-102608661D01*
X100861149Y-102604380D01*
X100861157Y-102604380D01*
X100991170Y-102591575D01*
X101157993Y-102540969D01*
X101311739Y-102458791D01*
X101446497Y-102348197D01*
X101474214Y-102314424D01*
X103592179Y-100196460D01*
X107568182Y-100196460D01*
X108820010Y-101448289D01*
X108847723Y-101482057D01*
X108881491Y-101509770D01*
X108881493Y-101509772D01*
X108925503Y-101545890D01*
X108982481Y-101592651D01*
X109136227Y-101674829D01*
X109303050Y-101725435D01*
X109433063Y-101738240D01*
X109433073Y-101738240D01*
X109476539Y-101742521D01*
X109520005Y-101738240D01*
X117785615Y-101738240D01*
X117976414Y-101929039D01*
X118203257Y-102080611D01*
X118455311Y-102185015D01*
X118722889Y-102238240D01*
X118995711Y-102238240D01*
X119263289Y-102185015D01*
X119515343Y-102080611D01*
X119742186Y-101929039D01*
X119932985Y-101738240D01*
X121848591Y-101738240D01*
X121892060Y-101742521D01*
X121935529Y-101738240D01*
X121935537Y-101738240D01*
X122065550Y-101725435D01*
X122232373Y-101674829D01*
X122386119Y-101592651D01*
X122520877Y-101482057D01*
X122548594Y-101448284D01*
X123721550Y-100275329D01*
X123755317Y-100247617D01*
X123789053Y-100206511D01*
X123865911Y-100112859D01*
X123872926Y-100099734D01*
X123948089Y-99959113D01*
X123998695Y-99792290D01*
X124011500Y-99662277D01*
X124011500Y-99662269D01*
X124015781Y-99618800D01*
X124011500Y-99575331D01*
X124011500Y-91453150D01*
X124015781Y-91409681D01*
X124011500Y-91366212D01*
X124011500Y-91366204D01*
X123998695Y-91236191D01*
X123948089Y-91069368D01*
X123948089Y-91069367D01*
X123865911Y-90915622D01*
X123783032Y-90814635D01*
X123755317Y-90780864D01*
X123721544Y-90753147D01*
X123257956Y-90289559D01*
X123257951Y-90289553D01*
X123236420Y-90268022D01*
X123236420Y-89998190D01*
X123183195Y-89730612D01*
X123170780Y-89700640D01*
X130716798Y-89700640D01*
X130754120Y-89704316D01*
X130791442Y-89700640D01*
X130791453Y-89700640D01*
X130903106Y-89689643D01*
X131046367Y-89646186D01*
X131178396Y-89575614D01*
X131294121Y-89480641D01*
X131317924Y-89451638D01*
X132220163Y-88549399D01*
X132249161Y-88525601D01*
X132344134Y-88409876D01*
X132414706Y-88277847D01*
X132458163Y-88134586D01*
X132469160Y-88022933D01*
X132472837Y-87985600D01*
X132469160Y-87948267D01*
X132469160Y-74982563D01*
X132472836Y-74945240D01*
X132469160Y-74907917D01*
X132469160Y-74907907D01*
X132458163Y-74796254D01*
X132414706Y-74652993D01*
X132344135Y-74520965D01*
X132344134Y-74520963D01*
X132272959Y-74434237D01*
X132249161Y-74405239D01*
X132220164Y-74381442D01*
X131259504Y-73420782D01*
X131235701Y-73391779D01*
X131119976Y-73296806D01*
X130987947Y-73226234D01*
X130844686Y-73182777D01*
X130733033Y-73171780D01*
X130733022Y-73171780D01*
X130695700Y-73168104D01*
X130658378Y-73171780D01*
X129639191Y-73171780D01*
X129595254Y-73127843D01*
X129425736Y-73014575D01*
X129237378Y-72936554D01*
X129037419Y-72896780D01*
X128833541Y-72896780D01*
X128633582Y-72936554D01*
X128445224Y-73014575D01*
X128275706Y-73127843D01*
X128131543Y-73272006D01*
X128018275Y-73441524D01*
X127940254Y-73629882D01*
X127900480Y-73829841D01*
X127900480Y-74033719D01*
X127940254Y-74233678D01*
X128018275Y-74422036D01*
X128131543Y-74591554D01*
X128198058Y-74658069D01*
X128112484Y-74693515D01*
X127942966Y-74806783D01*
X127798803Y-74950946D01*
X127685535Y-75120464D01*
X127607514Y-75308822D01*
X127567740Y-75508781D01*
X127567740Y-75712659D01*
X127607514Y-75912618D01*
X127685535Y-76100976D01*
X127798803Y-76270494D01*
X127812489Y-76284180D01*
X127777204Y-76298795D01*
X127607686Y-76412063D01*
X127463523Y-76556226D01*
X127350255Y-76725744D01*
X127272234Y-76914102D01*
X127232460Y-77114061D01*
X127232460Y-77317939D01*
X127272234Y-77517898D01*
X127350255Y-77706256D01*
X127415131Y-77803351D01*
X127294604Y-77853275D01*
X127125086Y-77966543D01*
X126980923Y-78110706D01*
X126867655Y-78280224D01*
X126789634Y-78468582D01*
X126749860Y-78668541D01*
X126749860Y-78872419D01*
X126789634Y-79072378D01*
X126867655Y-79260736D01*
X126980923Y-79430254D01*
X127125086Y-79574417D01*
X127294604Y-79687685D01*
X127482962Y-79765706D01*
X127682921Y-79805480D01*
X127886799Y-79805480D01*
X128086758Y-79765706D01*
X128275116Y-79687685D01*
X128444634Y-79574417D01*
X128488571Y-79530480D01*
X128813719Y-79530480D01*
X129008600Y-79725362D01*
X129008600Y-80106863D01*
X128912656Y-80042755D01*
X128724298Y-79964734D01*
X128524339Y-79924960D01*
X128320461Y-79924960D01*
X128120502Y-79964734D01*
X127932144Y-80042755D01*
X127762626Y-80156023D01*
X127618463Y-80300186D01*
X127563236Y-80382840D01*
X120585902Y-80382840D01*
X120592800Y-80348159D01*
X120592800Y-80144281D01*
X120553026Y-79944322D01*
X120475005Y-79755964D01*
X120361737Y-79586446D01*
X120217574Y-79442283D01*
X120048056Y-79329015D01*
X119859698Y-79250994D01*
X119659739Y-79211220D01*
X119455861Y-79211220D01*
X119255902Y-79250994D01*
X119067544Y-79329015D01*
X118898026Y-79442283D01*
X118854089Y-79486220D01*
X116166122Y-79486220D01*
X116128799Y-79482544D01*
X116091476Y-79486220D01*
X116091467Y-79486220D01*
X115979814Y-79497217D01*
X115870159Y-79530480D01*
X115836553Y-79540674D01*
X115704523Y-79611246D01*
X115644684Y-79660355D01*
X115588799Y-79706219D01*
X115565001Y-79735217D01*
X115217778Y-80082440D01*
X115155641Y-80082440D01*
X114955682Y-80122214D01*
X114767324Y-80200235D01*
X114597806Y-80313503D01*
X114453643Y-80457666D01*
X114451618Y-80460696D01*
X114297496Y-80357715D01*
X114109138Y-80279694D01*
X113909179Y-80239920D01*
X113705301Y-80239920D01*
X113505342Y-80279694D01*
X113316984Y-80357715D01*
X113147466Y-80470983D01*
X113003303Y-80615146D01*
X112890035Y-80784664D01*
X112812014Y-80973022D01*
X112772240Y-81172981D01*
X112772240Y-81376859D01*
X112812014Y-81576818D01*
X112890035Y-81765176D01*
X113003303Y-81934694D01*
X113147466Y-82078857D01*
X113201738Y-82115120D01*
X106154062Y-82115120D01*
X102586060Y-78547119D01*
X102586060Y-77781021D01*
X105862380Y-77781021D01*
X105862380Y-77984899D01*
X105902154Y-78184858D01*
X105980175Y-78373216D01*
X106093443Y-78542734D01*
X106112380Y-78561671D01*
X106112381Y-80269608D01*
X106093443Y-80288546D01*
X105980175Y-80458064D01*
X105902154Y-80646422D01*
X105862380Y-80846381D01*
X105862380Y-81050259D01*
X105902154Y-81250218D01*
X105980175Y-81438576D01*
X106093443Y-81608094D01*
X106237606Y-81752257D01*
X106407124Y-81865525D01*
X106595482Y-81943546D01*
X106795441Y-81983320D01*
X106999319Y-81983320D01*
X107199278Y-81943546D01*
X107387636Y-81865525D01*
X107557154Y-81752257D01*
X107701317Y-81608094D01*
X107814585Y-81438576D01*
X107892606Y-81250218D01*
X107932380Y-81050259D01*
X107932380Y-80846381D01*
X107892606Y-80646422D01*
X107814585Y-80458064D01*
X107701317Y-80288546D01*
X107682380Y-80269609D01*
X107682380Y-78561671D01*
X107701317Y-78542734D01*
X107814585Y-78373216D01*
X107892606Y-78184858D01*
X107932380Y-77984899D01*
X107932380Y-77781021D01*
X107892606Y-77581062D01*
X107814585Y-77392704D01*
X107701317Y-77223186D01*
X107557154Y-77079023D01*
X107387636Y-76965755D01*
X107199278Y-76887734D01*
X106999319Y-76847960D01*
X106795441Y-76847960D01*
X106595482Y-76887734D01*
X106407124Y-76965755D01*
X106237606Y-77079023D01*
X106093443Y-77223186D01*
X105980175Y-77392704D01*
X105902154Y-77581062D01*
X105862380Y-77781021D01*
X102586060Y-77781021D01*
X102586060Y-69350222D01*
X107123380Y-69350222D01*
X107123380Y-70781379D01*
X107142697Y-70977506D01*
X107219033Y-71229154D01*
X107342999Y-71461075D01*
X107509826Y-71664355D01*
X107713106Y-71831182D01*
X107945027Y-71955147D01*
X108196675Y-72031483D01*
X108458380Y-72057259D01*
X108720086Y-72031483D01*
X108971734Y-71955147D01*
X109203655Y-71831182D01*
X109406935Y-71664355D01*
X109573762Y-71461075D01*
X109697727Y-71229154D01*
X109774063Y-70977506D01*
X109793380Y-70781379D01*
X109793380Y-69350222D01*
X120823380Y-69350222D01*
X120823380Y-70781379D01*
X120842697Y-70977506D01*
X120919033Y-71229154D01*
X121042999Y-71461075D01*
X121209826Y-71664355D01*
X121413106Y-71831182D01*
X121645027Y-71955147D01*
X121896675Y-72031483D01*
X122158380Y-72057259D01*
X122420086Y-72031483D01*
X122671734Y-71955147D01*
X122903655Y-71831182D01*
X123106935Y-71664355D01*
X123273762Y-71461075D01*
X123397727Y-71229154D01*
X123474063Y-70977506D01*
X123493380Y-70781379D01*
X123493380Y-69350221D01*
X123474063Y-69154094D01*
X123397727Y-68902446D01*
X123273762Y-68670525D01*
X123106935Y-68467245D01*
X122903654Y-68300418D01*
X122671733Y-68176453D01*
X122420085Y-68100117D01*
X122158380Y-68074341D01*
X121896674Y-68100117D01*
X121645026Y-68176453D01*
X121413105Y-68300418D01*
X121209825Y-68467245D01*
X121042998Y-68670526D01*
X120919033Y-68902447D01*
X120842697Y-69154095D01*
X120823380Y-69350222D01*
X109793380Y-69350222D01*
X109793380Y-69350221D01*
X109774063Y-69154094D01*
X109697727Y-68902446D01*
X109573762Y-68670525D01*
X109406935Y-68467245D01*
X109203654Y-68300418D01*
X108971733Y-68176453D01*
X108720085Y-68100117D01*
X108458380Y-68074341D01*
X108196674Y-68100117D01*
X107945026Y-68176453D01*
X107713105Y-68300418D01*
X107509825Y-68467245D01*
X107342998Y-68670526D01*
X107219033Y-68902447D01*
X107142697Y-69154095D01*
X107123380Y-69350222D01*
X102586060Y-69350222D01*
X102586060Y-67921362D01*
X102589736Y-67884039D01*
X102586060Y-67846716D01*
X102586060Y-67846707D01*
X102575063Y-67735054D01*
X102531606Y-67591793D01*
X102518515Y-67567302D01*
X102461034Y-67459763D01*
X102389859Y-67373037D01*
X102366061Y-67344039D01*
X102337062Y-67320240D01*
X101815823Y-66799002D01*
X101792021Y-66769999D01*
X101676296Y-66675026D01*
X101544267Y-66604454D01*
X101401006Y-66560997D01*
X101289353Y-66550000D01*
X101289342Y-66550000D01*
X101252020Y-66546324D01*
X101214698Y-66550000D01*
X99244909Y-66550000D01*
X99238918Y-66535537D01*
X99059987Y-66267748D01*
X98832252Y-66040013D01*
X98564463Y-65861082D01*
X98266912Y-65737832D01*
X97951033Y-65675000D01*
X97628967Y-65675000D01*
X97313088Y-65737832D01*
X97015537Y-65861082D01*
X96747748Y-66040013D01*
X96520013Y-66267748D01*
X96341082Y-66535537D01*
X96217832Y-66833088D01*
X96155000Y-67148967D01*
X96155000Y-67471033D01*
X96217832Y-67786912D01*
X96341082Y-68084463D01*
X96520013Y-68352252D01*
X96747748Y-68579987D01*
X97015537Y-68758918D01*
X97313088Y-68882168D01*
X97628967Y-68945000D01*
X97951033Y-68945000D01*
X98266912Y-68882168D01*
X98564463Y-68758918D01*
X98832252Y-68579987D01*
X99059987Y-68352252D01*
X99238918Y-68084463D01*
X99244909Y-68070000D01*
X100937219Y-68070000D01*
X101066061Y-68198843D01*
X101066060Y-78824598D01*
X101062384Y-78861920D01*
X101066060Y-78899242D01*
X101066060Y-78899252D01*
X101077057Y-79010905D01*
X101118900Y-79148844D01*
X101120514Y-79154166D01*
X101191086Y-79286196D01*
X101226227Y-79329015D01*
X101286059Y-79401921D01*
X101315063Y-79425724D01*
X105275461Y-83386123D01*
X105299259Y-83415121D01*
X105414984Y-83510094D01*
X105547013Y-83580666D01*
X105690274Y-83624123D01*
X105801927Y-83635120D01*
X105801937Y-83635120D01*
X105839260Y-83638796D01*
X105876583Y-83635120D01*
X119242709Y-83635120D01*
X119286646Y-83679057D01*
X119456164Y-83792325D01*
X119564598Y-83837240D01*
X103624221Y-83837240D01*
X103544320Y-83757339D01*
X103544320Y-83695201D01*
X103504546Y-83495242D01*
X103426525Y-83306884D01*
X103313257Y-83137366D01*
X103169094Y-82993203D01*
X102999576Y-82879935D01*
X102811218Y-82801914D01*
X102611259Y-82762140D01*
X102407381Y-82762140D01*
X102207422Y-82801914D01*
X102019064Y-82879935D01*
X101849546Y-82993203D01*
X101705383Y-83137366D01*
X101592115Y-83306884D01*
X101514094Y-83495242D01*
X101496864Y-83581863D01*
X101224004Y-83309003D01*
X101200201Y-83279999D01*
X101084476Y-83185026D01*
X100952447Y-83114454D01*
X100809186Y-83070997D01*
X100697533Y-83060000D01*
X100697522Y-83060000D01*
X100660200Y-83056324D01*
X100622878Y-83060000D01*
X100308933Y-83060000D01*
X100212502Y-82942498D01*
X100024449Y-82788167D01*
X99809901Y-82673489D01*
X99577102Y-82602870D01*
X99395665Y-82585000D01*
X98724335Y-82585000D01*
X98542898Y-82602870D01*
X98310099Y-82673489D01*
X98095551Y-82788167D01*
X97907498Y-82942498D01*
X97753167Y-83130551D01*
X97638489Y-83345099D01*
X97567870Y-83577898D01*
X97544025Y-83820000D01*
X97567870Y-84062102D01*
X97638489Y-84294901D01*
X97753167Y-84509449D01*
X97907498Y-84697502D01*
X98095551Y-84851833D01*
X98310099Y-84966511D01*
X98542898Y-85037130D01*
X98724335Y-85055000D01*
X99395665Y-85055000D01*
X99577102Y-85037130D01*
X99809901Y-84966511D01*
X100024449Y-84851833D01*
X100212502Y-84697502D01*
X100308933Y-84580000D01*
X100345399Y-84580000D01*
X101329838Y-85564440D01*
X100279750Y-85564440D01*
X100212502Y-85482498D01*
X100024449Y-85328167D01*
X99809901Y-85213489D01*
X99577102Y-85142870D01*
X99395665Y-85125000D01*
X98724335Y-85125000D01*
X98542898Y-85142870D01*
X98310099Y-85213489D01*
X98095551Y-85328167D01*
X97907498Y-85482498D01*
X97753167Y-85670551D01*
X97638489Y-85885099D01*
X97567870Y-86117898D01*
X97544025Y-86360000D01*
X97567870Y-86602102D01*
X97638489Y-86834901D01*
X97753167Y-87049449D01*
X97907498Y-87237502D01*
X98095551Y-87391833D01*
X98310099Y-87506511D01*
X98542898Y-87577130D01*
X98724335Y-87595000D01*
X99395665Y-87595000D01*
X99577102Y-87577130D01*
X99809901Y-87506511D01*
X100024449Y-87391833D01*
X100212502Y-87237502D01*
X100338117Y-87084440D01*
X111583875Y-87084440D01*
X111574642Y-87106730D01*
X111534868Y-87306689D01*
X111534868Y-87510567D01*
X111574642Y-87710526D01*
X111597531Y-87765784D01*
X111527455Y-87835860D01*
X110022933Y-87835860D01*
X110000045Y-87780604D01*
X109886777Y-87611086D01*
X109742614Y-87466923D01*
X109573096Y-87353655D01*
X109384738Y-87275634D01*
X109184779Y-87235860D01*
X108980901Y-87235860D01*
X108780942Y-87275634D01*
X108592584Y-87353655D01*
X108423066Y-87466923D01*
X108278903Y-87611086D01*
X108165635Y-87780604D01*
X108087614Y-87968962D01*
X108047840Y-88168921D01*
X108047840Y-88372799D01*
X108087614Y-88572758D01*
X108165635Y-88761116D01*
X108188850Y-88795860D01*
X108165635Y-88830604D01*
X108087614Y-89018962D01*
X108047840Y-89218921D01*
X108047840Y-89422799D01*
X108087614Y-89622758D01*
X108165635Y-89811116D01*
X108278903Y-89980634D01*
X108423066Y-90124797D01*
X108592584Y-90238065D01*
X108780942Y-90316086D01*
X108980901Y-90355860D01*
X109184779Y-90355860D01*
X109384738Y-90316086D01*
X109573096Y-90238065D01*
X109742614Y-90124797D01*
X109886777Y-89980634D01*
X110000045Y-89811116D01*
X110022933Y-89755860D01*
X111982194Y-89755860D01*
X112018299Y-89759416D01*
X112054404Y-89755860D01*
X112162384Y-89745225D01*
X112300932Y-89703197D01*
X112428619Y-89634947D01*
X112540537Y-89543098D01*
X112563557Y-89515048D01*
X112955176Y-89123429D01*
X113010434Y-89146318D01*
X113210393Y-89186092D01*
X113407920Y-89186092D01*
X113407921Y-93009877D01*
X113197798Y-93220000D01*
X100308933Y-93220000D01*
X100212502Y-93102498D01*
X100024449Y-92948167D01*
X99809901Y-92833489D01*
X99577102Y-92762870D01*
X99395665Y-92745000D01*
X98724335Y-92745000D01*
X98542898Y-92762870D01*
X98310099Y-92833489D01*
X98095551Y-92948167D01*
X98021680Y-93008791D01*
X98021680Y-92428121D01*
X98030969Y-92418832D01*
X98095551Y-92471833D01*
X98310099Y-92586511D01*
X98542898Y-92657130D01*
X98724335Y-92675000D01*
X99395665Y-92675000D01*
X99577102Y-92657130D01*
X99809901Y-92586511D01*
X100024449Y-92471833D01*
X100212502Y-92317502D01*
X100366833Y-92129449D01*
X100481511Y-91914901D01*
X100552130Y-91682102D01*
X100575975Y-91440000D01*
X100552130Y-91197898D01*
X100481511Y-90965099D01*
X100366833Y-90750551D01*
X100212502Y-90562498D01*
X100024449Y-90408167D01*
X99809901Y-90293489D01*
X99577102Y-90222870D01*
X99395665Y-90205000D01*
X98724335Y-90205000D01*
X98542898Y-90222870D01*
X98310099Y-90293489D01*
X98095551Y-90408167D01*
X97907498Y-90562498D01*
X97803451Y-90689280D01*
X97786014Y-90690997D01*
X97642753Y-90734454D01*
X97510724Y-90805026D01*
X97394999Y-90899999D01*
X97371200Y-90928998D01*
X96750678Y-91549521D01*
X96721680Y-91573319D01*
X96697882Y-91602317D01*
X96697881Y-91602318D01*
X96626706Y-91689044D01*
X96556134Y-91821074D01*
X96543029Y-91864277D01*
X96512678Y-91964334D01*
X96503257Y-92059985D01*
X96498004Y-92113320D01*
X96501681Y-92150652D01*
X96501680Y-94816437D01*
X96498004Y-94853760D01*
X96501680Y-94891082D01*
X96501680Y-94891092D01*
X96512677Y-95002745D01*
X96550220Y-95126511D01*
X96556134Y-95146006D01*
X96626706Y-95278036D01*
X96661356Y-95320257D01*
X96721679Y-95393761D01*
X96750683Y-95417564D01*
X97109356Y-95776237D01*
X97133159Y-95805241D01*
X97248884Y-95900214D01*
X97364917Y-95962236D01*
X97380913Y-95970786D01*
X97524174Y-96014243D01*
X97648440Y-96026482D01*
X97638489Y-96045099D01*
X97567870Y-96277898D01*
X97544025Y-96520000D01*
X97567870Y-96762102D01*
X97638489Y-96994901D01*
X97753167Y-97209449D01*
X97907498Y-97397502D01*
X98095551Y-97551833D01*
X98310099Y-97666511D01*
X98542898Y-97737130D01*
X98724335Y-97755000D01*
X99395665Y-97755000D01*
X99577102Y-97737130D01*
X99809901Y-97666511D01*
X100024449Y-97551833D01*
X100212502Y-97397502D01*
X100288416Y-97305000D01*
X115320627Y-97305000D01*
X115359180Y-97308797D01*
X115397733Y-97305000D01*
X115397741Y-97305000D01*
X115513067Y-97293641D01*
X115661040Y-97248754D01*
X115797413Y-97175862D01*
X115916944Y-97077764D01*
X115941527Y-97047810D01*
X118190770Y-94798567D01*
X118220723Y-94773985D01*
X118318821Y-94654454D01*
X118391713Y-94518081D01*
X118395608Y-94505240D01*
X118436601Y-94370108D01*
X118444652Y-94288359D01*
X118447959Y-94254782D01*
X118447959Y-94254777D01*
X118451756Y-94216221D01*
X118447959Y-94177665D01*
X118447959Y-93548739D01*
X121206128Y-93548739D01*
X121250065Y-93592676D01*
X121419583Y-93705944D01*
X121607941Y-93783965D01*
X121807900Y-93823739D01*
X122011778Y-93823739D01*
X122211737Y-93783965D01*
X122241501Y-93771636D01*
X122241500Y-99252221D01*
X121525482Y-99968240D01*
X119932985Y-99968240D01*
X119742186Y-99777441D01*
X119515343Y-99625869D01*
X119263289Y-99521465D01*
X118995711Y-99468240D01*
X118722889Y-99468240D01*
X118455311Y-99521465D01*
X118203257Y-99625869D01*
X117976414Y-99777441D01*
X117785615Y-99968240D01*
X109843119Y-99968240D01*
X108591294Y-98716416D01*
X108563577Y-98682643D01*
X108428819Y-98572049D01*
X108275073Y-98489871D01*
X108108250Y-98439265D01*
X107978237Y-98426460D01*
X107978229Y-98426460D01*
X107934760Y-98422179D01*
X107891291Y-98426460D01*
X103269065Y-98426460D01*
X103225599Y-98422179D01*
X103182133Y-98426460D01*
X103182123Y-98426460D01*
X103052110Y-98439265D01*
X102885287Y-98489871D01*
X102731541Y-98572049D01*
X102731539Y-98572050D01*
X102731540Y-98572050D01*
X102630553Y-98654928D01*
X102630551Y-98654930D01*
X102596783Y-98682643D01*
X102569070Y-98716411D01*
X100451102Y-100834380D01*
X96086479Y-100834380D01*
X95914020Y-100661922D01*
X95914020Y-99377609D01*
X97591538Y-99377609D01*
X97595409Y-99415282D01*
X97687579Y-99640533D01*
X97821922Y-99843474D01*
X97993275Y-100016307D01*
X98195054Y-100152390D01*
X98419504Y-100246493D01*
X98658000Y-100295000D01*
X98933000Y-100295000D01*
X98933000Y-99187000D01*
X99187000Y-99187000D01*
X99187000Y-100295000D01*
X99462000Y-100295000D01*
X99700496Y-100246493D01*
X99924946Y-100152390D01*
X100126725Y-100016307D01*
X100298078Y-99843474D01*
X100432421Y-99640533D01*
X100524591Y-99415282D01*
X100528462Y-99377609D01*
X100403731Y-99187000D01*
X99187000Y-99187000D01*
X98933000Y-99187000D01*
X97716269Y-99187000D01*
X97591538Y-99377609D01*
X95914020Y-99377609D01*
X95914020Y-98742391D01*
X97591538Y-98742391D01*
X97716269Y-98933000D01*
X98933000Y-98933000D01*
X98933000Y-97825000D01*
X99187000Y-97825000D01*
X99187000Y-98933000D01*
X100403731Y-98933000D01*
X100528462Y-98742391D01*
X100524591Y-98704718D01*
X100432421Y-98479467D01*
X100298078Y-98276526D01*
X100126725Y-98103693D01*
X99924946Y-97967610D01*
X99700496Y-97873507D01*
X99462000Y-97825000D01*
X99187000Y-97825000D01*
X98933000Y-97825000D01*
X98658000Y-97825000D01*
X98419504Y-97873507D01*
X98195054Y-97967610D01*
X97993275Y-98103693D01*
X97821922Y-98276526D01*
X97687579Y-98479467D01*
X97595409Y-98704718D01*
X97591538Y-98742391D01*
X95914020Y-98742391D01*
X95914020Y-88900000D01*
X97544025Y-88900000D01*
X97567870Y-89142102D01*
X97638489Y-89374901D01*
X97753167Y-89589449D01*
X97907498Y-89777502D01*
X98095551Y-89931833D01*
X98310099Y-90046511D01*
X98542898Y-90117130D01*
X98724335Y-90135000D01*
X99395665Y-90135000D01*
X99577102Y-90117130D01*
X99809901Y-90046511D01*
X100024449Y-89931833D01*
X100212502Y-89777502D01*
X100366833Y-89589449D01*
X100481511Y-89374901D01*
X100552130Y-89142102D01*
X100575975Y-88900000D01*
X100552130Y-88657898D01*
X100481511Y-88425099D01*
X100366833Y-88210551D01*
X100212502Y-88022498D01*
X100024449Y-87868167D01*
X99809901Y-87753489D01*
X99577102Y-87682870D01*
X99395665Y-87665000D01*
X98724335Y-87665000D01*
X98542898Y-87682870D01*
X98310099Y-87753489D01*
X98095551Y-87868167D01*
X97907498Y-88022498D01*
X97753167Y-88210551D01*
X97638489Y-88425099D01*
X97567870Y-88657898D01*
X97544025Y-88900000D01*
X95914020Y-88900000D01*
X95914020Y-83401718D01*
X97150739Y-82165000D01*
X97916634Y-82165000D01*
X98095551Y-82311833D01*
X98310099Y-82426511D01*
X98542898Y-82497130D01*
X98724335Y-82515000D01*
X99395665Y-82515000D01*
X99577102Y-82497130D01*
X99809901Y-82426511D01*
X100024449Y-82311833D01*
X100212502Y-82157502D01*
X100366833Y-81969449D01*
X100481511Y-81754901D01*
X100552130Y-81522102D01*
X100575975Y-81280000D01*
X100552130Y-81037898D01*
X100481511Y-80805099D01*
X100366833Y-80590551D01*
X100212502Y-80402498D01*
X100024449Y-80248167D01*
X99809901Y-80133489D01*
X99577102Y-80062870D01*
X99395665Y-80045000D01*
X98724335Y-80045000D01*
X98542898Y-80062870D01*
X98310099Y-80133489D01*
X98095551Y-80248167D01*
X97916634Y-80395000D01*
X96827629Y-80395000D01*
X96784160Y-80390719D01*
X96740691Y-80395000D01*
X96740683Y-80395000D01*
X96610670Y-80407805D01*
X96443847Y-80458411D01*
X96329044Y-80519774D01*
X96290101Y-80540589D01*
X96189113Y-80623468D01*
X96189111Y-80623470D01*
X96155343Y-80651183D01*
X96127630Y-80684951D01*
X94433976Y-82378606D01*
X94400203Y-82406323D01*
X94289609Y-82541082D01*
X94207431Y-82694828D01*
X94156825Y-82861651D01*
X94144020Y-82991664D01*
X94144020Y-82991671D01*
X94139739Y-83035140D01*
X93472000Y-83035140D01*
X93472000Y-70958967D01*
X96155000Y-70958967D01*
X96155000Y-71281033D01*
X96217832Y-71596912D01*
X96341082Y-71894463D01*
X96520013Y-72162252D01*
X96747748Y-72389987D01*
X97015537Y-72568918D01*
X97313088Y-72692168D01*
X97628967Y-72755000D01*
X97951033Y-72755000D01*
X98266912Y-72692168D01*
X98564463Y-72568918D01*
X98832252Y-72389987D01*
X99059987Y-72162252D01*
X99238918Y-71894463D01*
X99362168Y-71596912D01*
X99425000Y-71281033D01*
X99425000Y-70958967D01*
X99362168Y-70643088D01*
X99238918Y-70345537D01*
X99059987Y-70077748D01*
X98832252Y-69850013D01*
X98564463Y-69671082D01*
X98266912Y-69547832D01*
X97951033Y-69485000D01*
X97628967Y-69485000D01*
X97313088Y-69547832D01*
X97015537Y-69671082D01*
X96747748Y-69850013D01*
X96520013Y-70077748D01*
X96341082Y-70345537D01*
X96217832Y-70643088D01*
X96155000Y-70958967D01*
X93472000Y-70958967D01*
X93472000Y-60377800D01*
X107976528Y-60377800D01*
X107976528Y-66977800D01*
X107988788Y-67102282D01*
X108025098Y-67221980D01*
X108084063Y-67332294D01*
X108163415Y-67428985D01*
X108260106Y-67508337D01*
X108370420Y-67567302D01*
X108490118Y-67603612D01*
X108614600Y-67615872D01*
X112314600Y-67615872D01*
X112439082Y-67603612D01*
X112558780Y-67567302D01*
X112669094Y-67508337D01*
X112765785Y-67428985D01*
X112845137Y-67332294D01*
X112904102Y-67221980D01*
X112940412Y-67102282D01*
X112952672Y-66977800D01*
X112952672Y-62105730D01*
X117979600Y-62105730D01*
X117979600Y-65249871D01*
X118015557Y-65614945D01*
X118157653Y-66083369D01*
X118388402Y-66515072D01*
X118698939Y-66893462D01*
X119077329Y-67203999D01*
X119509032Y-67434748D01*
X119977456Y-67576843D01*
X120464600Y-67624823D01*
X120951745Y-67576843D01*
X121420169Y-67434748D01*
X121851872Y-67203999D01*
X122230262Y-66893462D01*
X122540799Y-66515072D01*
X122771548Y-66083369D01*
X122913643Y-65614945D01*
X122949600Y-65249871D01*
X122949600Y-62790069D01*
X128853260Y-62790069D01*
X128853260Y-62934851D01*
X128881506Y-63076851D01*
X128936912Y-63210613D01*
X129017348Y-63330995D01*
X129119725Y-63433372D01*
X129240107Y-63513808D01*
X129373869Y-63569214D01*
X129515869Y-63597460D01*
X129660651Y-63597460D01*
X129802651Y-63569214D01*
X129936413Y-63513808D01*
X130056795Y-63433372D01*
X130159172Y-63330995D01*
X130239608Y-63210613D01*
X130295014Y-63076851D01*
X130323260Y-62934851D01*
X130323260Y-62790069D01*
X130295014Y-62648069D01*
X130239608Y-62514307D01*
X130159172Y-62393925D01*
X130056795Y-62291548D01*
X129936413Y-62211112D01*
X129893315Y-62193260D01*
X129949113Y-62170148D01*
X130069495Y-62089712D01*
X130171872Y-61987335D01*
X130252308Y-61866953D01*
X130307714Y-61733191D01*
X130335960Y-61591191D01*
X130335960Y-61446409D01*
X130307714Y-61304409D01*
X130252308Y-61170647D01*
X130171872Y-61050265D01*
X130069495Y-60947888D01*
X129949113Y-60867452D01*
X129815351Y-60812046D01*
X129673351Y-60783800D01*
X129528569Y-60783800D01*
X129386569Y-60812046D01*
X129252807Y-60867452D01*
X129132425Y-60947888D01*
X129030048Y-61050265D01*
X128949612Y-61170647D01*
X128894206Y-61304409D01*
X128865960Y-61446409D01*
X128865960Y-61591191D01*
X128894206Y-61733191D01*
X128949612Y-61866953D01*
X129030048Y-61987335D01*
X129132425Y-62089712D01*
X129252807Y-62170148D01*
X129295905Y-62188000D01*
X129240107Y-62211112D01*
X129119725Y-62291548D01*
X129017348Y-62393925D01*
X128936912Y-62514307D01*
X128881506Y-62648069D01*
X128853260Y-62790069D01*
X122949600Y-62790069D01*
X122949600Y-62105729D01*
X122913643Y-61740655D01*
X122771548Y-61272231D01*
X122540799Y-60840528D01*
X122230262Y-60462138D01*
X121851871Y-60151601D01*
X121420168Y-59920852D01*
X120951744Y-59778757D01*
X120464600Y-59730777D01*
X119977455Y-59778757D01*
X119509031Y-59920852D01*
X119077328Y-60151601D01*
X118698938Y-60462138D01*
X118388401Y-60840529D01*
X118157652Y-61272232D01*
X118015557Y-61740656D01*
X117979600Y-62105730D01*
X112952672Y-62105730D01*
X112952672Y-60377800D01*
X112940412Y-60253318D01*
X112904102Y-60133620D01*
X112845137Y-60023306D01*
X112765785Y-59926615D01*
X112669094Y-59847263D01*
X112558780Y-59788298D01*
X112439082Y-59751988D01*
X112314600Y-59739728D01*
X108614600Y-59739728D01*
X108490118Y-59751988D01*
X108370420Y-59788298D01*
X108260106Y-59847263D01*
X108163415Y-59926615D01*
X108084063Y-60023306D01*
X108025098Y-60133620D01*
X107988788Y-60253318D01*
X107976528Y-60377800D01*
X93472000Y-60377800D01*
X93472000Y-59353148D01*
X95766457Y-59353148D01*
X96042627Y-59771118D01*
X96587557Y-60061649D01*
X97178696Y-60240287D01*
X97793328Y-60300168D01*
X98407831Y-60238990D01*
X98998592Y-60059103D01*
X99537373Y-59771118D01*
X99813543Y-59353148D01*
X97790000Y-57329605D01*
X95766457Y-59353148D01*
X93472000Y-59353148D01*
X93472000Y-57153328D01*
X94639832Y-57153328D01*
X94701010Y-57767831D01*
X94880897Y-58358592D01*
X95168882Y-58897373D01*
X95586852Y-59173543D01*
X97610395Y-57150000D01*
X97969605Y-57150000D01*
X99993148Y-59173543D01*
X100411118Y-58897373D01*
X100701649Y-58352443D01*
X100880287Y-57761304D01*
X100940168Y-57146672D01*
X100894982Y-56692800D01*
X106123380Y-56692800D01*
X106123380Y-57342800D01*
X106173808Y-57600805D01*
X106273601Y-57844015D01*
X106418925Y-58063083D01*
X106604195Y-58249590D01*
X106822290Y-58396369D01*
X107064830Y-58497780D01*
X107125051Y-58508516D01*
X107331380Y-58385174D01*
X107331380Y-56692800D01*
X107585380Y-56692800D01*
X107585380Y-58385174D01*
X107791709Y-58508516D01*
X107851930Y-58497780D01*
X108094470Y-58396369D01*
X108312565Y-58249590D01*
X108497835Y-58063083D01*
X108643159Y-57844015D01*
X108742952Y-57600805D01*
X108793380Y-57342800D01*
X108793380Y-56692800D01*
X121823380Y-56692800D01*
X121823380Y-57342800D01*
X121873808Y-57600805D01*
X121973601Y-57844015D01*
X122118925Y-58063083D01*
X122304195Y-58249590D01*
X122522290Y-58396369D01*
X122764830Y-58497780D01*
X122825051Y-58508516D01*
X123031380Y-58385174D01*
X123031380Y-56692800D01*
X123285380Y-56692800D01*
X123285380Y-58385174D01*
X123491709Y-58508516D01*
X123551930Y-58497780D01*
X123794470Y-58396369D01*
X124012565Y-58249590D01*
X124197835Y-58063083D01*
X124343159Y-57844015D01*
X124442952Y-57600805D01*
X124493380Y-57342800D01*
X124493380Y-57153328D01*
X179729832Y-57153328D01*
X179791010Y-57767831D01*
X179970897Y-58358592D01*
X180258882Y-58897373D01*
X180676852Y-59173543D01*
X182700395Y-57150000D01*
X183059605Y-57150000D01*
X185083148Y-59173543D01*
X185501118Y-58897373D01*
X185791649Y-58352443D01*
X185970287Y-57761304D01*
X186030168Y-57146672D01*
X185968990Y-56532169D01*
X185789103Y-55941408D01*
X185501118Y-55402627D01*
X185083148Y-55126457D01*
X183059605Y-57150000D01*
X182700395Y-57150000D01*
X180676852Y-55126457D01*
X180258882Y-55402627D01*
X179968351Y-55947557D01*
X179789713Y-56538696D01*
X179729832Y-57153328D01*
X124493380Y-57153328D01*
X124493380Y-56692800D01*
X123285380Y-56692800D01*
X123031380Y-56692800D01*
X121823380Y-56692800D01*
X108793380Y-56692800D01*
X107585380Y-56692800D01*
X107331380Y-56692800D01*
X106123380Y-56692800D01*
X100894982Y-56692800D01*
X100878990Y-56532169D01*
X100699103Y-55941408D01*
X100617533Y-55788800D01*
X106123380Y-55788800D01*
X106123380Y-56438800D01*
X107331380Y-56438800D01*
X107331380Y-54746426D01*
X107585380Y-54746426D01*
X107585380Y-56438800D01*
X108793380Y-56438800D01*
X108793380Y-55788800D01*
X121823380Y-55788800D01*
X121823380Y-56438800D01*
X123031380Y-56438800D01*
X123031380Y-54746426D01*
X123285380Y-54746426D01*
X123285380Y-56438800D01*
X124493380Y-56438800D01*
X124493380Y-55788800D01*
X124442952Y-55530795D01*
X124343159Y-55287585D01*
X124197835Y-55068517D01*
X124076977Y-54946852D01*
X180856457Y-54946852D01*
X182880000Y-56970395D01*
X184903543Y-54946852D01*
X184627373Y-54528882D01*
X184082443Y-54238351D01*
X183491304Y-54059713D01*
X182876672Y-53999832D01*
X182262169Y-54061010D01*
X181671408Y-54240897D01*
X181132627Y-54528882D01*
X180856457Y-54946852D01*
X124076977Y-54946852D01*
X124012565Y-54882010D01*
X123794470Y-54735231D01*
X123551930Y-54633820D01*
X123491709Y-54623084D01*
X123285380Y-54746426D01*
X123031380Y-54746426D01*
X122825051Y-54623084D01*
X122764830Y-54633820D01*
X122522290Y-54735231D01*
X122304195Y-54882010D01*
X122118925Y-55068517D01*
X121973601Y-55287585D01*
X121873808Y-55530795D01*
X121823380Y-55788800D01*
X108793380Y-55788800D01*
X108742952Y-55530795D01*
X108643159Y-55287585D01*
X108497835Y-55068517D01*
X108312565Y-54882010D01*
X108094470Y-54735231D01*
X107851930Y-54633820D01*
X107791709Y-54623084D01*
X107585380Y-54746426D01*
X107331380Y-54746426D01*
X107125051Y-54623084D01*
X107064830Y-54633820D01*
X106822290Y-54735231D01*
X106604195Y-54882010D01*
X106418925Y-55068517D01*
X106273601Y-55287585D01*
X106173808Y-55530795D01*
X106123380Y-55788800D01*
X100617533Y-55788800D01*
X100411118Y-55402627D01*
X99993148Y-55126457D01*
X97969605Y-57150000D01*
X97610395Y-57150000D01*
X95586852Y-55126457D01*
X95168882Y-55402627D01*
X94878351Y-55947557D01*
X94699713Y-56538696D01*
X94639832Y-57153328D01*
X93472000Y-57153328D01*
X93472000Y-54946852D01*
X95766457Y-54946852D01*
X97790000Y-56970395D01*
X99813543Y-54946852D01*
X99537373Y-54528882D01*
X98992443Y-54238351D01*
X98401304Y-54059713D01*
X97786672Y-53999832D01*
X97172169Y-54061010D01*
X96581408Y-54240897D01*
X96042627Y-54528882D01*
X95766457Y-54946852D01*
X93472000Y-54946852D01*
X93472000Y-54647265D01*
X93509446Y-54265365D01*
X93609536Y-53933847D01*
X93772110Y-53628091D01*
X93990976Y-53359735D01*
X94257798Y-53139001D01*
X94562413Y-52974296D01*
X94893217Y-52871895D01*
X95272796Y-52832000D01*
X185382735Y-52832000D01*
X185764635Y-52869446D01*
X185764635Y-52869446D01*
G37*
X185764635Y-52869446D02*
X186096153Y-52969536D01*
X186401909Y-53132110D01*
X186670265Y-53350976D01*
X186890999Y-53617798D01*
X187055704Y-53922413D01*
X187158105Y-54253217D01*
X187198001Y-54632805D01*
X187198000Y-121882735D01*
X187160554Y-122264639D01*
X187060463Y-122596154D01*
X186897891Y-122901908D01*
X186679025Y-123170264D01*
X186412202Y-123390999D01*
X186107586Y-123555704D01*
X185776783Y-123658105D01*
X185397204Y-123698000D01*
X95287265Y-123698000D01*
X94905361Y-123660554D01*
X94573846Y-123560463D01*
X94268092Y-123397891D01*
X93999736Y-123179025D01*
X93779001Y-122912202D01*
X93614296Y-122607586D01*
X93511895Y-122276783D01*
X93472000Y-121897204D01*
X93472000Y-121583148D01*
X95766457Y-121583148D01*
X96042627Y-122001118D01*
X96587557Y-122291649D01*
X97178696Y-122470287D01*
X97793328Y-122530168D01*
X98407831Y-122468990D01*
X98998592Y-122289103D01*
X99537373Y-122001118D01*
X99813543Y-121583148D01*
X97790000Y-119559605D01*
X95766457Y-121583148D01*
X93472000Y-121583148D01*
X93472000Y-119383328D01*
X94639832Y-119383328D01*
X94701010Y-119997831D01*
X94880897Y-120588592D01*
X95168882Y-121127373D01*
X95586852Y-121403543D01*
X97610395Y-119380000D01*
X97969605Y-119380000D01*
X99993148Y-121403543D01*
X100411118Y-121127373D01*
X100701649Y-120582443D01*
X100880287Y-119991304D01*
X100940168Y-119376672D01*
X100878990Y-118762169D01*
X100699103Y-118171408D01*
X100411118Y-117632627D01*
X99993148Y-117356457D01*
X97969605Y-119380000D01*
X97610395Y-119380000D01*
X95586852Y-117356457D01*
X95168882Y-117632627D01*
X94878351Y-118177557D01*
X94699713Y-118768696D01*
X94639832Y-119383328D01*
X93472000Y-119383328D01*
X93472000Y-117176852D01*
X95766457Y-117176852D01*
X97790000Y-119200395D01*
X99813543Y-117176852D01*
X99537373Y-116758882D01*
X98992443Y-116468351D01*
X98401304Y-116289713D01*
X97786672Y-116229832D01*
X97172169Y-116291010D01*
X96581408Y-116470897D01*
X96042627Y-116758882D01*
X95766457Y-117176852D01*
X93472000Y-117176852D01*
X93472000Y-110736380D01*
X103052599Y-110736380D01*
X103056881Y-110779859D01*
X103056880Y-119029191D01*
X103052599Y-119072660D01*
X103056880Y-119116129D01*
X103056880Y-119116136D01*
X103069685Y-119246149D01*
X103120291Y-119412972D01*
X103202469Y-119566718D01*
X103313063Y-119701477D01*
X103346836Y-119729194D01*
X104039240Y-120421598D01*
X104039240Y-120421968D01*
X104082857Y-120641247D01*
X104168416Y-120847804D01*
X104292628Y-121033700D01*
X104450720Y-121191792D01*
X104636616Y-121316004D01*
X104843173Y-121401563D01*
X105062452Y-121445180D01*
X105062821Y-121445180D01*
X105929490Y-122311849D01*
X105957203Y-122345617D01*
X105990971Y-122373330D01*
X105990973Y-122373332D01*
X106091961Y-122456211D01*
X106245706Y-122538389D01*
X106342624Y-122567789D01*
X106412530Y-122588995D01*
X106542543Y-122601800D01*
X106542551Y-122601800D01*
X106586020Y-122606081D01*
X106629489Y-122601800D01*
X116557771Y-122601800D01*
X116601240Y-122606081D01*
X116644709Y-122601800D01*
X116644717Y-122601800D01*
X116774730Y-122588995D01*
X116941553Y-122538389D01*
X117095299Y-122456211D01*
X117230057Y-122345617D01*
X117257774Y-122311844D01*
X118410539Y-121159080D01*
X154002451Y-121159080D01*
X154045920Y-121163361D01*
X154089389Y-121159080D01*
X154089397Y-121159080D01*
X154219410Y-121146275D01*
X154386233Y-121095669D01*
X154539979Y-121013491D01*
X154674737Y-120902897D01*
X154702454Y-120869124D01*
X155229931Y-120341647D01*
X171085000Y-120341647D01*
X171085000Y-120663713D01*
X171147832Y-120979592D01*
X171271082Y-121277143D01*
X171450013Y-121544932D01*
X171677748Y-121772667D01*
X171945537Y-121951598D01*
X172243088Y-122074848D01*
X172558967Y-122137680D01*
X172881033Y-122137680D01*
X173196912Y-122074848D01*
X173494463Y-121951598D01*
X173762252Y-121772667D01*
X173896826Y-121638093D01*
X175828192Y-121638093D01*
X175923956Y-121902494D01*
X176213571Y-122043384D01*
X176525108Y-122125064D01*
X176846595Y-122144398D01*
X177165675Y-122100641D01*
X177470088Y-121995475D01*
X177644044Y-121902494D01*
X177739808Y-121638093D01*
X177684863Y-121583148D01*
X180856457Y-121583148D01*
X181132627Y-122001118D01*
X181677557Y-122291649D01*
X182268696Y-122470287D01*
X182883328Y-122530168D01*
X183497831Y-122468990D01*
X184088592Y-122289103D01*
X184627373Y-122001118D01*
X184903543Y-121583148D01*
X182880000Y-119559605D01*
X180856457Y-121583148D01*
X177684863Y-121583148D01*
X176784000Y-120682285D01*
X175828192Y-121638093D01*
X173896826Y-121638093D01*
X173989987Y-121544932D01*
X174168918Y-121277143D01*
X174292168Y-120979592D01*
X174355000Y-120663713D01*
X174355000Y-120565275D01*
X175142282Y-120565275D01*
X175186039Y-120884355D01*
X175291205Y-121188768D01*
X175384186Y-121362724D01*
X175648587Y-121458488D01*
X176604395Y-120502680D01*
X176963605Y-120502680D01*
X177919413Y-121458488D01*
X178183814Y-121362724D01*
X178324704Y-121073109D01*
X178406384Y-120761572D01*
X178425718Y-120440085D01*
X178381961Y-120121005D01*
X178276795Y-119816592D01*
X178183814Y-119642636D01*
X177919413Y-119546872D01*
X176963605Y-120502680D01*
X176604395Y-120502680D01*
X175648587Y-119546872D01*
X175384186Y-119642636D01*
X175243296Y-119932251D01*
X175161616Y-120243788D01*
X175142282Y-120565275D01*
X174355000Y-120565275D01*
X174355000Y-120341647D01*
X174292168Y-120025768D01*
X174168918Y-119728217D01*
X173989987Y-119460428D01*
X173896826Y-119367267D01*
X175828192Y-119367267D01*
X176784000Y-120323075D01*
X177723747Y-119383328D01*
X179729832Y-119383328D01*
X179791010Y-119997831D01*
X179970897Y-120588592D01*
X180258882Y-121127373D01*
X180676852Y-121403543D01*
X182700395Y-119380000D01*
X183059605Y-119380000D01*
X185083148Y-121403543D01*
X185501118Y-121127373D01*
X185791649Y-120582443D01*
X185970287Y-119991304D01*
X186030168Y-119376672D01*
X185968990Y-118762169D01*
X185789103Y-118171408D01*
X185501118Y-117632627D01*
X185083148Y-117356457D01*
X183059605Y-119380000D01*
X182700395Y-119380000D01*
X180676852Y-117356457D01*
X180258882Y-117632627D01*
X179968351Y-118177557D01*
X179789713Y-118768696D01*
X179729832Y-119383328D01*
X177723747Y-119383328D01*
X177739808Y-119367267D01*
X177644044Y-119102866D01*
X177354429Y-118961976D01*
X177042892Y-118880296D01*
X176721405Y-118860962D01*
X176402325Y-118904719D01*
X176097912Y-119009885D01*
X175923956Y-119102866D01*
X175828192Y-119367267D01*
X173896826Y-119367267D01*
X173762252Y-119232693D01*
X173494463Y-119053762D01*
X173196912Y-118930512D01*
X172881033Y-118867680D01*
X172558967Y-118867680D01*
X172243088Y-118930512D01*
X171945537Y-119053762D01*
X171677748Y-119232693D01*
X171450013Y-119460428D01*
X171271082Y-119728217D01*
X171147832Y-120025768D01*
X171085000Y-120341647D01*
X155229931Y-120341647D01*
X156576579Y-118995000D01*
X158825306Y-118995000D01*
X158849528Y-119074851D01*
X158931595Y-119228387D01*
X159042038Y-119362962D01*
X159176613Y-119473405D01*
X159330149Y-119555472D01*
X159496745Y-119606008D01*
X159669999Y-119623072D01*
X160370001Y-119623072D01*
X160543255Y-119606008D01*
X160709851Y-119555472D01*
X160863387Y-119473405D01*
X160997962Y-119362962D01*
X161108405Y-119228387D01*
X161110967Y-119223594D01*
X161236526Y-119348078D01*
X161439467Y-119482421D01*
X161664718Y-119574591D01*
X161702391Y-119578462D01*
X161893000Y-119453731D01*
X161893000Y-118237000D01*
X162147000Y-118237000D01*
X162147000Y-119453731D01*
X162337609Y-119578462D01*
X162375282Y-119574591D01*
X162600533Y-119482421D01*
X162803474Y-119348078D01*
X162976307Y-119176725D01*
X163112390Y-118974946D01*
X163206493Y-118750496D01*
X163255000Y-118512000D01*
X163255000Y-118237000D01*
X162147000Y-118237000D01*
X161893000Y-118237000D01*
X161873000Y-118237000D01*
X161873000Y-117983000D01*
X161893000Y-117983000D01*
X161893000Y-116766269D01*
X162147000Y-116766269D01*
X162147000Y-117983000D01*
X163255000Y-117983000D01*
X163255000Y-117708000D01*
X163206493Y-117469504D01*
X163112390Y-117245054D01*
X163066394Y-117176852D01*
X180856457Y-117176852D01*
X182880000Y-119200395D01*
X184903543Y-117176852D01*
X184627373Y-116758882D01*
X184082443Y-116468351D01*
X183491304Y-116289713D01*
X182876672Y-116229832D01*
X182262169Y-116291010D01*
X181671408Y-116470897D01*
X181132627Y-116758882D01*
X180856457Y-117176852D01*
X163066394Y-117176852D01*
X162976307Y-117043275D01*
X162803474Y-116871922D01*
X162600533Y-116737579D01*
X162375282Y-116645409D01*
X162337609Y-116641538D01*
X162147000Y-116766269D01*
X161893000Y-116766269D01*
X161702391Y-116641538D01*
X161664718Y-116645409D01*
X161439467Y-116737579D01*
X161236526Y-116871922D01*
X161110967Y-116996406D01*
X161108405Y-116991613D01*
X160997962Y-116857038D01*
X160863387Y-116746595D01*
X160709851Y-116664528D01*
X160543255Y-116613992D01*
X160370001Y-116596928D01*
X159669999Y-116596928D01*
X159496745Y-116613992D01*
X159330149Y-116664528D01*
X159176613Y-116746595D01*
X159042038Y-116857038D01*
X158931595Y-116991613D01*
X158849528Y-117145149D01*
X158825306Y-117225000D01*
X156253465Y-117225000D01*
X156209999Y-117220719D01*
X156166533Y-117225000D01*
X156166523Y-117225000D01*
X156036510Y-117237805D01*
X155869687Y-117288411D01*
X155715941Y-117370589D01*
X155715939Y-117370590D01*
X155715940Y-117370590D01*
X155614953Y-117453468D01*
X155614951Y-117453470D01*
X155581183Y-117481183D01*
X155553470Y-117514951D01*
X153679342Y-119389080D01*
X118087425Y-119389080D01*
X118043959Y-119384799D01*
X118000493Y-119389080D01*
X118000483Y-119389080D01*
X117870470Y-119401885D01*
X117703647Y-119452491D01*
X117549901Y-119534669D01*
X117549899Y-119534670D01*
X117549900Y-119534670D01*
X117448913Y-119617548D01*
X117448911Y-119617550D01*
X117415143Y-119645263D01*
X117387430Y-119679031D01*
X116234662Y-120831800D01*
X114186693Y-120831800D01*
X114265623Y-120641247D01*
X114309240Y-120421968D01*
X114309240Y-120198392D01*
X114265623Y-119979113D01*
X114180064Y-119772556D01*
X114055852Y-119586660D01*
X113897760Y-119428568D01*
X113711864Y-119304356D01*
X113505307Y-119218797D01*
X113286028Y-119175180D01*
X113062452Y-119175180D01*
X112843173Y-119218797D01*
X112636616Y-119304356D01*
X112450720Y-119428568D01*
X112292628Y-119586660D01*
X112168416Y-119772556D01*
X112082857Y-119979113D01*
X112039240Y-120198392D01*
X112039240Y-120421968D01*
X112082857Y-120641247D01*
X112161787Y-120831800D01*
X106952599Y-120831800D01*
X106306769Y-120185971D01*
X106265623Y-119979113D01*
X106180064Y-119772556D01*
X106055852Y-119586660D01*
X105897760Y-119428568D01*
X105711864Y-119304356D01*
X105505307Y-119218797D01*
X105298449Y-119177651D01*
X104826880Y-118706082D01*
X104826880Y-115400819D01*
X104843315Y-115440496D01*
X104956583Y-115610014D01*
X105100746Y-115754177D01*
X105270264Y-115867445D01*
X105458622Y-115945466D01*
X105658581Y-115985240D01*
X105862459Y-115985240D01*
X106062418Y-115945466D01*
X106193638Y-115891113D01*
X106272769Y-115956054D01*
X106404798Y-116026626D01*
X106548059Y-116070083D01*
X106659712Y-116081080D01*
X106659722Y-116081080D01*
X106697045Y-116084756D01*
X106734368Y-116081080D01*
X114486198Y-116081080D01*
X114523520Y-116084756D01*
X114560842Y-116081080D01*
X114560853Y-116081080D01*
X114672506Y-116070083D01*
X114815767Y-116026626D01*
X114947796Y-115956054D01*
X115063521Y-115861081D01*
X115087323Y-115832078D01*
X115809224Y-115110178D01*
X115838221Y-115086381D01*
X115933194Y-114970656D01*
X116003766Y-114838627D01*
X116047223Y-114695366D01*
X116058220Y-114583713D01*
X116058220Y-114583704D01*
X116061896Y-114546381D01*
X116058220Y-114509058D01*
X116058220Y-109865001D01*
X117383941Y-108539280D01*
X119774843Y-108539280D01*
X119778641Y-108577843D01*
X119778640Y-117324687D01*
X119774843Y-117363240D01*
X119778640Y-117401793D01*
X119778640Y-117401800D01*
X119789999Y-117517126D01*
X119834886Y-117665099D01*
X119853760Y-117700410D01*
X119853760Y-117790299D01*
X119893534Y-117990258D01*
X119971555Y-118178616D01*
X120084823Y-118348134D01*
X120228986Y-118492297D01*
X120398504Y-118605565D01*
X120586862Y-118683586D01*
X120786821Y-118723360D01*
X120825107Y-118723360D01*
X120850526Y-118744221D01*
X120986899Y-118817113D01*
X121134872Y-118862000D01*
X121250198Y-118873359D01*
X121250205Y-118873359D01*
X121288758Y-118877156D01*
X121327311Y-118873359D01*
X137409788Y-118873359D01*
X137448341Y-118877156D01*
X137486894Y-118873359D01*
X137486902Y-118873359D01*
X137602228Y-118862000D01*
X137750201Y-118817113D01*
X137886574Y-118744221D01*
X138006105Y-118646123D01*
X138030688Y-118616169D01*
X139376917Y-117269941D01*
X139406864Y-117245364D01*
X139504962Y-117125833D01*
X139577854Y-116989460D01*
X139622741Y-116841487D01*
X139634100Y-116726161D01*
X139634100Y-116726154D01*
X139637897Y-116687601D01*
X139634100Y-116649048D01*
X139634100Y-113375477D01*
X140253757Y-112755820D01*
X142211529Y-112755820D01*
X142230466Y-112774757D01*
X142399984Y-112888025D01*
X142588342Y-112966046D01*
X142788301Y-113005820D01*
X142992179Y-113005820D01*
X143192138Y-112966046D01*
X143380496Y-112888025D01*
X143550014Y-112774757D01*
X143694177Y-112630594D01*
X143807445Y-112461076D01*
X143885466Y-112272718D01*
X143925240Y-112072759D01*
X143925240Y-111868881D01*
X143885466Y-111668922D01*
X143807445Y-111480564D01*
X143694177Y-111311046D01*
X143550014Y-111166883D01*
X143380496Y-111053615D01*
X143192138Y-110975594D01*
X142992179Y-110935820D01*
X142788301Y-110935820D01*
X142588342Y-110975594D01*
X142399984Y-111053615D01*
X142230466Y-111166883D01*
X142211529Y-111185820D01*
X139967156Y-111185820D01*
X139928600Y-111182023D01*
X139890044Y-111185820D01*
X139890039Y-111185820D01*
X139849626Y-111189800D01*
X139774713Y-111197178D01*
X139626740Y-111242066D01*
X139490367Y-111314958D01*
X139370836Y-111413056D01*
X139346253Y-111443010D01*
X138321285Y-112467978D01*
X138291337Y-112492556D01*
X138266759Y-112522504D01*
X138266755Y-112522508D01*
X138246605Y-112547061D01*
X138193239Y-112612087D01*
X138173509Y-112649000D01*
X138120346Y-112748461D01*
X138075459Y-112896434D01*
X138060303Y-113050320D01*
X138064101Y-113088883D01*
X138064100Y-116362442D01*
X137123184Y-117303359D01*
X121849563Y-117303359D01*
X121805965Y-117198104D01*
X121692697Y-117028586D01*
X121548534Y-116884423D01*
X121379016Y-116771155D01*
X121348640Y-116758573D01*
X121348640Y-108935181D01*
X122335340Y-108935181D01*
X122335340Y-109139059D01*
X122375114Y-109339018D01*
X122453135Y-109527376D01*
X122566403Y-109696894D01*
X122710566Y-109841057D01*
X122880084Y-109954325D01*
X123068442Y-110032346D01*
X123268401Y-110072120D01*
X123472279Y-110072120D01*
X123672238Y-110032346D01*
X123860596Y-109954325D01*
X124030114Y-109841057D01*
X124174277Y-109696894D01*
X124278040Y-109541601D01*
X124335275Y-109679776D01*
X124448543Y-109849294D01*
X124592706Y-109993457D01*
X124762224Y-110106725D01*
X124829221Y-110134476D01*
X124747646Y-110188983D01*
X124603483Y-110333146D01*
X124490215Y-110502664D01*
X124412194Y-110691022D01*
X124372420Y-110890981D01*
X124372420Y-111094859D01*
X124412194Y-111294818D01*
X124490215Y-111483176D01*
X124603483Y-111652694D01*
X124747646Y-111796857D01*
X124836099Y-111855959D01*
X124270339Y-112421720D01*
X124208201Y-112421720D01*
X124008242Y-112461494D01*
X123819884Y-112539515D01*
X123650366Y-112652783D01*
X123506203Y-112796946D01*
X123392935Y-112966464D01*
X123314914Y-113154822D01*
X123275140Y-113354781D01*
X123275140Y-113558659D01*
X123314914Y-113758618D01*
X123392935Y-113946976D01*
X123506203Y-114116494D01*
X123650366Y-114260657D01*
X123819884Y-114373925D01*
X124008242Y-114451946D01*
X124208201Y-114491720D01*
X124412079Y-114491720D01*
X124612038Y-114451946D01*
X124800396Y-114373925D01*
X124969914Y-114260657D01*
X125114077Y-114116494D01*
X125227345Y-113946976D01*
X125305366Y-113758618D01*
X125345140Y-113558659D01*
X125345140Y-113496521D01*
X125742542Y-113099120D01*
X128665029Y-113099120D01*
X128581123Y-113183026D01*
X128467855Y-113352544D01*
X128389834Y-113540902D01*
X128350060Y-113740861D01*
X128350060Y-113944739D01*
X128389834Y-114144698D01*
X128467855Y-114333056D01*
X128581123Y-114502574D01*
X128725286Y-114646737D01*
X128894804Y-114760005D01*
X129083162Y-114838026D01*
X129283121Y-114877800D01*
X129486999Y-114877800D01*
X129686958Y-114838026D01*
X129875316Y-114760005D01*
X130044834Y-114646737D01*
X130088771Y-114602800D01*
X130605038Y-114602800D01*
X130642360Y-114606476D01*
X130679682Y-114602800D01*
X130679693Y-114602800D01*
X130791346Y-114591803D01*
X130934607Y-114548346D01*
X131066636Y-114477774D01*
X131182361Y-114382801D01*
X131206164Y-114353797D01*
X147189921Y-98370041D01*
X147189921Y-100614640D01*
X133869001Y-113935562D01*
X133806863Y-113935562D01*
X133606904Y-113975336D01*
X133418546Y-114053357D01*
X133249028Y-114166625D01*
X133104865Y-114310788D01*
X132991597Y-114480306D01*
X132913576Y-114668664D01*
X132873802Y-114868623D01*
X132873802Y-115072501D01*
X132913576Y-115272460D01*
X132991597Y-115460818D01*
X133104865Y-115630336D01*
X133249028Y-115774499D01*
X133418546Y-115887767D01*
X133606904Y-115965788D01*
X133806863Y-116005562D01*
X134010741Y-116005562D01*
X134210700Y-115965788D01*
X134399058Y-115887767D01*
X134568576Y-115774499D01*
X134712739Y-115630336D01*
X134826007Y-115460818D01*
X134904028Y-115272460D01*
X134943802Y-115072501D01*
X134943802Y-115010363D01*
X142459165Y-107495001D01*
X147402600Y-107495001D01*
X147402600Y-107698879D01*
X147442374Y-107898838D01*
X147520395Y-108087196D01*
X147633663Y-108256714D01*
X147777826Y-108400877D01*
X147947344Y-108514145D01*
X148000181Y-108536031D01*
X148000180Y-110558449D01*
X147956243Y-110602386D01*
X147842975Y-110771904D01*
X147764954Y-110960262D01*
X147725180Y-111160221D01*
X147725180Y-111364099D01*
X147764954Y-111564058D01*
X147842975Y-111752416D01*
X147956243Y-111921934D01*
X148100406Y-112066097D01*
X148269924Y-112179365D01*
X148458282Y-112257386D01*
X148658241Y-112297160D01*
X148862119Y-112297160D01*
X149062078Y-112257386D01*
X149250436Y-112179365D01*
X149419954Y-112066097D01*
X149564117Y-111921934D01*
X149677385Y-111752416D01*
X149755406Y-111564058D01*
X149795180Y-111364099D01*
X149795180Y-111160221D01*
X149755406Y-110960262D01*
X149677385Y-110771904D01*
X149564117Y-110602386D01*
X149520180Y-110558449D01*
X149520180Y-107956842D01*
X149523856Y-107919519D01*
X149520180Y-107882197D01*
X149520180Y-107882187D01*
X149509183Y-107770534D01*
X149472600Y-107649934D01*
X149472600Y-107495001D01*
X149432826Y-107295042D01*
X149354805Y-107106684D01*
X149241537Y-106937166D01*
X149097374Y-106793003D01*
X148927856Y-106679735D01*
X148739498Y-106601714D01*
X148539539Y-106561940D01*
X148335661Y-106561940D01*
X148135702Y-106601714D01*
X147947344Y-106679735D01*
X147777826Y-106793003D01*
X147633663Y-106937166D01*
X147520395Y-107106684D01*
X147442374Y-107295042D01*
X147402600Y-107495001D01*
X142459165Y-107495001D01*
X143505306Y-106448860D01*
X162675635Y-106448860D01*
X162704307Y-106739971D01*
X162789221Y-107019894D01*
X162927114Y-107277874D01*
X163112686Y-107503994D01*
X163338806Y-107689566D01*
X163596786Y-107827459D01*
X163876709Y-107912373D01*
X164094870Y-107933860D01*
X164240770Y-107933860D01*
X164458931Y-107912373D01*
X164738854Y-107827459D01*
X164996834Y-107689566D01*
X165222954Y-107503994D01*
X165247427Y-107474173D01*
X165268318Y-107543040D01*
X165327283Y-107653354D01*
X165406635Y-107750045D01*
X165503326Y-107829397D01*
X165613640Y-107888362D01*
X165733338Y-107924672D01*
X165857820Y-107936932D01*
X166422070Y-107933860D01*
X166580820Y-107775110D01*
X166580820Y-106575860D01*
X166834820Y-106575860D01*
X166834820Y-107775110D01*
X166993570Y-107933860D01*
X167557820Y-107936932D01*
X167682302Y-107924672D01*
X167802000Y-107888362D01*
X167912314Y-107829397D01*
X168009005Y-107750045D01*
X168088357Y-107653354D01*
X168147322Y-107543040D01*
X168183632Y-107423342D01*
X168195892Y-107298860D01*
X168192820Y-106734610D01*
X168034070Y-106575860D01*
X166834820Y-106575860D01*
X166580820Y-106575860D01*
X166560820Y-106575860D01*
X166560820Y-106448860D01*
X172993115Y-106448860D01*
X173021787Y-106739971D01*
X173106701Y-107019894D01*
X173244594Y-107277874D01*
X173430166Y-107503994D01*
X173656286Y-107689566D01*
X173914266Y-107827459D01*
X174194189Y-107912373D01*
X174412350Y-107933860D01*
X174558250Y-107933860D01*
X174776411Y-107912373D01*
X175056334Y-107827459D01*
X175314314Y-107689566D01*
X175540434Y-107503994D01*
X175564907Y-107474173D01*
X175585798Y-107543040D01*
X175644763Y-107653354D01*
X175724115Y-107750045D01*
X175820806Y-107829397D01*
X175931120Y-107888362D01*
X176050818Y-107924672D01*
X176175300Y-107936932D01*
X176739550Y-107933860D01*
X176898300Y-107775110D01*
X176898300Y-106575860D01*
X177152300Y-106575860D01*
X177152300Y-107775110D01*
X177311050Y-107933860D01*
X177875300Y-107936932D01*
X177999782Y-107924672D01*
X178119480Y-107888362D01*
X178229794Y-107829397D01*
X178326485Y-107750045D01*
X178405837Y-107653354D01*
X178464802Y-107543040D01*
X178501112Y-107423342D01*
X178513372Y-107298860D01*
X178510300Y-106734610D01*
X178351550Y-106575860D01*
X177152300Y-106575860D01*
X176898300Y-106575860D01*
X176878300Y-106575860D01*
X176878300Y-106321860D01*
X176898300Y-106321860D01*
X176898300Y-105122610D01*
X177152300Y-105122610D01*
X177152300Y-106321860D01*
X178351550Y-106321860D01*
X178510300Y-106163110D01*
X178513372Y-105598860D01*
X178501112Y-105474378D01*
X178464802Y-105354680D01*
X178405837Y-105244366D01*
X178326485Y-105147675D01*
X178229794Y-105068323D01*
X178119480Y-105009358D01*
X177999782Y-104973048D01*
X177875300Y-104960788D01*
X177311050Y-104963860D01*
X177152300Y-105122610D01*
X176898300Y-105122610D01*
X176739550Y-104963860D01*
X176175300Y-104960788D01*
X176050818Y-104973048D01*
X175931120Y-105009358D01*
X175820806Y-105068323D01*
X175724115Y-105147675D01*
X175644763Y-105244366D01*
X175585798Y-105354680D01*
X175564907Y-105423547D01*
X175540434Y-105393726D01*
X175314314Y-105208154D01*
X175056334Y-105070261D01*
X174776411Y-104985347D01*
X174558250Y-104963860D01*
X174412350Y-104963860D01*
X174194189Y-104985347D01*
X173914266Y-105070261D01*
X173656286Y-105208154D01*
X173430166Y-105393726D01*
X173244594Y-105619846D01*
X173106701Y-105877826D01*
X173021787Y-106157749D01*
X172993115Y-106448860D01*
X166560820Y-106448860D01*
X166560820Y-106321860D01*
X166580820Y-106321860D01*
X166580820Y-105122610D01*
X166834820Y-105122610D01*
X166834820Y-106321860D01*
X168034070Y-106321860D01*
X168192820Y-106163110D01*
X168195892Y-105598860D01*
X168183632Y-105474378D01*
X168147322Y-105354680D01*
X168088357Y-105244366D01*
X168009005Y-105147675D01*
X167912314Y-105068323D01*
X167802000Y-105009358D01*
X167682302Y-104973048D01*
X167557820Y-104960788D01*
X166993570Y-104963860D01*
X166834820Y-105122610D01*
X166580820Y-105122610D01*
X166422070Y-104963860D01*
X165857820Y-104960788D01*
X165733338Y-104973048D01*
X165613640Y-105009358D01*
X165503326Y-105068323D01*
X165406635Y-105147675D01*
X165327283Y-105244366D01*
X165268318Y-105354680D01*
X165247427Y-105423547D01*
X165222954Y-105393726D01*
X164996834Y-105208154D01*
X164738854Y-105070261D01*
X164458931Y-104985347D01*
X164240770Y-104963860D01*
X164094870Y-104963860D01*
X163876709Y-104985347D01*
X163596786Y-105070261D01*
X163338806Y-105208154D01*
X163112686Y-105393726D01*
X162927114Y-105619846D01*
X162789221Y-105877826D01*
X162704307Y-106157749D01*
X162675635Y-106448860D01*
X143505306Y-106448860D01*
X148460928Y-101493239D01*
X148489921Y-101469445D01*
X148513715Y-101440452D01*
X148513719Y-101440448D01*
X148571731Y-101369759D01*
X148584894Y-101353720D01*
X148655466Y-101221691D01*
X148698923Y-101078430D01*
X148709920Y-100966777D01*
X148709920Y-100966768D01*
X148713596Y-100929445D01*
X148709920Y-100892122D01*
X148709920Y-99060000D01*
X153424025Y-99060000D01*
X153447870Y-99302102D01*
X153518489Y-99534901D01*
X153633167Y-99749449D01*
X153787498Y-99937502D01*
X153975551Y-100091833D01*
X154190099Y-100206511D01*
X154422898Y-100277130D01*
X154604335Y-100295000D01*
X155275665Y-100295000D01*
X155457102Y-100277130D01*
X155689901Y-100206511D01*
X155904449Y-100091833D01*
X156092502Y-99937502D01*
X156246833Y-99749449D01*
X156361511Y-99534901D01*
X156432130Y-99302102D01*
X156455975Y-99060000D01*
X156432130Y-98817898D01*
X156361511Y-98585099D01*
X156246833Y-98370551D01*
X156092502Y-98182498D01*
X155904449Y-98028167D01*
X155754160Y-97947836D01*
X170791300Y-97947836D01*
X170791300Y-98250204D01*
X170850289Y-98546763D01*
X170966001Y-98826115D01*
X171133988Y-99077525D01*
X171347795Y-99291332D01*
X171599205Y-99459319D01*
X171878557Y-99575031D01*
X172175116Y-99634020D01*
X172477484Y-99634020D01*
X172774043Y-99575031D01*
X173053395Y-99459319D01*
X173304805Y-99291332D01*
X173433037Y-99163100D01*
X173941825Y-99163100D01*
X174025508Y-99417281D01*
X174298075Y-99548178D01*
X174590942Y-99623385D01*
X174892853Y-99640011D01*
X175192207Y-99597417D01*
X175477499Y-99497242D01*
X175627092Y-99417281D01*
X175710775Y-99163100D01*
X174826300Y-98278625D01*
X173941825Y-99163100D01*
X173433037Y-99163100D01*
X173518612Y-99077525D01*
X173614038Y-98934710D01*
X173762220Y-98983495D01*
X174646695Y-98099020D01*
X175005905Y-98099020D01*
X175890380Y-98983495D01*
X176038562Y-98934710D01*
X176133988Y-99077525D01*
X176347795Y-99291332D01*
X176599205Y-99459319D01*
X176878557Y-99575031D01*
X177175116Y-99634020D01*
X177477484Y-99634020D01*
X177774043Y-99575031D01*
X178053395Y-99459319D01*
X178304805Y-99291332D01*
X178518612Y-99077525D01*
X178686599Y-98826115D01*
X178802311Y-98546763D01*
X178861300Y-98250204D01*
X178861300Y-97947836D01*
X178802311Y-97651277D01*
X178686599Y-97371925D01*
X178518612Y-97120515D01*
X178304805Y-96906708D01*
X178053395Y-96738721D01*
X177774043Y-96623009D01*
X177477484Y-96564020D01*
X177175116Y-96564020D01*
X176878557Y-96623009D01*
X176599205Y-96738721D01*
X176347795Y-96906708D01*
X176133988Y-97120515D01*
X176038562Y-97263330D01*
X175890380Y-97214545D01*
X175005905Y-98099020D01*
X174646695Y-98099020D01*
X173762220Y-97214545D01*
X173614038Y-97263330D01*
X173518612Y-97120515D01*
X173433037Y-97034940D01*
X173941825Y-97034940D01*
X174826300Y-97919415D01*
X175710775Y-97034940D01*
X175627092Y-96780759D01*
X175354525Y-96649862D01*
X175061658Y-96574655D01*
X174759747Y-96558029D01*
X174460393Y-96600623D01*
X174175101Y-96700798D01*
X174025508Y-96780759D01*
X173941825Y-97034940D01*
X173433037Y-97034940D01*
X173304805Y-96906708D01*
X173053395Y-96738721D01*
X172774043Y-96623009D01*
X172477484Y-96564020D01*
X172175116Y-96564020D01*
X171878557Y-96623009D01*
X171599205Y-96738721D01*
X171347795Y-96906708D01*
X171133988Y-97120515D01*
X170966001Y-97371925D01*
X170850289Y-97651277D01*
X170791300Y-97947836D01*
X155754160Y-97947836D01*
X155689901Y-97913489D01*
X155457102Y-97842870D01*
X155275665Y-97825000D01*
X154604335Y-97825000D01*
X154422898Y-97842870D01*
X154190099Y-97913489D01*
X153975551Y-98028167D01*
X153787498Y-98182498D01*
X153633167Y-98370551D01*
X153518489Y-98585099D01*
X153447870Y-98817898D01*
X153424025Y-99060000D01*
X148709920Y-99060000D01*
X148709920Y-96520000D01*
X153424025Y-96520000D01*
X153447870Y-96762102D01*
X153518489Y-96994901D01*
X153633167Y-97209449D01*
X153787498Y-97397502D01*
X153975551Y-97551833D01*
X154190099Y-97666511D01*
X154422898Y-97737130D01*
X154604335Y-97755000D01*
X155275665Y-97755000D01*
X155457102Y-97737130D01*
X155689901Y-97666511D01*
X155904449Y-97551833D01*
X156092502Y-97397502D01*
X156246833Y-97209449D01*
X156361511Y-96994901D01*
X156432130Y-96762102D01*
X156455975Y-96520000D01*
X156432130Y-96277898D01*
X156361511Y-96045099D01*
X156246833Y-95830551D01*
X156092502Y-95642498D01*
X155904449Y-95488167D01*
X155689901Y-95373489D01*
X155457102Y-95302870D01*
X155275665Y-95285000D01*
X154604335Y-95285000D01*
X154422898Y-95302870D01*
X154190099Y-95373489D01*
X153975551Y-95488167D01*
X153787498Y-95642498D01*
X153633167Y-95830551D01*
X153518489Y-96045099D01*
X153447870Y-96277898D01*
X153424025Y-96520000D01*
X148709920Y-96520000D01*
X148709920Y-93980000D01*
X153424025Y-93980000D01*
X153447870Y-94222102D01*
X153518489Y-94454901D01*
X153633167Y-94669449D01*
X153787498Y-94857502D01*
X153975551Y-95011833D01*
X154190099Y-95126511D01*
X154422898Y-95197130D01*
X154604335Y-95215000D01*
X155275665Y-95215000D01*
X155457102Y-95197130D01*
X155689901Y-95126511D01*
X155904449Y-95011833D01*
X156092502Y-94857502D01*
X156246833Y-94669449D01*
X156361511Y-94454901D01*
X156432130Y-94222102D01*
X156455975Y-93980000D01*
X156432130Y-93737898D01*
X156361511Y-93505099D01*
X156246833Y-93290551D01*
X156092502Y-93102498D01*
X155904449Y-92948167D01*
X155689901Y-92833489D01*
X155457102Y-92762870D01*
X155275665Y-92745000D01*
X154604335Y-92745000D01*
X154422898Y-92762870D01*
X154190099Y-92833489D01*
X153975551Y-92948167D01*
X153787498Y-93102498D01*
X153633167Y-93290551D01*
X153518489Y-93505099D01*
X153447870Y-93737898D01*
X153424025Y-93980000D01*
X148709920Y-93980000D01*
X148709920Y-91440000D01*
X153424025Y-91440000D01*
X153447870Y-91682102D01*
X153518489Y-91914901D01*
X153633167Y-92129449D01*
X153787498Y-92317502D01*
X153975551Y-92471833D01*
X154190099Y-92586511D01*
X154422898Y-92657130D01*
X154604335Y-92675000D01*
X155275665Y-92675000D01*
X155457102Y-92657130D01*
X155689901Y-92586511D01*
X155904449Y-92471833D01*
X156092502Y-92317502D01*
X156246833Y-92129449D01*
X156361511Y-91914901D01*
X156432130Y-91682102D01*
X156455975Y-91440000D01*
X156432130Y-91197898D01*
X156361511Y-90965099D01*
X156246833Y-90750551D01*
X156092502Y-90562498D01*
X155904449Y-90408167D01*
X155795690Y-90350034D01*
X166598300Y-90350034D01*
X166598300Y-90848006D01*
X166695450Y-91336410D01*
X166886015Y-91796477D01*
X167162674Y-92210526D01*
X167514794Y-92562646D01*
X167928843Y-92839305D01*
X168388910Y-93029870D01*
X168877314Y-93127020D01*
X169375286Y-93127020D01*
X169863690Y-93029870D01*
X170323757Y-92839305D01*
X170737806Y-92562646D01*
X171089926Y-92210526D01*
X171366585Y-91796477D01*
X171557150Y-91336410D01*
X171654300Y-90848006D01*
X171654300Y-90350034D01*
X177998300Y-90350034D01*
X177998300Y-90848006D01*
X178095450Y-91336410D01*
X178286015Y-91796477D01*
X178562674Y-92210526D01*
X178914794Y-92562646D01*
X179328843Y-92839305D01*
X179788910Y-93029870D01*
X180277314Y-93127020D01*
X180775286Y-93127020D01*
X181263690Y-93029870D01*
X181723757Y-92839305D01*
X182137806Y-92562646D01*
X182489926Y-92210526D01*
X182766585Y-91796477D01*
X182957150Y-91336410D01*
X183054300Y-90848006D01*
X183054300Y-90350034D01*
X182957150Y-89861630D01*
X182766585Y-89401563D01*
X182489926Y-88987514D01*
X182137806Y-88635394D01*
X181723757Y-88358735D01*
X181263690Y-88168170D01*
X180775286Y-88071020D01*
X180277314Y-88071020D01*
X179788910Y-88168170D01*
X179328843Y-88358735D01*
X178914794Y-88635394D01*
X178562674Y-88987514D01*
X178286015Y-89401563D01*
X178095450Y-89861630D01*
X177998300Y-90350034D01*
X171654300Y-90350034D01*
X171557150Y-89861630D01*
X171366585Y-89401563D01*
X171089926Y-88987514D01*
X170737806Y-88635394D01*
X170323757Y-88358735D01*
X169863690Y-88168170D01*
X169375286Y-88071020D01*
X168877314Y-88071020D01*
X168388910Y-88168170D01*
X167928843Y-88358735D01*
X167514794Y-88635394D01*
X167162674Y-88987514D01*
X166886015Y-89401563D01*
X166695450Y-89861630D01*
X166598300Y-90350034D01*
X155795690Y-90350034D01*
X155689901Y-90293489D01*
X155457102Y-90222870D01*
X155275665Y-90205000D01*
X154604335Y-90205000D01*
X154422898Y-90222870D01*
X154190099Y-90293489D01*
X153975551Y-90408167D01*
X153787498Y-90562498D01*
X153633167Y-90750551D01*
X153518489Y-90965099D01*
X153447870Y-91197898D01*
X153424025Y-91440000D01*
X148709920Y-91440000D01*
X148709920Y-88900000D01*
X153424025Y-88900000D01*
X153447870Y-89142102D01*
X153518489Y-89374901D01*
X153633167Y-89589449D01*
X153787498Y-89777502D01*
X153975551Y-89931833D01*
X154190099Y-90046511D01*
X154422898Y-90117130D01*
X154604335Y-90135000D01*
X155275665Y-90135000D01*
X155457102Y-90117130D01*
X155689901Y-90046511D01*
X155904449Y-89931833D01*
X156092502Y-89777502D01*
X156246833Y-89589449D01*
X156361511Y-89374901D01*
X156432130Y-89142102D01*
X156455975Y-88900000D01*
X156432130Y-88657898D01*
X156361511Y-88425099D01*
X156246833Y-88210551D01*
X156092502Y-88022498D01*
X155904449Y-87868167D01*
X155689901Y-87753489D01*
X155457102Y-87682870D01*
X155275665Y-87665000D01*
X154604335Y-87665000D01*
X154422898Y-87682870D01*
X154190099Y-87753489D01*
X153975551Y-87868167D01*
X153787498Y-88022498D01*
X153633167Y-88210551D01*
X153518489Y-88425099D01*
X153447870Y-88657898D01*
X153424025Y-88900000D01*
X148709920Y-88900000D01*
X148709920Y-86360000D01*
X153424025Y-86360000D01*
X153447870Y-86602102D01*
X153518489Y-86834901D01*
X153633167Y-87049449D01*
X153787498Y-87237502D01*
X153975551Y-87391833D01*
X154190099Y-87506511D01*
X154422898Y-87577130D01*
X154604335Y-87595000D01*
X155275665Y-87595000D01*
X155457102Y-87577130D01*
X155689901Y-87506511D01*
X155904449Y-87391833D01*
X156092502Y-87237502D01*
X156246833Y-87049449D01*
X156361511Y-86834901D01*
X156432130Y-86602102D01*
X156455975Y-86360000D01*
X156432130Y-86117898D01*
X156361511Y-85885099D01*
X156246833Y-85670551D01*
X156092502Y-85482498D01*
X155904449Y-85328167D01*
X155689901Y-85213489D01*
X155457102Y-85142870D01*
X155275665Y-85125000D01*
X154604335Y-85125000D01*
X154422898Y-85142870D01*
X154190099Y-85213489D01*
X153975551Y-85328167D01*
X153787498Y-85482498D01*
X153633167Y-85670551D01*
X153518489Y-85885099D01*
X153447870Y-86117898D01*
X153424025Y-86360000D01*
X148709920Y-86360000D01*
X148709920Y-86184871D01*
X148753857Y-86140934D01*
X148867125Y-85971416D01*
X148945146Y-85783058D01*
X148984920Y-85583099D01*
X148984920Y-85379221D01*
X148945146Y-85179262D01*
X148867125Y-84990904D01*
X148753857Y-84821386D01*
X148609694Y-84677223D01*
X148440176Y-84563955D01*
X148251818Y-84485934D01*
X148051859Y-84446160D01*
X147847981Y-84446160D01*
X147773340Y-84461007D01*
X147773340Y-84398781D01*
X147733566Y-84198822D01*
X147655545Y-84010464D01*
X147542277Y-83840946D01*
X147521331Y-83820000D01*
X153424025Y-83820000D01*
X153447870Y-84062102D01*
X153518489Y-84294901D01*
X153633167Y-84509449D01*
X153787498Y-84697502D01*
X153975551Y-84851833D01*
X154190099Y-84966511D01*
X154422898Y-85037130D01*
X154604335Y-85055000D01*
X155275665Y-85055000D01*
X155457102Y-85037130D01*
X155689901Y-84966511D01*
X155904449Y-84851833D01*
X156092502Y-84697502D01*
X156246833Y-84509449D01*
X156361511Y-84294901D01*
X156432130Y-84062102D01*
X156455975Y-83820000D01*
X156432130Y-83577898D01*
X156392677Y-83447836D01*
X170791300Y-83447836D01*
X170791300Y-83750204D01*
X170850289Y-84046763D01*
X170966001Y-84326115D01*
X171133988Y-84577525D01*
X171347795Y-84791332D01*
X171599205Y-84959319D01*
X171878557Y-85075031D01*
X172175116Y-85134020D01*
X172477484Y-85134020D01*
X172774043Y-85075031D01*
X173053395Y-84959319D01*
X173304805Y-84791332D01*
X173433037Y-84663100D01*
X176441825Y-84663100D01*
X176525508Y-84917281D01*
X176798075Y-85048178D01*
X177090942Y-85123385D01*
X177392853Y-85140011D01*
X177692207Y-85097417D01*
X177977499Y-84997242D01*
X178127092Y-84917281D01*
X178210775Y-84663100D01*
X177326300Y-83778625D01*
X176441825Y-84663100D01*
X173433037Y-84663100D01*
X173518612Y-84577525D01*
X173686599Y-84326115D01*
X173802311Y-84046763D01*
X173861300Y-83750204D01*
X173861300Y-83665573D01*
X175785309Y-83665573D01*
X175827903Y-83964927D01*
X175928078Y-84250219D01*
X176008039Y-84399812D01*
X176262220Y-84483495D01*
X177146695Y-83599020D01*
X177505905Y-83599020D01*
X178390380Y-84483495D01*
X178644561Y-84399812D01*
X178775458Y-84127245D01*
X178850665Y-83834378D01*
X178867291Y-83532467D01*
X178824697Y-83233113D01*
X178724522Y-82947821D01*
X178644561Y-82798228D01*
X178390380Y-82714545D01*
X177505905Y-83599020D01*
X177146695Y-83599020D01*
X176262220Y-82714545D01*
X176008039Y-82798228D01*
X175877142Y-83070795D01*
X175801935Y-83363662D01*
X175785309Y-83665573D01*
X173861300Y-83665573D01*
X173861300Y-83447836D01*
X173802311Y-83151277D01*
X173686599Y-82871925D01*
X173518612Y-82620515D01*
X173433037Y-82534940D01*
X176441825Y-82534940D01*
X177326300Y-83419415D01*
X178210775Y-82534940D01*
X178127092Y-82280759D01*
X177854525Y-82149862D01*
X177561658Y-82074655D01*
X177259747Y-82058029D01*
X176960393Y-82100623D01*
X176675101Y-82200798D01*
X176525508Y-82280759D01*
X176441825Y-82534940D01*
X173433037Y-82534940D01*
X173304805Y-82406708D01*
X173053395Y-82238721D01*
X172774043Y-82123009D01*
X172477484Y-82064020D01*
X172175116Y-82064020D01*
X171878557Y-82123009D01*
X171599205Y-82238721D01*
X171347795Y-82406708D01*
X171133988Y-82620515D01*
X170966001Y-82871925D01*
X170850289Y-83151277D01*
X170791300Y-83447836D01*
X156392677Y-83447836D01*
X156361511Y-83345099D01*
X156246833Y-83130551D01*
X156092502Y-82942498D01*
X155904449Y-82788167D01*
X155689901Y-82673489D01*
X155457102Y-82602870D01*
X155275665Y-82585000D01*
X154604335Y-82585000D01*
X154422898Y-82602870D01*
X154190099Y-82673489D01*
X153975551Y-82788167D01*
X153787498Y-82942498D01*
X153633167Y-83130551D01*
X153518489Y-83345099D01*
X153447870Y-83577898D01*
X153424025Y-83820000D01*
X147521331Y-83820000D01*
X147398114Y-83696783D01*
X147228596Y-83583515D01*
X147040238Y-83505494D01*
X146840279Y-83465720D01*
X146636401Y-83465720D01*
X146436442Y-83505494D01*
X146248084Y-83583515D01*
X146078566Y-83696783D01*
X145934403Y-83840946D01*
X145821135Y-84010464D01*
X145743114Y-84198822D01*
X145703340Y-84398781D01*
X145703340Y-84602659D01*
X145743114Y-84802618D01*
X145821135Y-84990976D01*
X145934403Y-85160494D01*
X145965641Y-85191732D01*
X145965641Y-85941611D01*
X145937783Y-85801559D01*
X145859762Y-85613201D01*
X145746494Y-85443683D01*
X145602331Y-85299520D01*
X145432813Y-85186252D01*
X145244455Y-85108231D01*
X145044496Y-85068457D01*
X144840618Y-85068457D01*
X144640659Y-85108231D01*
X144452301Y-85186252D01*
X144282783Y-85299520D01*
X144138620Y-85443683D01*
X144025352Y-85613201D01*
X143947331Y-85801559D01*
X143907557Y-86001518D01*
X143907557Y-86205396D01*
X143947331Y-86405355D01*
X144025352Y-86593713D01*
X144133212Y-86755138D01*
X144061542Y-86769394D01*
X143873184Y-86847415D01*
X143703666Y-86960683D01*
X143559503Y-87104846D01*
X143446235Y-87274364D01*
X143368214Y-87462722D01*
X143328440Y-87662681D01*
X143328440Y-87866559D01*
X143368214Y-88066518D01*
X143446235Y-88254876D01*
X143559503Y-88424394D01*
X143603440Y-88468331D01*
X143603441Y-96540477D01*
X132124609Y-108019310D01*
X129643001Y-108019310D01*
X129599064Y-107975373D01*
X129429546Y-107862105D01*
X129241188Y-107784084D01*
X129041229Y-107744310D01*
X128919673Y-107744310D01*
X128939986Y-107706307D01*
X128983443Y-107563046D01*
X128994440Y-107451393D01*
X128994440Y-107451383D01*
X128998116Y-107414060D01*
X128994440Y-107376737D01*
X128994440Y-103786781D01*
X129290922Y-103490300D01*
X134145798Y-103490300D01*
X134183120Y-103493976D01*
X134220442Y-103490300D01*
X134220453Y-103490300D01*
X134332106Y-103479303D01*
X134475367Y-103435846D01*
X134607396Y-103365274D01*
X134723121Y-103270301D01*
X134746923Y-103241298D01*
X135460004Y-102528218D01*
X135489001Y-102504421D01*
X135515332Y-102472337D01*
X135583974Y-102388697D01*
X135654546Y-102256667D01*
X135660136Y-102238240D01*
X135698003Y-102113406D01*
X135709000Y-102001753D01*
X135709000Y-102001743D01*
X135712676Y-101964420D01*
X135709000Y-101927097D01*
X135709000Y-81612401D01*
X139233960Y-81612401D01*
X139233960Y-81816279D01*
X139273734Y-82016238D01*
X139351755Y-82204596D01*
X139465023Y-82374114D01*
X139609186Y-82518277D01*
X139778704Y-82631545D01*
X139967062Y-82709566D01*
X140167021Y-82749340D01*
X140370899Y-82749340D01*
X140570858Y-82709566D01*
X140759216Y-82631545D01*
X140928734Y-82518277D01*
X141072897Y-82374114D01*
X141186165Y-82204596D01*
X141264186Y-82016238D01*
X141303960Y-81816279D01*
X141303960Y-81789497D01*
X141813457Y-81280000D01*
X153424025Y-81280000D01*
X153447870Y-81522102D01*
X153518489Y-81754901D01*
X153633167Y-81969449D01*
X153787498Y-82157502D01*
X153975551Y-82311833D01*
X154190099Y-82426511D01*
X154422898Y-82497130D01*
X154604335Y-82515000D01*
X155275665Y-82515000D01*
X155457102Y-82497130D01*
X155689901Y-82426511D01*
X155904449Y-82311833D01*
X156092502Y-82157502D01*
X156246833Y-81969449D01*
X156361511Y-81754901D01*
X156432130Y-81522102D01*
X156455975Y-81280000D01*
X156432130Y-81037898D01*
X156361511Y-80805099D01*
X156246833Y-80590551D01*
X156092502Y-80402498D01*
X155904449Y-80248167D01*
X155689901Y-80133489D01*
X155457102Y-80062870D01*
X155275665Y-80045000D01*
X154604335Y-80045000D01*
X154422898Y-80062870D01*
X154190099Y-80133489D01*
X153975551Y-80248167D01*
X153787498Y-80402498D01*
X153633167Y-80590551D01*
X153518489Y-80805099D01*
X153447870Y-81037898D01*
X153424025Y-81280000D01*
X141813457Y-81280000D01*
X142788137Y-80305321D01*
X142818084Y-80280744D01*
X142916182Y-80161213D01*
X142989074Y-80024840D01*
X143033961Y-79876867D01*
X143045320Y-79761541D01*
X143045320Y-79761534D01*
X143049117Y-79722981D01*
X143045320Y-79684428D01*
X143045320Y-76362221D01*
X170069560Y-76362221D01*
X170069560Y-76566099D01*
X170109334Y-76766058D01*
X170187355Y-76954416D01*
X170300623Y-77123934D01*
X170444786Y-77268097D01*
X170614304Y-77381365D01*
X170802662Y-77459386D01*
X171002621Y-77499160D01*
X171206499Y-77499160D01*
X171406458Y-77459386D01*
X171594816Y-77381365D01*
X171764334Y-77268097D01*
X171908497Y-77123934D01*
X172021765Y-76954416D01*
X172099786Y-76766058D01*
X172139560Y-76566099D01*
X172139560Y-76539317D01*
X172658537Y-76020341D01*
X172688484Y-75995764D01*
X172786582Y-75876233D01*
X172859474Y-75739860D01*
X172904361Y-75591887D01*
X172915720Y-75476561D01*
X172915720Y-75476554D01*
X172919517Y-75438001D01*
X172915720Y-75399448D01*
X172915720Y-73389419D01*
X180183000Y-73389419D01*
X180183000Y-73770581D01*
X180257361Y-74144419D01*
X180403225Y-74496566D01*
X180614987Y-74813491D01*
X180884509Y-75083013D01*
X181201434Y-75294775D01*
X181553581Y-75440639D01*
X181927419Y-75515000D01*
X182308581Y-75515000D01*
X182682419Y-75440639D01*
X183034566Y-75294775D01*
X183351491Y-75083013D01*
X183621013Y-74813491D01*
X183832775Y-74496566D01*
X183978639Y-74144419D01*
X184053000Y-73770581D01*
X184053000Y-73389419D01*
X183978639Y-73015581D01*
X183832775Y-72663434D01*
X183621013Y-72346509D01*
X183351491Y-72076987D01*
X183034566Y-71865225D01*
X182682419Y-71719361D01*
X182308581Y-71645000D01*
X181927419Y-71645000D01*
X181553581Y-71719361D01*
X181201434Y-71865225D01*
X180884509Y-72076987D01*
X180614987Y-72346509D01*
X180403225Y-72663434D01*
X180257361Y-73015581D01*
X180183000Y-73389419D01*
X172915720Y-73389419D01*
X172915720Y-71965857D01*
X175516578Y-69365000D01*
X180179928Y-69365000D01*
X180179928Y-69880000D01*
X180192188Y-70004482D01*
X180228498Y-70124180D01*
X180287463Y-70234494D01*
X180366815Y-70331185D01*
X180463506Y-70410537D01*
X180573820Y-70469502D01*
X180693518Y-70505812D01*
X180818000Y-70518072D01*
X183418000Y-70518072D01*
X183542482Y-70505812D01*
X183662180Y-70469502D01*
X183772494Y-70410537D01*
X183869185Y-70331185D01*
X183948537Y-70234494D01*
X184007502Y-70124180D01*
X184043812Y-70004482D01*
X184056072Y-69880000D01*
X184056072Y-67280000D01*
X184043812Y-67155518D01*
X184007502Y-67035820D01*
X183948537Y-66925506D01*
X183869185Y-66828815D01*
X183772494Y-66749463D01*
X183662180Y-66690498D01*
X183542482Y-66654188D01*
X183418000Y-66641928D01*
X180818000Y-66641928D01*
X180693518Y-66654188D01*
X180573820Y-66690498D01*
X180463506Y-66749463D01*
X180366815Y-66828815D01*
X180287463Y-66925506D01*
X180228498Y-67035820D01*
X180192188Y-67155518D01*
X180179928Y-67280000D01*
X180179928Y-67795000D01*
X175229972Y-67795000D01*
X175191419Y-67791203D01*
X175152866Y-67795000D01*
X175152859Y-67795000D01*
X175051910Y-67804943D01*
X175037532Y-67806359D01*
X175003092Y-67816806D01*
X174889560Y-67851246D01*
X174753187Y-67924138D01*
X174727799Y-67944974D01*
X174663607Y-67997655D01*
X174663604Y-67997658D01*
X174633656Y-68022236D01*
X174609078Y-68052184D01*
X171602905Y-71058358D01*
X171572957Y-71082936D01*
X171548379Y-71112884D01*
X171548375Y-71112888D01*
X171515410Y-71153056D01*
X171474859Y-71202467D01*
X171460595Y-71229154D01*
X171401966Y-71338841D01*
X171357079Y-71486814D01*
X171341923Y-71640700D01*
X171345721Y-71679263D01*
X171345720Y-75112842D01*
X171029403Y-75429160D01*
X171002621Y-75429160D01*
X170802662Y-75468934D01*
X170614304Y-75546955D01*
X170444786Y-75660223D01*
X170300623Y-75804386D01*
X170187355Y-75973904D01*
X170109334Y-76162262D01*
X170069560Y-76362221D01*
X143045320Y-76362221D01*
X143045320Y-63134292D01*
X143560320Y-63134292D01*
X143684802Y-63122032D01*
X143804500Y-63085722D01*
X143914814Y-63026757D01*
X144011505Y-62947405D01*
X144090857Y-62850714D01*
X144149822Y-62740400D01*
X144186132Y-62620702D01*
X144198392Y-62496220D01*
X144198392Y-61005639D01*
X145325320Y-61005639D01*
X145325320Y-61386801D01*
X145399681Y-61760639D01*
X145545545Y-62112786D01*
X145757307Y-62429711D01*
X146026829Y-62699233D01*
X146343754Y-62910995D01*
X146695901Y-63056859D01*
X147069739Y-63131220D01*
X147450901Y-63131220D01*
X147824739Y-63056859D01*
X148176886Y-62910995D01*
X148493811Y-62699233D01*
X148763333Y-62429711D01*
X148975095Y-62112786D01*
X149120959Y-61760639D01*
X149195320Y-61386801D01*
X149195320Y-61005639D01*
X149120959Y-60631801D01*
X148975095Y-60279654D01*
X148763333Y-59962729D01*
X148727304Y-59926700D01*
X158155588Y-59926700D01*
X158155588Y-62526700D01*
X158167848Y-62651182D01*
X158204158Y-62770880D01*
X158263123Y-62881194D01*
X158342475Y-62977885D01*
X158439166Y-63057237D01*
X158549480Y-63116202D01*
X158669178Y-63152512D01*
X158793660Y-63164772D01*
X161393660Y-63164772D01*
X161518142Y-63152512D01*
X161637840Y-63116202D01*
X161748154Y-63057237D01*
X161844845Y-62977885D01*
X161924197Y-62881194D01*
X161983162Y-62770880D01*
X162019472Y-62651182D01*
X162031732Y-62526700D01*
X162031732Y-61036119D01*
X163158660Y-61036119D01*
X163158660Y-61417281D01*
X163233021Y-61791119D01*
X163378885Y-62143266D01*
X163590647Y-62460191D01*
X163860169Y-62729713D01*
X164177094Y-62941475D01*
X164529241Y-63087339D01*
X164903079Y-63161700D01*
X165284241Y-63161700D01*
X165658079Y-63087339D01*
X166010226Y-62941475D01*
X166327151Y-62729713D01*
X166596673Y-62460191D01*
X166808435Y-62143266D01*
X166954299Y-61791119D01*
X167028660Y-61417281D01*
X167028660Y-61036119D01*
X166954299Y-60662281D01*
X166808435Y-60310134D01*
X166596673Y-59993209D01*
X166327151Y-59723687D01*
X166010226Y-59511925D01*
X165658079Y-59366061D01*
X165593161Y-59353148D01*
X180856457Y-59353148D01*
X181132627Y-59771118D01*
X181677557Y-60061649D01*
X182268696Y-60240287D01*
X182883328Y-60300168D01*
X183497831Y-60238990D01*
X184088592Y-60059103D01*
X184627373Y-59771118D01*
X184903543Y-59353148D01*
X182880000Y-57329605D01*
X180856457Y-59353148D01*
X165593161Y-59353148D01*
X165284241Y-59291700D01*
X164903079Y-59291700D01*
X164529241Y-59366061D01*
X164177094Y-59511925D01*
X163860169Y-59723687D01*
X163590647Y-59993209D01*
X163378885Y-60310134D01*
X163233021Y-60662281D01*
X163158660Y-61036119D01*
X162031732Y-61036119D01*
X162031732Y-59926700D01*
X162019472Y-59802218D01*
X161983162Y-59682520D01*
X161924197Y-59572206D01*
X161844845Y-59475515D01*
X161748154Y-59396163D01*
X161637840Y-59337198D01*
X161518142Y-59300888D01*
X161393660Y-59288628D01*
X158793660Y-59288628D01*
X158669178Y-59300888D01*
X158549480Y-59337198D01*
X158439166Y-59396163D01*
X158342475Y-59475515D01*
X158263123Y-59572206D01*
X158204158Y-59682520D01*
X158167848Y-59802218D01*
X158155588Y-59926700D01*
X148727304Y-59926700D01*
X148493811Y-59693207D01*
X148176886Y-59481445D01*
X147824739Y-59335581D01*
X147450901Y-59261220D01*
X147069739Y-59261220D01*
X146695901Y-59335581D01*
X146343754Y-59481445D01*
X146026829Y-59693207D01*
X145757307Y-59962729D01*
X145545545Y-60279654D01*
X145399681Y-60631801D01*
X145325320Y-61005639D01*
X144198392Y-61005639D01*
X144198392Y-59896220D01*
X144186132Y-59771738D01*
X144149822Y-59652040D01*
X144090857Y-59541726D01*
X144011505Y-59445035D01*
X143914814Y-59365683D01*
X143804500Y-59306718D01*
X143684802Y-59270408D01*
X143560320Y-59258148D01*
X140960320Y-59258148D01*
X140835838Y-59270408D01*
X140716140Y-59306718D01*
X140605826Y-59365683D01*
X140509135Y-59445035D01*
X140429783Y-59541726D01*
X140370818Y-59652040D01*
X140334508Y-59771738D01*
X140322248Y-59896220D01*
X140322248Y-62496220D01*
X140334508Y-62620702D01*
X140370818Y-62740400D01*
X140429783Y-62850714D01*
X140509135Y-62947405D01*
X140605826Y-63026757D01*
X140716140Y-63085722D01*
X140835838Y-63122032D01*
X140960320Y-63134292D01*
X141475321Y-63134292D01*
X141475320Y-79397822D01*
X140193803Y-80679340D01*
X140167021Y-80679340D01*
X139967062Y-80719114D01*
X139778704Y-80797135D01*
X139609186Y-80910403D01*
X139465023Y-81054566D01*
X139351755Y-81224084D01*
X139273734Y-81412442D01*
X139233960Y-81612401D01*
X135709000Y-81612401D01*
X135709000Y-81540121D01*
X136641002Y-80608120D01*
X136703139Y-80608120D01*
X136903098Y-80568346D01*
X137091456Y-80490325D01*
X137260974Y-80377057D01*
X137405137Y-80232894D01*
X137518405Y-80063376D01*
X137596426Y-79875018D01*
X137636200Y-79675059D01*
X137636200Y-79471181D01*
X137596426Y-79271222D01*
X137518405Y-79082864D01*
X137405137Y-78913346D01*
X137260974Y-78769183D01*
X137091456Y-78655915D01*
X136903098Y-78577894D01*
X136703139Y-78538120D01*
X136499261Y-78538120D01*
X136299302Y-78577894D01*
X136110944Y-78655915D01*
X136048782Y-78697451D01*
X135922394Y-78571063D01*
X135752876Y-78457795D01*
X135564518Y-78379774D01*
X135364559Y-78340000D01*
X135160681Y-78340000D01*
X134960722Y-78379774D01*
X134772364Y-78457795D01*
X134663000Y-78530869D01*
X134654934Y-78522803D01*
X134485416Y-78409535D01*
X134297058Y-78331514D01*
X134097099Y-78291740D01*
X133893221Y-78291740D01*
X133693262Y-78331514D01*
X133504904Y-78409535D01*
X133335386Y-78522803D01*
X133191223Y-78666966D01*
X133077955Y-78836484D01*
X132999934Y-79024842D01*
X132960160Y-79224801D01*
X132960160Y-79302179D01*
X132905038Y-79357301D01*
X132876040Y-79381099D01*
X132852242Y-79410097D01*
X132852241Y-79410098D01*
X132781066Y-79496824D01*
X132710494Y-79628854D01*
X132692649Y-79687685D01*
X132667038Y-79772114D01*
X132659073Y-79852983D01*
X132652364Y-79921100D01*
X132656041Y-79958433D01*
X132656040Y-99933918D01*
X132417979Y-100171980D01*
X126755393Y-100171980D01*
X126718060Y-100168303D01*
X126680727Y-100171980D01*
X126569074Y-100182977D01*
X126425813Y-100226434D01*
X126293784Y-100297006D01*
X126178059Y-100391979D01*
X126154261Y-100420978D01*
X125424738Y-101150501D01*
X125395740Y-101174299D01*
X125371942Y-101203297D01*
X125371941Y-101203298D01*
X125300766Y-101290024D01*
X125230194Y-101422054D01*
X125203586Y-101509772D01*
X125186738Y-101565314D01*
X125185261Y-101580306D01*
X125172064Y-101714300D01*
X125175741Y-101751632D01*
X125175740Y-106144217D01*
X123317839Y-108002120D01*
X123268401Y-108002120D01*
X123068442Y-108041894D01*
X122880084Y-108119915D01*
X122710566Y-108233183D01*
X122566403Y-108377346D01*
X122453135Y-108546864D01*
X122375114Y-108735222D01*
X122335340Y-108935181D01*
X121348640Y-108935181D01*
X121348640Y-108864437D01*
X124324877Y-105888201D01*
X124354824Y-105863624D01*
X124384870Y-105827014D01*
X124403510Y-105804301D01*
X124452922Y-105744093D01*
X124525814Y-105607720D01*
X124570701Y-105459747D01*
X124582060Y-105344421D01*
X124582060Y-105344414D01*
X124585857Y-105305861D01*
X124582060Y-105267308D01*
X124582060Y-102918791D01*
X124600997Y-102899854D01*
X124714265Y-102730336D01*
X124792286Y-102541978D01*
X124832060Y-102342019D01*
X124832060Y-102138141D01*
X124792286Y-101938182D01*
X124714265Y-101749824D01*
X124600997Y-101580306D01*
X124456834Y-101436143D01*
X124287316Y-101322875D01*
X124098958Y-101244854D01*
X123898999Y-101205080D01*
X123695121Y-101205080D01*
X123495162Y-101244854D01*
X123306804Y-101322875D01*
X123137286Y-101436143D01*
X122993123Y-101580306D01*
X122879855Y-101749824D01*
X122801834Y-101938182D01*
X122762060Y-102138141D01*
X122762060Y-102342019D01*
X122801834Y-102541978D01*
X122879855Y-102730336D01*
X122993123Y-102899854D01*
X123012061Y-102918792D01*
X123012060Y-104980702D01*
X120035825Y-107956938D01*
X120005877Y-107981516D01*
X119981299Y-108011464D01*
X119981295Y-108011468D01*
X119958212Y-108039595D01*
X119907779Y-108101047D01*
X119874631Y-108163063D01*
X119834886Y-108237421D01*
X119789999Y-108385394D01*
X119774843Y-108539280D01*
X117383941Y-108539280D01*
X118340982Y-107582240D01*
X118653429Y-107582240D01*
X118697366Y-107626177D01*
X118866884Y-107739445D01*
X119055242Y-107817466D01*
X119255201Y-107857240D01*
X119459079Y-107857240D01*
X119659038Y-107817466D01*
X119847396Y-107739445D01*
X120016914Y-107626177D01*
X120161077Y-107482014D01*
X120274345Y-107312496D01*
X120352366Y-107124138D01*
X120392140Y-106924179D01*
X120392140Y-106720301D01*
X120352366Y-106520342D01*
X120274345Y-106331984D01*
X120161077Y-106162466D01*
X120016914Y-106018303D01*
X119847396Y-105905035D01*
X119659038Y-105827014D01*
X119459079Y-105787240D01*
X119255201Y-105787240D01*
X119055242Y-105827014D01*
X118866884Y-105905035D01*
X118697366Y-106018303D01*
X118653429Y-106062240D01*
X118063502Y-106062240D01*
X118026179Y-106058564D01*
X117988856Y-106062240D01*
X117988847Y-106062240D01*
X117877194Y-106073237D01*
X117733933Y-106116694D01*
X117601903Y-106187266D01*
X117518263Y-106255908D01*
X117486179Y-106282239D01*
X117462381Y-106311237D01*
X114787218Y-108986401D01*
X114758220Y-109010199D01*
X114734422Y-109039197D01*
X114734421Y-109039198D01*
X114663246Y-109125924D01*
X114592674Y-109257954D01*
X114549218Y-109401215D01*
X114534544Y-109550200D01*
X114538221Y-109587532D01*
X114538220Y-114231578D01*
X114208719Y-114561080D01*
X107011846Y-114561080D01*
X106890009Y-114439243D01*
X106866206Y-114410239D01*
X106750481Y-114315266D01*
X106618452Y-114244694D01*
X106475244Y-114201253D01*
X106420294Y-114146303D01*
X106250776Y-114033035D01*
X106062418Y-113955014D01*
X105862459Y-113915240D01*
X105658581Y-113915240D01*
X105458622Y-113955014D01*
X105270264Y-114033035D01*
X105100746Y-114146303D01*
X104956583Y-114290466D01*
X104843315Y-114459984D01*
X104826880Y-114499661D01*
X104826880Y-112547061D01*
X105182720Y-112547061D01*
X105182720Y-112750939D01*
X105222494Y-112950898D01*
X105300515Y-113139256D01*
X105413783Y-113308774D01*
X105557946Y-113452937D01*
X105727464Y-113566205D01*
X105915822Y-113644226D01*
X106115781Y-113684000D01*
X106193187Y-113684000D01*
X106194764Y-113685294D01*
X106326793Y-113755866D01*
X106470054Y-113799323D01*
X106581707Y-113810320D01*
X106581716Y-113810320D01*
X106619039Y-113813996D01*
X106656362Y-113810320D01*
X112552349Y-113810320D01*
X112596286Y-113854257D01*
X112765804Y-113967525D01*
X112954162Y-114045546D01*
X113154121Y-114085320D01*
X113357999Y-114085320D01*
X113557958Y-114045546D01*
X113746316Y-113967525D01*
X113915834Y-113854257D01*
X114059997Y-113710094D01*
X114173265Y-113540576D01*
X114251286Y-113352218D01*
X114291060Y-113152259D01*
X114291060Y-112948381D01*
X114251286Y-112748422D01*
X114173265Y-112560064D01*
X114059997Y-112390546D01*
X113915834Y-112246383D01*
X113746316Y-112133115D01*
X113557958Y-112055094D01*
X113357999Y-112015320D01*
X113154121Y-112015320D01*
X112954162Y-112055094D01*
X112765804Y-112133115D01*
X112596286Y-112246383D01*
X112552349Y-112290320D01*
X107189426Y-112290320D01*
X107134925Y-112158744D01*
X107021657Y-111989226D01*
X106877494Y-111845063D01*
X106707976Y-111731795D01*
X106519618Y-111653774D01*
X106319659Y-111614000D01*
X106115781Y-111614000D01*
X105915822Y-111653774D01*
X105727464Y-111731795D01*
X105557946Y-111845063D01*
X105413783Y-111989226D01*
X105300515Y-112158744D01*
X105222494Y-112347102D01*
X105182720Y-112547061D01*
X104826880Y-112547061D01*
X104826880Y-111102958D01*
X108865090Y-107064748D01*
X108898857Y-107037037D01*
X108930057Y-106999021D01*
X109009451Y-106902279D01*
X109091629Y-106748534D01*
X109142235Y-106581710D01*
X109145204Y-106551563D01*
X109155040Y-106451697D01*
X109155040Y-106451689D01*
X109159321Y-106408220D01*
X109155040Y-106364751D01*
X109155040Y-103857325D01*
X109345839Y-103666526D01*
X109497411Y-103439683D01*
X109601815Y-103187629D01*
X109655040Y-102920051D01*
X109655040Y-102647229D01*
X109601815Y-102379651D01*
X109497411Y-102127597D01*
X109345839Y-101900754D01*
X109152926Y-101707841D01*
X108926083Y-101556269D01*
X108674029Y-101451865D01*
X108406451Y-101398640D01*
X108133629Y-101398640D01*
X107866051Y-101451865D01*
X107613997Y-101556269D01*
X107387154Y-101707841D01*
X107194241Y-101900754D01*
X107042669Y-102127597D01*
X106938265Y-102379651D01*
X106885040Y-102647229D01*
X106885040Y-102920051D01*
X106938265Y-103187629D01*
X107042669Y-103439683D01*
X107194241Y-103666526D01*
X107385041Y-103857326D01*
X107385040Y-106041641D01*
X103346831Y-110079850D01*
X103313064Y-110107563D01*
X103285351Y-110141331D01*
X103285348Y-110141334D01*
X103202470Y-110242321D01*
X103120292Y-110396067D01*
X103069685Y-110562890D01*
X103052599Y-110736380D01*
X93472000Y-110736380D01*
X93472000Y-108081741D01*
X100648820Y-108081741D01*
X100648820Y-108285619D01*
X100688594Y-108485578D01*
X100766615Y-108673936D01*
X100879883Y-108843454D01*
X101024046Y-108987617D01*
X101193564Y-109100885D01*
X101381922Y-109178906D01*
X101581881Y-109218680D01*
X101785759Y-109218680D01*
X101985718Y-109178906D01*
X102174076Y-109100885D01*
X102343594Y-108987617D01*
X102487757Y-108843454D01*
X102601025Y-108673936D01*
X102679046Y-108485578D01*
X102718820Y-108285619D01*
X102718820Y-108188126D01*
X103127793Y-107779154D01*
X103155838Y-107756138D01*
X103247687Y-107644220D01*
X103286694Y-107571243D01*
X103315937Y-107516534D01*
X103357965Y-107377985D01*
X103372156Y-107233900D01*
X103368600Y-107197795D01*
X103368600Y-106308931D01*
X103437537Y-106239994D01*
X103550805Y-106070476D01*
X103628826Y-105882118D01*
X103668600Y-105682159D01*
X103668600Y-105478281D01*
X103628826Y-105278322D01*
X103550805Y-105089964D01*
X103437537Y-104920446D01*
X103293374Y-104776283D01*
X103123856Y-104663015D01*
X102935498Y-104584994D01*
X102735539Y-104545220D01*
X102531661Y-104545220D01*
X102331702Y-104584994D01*
X102143344Y-104663015D01*
X101973826Y-104776283D01*
X101829663Y-104920446D01*
X101716395Y-105089964D01*
X101638374Y-105278322D01*
X101598600Y-105478281D01*
X101598600Y-105682159D01*
X101638374Y-105882118D01*
X101716395Y-106070476D01*
X101829663Y-106239994D01*
X101898600Y-106308931D01*
X101898601Y-106929453D01*
X101679374Y-107148680D01*
X101581881Y-107148680D01*
X101381922Y-107188454D01*
X101193564Y-107266475D01*
X101024046Y-107379743D01*
X100879883Y-107523906D01*
X100766615Y-107693424D01*
X100688594Y-107881782D01*
X100648820Y-108081741D01*
X93472000Y-108081741D01*
X93472000Y-83035140D01*
X94139739Y-83035140D01*
X94144020Y-83078609D01*
X94144021Y-100985021D01*
X94139739Y-101028500D01*
X94156825Y-101201990D01*
X94207432Y-101368813D01*
X94289610Y-101522559D01*
X94372488Y-101623546D01*
X94372491Y-101623549D01*
X94400204Y-101657317D01*
X94433971Y-101685029D01*
X95063370Y-102314429D01*
X95091083Y-102348197D01*
X95124851Y-102375910D01*
X95124853Y-102375912D01*
X95140432Y-102388697D01*
X95225841Y-102458791D01*
X95379587Y-102540969D01*
X95546410Y-102591575D01*
X95676423Y-102604380D01*
X95676431Y-102604380D01*
X95719900Y-102608661D01*
X95763369Y-102604380D01*
X100774211Y-102604380D01*
X100817680Y-102608661D01*
X100861149Y-102604380D01*
X100861157Y-102604380D01*
X100991170Y-102591575D01*
X101157993Y-102540969D01*
X101311739Y-102458791D01*
X101446497Y-102348197D01*
X101474214Y-102314424D01*
X103592179Y-100196460D01*
X107568182Y-100196460D01*
X108820010Y-101448289D01*
X108847723Y-101482057D01*
X108881491Y-101509770D01*
X108881493Y-101509772D01*
X108925503Y-101545890D01*
X108982481Y-101592651D01*
X109136227Y-101674829D01*
X109303050Y-101725435D01*
X109433063Y-101738240D01*
X109433073Y-101738240D01*
X109476539Y-101742521D01*
X109520005Y-101738240D01*
X117785615Y-101738240D01*
X117976414Y-101929039D01*
X118203257Y-102080611D01*
X118455311Y-102185015D01*
X118722889Y-102238240D01*
X118995711Y-102238240D01*
X119263289Y-102185015D01*
X119515343Y-102080611D01*
X119742186Y-101929039D01*
X119932985Y-101738240D01*
X121848591Y-101738240D01*
X121892060Y-101742521D01*
X121935529Y-101738240D01*
X121935537Y-101738240D01*
X122065550Y-101725435D01*
X122232373Y-101674829D01*
X122386119Y-101592651D01*
X122520877Y-101482057D01*
X122548594Y-101448284D01*
X123721550Y-100275329D01*
X123755317Y-100247617D01*
X123789053Y-100206511D01*
X123865911Y-100112859D01*
X123872926Y-100099734D01*
X123948089Y-99959113D01*
X123998695Y-99792290D01*
X124011500Y-99662277D01*
X124011500Y-99662269D01*
X124015781Y-99618800D01*
X124011500Y-99575331D01*
X124011500Y-91453150D01*
X124015781Y-91409681D01*
X124011500Y-91366212D01*
X124011500Y-91366204D01*
X123998695Y-91236191D01*
X123948089Y-91069368D01*
X123948089Y-91069367D01*
X123865911Y-90915622D01*
X123783032Y-90814635D01*
X123755317Y-90780864D01*
X123721544Y-90753147D01*
X123257956Y-90289559D01*
X123257951Y-90289553D01*
X123236420Y-90268022D01*
X123236420Y-89998190D01*
X123183195Y-89730612D01*
X123170780Y-89700640D01*
X130716798Y-89700640D01*
X130754120Y-89704316D01*
X130791442Y-89700640D01*
X130791453Y-89700640D01*
X130903106Y-89689643D01*
X131046367Y-89646186D01*
X131178396Y-89575614D01*
X131294121Y-89480641D01*
X131317924Y-89451638D01*
X132220163Y-88549399D01*
X132249161Y-88525601D01*
X132344134Y-88409876D01*
X132414706Y-88277847D01*
X132458163Y-88134586D01*
X132469160Y-88022933D01*
X132472837Y-87985600D01*
X132469160Y-87948267D01*
X132469160Y-74982563D01*
X132472836Y-74945240D01*
X132469160Y-74907917D01*
X132469160Y-74907907D01*
X132458163Y-74796254D01*
X132414706Y-74652993D01*
X132344135Y-74520965D01*
X132344134Y-74520963D01*
X132272959Y-74434237D01*
X132249161Y-74405239D01*
X132220164Y-74381442D01*
X131259504Y-73420782D01*
X131235701Y-73391779D01*
X131119976Y-73296806D01*
X130987947Y-73226234D01*
X130844686Y-73182777D01*
X130733033Y-73171780D01*
X130733022Y-73171780D01*
X130695700Y-73168104D01*
X130658378Y-73171780D01*
X129639191Y-73171780D01*
X129595254Y-73127843D01*
X129425736Y-73014575D01*
X129237378Y-72936554D01*
X129037419Y-72896780D01*
X128833541Y-72896780D01*
X128633582Y-72936554D01*
X128445224Y-73014575D01*
X128275706Y-73127843D01*
X128131543Y-73272006D01*
X128018275Y-73441524D01*
X127940254Y-73629882D01*
X127900480Y-73829841D01*
X127900480Y-74033719D01*
X127940254Y-74233678D01*
X128018275Y-74422036D01*
X128131543Y-74591554D01*
X128198058Y-74658069D01*
X128112484Y-74693515D01*
X127942966Y-74806783D01*
X127798803Y-74950946D01*
X127685535Y-75120464D01*
X127607514Y-75308822D01*
X127567740Y-75508781D01*
X127567740Y-75712659D01*
X127607514Y-75912618D01*
X127685535Y-76100976D01*
X127798803Y-76270494D01*
X127812489Y-76284180D01*
X127777204Y-76298795D01*
X127607686Y-76412063D01*
X127463523Y-76556226D01*
X127350255Y-76725744D01*
X127272234Y-76914102D01*
X127232460Y-77114061D01*
X127232460Y-77317939D01*
X127272234Y-77517898D01*
X127350255Y-77706256D01*
X127415131Y-77803351D01*
X127294604Y-77853275D01*
X127125086Y-77966543D01*
X126980923Y-78110706D01*
X126867655Y-78280224D01*
X126789634Y-78468582D01*
X126749860Y-78668541D01*
X126749860Y-78872419D01*
X126789634Y-79072378D01*
X126867655Y-79260736D01*
X126980923Y-79430254D01*
X127125086Y-79574417D01*
X127294604Y-79687685D01*
X127482962Y-79765706D01*
X127682921Y-79805480D01*
X127886799Y-79805480D01*
X128086758Y-79765706D01*
X128275116Y-79687685D01*
X128444634Y-79574417D01*
X128488571Y-79530480D01*
X128813719Y-79530480D01*
X129008600Y-79725362D01*
X129008600Y-80106863D01*
X128912656Y-80042755D01*
X128724298Y-79964734D01*
X128524339Y-79924960D01*
X128320461Y-79924960D01*
X128120502Y-79964734D01*
X127932144Y-80042755D01*
X127762626Y-80156023D01*
X127618463Y-80300186D01*
X127563236Y-80382840D01*
X120585902Y-80382840D01*
X120592800Y-80348159D01*
X120592800Y-80144281D01*
X120553026Y-79944322D01*
X120475005Y-79755964D01*
X120361737Y-79586446D01*
X120217574Y-79442283D01*
X120048056Y-79329015D01*
X119859698Y-79250994D01*
X119659739Y-79211220D01*
X119455861Y-79211220D01*
X119255902Y-79250994D01*
X119067544Y-79329015D01*
X118898026Y-79442283D01*
X118854089Y-79486220D01*
X116166122Y-79486220D01*
X116128799Y-79482544D01*
X116091476Y-79486220D01*
X116091467Y-79486220D01*
X115979814Y-79497217D01*
X115870159Y-79530480D01*
X115836553Y-79540674D01*
X115704523Y-79611246D01*
X115644684Y-79660355D01*
X115588799Y-79706219D01*
X115565001Y-79735217D01*
X115217778Y-80082440D01*
X115155641Y-80082440D01*
X114955682Y-80122214D01*
X114767324Y-80200235D01*
X114597806Y-80313503D01*
X114453643Y-80457666D01*
X114451618Y-80460696D01*
X114297496Y-80357715D01*
X114109138Y-80279694D01*
X113909179Y-80239920D01*
X113705301Y-80239920D01*
X113505342Y-80279694D01*
X113316984Y-80357715D01*
X113147466Y-80470983D01*
X113003303Y-80615146D01*
X112890035Y-80784664D01*
X112812014Y-80973022D01*
X112772240Y-81172981D01*
X112772240Y-81376859D01*
X112812014Y-81576818D01*
X112890035Y-81765176D01*
X113003303Y-81934694D01*
X113147466Y-82078857D01*
X113201738Y-82115120D01*
X106154062Y-82115120D01*
X102586060Y-78547119D01*
X102586060Y-77781021D01*
X105862380Y-77781021D01*
X105862380Y-77984899D01*
X105902154Y-78184858D01*
X105980175Y-78373216D01*
X106093443Y-78542734D01*
X106112380Y-78561671D01*
X106112381Y-80269608D01*
X106093443Y-80288546D01*
X105980175Y-80458064D01*
X105902154Y-80646422D01*
X105862380Y-80846381D01*
X105862380Y-81050259D01*
X105902154Y-81250218D01*
X105980175Y-81438576D01*
X106093443Y-81608094D01*
X106237606Y-81752257D01*
X106407124Y-81865525D01*
X106595482Y-81943546D01*
X106795441Y-81983320D01*
X106999319Y-81983320D01*
X107199278Y-81943546D01*
X107387636Y-81865525D01*
X107557154Y-81752257D01*
X107701317Y-81608094D01*
X107814585Y-81438576D01*
X107892606Y-81250218D01*
X107932380Y-81050259D01*
X107932380Y-80846381D01*
X107892606Y-80646422D01*
X107814585Y-80458064D01*
X107701317Y-80288546D01*
X107682380Y-80269609D01*
X107682380Y-78561671D01*
X107701317Y-78542734D01*
X107814585Y-78373216D01*
X107892606Y-78184858D01*
X107932380Y-77984899D01*
X107932380Y-77781021D01*
X107892606Y-77581062D01*
X107814585Y-77392704D01*
X107701317Y-77223186D01*
X107557154Y-77079023D01*
X107387636Y-76965755D01*
X107199278Y-76887734D01*
X106999319Y-76847960D01*
X106795441Y-76847960D01*
X106595482Y-76887734D01*
X106407124Y-76965755D01*
X106237606Y-77079023D01*
X106093443Y-77223186D01*
X105980175Y-77392704D01*
X105902154Y-77581062D01*
X105862380Y-77781021D01*
X102586060Y-77781021D01*
X102586060Y-69350222D01*
X107123380Y-69350222D01*
X107123380Y-70781379D01*
X107142697Y-70977506D01*
X107219033Y-71229154D01*
X107342999Y-71461075D01*
X107509826Y-71664355D01*
X107713106Y-71831182D01*
X107945027Y-71955147D01*
X108196675Y-72031483D01*
X108458380Y-72057259D01*
X108720086Y-72031483D01*
X108971734Y-71955147D01*
X109203655Y-71831182D01*
X109406935Y-71664355D01*
X109573762Y-71461075D01*
X109697727Y-71229154D01*
X109774063Y-70977506D01*
X109793380Y-70781379D01*
X109793380Y-69350222D01*
X120823380Y-69350222D01*
X120823380Y-70781379D01*
X120842697Y-70977506D01*
X120919033Y-71229154D01*
X121042999Y-71461075D01*
X121209826Y-71664355D01*
X121413106Y-71831182D01*
X121645027Y-71955147D01*
X121896675Y-72031483D01*
X122158380Y-72057259D01*
X122420086Y-72031483D01*
X122671734Y-71955147D01*
X122903655Y-71831182D01*
X123106935Y-71664355D01*
X123273762Y-71461075D01*
X123397727Y-71229154D01*
X123474063Y-70977506D01*
X123493380Y-70781379D01*
X123493380Y-69350221D01*
X123474063Y-69154094D01*
X123397727Y-68902446D01*
X123273762Y-68670525D01*
X123106935Y-68467245D01*
X122903654Y-68300418D01*
X122671733Y-68176453D01*
X122420085Y-68100117D01*
X122158380Y-68074341D01*
X121896674Y-68100117D01*
X121645026Y-68176453D01*
X121413105Y-68300418D01*
X121209825Y-68467245D01*
X121042998Y-68670526D01*
X120919033Y-68902447D01*
X120842697Y-69154095D01*
X120823380Y-69350222D01*
X109793380Y-69350222D01*
X109793380Y-69350221D01*
X109774063Y-69154094D01*
X109697727Y-68902446D01*
X109573762Y-68670525D01*
X109406935Y-68467245D01*
X109203654Y-68300418D01*
X108971733Y-68176453D01*
X108720085Y-68100117D01*
X108458380Y-68074341D01*
X108196674Y-68100117D01*
X107945026Y-68176453D01*
X107713105Y-68300418D01*
X107509825Y-68467245D01*
X107342998Y-68670526D01*
X107219033Y-68902447D01*
X107142697Y-69154095D01*
X107123380Y-69350222D01*
X102586060Y-69350222D01*
X102586060Y-67921362D01*
X102589736Y-67884039D01*
X102586060Y-67846716D01*
X102586060Y-67846707D01*
X102575063Y-67735054D01*
X102531606Y-67591793D01*
X102518515Y-67567302D01*
X102461034Y-67459763D01*
X102389859Y-67373037D01*
X102366061Y-67344039D01*
X102337062Y-67320240D01*
X101815823Y-66799002D01*
X101792021Y-66769999D01*
X101676296Y-66675026D01*
X101544267Y-66604454D01*
X101401006Y-66560997D01*
X101289353Y-66550000D01*
X101289342Y-66550000D01*
X101252020Y-66546324D01*
X101214698Y-66550000D01*
X99244909Y-66550000D01*
X99238918Y-66535537D01*
X99059987Y-66267748D01*
X98832252Y-66040013D01*
X98564463Y-65861082D01*
X98266912Y-65737832D01*
X97951033Y-65675000D01*
X97628967Y-65675000D01*
X97313088Y-65737832D01*
X97015537Y-65861082D01*
X96747748Y-66040013D01*
X96520013Y-66267748D01*
X96341082Y-66535537D01*
X96217832Y-66833088D01*
X96155000Y-67148967D01*
X96155000Y-67471033D01*
X96217832Y-67786912D01*
X96341082Y-68084463D01*
X96520013Y-68352252D01*
X96747748Y-68579987D01*
X97015537Y-68758918D01*
X97313088Y-68882168D01*
X97628967Y-68945000D01*
X97951033Y-68945000D01*
X98266912Y-68882168D01*
X98564463Y-68758918D01*
X98832252Y-68579987D01*
X99059987Y-68352252D01*
X99238918Y-68084463D01*
X99244909Y-68070000D01*
X100937219Y-68070000D01*
X101066061Y-68198843D01*
X101066060Y-78824598D01*
X101062384Y-78861920D01*
X101066060Y-78899242D01*
X101066060Y-78899252D01*
X101077057Y-79010905D01*
X101118900Y-79148844D01*
X101120514Y-79154166D01*
X101191086Y-79286196D01*
X101226227Y-79329015D01*
X101286059Y-79401921D01*
X101315063Y-79425724D01*
X105275461Y-83386123D01*
X105299259Y-83415121D01*
X105414984Y-83510094D01*
X105547013Y-83580666D01*
X105690274Y-83624123D01*
X105801927Y-83635120D01*
X105801937Y-83635120D01*
X105839260Y-83638796D01*
X105876583Y-83635120D01*
X119242709Y-83635120D01*
X119286646Y-83679057D01*
X119456164Y-83792325D01*
X119564598Y-83837240D01*
X103624221Y-83837240D01*
X103544320Y-83757339D01*
X103544320Y-83695201D01*
X103504546Y-83495242D01*
X103426525Y-83306884D01*
X103313257Y-83137366D01*
X103169094Y-82993203D01*
X102999576Y-82879935D01*
X102811218Y-82801914D01*
X102611259Y-82762140D01*
X102407381Y-82762140D01*
X102207422Y-82801914D01*
X102019064Y-82879935D01*
X101849546Y-82993203D01*
X101705383Y-83137366D01*
X101592115Y-83306884D01*
X101514094Y-83495242D01*
X101496864Y-83581863D01*
X101224004Y-83309003D01*
X101200201Y-83279999D01*
X101084476Y-83185026D01*
X100952447Y-83114454D01*
X100809186Y-83070997D01*
X100697533Y-83060000D01*
X100697522Y-83060000D01*
X100660200Y-83056324D01*
X100622878Y-83060000D01*
X100308933Y-83060000D01*
X100212502Y-82942498D01*
X100024449Y-82788167D01*
X99809901Y-82673489D01*
X99577102Y-82602870D01*
X99395665Y-82585000D01*
X98724335Y-82585000D01*
X98542898Y-82602870D01*
X98310099Y-82673489D01*
X98095551Y-82788167D01*
X97907498Y-82942498D01*
X97753167Y-83130551D01*
X97638489Y-83345099D01*
X97567870Y-83577898D01*
X97544025Y-83820000D01*
X97567870Y-84062102D01*
X97638489Y-84294901D01*
X97753167Y-84509449D01*
X97907498Y-84697502D01*
X98095551Y-84851833D01*
X98310099Y-84966511D01*
X98542898Y-85037130D01*
X98724335Y-85055000D01*
X99395665Y-85055000D01*
X99577102Y-85037130D01*
X99809901Y-84966511D01*
X100024449Y-84851833D01*
X100212502Y-84697502D01*
X100308933Y-84580000D01*
X100345399Y-84580000D01*
X101329838Y-85564440D01*
X100279750Y-85564440D01*
X100212502Y-85482498D01*
X100024449Y-85328167D01*
X99809901Y-85213489D01*
X99577102Y-85142870D01*
X99395665Y-85125000D01*
X98724335Y-85125000D01*
X98542898Y-85142870D01*
X98310099Y-85213489D01*
X98095551Y-85328167D01*
X97907498Y-85482498D01*
X97753167Y-85670551D01*
X97638489Y-85885099D01*
X97567870Y-86117898D01*
X97544025Y-86360000D01*
X97567870Y-86602102D01*
X97638489Y-86834901D01*
X97753167Y-87049449D01*
X97907498Y-87237502D01*
X98095551Y-87391833D01*
X98310099Y-87506511D01*
X98542898Y-87577130D01*
X98724335Y-87595000D01*
X99395665Y-87595000D01*
X99577102Y-87577130D01*
X99809901Y-87506511D01*
X100024449Y-87391833D01*
X100212502Y-87237502D01*
X100338117Y-87084440D01*
X111583875Y-87084440D01*
X111574642Y-87106730D01*
X111534868Y-87306689D01*
X111534868Y-87510567D01*
X111574642Y-87710526D01*
X111597531Y-87765784D01*
X111527455Y-87835860D01*
X110022933Y-87835860D01*
X110000045Y-87780604D01*
X109886777Y-87611086D01*
X109742614Y-87466923D01*
X109573096Y-87353655D01*
X109384738Y-87275634D01*
X109184779Y-87235860D01*
X108980901Y-87235860D01*
X108780942Y-87275634D01*
X108592584Y-87353655D01*
X108423066Y-87466923D01*
X108278903Y-87611086D01*
X108165635Y-87780604D01*
X108087614Y-87968962D01*
X108047840Y-88168921D01*
X108047840Y-88372799D01*
X108087614Y-88572758D01*
X108165635Y-88761116D01*
X108188850Y-88795860D01*
X108165635Y-88830604D01*
X108087614Y-89018962D01*
X108047840Y-89218921D01*
X108047840Y-89422799D01*
X108087614Y-89622758D01*
X108165635Y-89811116D01*
X108278903Y-89980634D01*
X108423066Y-90124797D01*
X108592584Y-90238065D01*
X108780942Y-90316086D01*
X108980901Y-90355860D01*
X109184779Y-90355860D01*
X109384738Y-90316086D01*
X109573096Y-90238065D01*
X109742614Y-90124797D01*
X109886777Y-89980634D01*
X110000045Y-89811116D01*
X110022933Y-89755860D01*
X111982194Y-89755860D01*
X112018299Y-89759416D01*
X112054404Y-89755860D01*
X112162384Y-89745225D01*
X112300932Y-89703197D01*
X112428619Y-89634947D01*
X112540537Y-89543098D01*
X112563557Y-89515048D01*
X112955176Y-89123429D01*
X113010434Y-89146318D01*
X113210393Y-89186092D01*
X113407920Y-89186092D01*
X113407921Y-93009877D01*
X113197798Y-93220000D01*
X100308933Y-93220000D01*
X100212502Y-93102498D01*
X100024449Y-92948167D01*
X99809901Y-92833489D01*
X99577102Y-92762870D01*
X99395665Y-92745000D01*
X98724335Y-92745000D01*
X98542898Y-92762870D01*
X98310099Y-92833489D01*
X98095551Y-92948167D01*
X98021680Y-93008791D01*
X98021680Y-92428121D01*
X98030969Y-92418832D01*
X98095551Y-92471833D01*
X98310099Y-92586511D01*
X98542898Y-92657130D01*
X98724335Y-92675000D01*
X99395665Y-92675000D01*
X99577102Y-92657130D01*
X99809901Y-92586511D01*
X100024449Y-92471833D01*
X100212502Y-92317502D01*
X100366833Y-92129449D01*
X100481511Y-91914901D01*
X100552130Y-91682102D01*
X100575975Y-91440000D01*
X100552130Y-91197898D01*
X100481511Y-90965099D01*
X100366833Y-90750551D01*
X100212502Y-90562498D01*
X100024449Y-90408167D01*
X99809901Y-90293489D01*
X99577102Y-90222870D01*
X99395665Y-90205000D01*
X98724335Y-90205000D01*
X98542898Y-90222870D01*
X98310099Y-90293489D01*
X98095551Y-90408167D01*
X97907498Y-90562498D01*
X97803451Y-90689280D01*
X97786014Y-90690997D01*
X97642753Y-90734454D01*
X97510724Y-90805026D01*
X97394999Y-90899999D01*
X97371200Y-90928998D01*
X96750678Y-91549521D01*
X96721680Y-91573319D01*
X96697882Y-91602317D01*
X96697881Y-91602318D01*
X96626706Y-91689044D01*
X96556134Y-91821074D01*
X96543029Y-91864277D01*
X96512678Y-91964334D01*
X96503257Y-92059985D01*
X96498004Y-92113320D01*
X96501681Y-92150652D01*
X96501680Y-94816437D01*
X96498004Y-94853760D01*
X96501680Y-94891082D01*
X96501680Y-94891092D01*
X96512677Y-95002745D01*
X96550220Y-95126511D01*
X96556134Y-95146006D01*
X96626706Y-95278036D01*
X96661356Y-95320257D01*
X96721679Y-95393761D01*
X96750683Y-95417564D01*
X97109356Y-95776237D01*
X97133159Y-95805241D01*
X97248884Y-95900214D01*
X97364917Y-95962236D01*
X97380913Y-95970786D01*
X97524174Y-96014243D01*
X97648440Y-96026482D01*
X97638489Y-96045099D01*
X97567870Y-96277898D01*
X97544025Y-96520000D01*
X97567870Y-96762102D01*
X97638489Y-96994901D01*
X97753167Y-97209449D01*
X97907498Y-97397502D01*
X98095551Y-97551833D01*
X98310099Y-97666511D01*
X98542898Y-97737130D01*
X98724335Y-97755000D01*
X99395665Y-97755000D01*
X99577102Y-97737130D01*
X99809901Y-97666511D01*
X100024449Y-97551833D01*
X100212502Y-97397502D01*
X100288416Y-97305000D01*
X115320627Y-97305000D01*
X115359180Y-97308797D01*
X115397733Y-97305000D01*
X115397741Y-97305000D01*
X115513067Y-97293641D01*
X115661040Y-97248754D01*
X115797413Y-97175862D01*
X115916944Y-97077764D01*
X115941527Y-97047810D01*
X118190770Y-94798567D01*
X118220723Y-94773985D01*
X118318821Y-94654454D01*
X118391713Y-94518081D01*
X118395608Y-94505240D01*
X118436601Y-94370108D01*
X118444652Y-94288359D01*
X118447959Y-94254782D01*
X118447959Y-94254777D01*
X118451756Y-94216221D01*
X118447959Y-94177665D01*
X118447959Y-93548739D01*
X121206128Y-93548739D01*
X121250065Y-93592676D01*
X121419583Y-93705944D01*
X121607941Y-93783965D01*
X121807900Y-93823739D01*
X122011778Y-93823739D01*
X122211737Y-93783965D01*
X122241501Y-93771636D01*
X122241500Y-99252221D01*
X121525482Y-99968240D01*
X119932985Y-99968240D01*
X119742186Y-99777441D01*
X119515343Y-99625869D01*
X119263289Y-99521465D01*
X118995711Y-99468240D01*
X118722889Y-99468240D01*
X118455311Y-99521465D01*
X118203257Y-99625869D01*
X117976414Y-99777441D01*
X117785615Y-99968240D01*
X109843119Y-99968240D01*
X108591294Y-98716416D01*
X108563577Y-98682643D01*
X108428819Y-98572049D01*
X108275073Y-98489871D01*
X108108250Y-98439265D01*
X107978237Y-98426460D01*
X107978229Y-98426460D01*
X107934760Y-98422179D01*
X107891291Y-98426460D01*
X103269065Y-98426460D01*
X103225599Y-98422179D01*
X103182133Y-98426460D01*
X103182123Y-98426460D01*
X103052110Y-98439265D01*
X102885287Y-98489871D01*
X102731541Y-98572049D01*
X102731539Y-98572050D01*
X102731540Y-98572050D01*
X102630553Y-98654928D01*
X102630551Y-98654930D01*
X102596783Y-98682643D01*
X102569070Y-98716411D01*
X100451102Y-100834380D01*
X96086479Y-100834380D01*
X95914020Y-100661922D01*
X95914020Y-99377609D01*
X97591538Y-99377609D01*
X97595409Y-99415282D01*
X97687579Y-99640533D01*
X97821922Y-99843474D01*
X97993275Y-100016307D01*
X98195054Y-100152390D01*
X98419504Y-100246493D01*
X98658000Y-100295000D01*
X98933000Y-100295000D01*
X98933000Y-99187000D01*
X99187000Y-99187000D01*
X99187000Y-100295000D01*
X99462000Y-100295000D01*
X99700496Y-100246493D01*
X99924946Y-100152390D01*
X100126725Y-100016307D01*
X100298078Y-99843474D01*
X100432421Y-99640533D01*
X100524591Y-99415282D01*
X100528462Y-99377609D01*
X100403731Y-99187000D01*
X99187000Y-99187000D01*
X98933000Y-99187000D01*
X97716269Y-99187000D01*
X97591538Y-99377609D01*
X95914020Y-99377609D01*
X95914020Y-98742391D01*
X97591538Y-98742391D01*
X97716269Y-98933000D01*
X98933000Y-98933000D01*
X98933000Y-97825000D01*
X99187000Y-97825000D01*
X99187000Y-98933000D01*
X100403731Y-98933000D01*
X100528462Y-98742391D01*
X100524591Y-98704718D01*
X100432421Y-98479467D01*
X100298078Y-98276526D01*
X100126725Y-98103693D01*
X99924946Y-97967610D01*
X99700496Y-97873507D01*
X99462000Y-97825000D01*
X99187000Y-97825000D01*
X98933000Y-97825000D01*
X98658000Y-97825000D01*
X98419504Y-97873507D01*
X98195054Y-97967610D01*
X97993275Y-98103693D01*
X97821922Y-98276526D01*
X97687579Y-98479467D01*
X97595409Y-98704718D01*
X97591538Y-98742391D01*
X95914020Y-98742391D01*
X95914020Y-88900000D01*
X97544025Y-88900000D01*
X97567870Y-89142102D01*
X97638489Y-89374901D01*
X97753167Y-89589449D01*
X97907498Y-89777502D01*
X98095551Y-89931833D01*
X98310099Y-90046511D01*
X98542898Y-90117130D01*
X98724335Y-90135000D01*
X99395665Y-90135000D01*
X99577102Y-90117130D01*
X99809901Y-90046511D01*
X100024449Y-89931833D01*
X100212502Y-89777502D01*
X100366833Y-89589449D01*
X100481511Y-89374901D01*
X100552130Y-89142102D01*
X100575975Y-88900000D01*
X100552130Y-88657898D01*
X100481511Y-88425099D01*
X100366833Y-88210551D01*
X100212502Y-88022498D01*
X100024449Y-87868167D01*
X99809901Y-87753489D01*
X99577102Y-87682870D01*
X99395665Y-87665000D01*
X98724335Y-87665000D01*
X98542898Y-87682870D01*
X98310099Y-87753489D01*
X98095551Y-87868167D01*
X97907498Y-88022498D01*
X97753167Y-88210551D01*
X97638489Y-88425099D01*
X97567870Y-88657898D01*
X97544025Y-88900000D01*
X95914020Y-88900000D01*
X95914020Y-83401718D01*
X97150739Y-82165000D01*
X97916634Y-82165000D01*
X98095551Y-82311833D01*
X98310099Y-82426511D01*
X98542898Y-82497130D01*
X98724335Y-82515000D01*
X99395665Y-82515000D01*
X99577102Y-82497130D01*
X99809901Y-82426511D01*
X100024449Y-82311833D01*
X100212502Y-82157502D01*
X100366833Y-81969449D01*
X100481511Y-81754901D01*
X100552130Y-81522102D01*
X100575975Y-81280000D01*
X100552130Y-81037898D01*
X100481511Y-80805099D01*
X100366833Y-80590551D01*
X100212502Y-80402498D01*
X100024449Y-80248167D01*
X99809901Y-80133489D01*
X99577102Y-80062870D01*
X99395665Y-80045000D01*
X98724335Y-80045000D01*
X98542898Y-80062870D01*
X98310099Y-80133489D01*
X98095551Y-80248167D01*
X97916634Y-80395000D01*
X96827629Y-80395000D01*
X96784160Y-80390719D01*
X96740691Y-80395000D01*
X96740683Y-80395000D01*
X96610670Y-80407805D01*
X96443847Y-80458411D01*
X96329044Y-80519774D01*
X96290101Y-80540589D01*
X96189113Y-80623468D01*
X96189111Y-80623470D01*
X96155343Y-80651183D01*
X96127630Y-80684951D01*
X94433976Y-82378606D01*
X94400203Y-82406323D01*
X94289609Y-82541082D01*
X94207431Y-82694828D01*
X94156825Y-82861651D01*
X94144020Y-82991664D01*
X94144020Y-82991671D01*
X94139739Y-83035140D01*
X93472000Y-83035140D01*
X93472000Y-70958967D01*
X96155000Y-70958967D01*
X96155000Y-71281033D01*
X96217832Y-71596912D01*
X96341082Y-71894463D01*
X96520013Y-72162252D01*
X96747748Y-72389987D01*
X97015537Y-72568918D01*
X97313088Y-72692168D01*
X97628967Y-72755000D01*
X97951033Y-72755000D01*
X98266912Y-72692168D01*
X98564463Y-72568918D01*
X98832252Y-72389987D01*
X99059987Y-72162252D01*
X99238918Y-71894463D01*
X99362168Y-71596912D01*
X99425000Y-71281033D01*
X99425000Y-70958967D01*
X99362168Y-70643088D01*
X99238918Y-70345537D01*
X99059987Y-70077748D01*
X98832252Y-69850013D01*
X98564463Y-69671082D01*
X98266912Y-69547832D01*
X97951033Y-69485000D01*
X97628967Y-69485000D01*
X97313088Y-69547832D01*
X97015537Y-69671082D01*
X96747748Y-69850013D01*
X96520013Y-70077748D01*
X96341082Y-70345537D01*
X96217832Y-70643088D01*
X96155000Y-70958967D01*
X93472000Y-70958967D01*
X93472000Y-60377800D01*
X107976528Y-60377800D01*
X107976528Y-66977800D01*
X107988788Y-67102282D01*
X108025098Y-67221980D01*
X108084063Y-67332294D01*
X108163415Y-67428985D01*
X108260106Y-67508337D01*
X108370420Y-67567302D01*
X108490118Y-67603612D01*
X108614600Y-67615872D01*
X112314600Y-67615872D01*
X112439082Y-67603612D01*
X112558780Y-67567302D01*
X112669094Y-67508337D01*
X112765785Y-67428985D01*
X112845137Y-67332294D01*
X112904102Y-67221980D01*
X112940412Y-67102282D01*
X112952672Y-66977800D01*
X112952672Y-62105730D01*
X117979600Y-62105730D01*
X117979600Y-65249871D01*
X118015557Y-65614945D01*
X118157653Y-66083369D01*
X118388402Y-66515072D01*
X118698939Y-66893462D01*
X119077329Y-67203999D01*
X119509032Y-67434748D01*
X119977456Y-67576843D01*
X120464600Y-67624823D01*
X120951745Y-67576843D01*
X121420169Y-67434748D01*
X121851872Y-67203999D01*
X122230262Y-66893462D01*
X122540799Y-66515072D01*
X122771548Y-66083369D01*
X122913643Y-65614945D01*
X122949600Y-65249871D01*
X122949600Y-62790069D01*
X128853260Y-62790069D01*
X128853260Y-62934851D01*
X128881506Y-63076851D01*
X128936912Y-63210613D01*
X129017348Y-63330995D01*
X129119725Y-63433372D01*
X129240107Y-63513808D01*
X129373869Y-63569214D01*
X129515869Y-63597460D01*
X129660651Y-63597460D01*
X129802651Y-63569214D01*
X129936413Y-63513808D01*
X130056795Y-63433372D01*
X130159172Y-63330995D01*
X130239608Y-63210613D01*
X130295014Y-63076851D01*
X130323260Y-62934851D01*
X130323260Y-62790069D01*
X130295014Y-62648069D01*
X130239608Y-62514307D01*
X130159172Y-62393925D01*
X130056795Y-62291548D01*
X129936413Y-62211112D01*
X129893315Y-62193260D01*
X129949113Y-62170148D01*
X130069495Y-62089712D01*
X130171872Y-61987335D01*
X130252308Y-61866953D01*
X130307714Y-61733191D01*
X130335960Y-61591191D01*
X130335960Y-61446409D01*
X130307714Y-61304409D01*
X130252308Y-61170647D01*
X130171872Y-61050265D01*
X130069495Y-60947888D01*
X129949113Y-60867452D01*
X129815351Y-60812046D01*
X129673351Y-60783800D01*
X129528569Y-60783800D01*
X129386569Y-60812046D01*
X129252807Y-60867452D01*
X129132425Y-60947888D01*
X129030048Y-61050265D01*
X128949612Y-61170647D01*
X128894206Y-61304409D01*
X128865960Y-61446409D01*
X128865960Y-61591191D01*
X128894206Y-61733191D01*
X128949612Y-61866953D01*
X129030048Y-61987335D01*
X129132425Y-62089712D01*
X129252807Y-62170148D01*
X129295905Y-62188000D01*
X129240107Y-62211112D01*
X129119725Y-62291548D01*
X129017348Y-62393925D01*
X128936912Y-62514307D01*
X128881506Y-62648069D01*
X128853260Y-62790069D01*
X122949600Y-62790069D01*
X122949600Y-62105729D01*
X122913643Y-61740655D01*
X122771548Y-61272231D01*
X122540799Y-60840528D01*
X122230262Y-60462138D01*
X121851871Y-60151601D01*
X121420168Y-59920852D01*
X120951744Y-59778757D01*
X120464600Y-59730777D01*
X119977455Y-59778757D01*
X119509031Y-59920852D01*
X119077328Y-60151601D01*
X118698938Y-60462138D01*
X118388401Y-60840529D01*
X118157652Y-61272232D01*
X118015557Y-61740656D01*
X117979600Y-62105730D01*
X112952672Y-62105730D01*
X112952672Y-60377800D01*
X112940412Y-60253318D01*
X112904102Y-60133620D01*
X112845137Y-60023306D01*
X112765785Y-59926615D01*
X112669094Y-59847263D01*
X112558780Y-59788298D01*
X112439082Y-59751988D01*
X112314600Y-59739728D01*
X108614600Y-59739728D01*
X108490118Y-59751988D01*
X108370420Y-59788298D01*
X108260106Y-59847263D01*
X108163415Y-59926615D01*
X108084063Y-60023306D01*
X108025098Y-60133620D01*
X107988788Y-60253318D01*
X107976528Y-60377800D01*
X93472000Y-60377800D01*
X93472000Y-59353148D01*
X95766457Y-59353148D01*
X96042627Y-59771118D01*
X96587557Y-60061649D01*
X97178696Y-60240287D01*
X97793328Y-60300168D01*
X98407831Y-60238990D01*
X98998592Y-60059103D01*
X99537373Y-59771118D01*
X99813543Y-59353148D01*
X97790000Y-57329605D01*
X95766457Y-59353148D01*
X93472000Y-59353148D01*
X93472000Y-57153328D01*
X94639832Y-57153328D01*
X94701010Y-57767831D01*
X94880897Y-58358592D01*
X95168882Y-58897373D01*
X95586852Y-59173543D01*
X97610395Y-57150000D01*
X97969605Y-57150000D01*
X99993148Y-59173543D01*
X100411118Y-58897373D01*
X100701649Y-58352443D01*
X100880287Y-57761304D01*
X100940168Y-57146672D01*
X100894982Y-56692800D01*
X106123380Y-56692800D01*
X106123380Y-57342800D01*
X106173808Y-57600805D01*
X106273601Y-57844015D01*
X106418925Y-58063083D01*
X106604195Y-58249590D01*
X106822290Y-58396369D01*
X107064830Y-58497780D01*
X107125051Y-58508516D01*
X107331380Y-58385174D01*
X107331380Y-56692800D01*
X107585380Y-56692800D01*
X107585380Y-58385174D01*
X107791709Y-58508516D01*
X107851930Y-58497780D01*
X108094470Y-58396369D01*
X108312565Y-58249590D01*
X108497835Y-58063083D01*
X108643159Y-57844015D01*
X108742952Y-57600805D01*
X108793380Y-57342800D01*
X108793380Y-56692800D01*
X121823380Y-56692800D01*
X121823380Y-57342800D01*
X121873808Y-57600805D01*
X121973601Y-57844015D01*
X122118925Y-58063083D01*
X122304195Y-58249590D01*
X122522290Y-58396369D01*
X122764830Y-58497780D01*
X122825051Y-58508516D01*
X123031380Y-58385174D01*
X123031380Y-56692800D01*
X123285380Y-56692800D01*
X123285380Y-58385174D01*
X123491709Y-58508516D01*
X123551930Y-58497780D01*
X123794470Y-58396369D01*
X124012565Y-58249590D01*
X124197835Y-58063083D01*
X124343159Y-57844015D01*
X124442952Y-57600805D01*
X124493380Y-57342800D01*
X124493380Y-57153328D01*
X179729832Y-57153328D01*
X179791010Y-57767831D01*
X179970897Y-58358592D01*
X180258882Y-58897373D01*
X180676852Y-59173543D01*
X182700395Y-57150000D01*
X183059605Y-57150000D01*
X185083148Y-59173543D01*
X185501118Y-58897373D01*
X185791649Y-58352443D01*
X185970287Y-57761304D01*
X186030168Y-57146672D01*
X185968990Y-56532169D01*
X185789103Y-55941408D01*
X185501118Y-55402627D01*
X185083148Y-55126457D01*
X183059605Y-57150000D01*
X182700395Y-57150000D01*
X180676852Y-55126457D01*
X180258882Y-55402627D01*
X179968351Y-55947557D01*
X179789713Y-56538696D01*
X179729832Y-57153328D01*
X124493380Y-57153328D01*
X124493380Y-56692800D01*
X123285380Y-56692800D01*
X123031380Y-56692800D01*
X121823380Y-56692800D01*
X108793380Y-56692800D01*
X107585380Y-56692800D01*
X107331380Y-56692800D01*
X106123380Y-56692800D01*
X100894982Y-56692800D01*
X100878990Y-56532169D01*
X100699103Y-55941408D01*
X100617533Y-55788800D01*
X106123380Y-55788800D01*
X106123380Y-56438800D01*
X107331380Y-56438800D01*
X107331380Y-54746426D01*
X107585380Y-54746426D01*
X107585380Y-56438800D01*
X108793380Y-56438800D01*
X108793380Y-55788800D01*
X121823380Y-55788800D01*
X121823380Y-56438800D01*
X123031380Y-56438800D01*
X123031380Y-54746426D01*
X123285380Y-54746426D01*
X123285380Y-56438800D01*
X124493380Y-56438800D01*
X124493380Y-55788800D01*
X124442952Y-55530795D01*
X124343159Y-55287585D01*
X124197835Y-55068517D01*
X124076977Y-54946852D01*
X180856457Y-54946852D01*
X182880000Y-56970395D01*
X184903543Y-54946852D01*
X184627373Y-54528882D01*
X184082443Y-54238351D01*
X183491304Y-54059713D01*
X182876672Y-53999832D01*
X182262169Y-54061010D01*
X181671408Y-54240897D01*
X181132627Y-54528882D01*
X180856457Y-54946852D01*
X124076977Y-54946852D01*
X124012565Y-54882010D01*
X123794470Y-54735231D01*
X123551930Y-54633820D01*
X123491709Y-54623084D01*
X123285380Y-54746426D01*
X123031380Y-54746426D01*
X122825051Y-54623084D01*
X122764830Y-54633820D01*
X122522290Y-54735231D01*
X122304195Y-54882010D01*
X122118925Y-55068517D01*
X121973601Y-55287585D01*
X121873808Y-55530795D01*
X121823380Y-55788800D01*
X108793380Y-55788800D01*
X108742952Y-55530795D01*
X108643159Y-55287585D01*
X108497835Y-55068517D01*
X108312565Y-54882010D01*
X108094470Y-54735231D01*
X107851930Y-54633820D01*
X107791709Y-54623084D01*
X107585380Y-54746426D01*
X107331380Y-54746426D01*
X107125051Y-54623084D01*
X107064830Y-54633820D01*
X106822290Y-54735231D01*
X106604195Y-54882010D01*
X106418925Y-55068517D01*
X106273601Y-55287585D01*
X106173808Y-55530795D01*
X106123380Y-55788800D01*
X100617533Y-55788800D01*
X100411118Y-55402627D01*
X99993148Y-55126457D01*
X97969605Y-57150000D01*
X97610395Y-57150000D01*
X95586852Y-55126457D01*
X95168882Y-55402627D01*
X94878351Y-55947557D01*
X94699713Y-56538696D01*
X94639832Y-57153328D01*
X93472000Y-57153328D01*
X93472000Y-54946852D01*
X95766457Y-54946852D01*
X97790000Y-56970395D01*
X99813543Y-54946852D01*
X99537373Y-54528882D01*
X98992443Y-54238351D01*
X98401304Y-54059713D01*
X97786672Y-53999832D01*
X97172169Y-54061010D01*
X96581408Y-54240897D01*
X96042627Y-54528882D01*
X95766457Y-54946852D01*
X93472000Y-54946852D01*
X93472000Y-54647265D01*
X93509446Y-54265365D01*
X93609536Y-53933847D01*
X93772110Y-53628091D01*
X93990976Y-53359735D01*
X94257798Y-53139001D01*
X94562413Y-52974296D01*
X94893217Y-52871895D01*
X95272796Y-52832000D01*
X185382735Y-52832000D01*
X185764635Y-52869446D01*
M02*
