M48
; DRILL file {KiCad 5.1.4-e60b266~84~ubuntu18.04.1} date Thu 12 Dec 2019 06:09:28 AM PKT
; FORMAT={-:-/ absolute / metric / decimal}
; #@! TF.CreationDate,2019-12-12T06:09:28+05:00
; #@! TF.GenerationSoftware,Kicad,Pcbnew,5.1.4-e60b266~84~ubuntu18.04.1
FMAT,2
METRIC
T1C0.200
T2C0.400
T3C0.500
T4C0.750
T5C0.900
T6C1.000
T7C1.200
T8C1.300
T9C2.200
T10C2.500
T11C2.524
T12C0.200
T13C1.000
%
G90
G05
T1
X101.684Y-108.184
X102.022Y-102.479
X102.509Y-83.797
X102.634Y-105.58
X105.761Y-114.95
X106.218Y-112.649
X106.897Y-77.883
X106.897Y-80.948
X108.76Y-97.782
X109.083Y-88.271
X109.083Y-89.321
X111.102Y-79.606
X112.57Y-87.409
X113.256Y-113.05
X113.312Y-88.151
X113.64Y-99.014
X113.807Y-81.275
X115.258Y-81.117
X116.797Y-89.858
X119.357Y-106.822
X119.558Y-80.246
X119.946Y-82.875
X120.889Y-117.688
X121.206Y-99.294
X121.638Y-108.981
X121.91Y-92.789
X123.37Y-109.037
X123.797Y-102.24
X124.31Y-113.457
X125.252Y-109.19
X125.407Y-110.993
X127.785Y-78.77
X127.848Y-109.695
X128.267Y-77.216
X128.422Y-80.96
X128.443Y-84.597
X128.603Y-75.611
X128.935Y-73.932
X128.939Y-108.779
X129.385Y-113.843
X130.335Y-112.339
X133.909Y-114.971
X133.995Y-79.327
X135.263Y-79.375
X136.601Y-79.573
X140.269Y-81.714
X142.89Y-111.971
X144.363Y-87.765
X144.943Y-86.103
X146.738Y-84.501
X147.95Y-85.481
X148.438Y-107.597
X148.76Y-111.262
X171.105Y-76.464
T2
X108.27Y-102.784
X118.859Y-100.853
X121.851Y-90.135
T3
X181.005Y-57.15
X181.554Y-55.824
X181.554Y-58.476
X182.88Y-55.275
X182.88Y-59.025
X184.206Y-55.824
X184.206Y-58.476
X184.755Y-57.15
X95.915Y-119.38
X96.464Y-118.054
X96.464Y-120.706
X97.79Y-117.505
X97.79Y-121.255
X99.116Y-118.054
X99.116Y-120.706
X99.665Y-119.38
X95.915Y-57.15
X96.464Y-55.824
X96.464Y-58.476
X97.79Y-55.275
X97.79Y-59.025
X99.116Y-55.824
X99.116Y-58.476
X99.665Y-57.15
X181.005Y-119.38
X181.554Y-118.054
X181.554Y-120.706
X182.88Y-117.505
X182.88Y-121.255
X184.206Y-118.054
X184.206Y-120.706
X184.755Y-119.38
T4
X160.02Y-118.11
X162.02Y-118.11
X99.06Y-81.28
X99.06Y-83.82
X99.06Y-86.36
X99.06Y-88.9
X99.06Y-91.44
X99.06Y-93.98
X99.06Y-96.52
X99.06Y-99.06
X154.94Y-81.28
X154.94Y-83.82
X154.94Y-86.36
X154.94Y-88.9
X154.94Y-91.44
X154.94Y-93.98
X154.94Y-96.52
X154.94Y-99.06
T6
X164.168Y-106.449
X166.708Y-106.449
X176.784Y-120.503
X97.79Y-67.31
X97.79Y-71.12
X172.72Y-120.503
X174.485Y-106.449
X177.025Y-106.449
T7
X172.326Y-83.599
X172.326Y-98.099
X174.826Y-98.099
X177.326Y-83.599
X177.326Y-98.099
T8
X182.118Y-68.58
X182.118Y-73.58
X142.26Y-61.196
X147.26Y-61.196
X160.094Y-61.227
X165.094Y-61.227
T10
X182.88Y-57.15
X97.79Y-119.38
X97.79Y-57.15
X182.88Y-119.38
T11
X169.126Y-90.599
X180.526Y-90.599
T12
X129.588Y-62.862
X129.601Y-61.519
T13
X105.174Y-120.31
X113.174Y-120.31
T5
G00X107.458Y-56.116
M15
G01X107.458Y-57.016
M16
G05
G00X108.458Y-69.616
M15
G01X108.458Y-70.516
M16
G05
G00X122.158Y-69.616
M15
G01X122.158Y-70.516
M16
G05
G00X123.158Y-56.116
M15
G01X123.158Y-57.016
M16
G05
T9
G00X110.215Y-63.678
M15
G01X110.715Y-63.678
M16
G05
G00X120.265Y-63.678
M15
G01X120.665Y-63.678
M16
G05
T0
M30
