G04 #@! TF.GenerationSoftware,KiCad,Pcbnew,5.1.4-e60b266~84~ubuntu18.04.1*
G04 #@! TF.CreationDate,2019-12-12T06:09:25+05:00*
G04 #@! TF.ProjectId,rck22,72636b32-322e-46b6-9963-61645f706362,rev?*
G04 #@! TF.SameCoordinates,Original*
G04 #@! TF.FileFunction,Legend,Top*
G04 #@! TF.FilePolarity,Positive*
%FSLAX46Y46*%
G04 Gerber Fmt 4.6, Leading zero omitted, Abs format (unit mm)*
G04 Created by KiCad (PCBNEW 5.1.4-e60b266~84~ubuntu18.04.1) date 2019-12-12 06:09:25*
%MOMM*%
%LPD*%
G04 APERTURE LIST*
%ADD10C,0.300000*%
%ADD11C,0.150000*%
%ADD12C,0.100000*%
%ADD13C,0.124000*%
%ADD14C,0.120000*%
%ADD15C,0.200000*%
%ADD16C,0.254000*%
G04 APERTURE END LIST*
D10*
X145998525Y-103977421D02*
X145331859Y-103025040D01*
X144855668Y-103977421D02*
X144855668Y-101977421D01*
X145617573Y-101977421D01*
X145808049Y-102072660D01*
X145903287Y-102167898D01*
X145998525Y-102358374D01*
X145998525Y-102644088D01*
X145903287Y-102834564D01*
X145808049Y-102929802D01*
X145617573Y-103025040D01*
X144855668Y-103025040D01*
X147236620Y-101977421D02*
X147617573Y-101977421D01*
X147808049Y-102072660D01*
X147998525Y-102263136D01*
X148093763Y-102644088D01*
X148093763Y-103310755D01*
X147998525Y-103691707D01*
X147808049Y-103882183D01*
X147617573Y-103977421D01*
X147236620Y-103977421D01*
X147046144Y-103882183D01*
X146855668Y-103691707D01*
X146760430Y-103310755D01*
X146760430Y-102644088D01*
X146855668Y-102263136D01*
X147046144Y-102072660D01*
X147236620Y-101977421D01*
X150093763Y-103786945D02*
X149998525Y-103882183D01*
X149712811Y-103977421D01*
X149522335Y-103977421D01*
X149236620Y-103882183D01*
X149046144Y-103691707D01*
X148950906Y-103501231D01*
X148855668Y-103120279D01*
X148855668Y-102834564D01*
X148950906Y-102453612D01*
X149046144Y-102263136D01*
X149236620Y-102072660D01*
X149522335Y-101977421D01*
X149712811Y-101977421D01*
X149998525Y-102072660D01*
X150093763Y-102167898D01*
X150950906Y-103977421D02*
X150950906Y-101977421D01*
X152093763Y-103977421D02*
X151236620Y-102834564D01*
X152093763Y-101977421D02*
X150950906Y-103120279D01*
X152855668Y-102167898D02*
X152950906Y-102072660D01*
X153141382Y-101977421D01*
X153617573Y-101977421D01*
X153808049Y-102072660D01*
X153903287Y-102167898D01*
X153998525Y-102358374D01*
X153998525Y-102548850D01*
X153903287Y-102834564D01*
X152760430Y-103977421D01*
X153998525Y-103977421D01*
X154760430Y-102167898D02*
X154855668Y-102072660D01*
X155046144Y-101977421D01*
X155522335Y-101977421D01*
X155712811Y-102072660D01*
X155808049Y-102167898D01*
X155903287Y-102358374D01*
X155903287Y-102548850D01*
X155808049Y-102834564D01*
X154665192Y-103977421D01*
X155903287Y-103977421D01*
X123046144Y-107277421D02*
X122379478Y-106325040D01*
X121903287Y-107277421D02*
X121903287Y-105277421D01*
X122665192Y-105277421D01*
X122855668Y-105372660D01*
X122950906Y-105467898D01*
X123046144Y-105658374D01*
X123046144Y-105944088D01*
X122950906Y-106134564D01*
X122855668Y-106229802D01*
X122665192Y-106325040D01*
X121903287Y-106325040D01*
X124665192Y-107182183D02*
X124474716Y-107277421D01*
X124093763Y-107277421D01*
X123903287Y-107182183D01*
X123808049Y-106991707D01*
X123808049Y-106229802D01*
X123903287Y-106039326D01*
X124093763Y-105944088D01*
X124474716Y-105944088D01*
X124665192Y-106039326D01*
X124760430Y-106229802D01*
X124760430Y-106420279D01*
X123808049Y-106610755D01*
X125331859Y-105944088D02*
X126093763Y-105944088D01*
X125617573Y-107277421D02*
X125617573Y-105563136D01*
X125712811Y-105372660D01*
X125903287Y-105277421D01*
X126093763Y-105277421D01*
X127046144Y-107277421D02*
X126855668Y-107182183D01*
X126760430Y-106991707D01*
X126760430Y-105277421D01*
X128093763Y-107277421D02*
X127903287Y-107182183D01*
X127808049Y-107086945D01*
X127712811Y-106896469D01*
X127712811Y-106325040D01*
X127808049Y-106134564D01*
X127903287Y-106039326D01*
X128093763Y-105944088D01*
X128379478Y-105944088D01*
X128569954Y-106039326D01*
X128665192Y-106134564D01*
X128760430Y-106325040D01*
X128760430Y-106896469D01*
X128665192Y-107086945D01*
X128569954Y-107182183D01*
X128379478Y-107277421D01*
X128093763Y-107277421D01*
X129427097Y-105944088D02*
X129808049Y-107277421D01*
X130189001Y-106325040D01*
X130569954Y-107277421D01*
X130950906Y-105944088D01*
X133617573Y-105277421D02*
X133998525Y-105277421D01*
X134189001Y-105372660D01*
X134379478Y-105563136D01*
X134474716Y-105944088D01*
X134474716Y-106610755D01*
X134379478Y-106991707D01*
X134189001Y-107182183D01*
X133998525Y-107277421D01*
X133617573Y-107277421D01*
X133427097Y-107182183D01*
X133236620Y-106991707D01*
X133141382Y-106610755D01*
X133141382Y-105944088D01*
X133236620Y-105563136D01*
X133427097Y-105372660D01*
X133617573Y-105277421D01*
X135141382Y-105944088D02*
X135617573Y-107277421D01*
X136093763Y-105944088D01*
X137617573Y-107182183D02*
X137427097Y-107277421D01*
X137046144Y-107277421D01*
X136855668Y-107182183D01*
X136760430Y-106991707D01*
X136760430Y-106229802D01*
X136855668Y-106039326D01*
X137046144Y-105944088D01*
X137427097Y-105944088D01*
X137617573Y-106039326D01*
X137712811Y-106229802D01*
X137712811Y-106420279D01*
X136760430Y-106610755D01*
X138569954Y-105944088D02*
X138569954Y-107277421D01*
X138569954Y-106134564D02*
X138665192Y-106039326D01*
X138855668Y-105944088D01*
X139141382Y-105944088D01*
X139331859Y-106039326D01*
X139427097Y-106229802D01*
X139427097Y-107277421D01*
X143046144Y-107086945D02*
X142950906Y-107182183D01*
X142665192Y-107277421D01*
X142474716Y-107277421D01*
X142189001Y-107182183D01*
X141998525Y-106991707D01*
X141903287Y-106801231D01*
X141808049Y-106420279D01*
X141808049Y-106134564D01*
X141903287Y-105753612D01*
X141998525Y-105563136D01*
X142189001Y-105372660D01*
X142474716Y-105277421D01*
X142665192Y-105277421D01*
X142950906Y-105372660D01*
X143046144Y-105467898D01*
X144189001Y-107277421D02*
X143998525Y-107182183D01*
X143903287Y-107086945D01*
X143808049Y-106896469D01*
X143808049Y-106325040D01*
X143903287Y-106134564D01*
X143998525Y-106039326D01*
X144189001Y-105944088D01*
X144474716Y-105944088D01*
X144665192Y-106039326D01*
X144760430Y-106134564D01*
X144855668Y-106325040D01*
X144855668Y-106896469D01*
X144760430Y-107086945D01*
X144665192Y-107182183D01*
X144474716Y-107277421D01*
X144189001Y-107277421D01*
X145712811Y-105944088D02*
X145712811Y-107277421D01*
X145712811Y-106134564D02*
X145808049Y-106039326D01*
X145998525Y-105944088D01*
X146284240Y-105944088D01*
X146474716Y-106039326D01*
X146569954Y-106229802D01*
X146569954Y-107277421D01*
X147236620Y-105944088D02*
X147998525Y-105944088D01*
X147522335Y-105277421D02*
X147522335Y-106991707D01*
X147617573Y-107182183D01*
X147808049Y-107277421D01*
X147998525Y-107277421D01*
X148665192Y-107277421D02*
X148665192Y-105944088D01*
X148665192Y-106325040D02*
X148760430Y-106134564D01*
X148855668Y-106039326D01*
X149046144Y-105944088D01*
X149236620Y-105944088D01*
X150189001Y-107277421D02*
X149998525Y-107182183D01*
X149903287Y-107086945D01*
X149808049Y-106896469D01*
X149808049Y-106325040D01*
X149903287Y-106134564D01*
X149998525Y-106039326D01*
X150189001Y-105944088D01*
X150474716Y-105944088D01*
X150665192Y-106039326D01*
X150760430Y-106134564D01*
X150855668Y-106325040D01*
X150855668Y-106896469D01*
X150760430Y-107086945D01*
X150665192Y-107182183D01*
X150474716Y-107277421D01*
X150189001Y-107277421D01*
X151998525Y-107277421D02*
X151808049Y-107182183D01*
X151712811Y-106991707D01*
X151712811Y-105277421D01*
X153046144Y-107277421D02*
X152855668Y-107182183D01*
X152760430Y-106991707D01*
X152760430Y-105277421D01*
X154569954Y-107182183D02*
X154379478Y-107277421D01*
X153998525Y-107277421D01*
X153808049Y-107182183D01*
X153712811Y-106991707D01*
X153712811Y-106229802D01*
X153808049Y-106039326D01*
X153998525Y-105944088D01*
X154379478Y-105944088D01*
X154569954Y-106039326D01*
X154665192Y-106229802D01*
X154665192Y-106420279D01*
X153712811Y-106610755D01*
X155522335Y-107277421D02*
X155522335Y-105944088D01*
X155522335Y-106325040D02*
X155617573Y-106134564D01*
X155712811Y-106039326D01*
X155903287Y-105944088D01*
X156093763Y-105944088D01*
X131427097Y-108577421D02*
X132093763Y-110577421D01*
X132760430Y-108577421D01*
X135331859Y-108577421D02*
X135522335Y-108577421D01*
X135712811Y-108672660D01*
X135808049Y-108767898D01*
X135903287Y-108958374D01*
X135998525Y-109339326D01*
X135998525Y-109815517D01*
X135903287Y-110196469D01*
X135808049Y-110386945D01*
X135712811Y-110482183D01*
X135522335Y-110577421D01*
X135331859Y-110577421D01*
X135141382Y-110482183D01*
X135046144Y-110386945D01*
X134950906Y-110196469D01*
X134855668Y-109815517D01*
X134855668Y-109339326D01*
X134950906Y-108958374D01*
X135046144Y-108767898D01*
X135141382Y-108672660D01*
X135331859Y-108577421D01*
X136855668Y-110386945D02*
X136950906Y-110482183D01*
X136855668Y-110577421D01*
X136760430Y-110482183D01*
X136855668Y-110386945D01*
X136855668Y-110577421D01*
X138855668Y-110577421D02*
X137712811Y-110577421D01*
X138284240Y-110577421D02*
X138284240Y-108577421D01*
X138093763Y-108863136D01*
X137903287Y-109053612D01*
X137712811Y-109148850D01*
X141236620Y-110577421D02*
X141236620Y-108577421D01*
X141712811Y-108577421D01*
X141998525Y-108672660D01*
X142189001Y-108863136D01*
X142284240Y-109053612D01*
X142379478Y-109434564D01*
X142379478Y-109720279D01*
X142284240Y-110101231D01*
X142189001Y-110291707D01*
X141998525Y-110482183D01*
X141712811Y-110577421D01*
X141236620Y-110577421D01*
X143998525Y-110482183D02*
X143808049Y-110577421D01*
X143427097Y-110577421D01*
X143236620Y-110482183D01*
X143141382Y-110291707D01*
X143141382Y-109529802D01*
X143236620Y-109339326D01*
X143427097Y-109244088D01*
X143808049Y-109244088D01*
X143998525Y-109339326D01*
X144093763Y-109529802D01*
X144093763Y-109720279D01*
X143141382Y-109910755D01*
X145808049Y-110482183D02*
X145617573Y-110577421D01*
X145236620Y-110577421D01*
X145046144Y-110482183D01*
X144950906Y-110386945D01*
X144855668Y-110196469D01*
X144855668Y-109625040D01*
X144950906Y-109434564D01*
X145046144Y-109339326D01*
X145236620Y-109244088D01*
X145617573Y-109244088D01*
X145808049Y-109339326D01*
X146665192Y-109815517D02*
X148189001Y-109815517D01*
X149046144Y-108767898D02*
X149141382Y-108672660D01*
X149331859Y-108577421D01*
X149808049Y-108577421D01*
X149998525Y-108672660D01*
X150093763Y-108767898D01*
X150189001Y-108958374D01*
X150189001Y-109148850D01*
X150093763Y-109434564D01*
X148950906Y-110577421D01*
X150189001Y-110577421D01*
X151427097Y-108577421D02*
X151617573Y-108577421D01*
X151808049Y-108672660D01*
X151903287Y-108767898D01*
X151998525Y-108958374D01*
X152093763Y-109339326D01*
X152093763Y-109815517D01*
X151998525Y-110196469D01*
X151903287Y-110386945D01*
X151808049Y-110482183D01*
X151617573Y-110577421D01*
X151427097Y-110577421D01*
X151236620Y-110482183D01*
X151141382Y-110386945D01*
X151046144Y-110196469D01*
X150950906Y-109815517D01*
X150950906Y-109339326D01*
X151046144Y-108958374D01*
X151141382Y-108767898D01*
X151236620Y-108672660D01*
X151427097Y-108577421D01*
X153998525Y-110577421D02*
X152855668Y-110577421D01*
X153427097Y-110577421D02*
X153427097Y-108577421D01*
X153236620Y-108863136D01*
X153046144Y-109053612D01*
X152855668Y-109148850D01*
X154950906Y-110577421D02*
X155331859Y-110577421D01*
X155522335Y-110482183D01*
X155617573Y-110386945D01*
X155808049Y-110101231D01*
X155903287Y-109720279D01*
X155903287Y-108958374D01*
X155808049Y-108767898D01*
X155712811Y-108672660D01*
X155522335Y-108577421D01*
X155141382Y-108577421D01*
X154950906Y-108672660D01*
X154855668Y-108767898D01*
X154760430Y-108958374D01*
X154760430Y-109434564D01*
X154855668Y-109625040D01*
X154950906Y-109720279D01*
X155141382Y-109815517D01*
X155522335Y-109815517D01*
X155712811Y-109720279D01*
X155808049Y-109625040D01*
X155903287Y-109434564D01*
D11*
X169307452Y-53262280D02*
X169307452Y-53976566D01*
X169259833Y-54119423D01*
X169164595Y-54214661D01*
X169021738Y-54262280D01*
X168926500Y-54262280D01*
X170259833Y-54262280D02*
X169783642Y-54262280D01*
X169783642Y-53262280D01*
X171164595Y-54167042D02*
X171116976Y-54214661D01*
X170974119Y-54262280D01*
X170878880Y-54262280D01*
X170736023Y-54214661D01*
X170640785Y-54119423D01*
X170593166Y-54024185D01*
X170545547Y-53833709D01*
X170545547Y-53690852D01*
X170593166Y-53500376D01*
X170640785Y-53405138D01*
X170736023Y-53309900D01*
X170878880Y-53262280D01*
X170974119Y-53262280D01*
X171116976Y-53309900D01*
X171164595Y-53357519D01*
X171878880Y-53262280D02*
X171878880Y-53976566D01*
X171831261Y-54119423D01*
X171736023Y-54214661D01*
X171593166Y-54262280D01*
X171497928Y-54262280D01*
X172831261Y-54262280D02*
X172355071Y-54262280D01*
X172355071Y-53262280D01*
X173736023Y-54167042D02*
X173688404Y-54214661D01*
X173545547Y-54262280D01*
X173450309Y-54262280D01*
X173307452Y-54214661D01*
X173212214Y-54119423D01*
X173164595Y-54024185D01*
X173116976Y-53833709D01*
X173116976Y-53690852D01*
X173164595Y-53500376D01*
X173212214Y-53405138D01*
X173307452Y-53309900D01*
X173450309Y-53262280D01*
X173545547Y-53262280D01*
X173688404Y-53309900D01*
X173736023Y-53357519D01*
X174450309Y-53262280D02*
X174450309Y-53976566D01*
X174402690Y-54119423D01*
X174307452Y-54214661D01*
X174164595Y-54262280D01*
X174069357Y-54262280D01*
X175402690Y-54262280D02*
X174926500Y-54262280D01*
X174926500Y-53262280D01*
X176307452Y-54167042D02*
X176259833Y-54214661D01*
X176116976Y-54262280D01*
X176021738Y-54262280D01*
X175878880Y-54214661D01*
X175783642Y-54119423D01*
X175736023Y-54024185D01*
X175688404Y-53833709D01*
X175688404Y-53690852D01*
X175736023Y-53500376D01*
X175783642Y-53405138D01*
X175878880Y-53309900D01*
X176021738Y-53262280D01*
X176116976Y-53262280D01*
X176259833Y-53309900D01*
X176307452Y-53357519D01*
X177021738Y-53262280D02*
X177021738Y-53976566D01*
X176974119Y-54119423D01*
X176878880Y-54214661D01*
X176736023Y-54262280D01*
X176640785Y-54262280D01*
X177974119Y-54262280D02*
X177497928Y-54262280D01*
X177497928Y-53262280D01*
X178878880Y-54167042D02*
X178831261Y-54214661D01*
X178688404Y-54262280D01*
X178593166Y-54262280D01*
X178450309Y-54214661D01*
X178355071Y-54119423D01*
X178307452Y-54024185D01*
X178259833Y-53833709D01*
X178259833Y-53690852D01*
X178307452Y-53500376D01*
X178355071Y-53405138D01*
X178450309Y-53309900D01*
X178593166Y-53262280D01*
X178688404Y-53262280D01*
X178831261Y-53309900D01*
X178878880Y-53357519D01*
X124795595Y-68652380D02*
X124795595Y-67652380D01*
X125033690Y-67652380D01*
X125176547Y-67700000D01*
X125271785Y-67795238D01*
X125319404Y-67890476D01*
X125367023Y-68080952D01*
X125367023Y-68223809D01*
X125319404Y-68414285D01*
X125271785Y-68509523D01*
X125176547Y-68604761D01*
X125033690Y-68652380D01*
X124795595Y-68652380D01*
X125795595Y-68652380D02*
X125795595Y-67985714D01*
X125795595Y-67652380D02*
X125747976Y-67700000D01*
X125795595Y-67747619D01*
X125843214Y-67700000D01*
X125795595Y-67652380D01*
X125795595Y-67747619D01*
X126271785Y-68652380D02*
X126271785Y-67985714D01*
X126271785Y-68080952D02*
X126319404Y-68033333D01*
X126414642Y-67985714D01*
X126557500Y-67985714D01*
X126652738Y-68033333D01*
X126700357Y-68128571D01*
X126700357Y-68652380D01*
X126700357Y-68128571D02*
X126747976Y-68033333D01*
X126843214Y-67985714D01*
X126986071Y-67985714D01*
X127081309Y-68033333D01*
X127128928Y-68128571D01*
X127128928Y-68652380D01*
X127986071Y-68604761D02*
X127890833Y-68652380D01*
X127700357Y-68652380D01*
X127605119Y-68604761D01*
X127557500Y-68509523D01*
X127557500Y-68128571D01*
X127605119Y-68033333D01*
X127700357Y-67985714D01*
X127890833Y-67985714D01*
X127986071Y-68033333D01*
X128033690Y-68128571D01*
X128033690Y-68223809D01*
X127557500Y-68319047D01*
X128462261Y-67985714D02*
X128462261Y-68652380D01*
X128462261Y-68080952D02*
X128509880Y-68033333D01*
X128605119Y-67985714D01*
X128747976Y-67985714D01*
X128843214Y-68033333D01*
X128890833Y-68128571D01*
X128890833Y-68652380D01*
X129319404Y-68604761D02*
X129414642Y-68652380D01*
X129605119Y-68652380D01*
X129700357Y-68604761D01*
X129747976Y-68509523D01*
X129747976Y-68461904D01*
X129700357Y-68366666D01*
X129605119Y-68319047D01*
X129462261Y-68319047D01*
X129367023Y-68271428D01*
X129319404Y-68176190D01*
X129319404Y-68128571D01*
X129367023Y-68033333D01*
X129462261Y-67985714D01*
X129605119Y-67985714D01*
X129700357Y-68033333D01*
X130176547Y-68652380D02*
X130176547Y-67985714D01*
X130176547Y-67652380D02*
X130128928Y-67700000D01*
X130176547Y-67747619D01*
X130224166Y-67700000D01*
X130176547Y-67652380D01*
X130176547Y-67747619D01*
X130795595Y-68652380D02*
X130700357Y-68604761D01*
X130652738Y-68557142D01*
X130605119Y-68461904D01*
X130605119Y-68176190D01*
X130652738Y-68080952D01*
X130700357Y-68033333D01*
X130795595Y-67985714D01*
X130938452Y-67985714D01*
X131033690Y-68033333D01*
X131081309Y-68080952D01*
X131128928Y-68176190D01*
X131128928Y-68461904D01*
X131081309Y-68557142D01*
X131033690Y-68604761D01*
X130938452Y-68652380D01*
X130795595Y-68652380D01*
X131557500Y-67985714D02*
X131557500Y-68652380D01*
X131557500Y-68080952D02*
X131605119Y-68033333D01*
X131700357Y-67985714D01*
X131843214Y-67985714D01*
X131938452Y-68033333D01*
X131986071Y-68128571D01*
X131986071Y-68652380D01*
X132414642Y-68604761D02*
X132509880Y-68652380D01*
X132700357Y-68652380D01*
X132795595Y-68604761D01*
X132843214Y-68509523D01*
X132843214Y-68461904D01*
X132795595Y-68366666D01*
X132700357Y-68319047D01*
X132557500Y-68319047D01*
X132462261Y-68271428D01*
X132414642Y-68176190D01*
X132414642Y-68128571D01*
X132462261Y-68033333D01*
X132557500Y-67985714D01*
X132700357Y-67985714D01*
X132795595Y-68033333D01*
X133271785Y-68557142D02*
X133319404Y-68604761D01*
X133271785Y-68652380D01*
X133224166Y-68604761D01*
X133271785Y-68557142D01*
X133271785Y-68652380D01*
X133271785Y-68033333D02*
X133319404Y-68080952D01*
X133271785Y-68128571D01*
X133224166Y-68080952D01*
X133271785Y-68033333D01*
X133271785Y-68128571D01*
X124700357Y-69635714D02*
X124890833Y-70302380D01*
X125081309Y-69826190D01*
X125271785Y-70302380D01*
X125462261Y-69635714D01*
X125843214Y-70302380D02*
X125843214Y-69635714D01*
X125843214Y-69302380D02*
X125795595Y-69350000D01*
X125843214Y-69397619D01*
X125890833Y-69350000D01*
X125843214Y-69302380D01*
X125843214Y-69397619D01*
X126747976Y-70302380D02*
X126747976Y-69302380D01*
X126747976Y-70254761D02*
X126652738Y-70302380D01*
X126462261Y-70302380D01*
X126367023Y-70254761D01*
X126319404Y-70207142D01*
X126271785Y-70111904D01*
X126271785Y-69826190D01*
X126319404Y-69730952D01*
X126367023Y-69683333D01*
X126462261Y-69635714D01*
X126652738Y-69635714D01*
X126747976Y-69683333D01*
X127081309Y-69635714D02*
X127462261Y-69635714D01*
X127224166Y-69302380D02*
X127224166Y-70159523D01*
X127271785Y-70254761D01*
X127367023Y-70302380D01*
X127462261Y-70302380D01*
X127795595Y-70302380D02*
X127795595Y-69302380D01*
X128224166Y-70302380D02*
X128224166Y-69778571D01*
X128176547Y-69683333D01*
X128081309Y-69635714D01*
X127938452Y-69635714D01*
X127843214Y-69683333D01*
X127795595Y-69730952D01*
X130224166Y-69778571D02*
X130986071Y-69778571D01*
X130986071Y-70064285D02*
X130224166Y-70064285D01*
X132271785Y-70302380D02*
X132462261Y-70302380D01*
X132557500Y-70254761D01*
X132605119Y-70207142D01*
X132700357Y-70064285D01*
X132747976Y-69873809D01*
X132747976Y-69492857D01*
X132700357Y-69397619D01*
X132652738Y-69350000D01*
X132557500Y-69302380D01*
X132367023Y-69302380D01*
X132271785Y-69350000D01*
X132224166Y-69397619D01*
X132176547Y-69492857D01*
X132176547Y-69730952D01*
X132224166Y-69826190D01*
X132271785Y-69873809D01*
X132367023Y-69921428D01*
X132557500Y-69921428D01*
X132652738Y-69873809D01*
X132700357Y-69826190D01*
X132747976Y-69730952D01*
X133652738Y-69302380D02*
X133176547Y-69302380D01*
X133128928Y-69778571D01*
X133176547Y-69730952D01*
X133271785Y-69683333D01*
X133509880Y-69683333D01*
X133605119Y-69730952D01*
X133652738Y-69778571D01*
X133700357Y-69873809D01*
X133700357Y-70111904D01*
X133652738Y-70207142D01*
X133605119Y-70254761D01*
X133509880Y-70302380D01*
X133271785Y-70302380D01*
X133176547Y-70254761D01*
X133128928Y-70207142D01*
X134128928Y-70207142D02*
X134176547Y-70254761D01*
X134128928Y-70302380D01*
X134081309Y-70254761D01*
X134128928Y-70207142D01*
X134128928Y-70302380D01*
X134557500Y-69397619D02*
X134605119Y-69350000D01*
X134700357Y-69302380D01*
X134938452Y-69302380D01*
X135033690Y-69350000D01*
X135081309Y-69397619D01*
X135128928Y-69492857D01*
X135128928Y-69588095D01*
X135081309Y-69730952D01*
X134509880Y-70302380D01*
X135128928Y-70302380D01*
X136033690Y-69302380D02*
X135557500Y-69302380D01*
X135509880Y-69778571D01*
X135557500Y-69730952D01*
X135652738Y-69683333D01*
X135890833Y-69683333D01*
X135986071Y-69730952D01*
X136033690Y-69778571D01*
X136081309Y-69873809D01*
X136081309Y-70111904D01*
X136033690Y-70207142D01*
X135986071Y-70254761D01*
X135890833Y-70302380D01*
X135652738Y-70302380D01*
X135557500Y-70254761D01*
X135509880Y-70207142D01*
X136509880Y-70302380D02*
X136509880Y-69635714D01*
X136509880Y-69730952D02*
X136557500Y-69683333D01*
X136652738Y-69635714D01*
X136795595Y-69635714D01*
X136890833Y-69683333D01*
X136938452Y-69778571D01*
X136938452Y-70302380D01*
X136938452Y-69778571D02*
X136986071Y-69683333D01*
X137081309Y-69635714D01*
X137224166Y-69635714D01*
X137319404Y-69683333D01*
X137367023Y-69778571D01*
X137367023Y-70302380D01*
X137843214Y-70302380D02*
X137843214Y-69635714D01*
X137843214Y-69730952D02*
X137890833Y-69683333D01*
X137986071Y-69635714D01*
X138128928Y-69635714D01*
X138224166Y-69683333D01*
X138271785Y-69778571D01*
X138271785Y-70302380D01*
X138271785Y-69778571D02*
X138319404Y-69683333D01*
X138414642Y-69635714D01*
X138557500Y-69635714D01*
X138652738Y-69683333D01*
X138700357Y-69778571D01*
X138700357Y-70302380D01*
X124795595Y-71952380D02*
X124795595Y-70952380D01*
X125224166Y-71952380D02*
X125224166Y-71428571D01*
X125176547Y-71333333D01*
X125081309Y-71285714D01*
X124938452Y-71285714D01*
X124843214Y-71333333D01*
X124795595Y-71380952D01*
X126081309Y-71904761D02*
X125986071Y-71952380D01*
X125795595Y-71952380D01*
X125700357Y-71904761D01*
X125652738Y-71809523D01*
X125652738Y-71428571D01*
X125700357Y-71333333D01*
X125795595Y-71285714D01*
X125986071Y-71285714D01*
X126081309Y-71333333D01*
X126128928Y-71428571D01*
X126128928Y-71523809D01*
X125652738Y-71619047D01*
X126557500Y-71952380D02*
X126557500Y-71285714D01*
X126557500Y-70952380D02*
X126509880Y-71000000D01*
X126557500Y-71047619D01*
X126605119Y-71000000D01*
X126557500Y-70952380D01*
X126557500Y-71047619D01*
X127462261Y-71285714D02*
X127462261Y-72095238D01*
X127414642Y-72190476D01*
X127367023Y-72238095D01*
X127271785Y-72285714D01*
X127128928Y-72285714D01*
X127033690Y-72238095D01*
X127462261Y-71904761D02*
X127367023Y-71952380D01*
X127176547Y-71952380D01*
X127081309Y-71904761D01*
X127033690Y-71857142D01*
X126986071Y-71761904D01*
X126986071Y-71476190D01*
X127033690Y-71380952D01*
X127081309Y-71333333D01*
X127176547Y-71285714D01*
X127367023Y-71285714D01*
X127462261Y-71333333D01*
X127938452Y-71952380D02*
X127938452Y-70952380D01*
X128367023Y-71952380D02*
X128367023Y-71428571D01*
X128319404Y-71333333D01*
X128224166Y-71285714D01*
X128081309Y-71285714D01*
X127986071Y-71333333D01*
X127938452Y-71380952D01*
X128700357Y-71285714D02*
X129081309Y-71285714D01*
X128843214Y-70952380D02*
X128843214Y-71809523D01*
X128890833Y-71904761D01*
X128986071Y-71952380D01*
X129081309Y-71952380D01*
X130176547Y-71428571D02*
X130938452Y-71428571D01*
X130938452Y-71714285D02*
X130176547Y-71714285D01*
X132081309Y-70952380D02*
X132747976Y-70952380D01*
X132319404Y-71952380D01*
X133081309Y-71047619D02*
X133128928Y-71000000D01*
X133224166Y-70952380D01*
X133462261Y-70952380D01*
X133557500Y-71000000D01*
X133605119Y-71047619D01*
X133652738Y-71142857D01*
X133652738Y-71238095D01*
X133605119Y-71380952D01*
X133033690Y-71952380D01*
X133652738Y-71952380D01*
X134081309Y-71857142D02*
X134128928Y-71904761D01*
X134081309Y-71952380D01*
X134033690Y-71904761D01*
X134081309Y-71857142D01*
X134081309Y-71952380D01*
X134462261Y-70952380D02*
X135081309Y-70952380D01*
X134747976Y-71333333D01*
X134890833Y-71333333D01*
X134986071Y-71380952D01*
X135033690Y-71428571D01*
X135081309Y-71523809D01*
X135081309Y-71761904D01*
X135033690Y-71857142D01*
X134986071Y-71904761D01*
X134890833Y-71952380D01*
X134605119Y-71952380D01*
X134509880Y-71904761D01*
X134462261Y-71857142D01*
X135557500Y-71952380D02*
X135747976Y-71952380D01*
X135843214Y-71904761D01*
X135890833Y-71857142D01*
X135986071Y-71714285D01*
X136033690Y-71523809D01*
X136033690Y-71142857D01*
X135986071Y-71047619D01*
X135938452Y-71000000D01*
X135843214Y-70952380D01*
X135652738Y-70952380D01*
X135557500Y-71000000D01*
X135509880Y-71047619D01*
X135462261Y-71142857D01*
X135462261Y-71380952D01*
X135509880Y-71476190D01*
X135557500Y-71523809D01*
X135652738Y-71571428D01*
X135843214Y-71571428D01*
X135938452Y-71523809D01*
X135986071Y-71476190D01*
X136033690Y-71380952D01*
X136462261Y-71952380D02*
X136462261Y-71285714D01*
X136462261Y-71380952D02*
X136509880Y-71333333D01*
X136605119Y-71285714D01*
X136747976Y-71285714D01*
X136843214Y-71333333D01*
X136890833Y-71428571D01*
X136890833Y-71952380D01*
X136890833Y-71428571D02*
X136938452Y-71333333D01*
X137033690Y-71285714D01*
X137176547Y-71285714D01*
X137271785Y-71333333D01*
X137319404Y-71428571D01*
X137319404Y-71952380D01*
X137795595Y-71952380D02*
X137795595Y-71285714D01*
X137795595Y-71380952D02*
X137843214Y-71333333D01*
X137938452Y-71285714D01*
X138081309Y-71285714D01*
X138176547Y-71333333D01*
X138224166Y-71428571D01*
X138224166Y-71952380D01*
X138224166Y-71428571D02*
X138271785Y-71333333D01*
X138367023Y-71285714D01*
X138509880Y-71285714D01*
X138605119Y-71333333D01*
X138652738Y-71428571D01*
X138652738Y-71952380D01*
X127606087Y-65865000D02*
X127606087Y-64865000D01*
X128177516Y-65865000D02*
X127748944Y-65293572D01*
X128177516Y-64865000D02*
X127606087Y-65436429D01*
X128558468Y-65579286D02*
X129034659Y-65579286D01*
X128463230Y-65865000D02*
X128796563Y-64865000D01*
X129129897Y-65865000D01*
X130034659Y-65865000D02*
X129701325Y-65388810D01*
X129463230Y-65865000D02*
X129463230Y-64865000D01*
X129844182Y-64865000D01*
X129939420Y-64912620D01*
X129987040Y-64960239D01*
X130034659Y-65055477D01*
X130034659Y-65198334D01*
X129987040Y-65293572D01*
X129939420Y-65341191D01*
X129844182Y-65388810D01*
X129463230Y-65388810D01*
X130463230Y-65865000D02*
X130463230Y-64865000D01*
X131272754Y-65341191D02*
X131415611Y-65388810D01*
X131463230Y-65436429D01*
X131510849Y-65531667D01*
X131510849Y-65674524D01*
X131463230Y-65769762D01*
X131415611Y-65817381D01*
X131320373Y-65865000D01*
X130939420Y-65865000D01*
X130939420Y-64865000D01*
X131272754Y-64865000D01*
X131367992Y-64912620D01*
X131415611Y-64960239D01*
X131463230Y-65055477D01*
X131463230Y-65150715D01*
X131415611Y-65245953D01*
X131367992Y-65293572D01*
X131272754Y-65341191D01*
X130939420Y-65341191D01*
X131939420Y-65341191D02*
X132272754Y-65341191D01*
X132415611Y-65865000D02*
X131939420Y-65865000D01*
X131939420Y-64865000D01*
X132415611Y-64865000D01*
X178944757Y-107613081D02*
X179087614Y-107660700D01*
X179325709Y-107660700D01*
X179420947Y-107613081D01*
X179468566Y-107565462D01*
X179516185Y-107470224D01*
X179516185Y-107374986D01*
X179468566Y-107279748D01*
X179420947Y-107232129D01*
X179325709Y-107184510D01*
X179135233Y-107136891D01*
X179039995Y-107089272D01*
X178992376Y-107041653D01*
X178944757Y-106946415D01*
X178944757Y-106851177D01*
X178992376Y-106755939D01*
X179039995Y-106708320D01*
X179135233Y-106660700D01*
X179373328Y-106660700D01*
X179516185Y-106708320D01*
X179849519Y-106660700D02*
X180087614Y-107660700D01*
X180278090Y-106946415D01*
X180468566Y-107660700D01*
X180706661Y-106660700D01*
X181659042Y-107660700D02*
X181325709Y-107184510D01*
X181087614Y-107660700D02*
X181087614Y-106660700D01*
X181468566Y-106660700D01*
X181563804Y-106708320D01*
X181611423Y-106755939D01*
X181659042Y-106851177D01*
X181659042Y-106994034D01*
X181611423Y-107089272D01*
X181563804Y-107136891D01*
X181468566Y-107184510D01*
X181087614Y-107184510D01*
X159667415Y-107559741D02*
X159810272Y-107607360D01*
X160048367Y-107607360D01*
X160143605Y-107559741D01*
X160191224Y-107512122D01*
X160238843Y-107416884D01*
X160238843Y-107321646D01*
X160191224Y-107226408D01*
X160143605Y-107178789D01*
X160048367Y-107131170D01*
X159857891Y-107083551D01*
X159762653Y-107035932D01*
X159715034Y-106988313D01*
X159667415Y-106893075D01*
X159667415Y-106797837D01*
X159715034Y-106702599D01*
X159762653Y-106654980D01*
X159857891Y-106607360D01*
X160095986Y-106607360D01*
X160238843Y-106654980D01*
X160572177Y-106607360D02*
X160810272Y-107607360D01*
X161000748Y-106893075D01*
X161191224Y-107607360D01*
X161429320Y-106607360D01*
X162286462Y-107607360D02*
X161810272Y-107607360D01*
X161810272Y-106607360D01*
X135421904Y-58281201D02*
X135564761Y-58328820D01*
X135802857Y-58328820D01*
X135898095Y-58281201D01*
X135945714Y-58233582D01*
X135993333Y-58138344D01*
X135993333Y-58043106D01*
X135945714Y-57947868D01*
X135898095Y-57900249D01*
X135802857Y-57852630D01*
X135612380Y-57805011D01*
X135517142Y-57757392D01*
X135469523Y-57709773D01*
X135421904Y-57614535D01*
X135421904Y-57519297D01*
X135469523Y-57424059D01*
X135517142Y-57376440D01*
X135612380Y-57328820D01*
X135850476Y-57328820D01*
X135993333Y-57376440D01*
X136374285Y-58281201D02*
X136517142Y-58328820D01*
X136755238Y-58328820D01*
X136850476Y-58281201D01*
X136898095Y-58233582D01*
X136945714Y-58138344D01*
X136945714Y-58043106D01*
X136898095Y-57947868D01*
X136850476Y-57900249D01*
X136755238Y-57852630D01*
X136564761Y-57805011D01*
X136469523Y-57757392D01*
X136421904Y-57709773D01*
X136374285Y-57614535D01*
X136374285Y-57519297D01*
X136421904Y-57424059D01*
X136469523Y-57376440D01*
X136564761Y-57328820D01*
X136802857Y-57328820D01*
X136945714Y-57376440D01*
X137945714Y-58328820D02*
X137612380Y-57852630D01*
X137374285Y-58328820D02*
X137374285Y-57328820D01*
X137755238Y-57328820D01*
X137850476Y-57376440D01*
X137898095Y-57424059D01*
X137945714Y-57519297D01*
X137945714Y-57662154D01*
X137898095Y-57757392D01*
X137850476Y-57805011D01*
X137755238Y-57852630D01*
X137374285Y-57852630D01*
X138898095Y-58328820D02*
X138326666Y-58328820D01*
X138612380Y-58328820D02*
X138612380Y-57328820D01*
X138517142Y-57471678D01*
X138421904Y-57566916D01*
X138326666Y-57614535D01*
X168441904Y-58281201D02*
X168584761Y-58328820D01*
X168822857Y-58328820D01*
X168918095Y-58281201D01*
X168965714Y-58233582D01*
X169013333Y-58138344D01*
X169013333Y-58043106D01*
X168965714Y-57947868D01*
X168918095Y-57900249D01*
X168822857Y-57852630D01*
X168632380Y-57805011D01*
X168537142Y-57757392D01*
X168489523Y-57709773D01*
X168441904Y-57614535D01*
X168441904Y-57519297D01*
X168489523Y-57424059D01*
X168537142Y-57376440D01*
X168632380Y-57328820D01*
X168870476Y-57328820D01*
X169013333Y-57376440D01*
X169394285Y-58281201D02*
X169537142Y-58328820D01*
X169775238Y-58328820D01*
X169870476Y-58281201D01*
X169918095Y-58233582D01*
X169965714Y-58138344D01*
X169965714Y-58043106D01*
X169918095Y-57947868D01*
X169870476Y-57900249D01*
X169775238Y-57852630D01*
X169584761Y-57805011D01*
X169489523Y-57757392D01*
X169441904Y-57709773D01*
X169394285Y-57614535D01*
X169394285Y-57519297D01*
X169441904Y-57424059D01*
X169489523Y-57376440D01*
X169584761Y-57328820D01*
X169822857Y-57328820D01*
X169965714Y-57376440D01*
X170965714Y-58328820D02*
X170632380Y-57852630D01*
X170394285Y-58328820D02*
X170394285Y-57328820D01*
X170775238Y-57328820D01*
X170870476Y-57376440D01*
X170918095Y-57424059D01*
X170965714Y-57519297D01*
X170965714Y-57662154D01*
X170918095Y-57757392D01*
X170870476Y-57805011D01*
X170775238Y-57852630D01*
X170394285Y-57852630D01*
X171346666Y-57424059D02*
X171394285Y-57376440D01*
X171489523Y-57328820D01*
X171727619Y-57328820D01*
X171822857Y-57376440D01*
X171870476Y-57424059D01*
X171918095Y-57519297D01*
X171918095Y-57614535D01*
X171870476Y-57757392D01*
X171299047Y-58328820D01*
X171918095Y-58328820D01*
X176009395Y-116842920D02*
X175914157Y-116795300D01*
X175771300Y-116795300D01*
X175628442Y-116842920D01*
X175533204Y-116938158D01*
X175485585Y-117033396D01*
X175437966Y-117223872D01*
X175437966Y-117366729D01*
X175485585Y-117557205D01*
X175533204Y-117652443D01*
X175628442Y-117747681D01*
X175771300Y-117795300D01*
X175866538Y-117795300D01*
X176009395Y-117747681D01*
X176057014Y-117700062D01*
X176057014Y-117366729D01*
X175866538Y-117366729D01*
X176485585Y-117795300D02*
X176485585Y-116795300D01*
X177057014Y-117795300D01*
X177057014Y-116795300D01*
X177533204Y-117795300D02*
X177533204Y-116795300D01*
X177771300Y-116795300D01*
X177914157Y-116842920D01*
X178009395Y-116938158D01*
X178057014Y-117033396D01*
X178104633Y-117223872D01*
X178104633Y-117366729D01*
X178057014Y-117557205D01*
X178009395Y-117652443D01*
X177914157Y-117747681D01*
X177771300Y-117795300D01*
X177533204Y-117795300D01*
X159163640Y-116248440D02*
X159163640Y-115248440D01*
X159401736Y-115248440D01*
X159544593Y-115296060D01*
X159639831Y-115391298D01*
X159687450Y-115486536D01*
X159735069Y-115677012D01*
X159735069Y-115819869D01*
X159687450Y-116010345D01*
X159639831Y-116105583D01*
X159544593Y-116200821D01*
X159401736Y-116248440D01*
X159163640Y-116248440D01*
X160735069Y-116153202D02*
X160687450Y-116200821D01*
X160544593Y-116248440D01*
X160449355Y-116248440D01*
X160306498Y-116200821D01*
X160211260Y-116105583D01*
X160163640Y-116010345D01*
X160116021Y-115819869D01*
X160116021Y-115677012D01*
X160163640Y-115486536D01*
X160211260Y-115391298D01*
X160306498Y-115296060D01*
X160449355Y-115248440D01*
X160544593Y-115248440D01*
X160687450Y-115296060D01*
X160735069Y-115343679D01*
X162401736Y-115248440D02*
X161925545Y-115248440D01*
X161877926Y-115724631D01*
X161925545Y-115677012D01*
X162020783Y-115629393D01*
X162258879Y-115629393D01*
X162354117Y-115677012D01*
X162401736Y-115724631D01*
X162449355Y-115819869D01*
X162449355Y-116057964D01*
X162401736Y-116153202D01*
X162354117Y-116200821D01*
X162258879Y-116248440D01*
X162020783Y-116248440D01*
X161925545Y-116200821D01*
X161877926Y-116153202D01*
X162735069Y-115248440D02*
X163068402Y-116248440D01*
X163401736Y-115248440D01*
X127026209Y-96418660D02*
X127026209Y-95418660D01*
X127359542Y-96132946D01*
X127692876Y-95418660D01*
X127692876Y-96418660D01*
X128169066Y-96418660D02*
X128169066Y-95418660D01*
X128740495Y-96418660D02*
X128311923Y-95847232D01*
X128740495Y-95418660D02*
X128169066Y-95990089D01*
X129121447Y-95513899D02*
X129169066Y-95466280D01*
X129264304Y-95418660D01*
X129502400Y-95418660D01*
X129597638Y-95466280D01*
X129645257Y-95513899D01*
X129692876Y-95609137D01*
X129692876Y-95704375D01*
X129645257Y-95847232D01*
X129073828Y-96418660D01*
X129692876Y-96418660D01*
X130073828Y-95513899D02*
X130121447Y-95466280D01*
X130216685Y-95418660D01*
X130454780Y-95418660D01*
X130550019Y-95466280D01*
X130597638Y-95513899D01*
X130645257Y-95609137D01*
X130645257Y-95704375D01*
X130597638Y-95847232D01*
X130026209Y-96418660D01*
X130645257Y-96418660D01*
X131407161Y-95894851D02*
X131073828Y-95894851D01*
X131073828Y-96418660D02*
X131073828Y-95418660D01*
X131550019Y-95418660D01*
X131930971Y-96418660D02*
X131930971Y-95418660D01*
X132502400Y-96418660D01*
X132502400Y-95418660D01*
X133454780Y-95418660D02*
X132978590Y-95418660D01*
X132930971Y-95894851D01*
X132978590Y-95847232D01*
X133073828Y-95799613D01*
X133311923Y-95799613D01*
X133407161Y-95847232D01*
X133454780Y-95894851D01*
X133502400Y-95990089D01*
X133502400Y-96228184D01*
X133454780Y-96323422D01*
X133407161Y-96371041D01*
X133311923Y-96418660D01*
X133073828Y-96418660D01*
X132978590Y-96371041D01*
X132930971Y-96323422D01*
X134454780Y-96418660D02*
X133883352Y-96418660D01*
X134169066Y-96418660D02*
X134169066Y-95418660D01*
X134073828Y-95561518D01*
X133978590Y-95656756D01*
X133883352Y-95704375D01*
X134835733Y-95513899D02*
X134883352Y-95466280D01*
X134978590Y-95418660D01*
X135216685Y-95418660D01*
X135311923Y-95466280D01*
X135359542Y-95513899D01*
X135407161Y-95609137D01*
X135407161Y-95704375D01*
X135359542Y-95847232D01*
X134788114Y-96418660D01*
X135407161Y-96418660D01*
X135692876Y-95418660D02*
X136026209Y-96418660D01*
X136359542Y-95418660D01*
X137169066Y-96418660D02*
X136692876Y-96418660D01*
X136692876Y-95418660D01*
X137502400Y-96418660D02*
X137502400Y-95418660D01*
X137502400Y-95894851D02*
X138073828Y-95894851D01*
X138073828Y-96418660D02*
X138073828Y-95418660D01*
X139073828Y-96418660D02*
X138502400Y-96418660D01*
X138788114Y-96418660D02*
X138788114Y-95418660D01*
X138692876Y-95561518D01*
X138597638Y-95656756D01*
X138502400Y-95704375D01*
X139454780Y-95513899D02*
X139502400Y-95466280D01*
X139597638Y-95418660D01*
X139835733Y-95418660D01*
X139930971Y-95466280D01*
X139978590Y-95513899D01*
X140026209Y-95609137D01*
X140026209Y-95704375D01*
X139978590Y-95847232D01*
X139407161Y-96418660D01*
X140026209Y-96418660D01*
X119485041Y-118209652D02*
X119532660Y-118066795D01*
X119532660Y-117828700D01*
X119485041Y-117733461D01*
X119437422Y-117685842D01*
X119342184Y-117638223D01*
X119246946Y-117638223D01*
X119151708Y-117685842D01*
X119104089Y-117733461D01*
X119056470Y-117828700D01*
X119008851Y-118019176D01*
X118961232Y-118114414D01*
X118913613Y-118162033D01*
X118818375Y-118209652D01*
X118723137Y-118209652D01*
X118627899Y-118162033D01*
X118580280Y-118114414D01*
X118532660Y-118019176D01*
X118532660Y-117781080D01*
X118580280Y-117638223D01*
X119532660Y-117209652D02*
X118532660Y-117209652D01*
X118532660Y-116971557D01*
X118580280Y-116828700D01*
X118675518Y-116733461D01*
X118770756Y-116685842D01*
X118961232Y-116638223D01*
X119104089Y-116638223D01*
X119294565Y-116685842D01*
X119389803Y-116733461D01*
X119485041Y-116828700D01*
X119532660Y-116971557D01*
X119532660Y-117209652D01*
X119437422Y-114876319D02*
X119485041Y-114923938D01*
X119532660Y-115066795D01*
X119532660Y-115162033D01*
X119485041Y-115304890D01*
X119389803Y-115400128D01*
X119294565Y-115447747D01*
X119104089Y-115495366D01*
X118961232Y-115495366D01*
X118770756Y-115447747D01*
X118675518Y-115400128D01*
X118580280Y-115304890D01*
X118532660Y-115162033D01*
X118532660Y-115066795D01*
X118580280Y-114923938D01*
X118627899Y-114876319D01*
X119532660Y-114019176D02*
X119008851Y-114019176D01*
X118913613Y-114066795D01*
X118865994Y-114162033D01*
X118865994Y-114352509D01*
X118913613Y-114447747D01*
X119485041Y-114019176D02*
X119532660Y-114114414D01*
X119532660Y-114352509D01*
X119485041Y-114447747D01*
X119389803Y-114495366D01*
X119294565Y-114495366D01*
X119199327Y-114447747D01*
X119151708Y-114352509D01*
X119151708Y-114114414D01*
X119104089Y-114019176D01*
X119532660Y-113542985D02*
X118865994Y-113542985D01*
X119056470Y-113542985D02*
X118961232Y-113495366D01*
X118913613Y-113447747D01*
X118865994Y-113352509D01*
X118865994Y-113257271D01*
X119532660Y-112495366D02*
X118532660Y-112495366D01*
X119485041Y-112495366D02*
X119532660Y-112590604D01*
X119532660Y-112781080D01*
X119485041Y-112876319D01*
X119437422Y-112923938D01*
X119342184Y-112971557D01*
X119056470Y-112971557D01*
X118961232Y-112923938D01*
X118913613Y-112876319D01*
X118865994Y-112781080D01*
X118865994Y-112590604D01*
X118913613Y-112495366D01*
X124340264Y-123761760D02*
X124340264Y-122761760D01*
X124578360Y-122761760D01*
X124721217Y-122809380D01*
X124816455Y-122904618D01*
X124864074Y-122999856D01*
X124911693Y-123190332D01*
X124911693Y-123333189D01*
X124864074Y-123523665D01*
X124816455Y-123618903D01*
X124721217Y-123714141D01*
X124578360Y-123761760D01*
X124340264Y-123761760D01*
X125340264Y-123237951D02*
X125673598Y-123237951D01*
X125816455Y-123761760D02*
X125340264Y-123761760D01*
X125340264Y-122761760D01*
X125816455Y-122761760D01*
X126578360Y-123237951D02*
X126721217Y-123285570D01*
X126768836Y-123333189D01*
X126816455Y-123428427D01*
X126816455Y-123571284D01*
X126768836Y-123666522D01*
X126721217Y-123714141D01*
X126625979Y-123761760D01*
X126245026Y-123761760D01*
X126245026Y-122761760D01*
X126578360Y-122761760D01*
X126673598Y-122809380D01*
X126721217Y-122856999D01*
X126768836Y-122952237D01*
X126768836Y-123047475D01*
X126721217Y-123142713D01*
X126673598Y-123190332D01*
X126578360Y-123237951D01*
X126245026Y-123237951D01*
X127245026Y-122761760D02*
X127245026Y-123571284D01*
X127292645Y-123666522D01*
X127340264Y-123714141D01*
X127435502Y-123761760D01*
X127625979Y-123761760D01*
X127721217Y-123714141D01*
X127768836Y-123666522D01*
X127816455Y-123571284D01*
X127816455Y-122761760D01*
X128816455Y-122809380D02*
X128721217Y-122761760D01*
X128578360Y-122761760D01*
X128435502Y-122809380D01*
X128340264Y-122904618D01*
X128292645Y-122999856D01*
X128245026Y-123190332D01*
X128245026Y-123333189D01*
X128292645Y-123523665D01*
X128340264Y-123618903D01*
X128435502Y-123714141D01*
X128578360Y-123761760D01*
X128673598Y-123761760D01*
X128816455Y-123714141D01*
X128864074Y-123666522D01*
X128864074Y-123333189D01*
X128673598Y-123333189D01*
D12*
X118260211Y-73014371D02*
X118860211Y-73014371D01*
X118431640Y-73214371D01*
X118860211Y-73414371D01*
X118260211Y-73414371D01*
X118431640Y-73671514D02*
X118431640Y-73957228D01*
X118260211Y-73614371D02*
X118860211Y-73814371D01*
X118260211Y-74014371D01*
X118860211Y-74157228D02*
X118260211Y-74557228D01*
X118860211Y-74557228D02*
X118260211Y-74157228D01*
X118860211Y-74728657D02*
X118860211Y-75100085D01*
X118631640Y-74900085D01*
X118631640Y-74985800D01*
X118603068Y-75042942D01*
X118574497Y-75071514D01*
X118517354Y-75100085D01*
X118374497Y-75100085D01*
X118317354Y-75071514D01*
X118288782Y-75042942D01*
X118260211Y-74985800D01*
X118260211Y-74814371D01*
X118288782Y-74757228D01*
X118317354Y-74728657D01*
X118260211Y-75671514D02*
X118260211Y-75328657D01*
X118260211Y-75500085D02*
X118860211Y-75500085D01*
X118774497Y-75442942D01*
X118717354Y-75385800D01*
X118688782Y-75328657D01*
X118603068Y-76014371D02*
X118631640Y-75957228D01*
X118660211Y-75928657D01*
X118717354Y-75900085D01*
X118745925Y-75900085D01*
X118803068Y-75928657D01*
X118831640Y-75957228D01*
X118860211Y-76014371D01*
X118860211Y-76128657D01*
X118831640Y-76185800D01*
X118803068Y-76214371D01*
X118745925Y-76242942D01*
X118717354Y-76242942D01*
X118660211Y-76214371D01*
X118631640Y-76185800D01*
X118603068Y-76128657D01*
X118603068Y-76014371D01*
X118574497Y-75957228D01*
X118545925Y-75928657D01*
X118488782Y-75900085D01*
X118374497Y-75900085D01*
X118317354Y-75928657D01*
X118288782Y-75957228D01*
X118260211Y-76014371D01*
X118260211Y-76128657D01*
X118288782Y-76185800D01*
X118317354Y-76214371D01*
X118374497Y-76242942D01*
X118488782Y-76242942D01*
X118545925Y-76214371D01*
X118574497Y-76185800D01*
X118603068Y-76128657D01*
X118860211Y-76785800D02*
X118860211Y-76500085D01*
X118574497Y-76471514D01*
X118603068Y-76500085D01*
X118631640Y-76557228D01*
X118631640Y-76700085D01*
X118603068Y-76757228D01*
X118574497Y-76785800D01*
X118517354Y-76814371D01*
X118374497Y-76814371D01*
X118317354Y-76785800D01*
X118288782Y-76757228D01*
X118260211Y-76700085D01*
X118260211Y-76557228D01*
X118288782Y-76500085D01*
X118317354Y-76471514D01*
X118860211Y-77357228D02*
X118860211Y-77071514D01*
X118574497Y-77042942D01*
X118603068Y-77071514D01*
X118631640Y-77128657D01*
X118631640Y-77271514D01*
X118603068Y-77328657D01*
X118574497Y-77357228D01*
X118517354Y-77385800D01*
X118374497Y-77385800D01*
X118317354Y-77357228D01*
X118288782Y-77328657D01*
X118260211Y-77271514D01*
X118260211Y-77128657D01*
X118288782Y-77071514D01*
X118317354Y-77042942D01*
X118260211Y-77642942D02*
X118860211Y-77642942D01*
X118260211Y-77985800D02*
X118603068Y-77728657D01*
X118860211Y-77985800D02*
X118517354Y-77642942D01*
X118431640Y-78214371D02*
X118431640Y-78500085D01*
X118260211Y-78157228D02*
X118860211Y-78357228D01*
X118260211Y-78557228D01*
X118288782Y-78728657D02*
X118260211Y-78814371D01*
X118260211Y-78957228D01*
X118288782Y-79014371D01*
X118317354Y-79042942D01*
X118374497Y-79071514D01*
X118431640Y-79071514D01*
X118488782Y-79042942D01*
X118517354Y-79014371D01*
X118545925Y-78957228D01*
X118574497Y-78842942D01*
X118603068Y-78785800D01*
X118631640Y-78757228D01*
X118688782Y-78728657D01*
X118745925Y-78728657D01*
X118803068Y-78757228D01*
X118831640Y-78785800D01*
X118860211Y-78842942D01*
X118860211Y-78985800D01*
X118831640Y-79071514D01*
X118431640Y-79300085D02*
X118431640Y-79585800D01*
X118260211Y-79242942D02*
X118860211Y-79442942D01*
X118260211Y-79642942D01*
X118488782Y-79842942D02*
X118488782Y-80300085D01*
X118260211Y-80071514D02*
X118717354Y-80071514D01*
X118860211Y-80500085D02*
X118860211Y-80842942D01*
X118260211Y-80671514D02*
X118860211Y-80671514D01*
D11*
X97647142Y-73112380D02*
X97170952Y-73112380D01*
X97123333Y-73588571D01*
X97170952Y-73540952D01*
X97266190Y-73493333D01*
X97504285Y-73493333D01*
X97599523Y-73540952D01*
X97647142Y-73588571D01*
X97694761Y-73683809D01*
X97694761Y-73921904D01*
X97647142Y-74017142D01*
X97599523Y-74064761D01*
X97504285Y-74112380D01*
X97266190Y-74112380D01*
X97170952Y-74064761D01*
X97123333Y-74017142D01*
X98028095Y-73445714D02*
X98266190Y-74112380D01*
X98504285Y-73445714D01*
X171695288Y-116871500D02*
X172314336Y-116871500D01*
X171981002Y-117252453D01*
X172123860Y-117252453D01*
X172219098Y-117300072D01*
X172266717Y-117347691D01*
X172314336Y-117442929D01*
X172314336Y-117681024D01*
X172266717Y-117776262D01*
X172219098Y-117823881D01*
X172123860Y-117871500D01*
X171838145Y-117871500D01*
X171742907Y-117823881D01*
X171695288Y-117776262D01*
X172742907Y-117776262D02*
X172790526Y-117823881D01*
X172742907Y-117871500D01*
X172695288Y-117823881D01*
X172742907Y-117776262D01*
X172742907Y-117871500D01*
X173123860Y-116871500D02*
X173742907Y-116871500D01*
X173409574Y-117252453D01*
X173552431Y-117252453D01*
X173647669Y-117300072D01*
X173695288Y-117347691D01*
X173742907Y-117442929D01*
X173742907Y-117681024D01*
X173695288Y-117776262D01*
X173647669Y-117823881D01*
X173552431Y-117871500D01*
X173266717Y-117871500D01*
X173171479Y-117823881D01*
X173123860Y-117776262D01*
X174076240Y-117204834D02*
X174314336Y-117871500D01*
X174552431Y-117204834D01*
X179884604Y-78410701D02*
X180027461Y-78458320D01*
X180265557Y-78458320D01*
X180360795Y-78410701D01*
X180408414Y-78363082D01*
X180456033Y-78267844D01*
X180456033Y-78172606D01*
X180408414Y-78077368D01*
X180360795Y-78029749D01*
X180265557Y-77982130D01*
X180075080Y-77934511D01*
X179979842Y-77886892D01*
X179932223Y-77839273D01*
X179884604Y-77744035D01*
X179884604Y-77648797D01*
X179932223Y-77553559D01*
X179979842Y-77505940D01*
X180075080Y-77458320D01*
X180313176Y-77458320D01*
X180456033Y-77505940D01*
X180836985Y-78410701D02*
X180979842Y-78458320D01*
X181217938Y-78458320D01*
X181313176Y-78410701D01*
X181360795Y-78363082D01*
X181408414Y-78267844D01*
X181408414Y-78172606D01*
X181360795Y-78077368D01*
X181313176Y-78029749D01*
X181217938Y-77982130D01*
X181027461Y-77934511D01*
X180932223Y-77886892D01*
X180884604Y-77839273D01*
X180836985Y-77744035D01*
X180836985Y-77648797D01*
X180884604Y-77553559D01*
X180932223Y-77505940D01*
X181027461Y-77458320D01*
X181265557Y-77458320D01*
X181408414Y-77505940D01*
X182408414Y-78458320D02*
X182075080Y-77982130D01*
X181836985Y-78458320D02*
X181836985Y-77458320D01*
X182217938Y-77458320D01*
X182313176Y-77505940D01*
X182360795Y-77553559D01*
X182408414Y-77648797D01*
X182408414Y-77791654D01*
X182360795Y-77886892D01*
X182313176Y-77934511D01*
X182217938Y-77982130D01*
X181836985Y-77982130D01*
X182741747Y-77458320D02*
X183360795Y-77458320D01*
X183027461Y-77839273D01*
X183170319Y-77839273D01*
X183265557Y-77886892D01*
X183313176Y-77934511D01*
X183360795Y-78029749D01*
X183360795Y-78267844D01*
X183313176Y-78363082D01*
X183265557Y-78410701D01*
X183170319Y-78458320D01*
X182884604Y-78458320D01*
X182789366Y-78410701D01*
X182741747Y-78363082D01*
X106694219Y-58860371D02*
X106694219Y-59431800D01*
X105694219Y-59146085D02*
X106694219Y-59146085D01*
X105694219Y-59765133D02*
X106694219Y-59765133D01*
X105694219Y-60193704D02*
X106218028Y-60193704D01*
X106313266Y-60146085D01*
X106360885Y-60050847D01*
X106360885Y-59907990D01*
X106313266Y-59812752D01*
X106265647Y-59765133D01*
X105741838Y-61050847D02*
X105694219Y-60955609D01*
X105694219Y-60765133D01*
X105741838Y-60669895D01*
X105837076Y-60622276D01*
X106218028Y-60622276D01*
X106313266Y-60669895D01*
X106360885Y-60765133D01*
X106360885Y-60955609D01*
X106313266Y-61050847D01*
X106218028Y-61098466D01*
X106122790Y-61098466D01*
X106027552Y-60622276D01*
X105694219Y-61527038D02*
X106360885Y-61527038D01*
X106170409Y-61527038D02*
X106265647Y-61574657D01*
X106313266Y-61622276D01*
X106360885Y-61717514D01*
X106360885Y-61812752D01*
X105694219Y-62146085D02*
X106360885Y-62146085D01*
X106265647Y-62146085D02*
X106313266Y-62193704D01*
X106360885Y-62288942D01*
X106360885Y-62431800D01*
X106313266Y-62527038D01*
X106218028Y-62574657D01*
X105694219Y-62574657D01*
X106218028Y-62574657D02*
X106313266Y-62622276D01*
X106360885Y-62717514D01*
X106360885Y-62860371D01*
X106313266Y-62955609D01*
X106218028Y-63003228D01*
X105694219Y-63003228D01*
X105694219Y-63622276D02*
X105741838Y-63527038D01*
X105789457Y-63479419D01*
X105884695Y-63431800D01*
X106170409Y-63431800D01*
X106265647Y-63479419D01*
X106313266Y-63527038D01*
X106360885Y-63622276D01*
X106360885Y-63765133D01*
X106313266Y-63860371D01*
X106265647Y-63907990D01*
X106170409Y-63955609D01*
X105884695Y-63955609D01*
X105789457Y-63907990D01*
X105741838Y-63860371D01*
X105694219Y-63765133D01*
X105694219Y-63622276D01*
X105741838Y-64812752D02*
X105694219Y-64717514D01*
X105694219Y-64527038D01*
X105741838Y-64431800D01*
X105789457Y-64384180D01*
X105884695Y-64336561D01*
X106170409Y-64336561D01*
X106265647Y-64384180D01*
X106313266Y-64431800D01*
X106360885Y-64527038D01*
X106360885Y-64717514D01*
X106313266Y-64812752D01*
X105694219Y-65384180D02*
X105741838Y-65288942D01*
X105789457Y-65241323D01*
X105884695Y-65193704D01*
X106170409Y-65193704D01*
X106265647Y-65241323D01*
X106313266Y-65288942D01*
X106360885Y-65384180D01*
X106360885Y-65527038D01*
X106313266Y-65622276D01*
X106265647Y-65669895D01*
X106170409Y-65717514D01*
X105884695Y-65717514D01*
X105789457Y-65669895D01*
X105741838Y-65622276D01*
X105694219Y-65527038D01*
X105694219Y-65384180D01*
X106360885Y-66574657D02*
X105694219Y-66574657D01*
X106360885Y-66146085D02*
X105837076Y-66146085D01*
X105741838Y-66193704D01*
X105694219Y-66288942D01*
X105694219Y-66431800D01*
X105741838Y-66527038D01*
X105789457Y-66574657D01*
X106360885Y-67050847D02*
X105360885Y-67050847D01*
X106313266Y-67050847D02*
X106360885Y-67146085D01*
X106360885Y-67336561D01*
X106313266Y-67431800D01*
X106265647Y-67479419D01*
X106170409Y-67527038D01*
X105884695Y-67527038D01*
X105789457Y-67479419D01*
X105741838Y-67431800D01*
X105694219Y-67336561D01*
X105694219Y-67146085D01*
X105741838Y-67050847D01*
X105694219Y-68098466D02*
X105741838Y-68003228D01*
X105837076Y-67955609D01*
X106694219Y-67955609D01*
X105741838Y-68860371D02*
X105694219Y-68765133D01*
X105694219Y-68574657D01*
X105741838Y-68479419D01*
X105837076Y-68431800D01*
X106218028Y-68431800D01*
X106313266Y-68479419D01*
X106360885Y-68574657D01*
X106360885Y-68765133D01*
X106313266Y-68860371D01*
X106218028Y-68907990D01*
X106122790Y-68907990D01*
X106027552Y-68431800D01*
X139060419Y-123497600D02*
X138727085Y-123021410D01*
X138488990Y-123497600D02*
X138488990Y-122497600D01*
X138869942Y-122497600D01*
X138965180Y-122545220D01*
X139012800Y-122592839D01*
X139060419Y-122688077D01*
X139060419Y-122830934D01*
X139012800Y-122926172D01*
X138965180Y-122973791D01*
X138869942Y-123021410D01*
X138488990Y-123021410D01*
X139488990Y-122973791D02*
X139822323Y-122973791D01*
X139965180Y-123497600D02*
X139488990Y-123497600D01*
X139488990Y-122497600D01*
X139965180Y-122497600D01*
X140346133Y-123449981D02*
X140488990Y-123497600D01*
X140727085Y-123497600D01*
X140822323Y-123449981D01*
X140869942Y-123402362D01*
X140917561Y-123307124D01*
X140917561Y-123211886D01*
X140869942Y-123116648D01*
X140822323Y-123069029D01*
X140727085Y-123021410D01*
X140536609Y-122973791D01*
X140441371Y-122926172D01*
X140393752Y-122878553D01*
X140346133Y-122783315D01*
X140346133Y-122688077D01*
X140393752Y-122592839D01*
X140441371Y-122545220D01*
X140536609Y-122497600D01*
X140774704Y-122497600D01*
X140917561Y-122545220D01*
X141346133Y-122973791D02*
X141679466Y-122973791D01*
X141822323Y-123497600D02*
X141346133Y-123497600D01*
X141346133Y-122497600D01*
X141822323Y-122497600D01*
X142108038Y-122497600D02*
X142679466Y-122497600D01*
X142393752Y-123497600D02*
X142393752Y-122497600D01*
D13*
X96579892Y-65058254D02*
X96541797Y-65096349D01*
X96427511Y-65134444D01*
X96351320Y-65134444D01*
X96237035Y-65096349D01*
X96160844Y-65020159D01*
X96122749Y-64943968D01*
X96084654Y-64791587D01*
X96084654Y-64677301D01*
X96122749Y-64524920D01*
X96160844Y-64448730D01*
X96237035Y-64372540D01*
X96351320Y-64334444D01*
X96427511Y-64334444D01*
X96541797Y-64372540D01*
X96579892Y-64410635D01*
X97303701Y-65134444D02*
X96922749Y-65134444D01*
X96922749Y-64334444D01*
X97570368Y-65134444D02*
X97570368Y-64334444D01*
X98027511Y-65134444D02*
X97684654Y-64677301D01*
X98027511Y-64334444D02*
X97570368Y-64791587D01*
X98522749Y-64334444D02*
X98675130Y-64334444D01*
X98751320Y-64372540D01*
X98827511Y-64448730D01*
X98865606Y-64601111D01*
X98865606Y-64867778D01*
X98827511Y-65020159D01*
X98751320Y-65096349D01*
X98675130Y-65134444D01*
X98522749Y-65134444D01*
X98446559Y-65096349D01*
X98370368Y-65020159D01*
X98332273Y-64867778D01*
X98332273Y-64601111D01*
X98370368Y-64448730D01*
X98446559Y-64372540D01*
X98522749Y-64334444D01*
X99208463Y-64334444D02*
X99208463Y-64982063D01*
X99246559Y-65058254D01*
X99284654Y-65096349D01*
X99360844Y-65134444D01*
X99513225Y-65134444D01*
X99589416Y-65096349D01*
X99627511Y-65058254D01*
X99665606Y-64982063D01*
X99665606Y-64334444D01*
X99932273Y-64334444D02*
X100389416Y-64334444D01*
X100160844Y-65134444D02*
X100160844Y-64334444D01*
D14*
X113963520Y-103509578D02*
X113963520Y-102992422D01*
X112543520Y-103509578D02*
X112543520Y-102992422D01*
X121573220Y-96507802D02*
X121573220Y-97024958D01*
X122993220Y-96507802D02*
X122993220Y-97024958D01*
X115070820Y-96502722D02*
X115070820Y-97019878D01*
X116490820Y-96502722D02*
X116490820Y-97019878D01*
D15*
X112724240Y-108710180D02*
G75*
G02X112724240Y-108510180I0J100000D01*
G01*
X112724240Y-108510180D02*
G75*
G02X112724240Y-108710180I0J-100000D01*
G01*
X112724240Y-108510180D02*
X112724240Y-108510180D01*
X112724240Y-108710180D02*
X112724240Y-108710180D01*
D12*
X113624240Y-109760180D02*
X116624240Y-109760180D01*
X117524240Y-118510180D02*
X117524240Y-112010180D01*
X117524240Y-124260180D02*
X117524240Y-122510180D01*
X102724240Y-124260180D02*
X117524240Y-124260180D01*
X102724240Y-122010180D02*
X102724240Y-124260180D01*
X102724240Y-112010180D02*
X102724240Y-118510180D01*
D14*
X177876560Y-108764600D02*
X173476560Y-108764600D01*
X173476560Y-108764600D02*
X173476560Y-108884600D01*
X173476560Y-109894600D02*
X173476560Y-111034600D01*
X173476560Y-112044600D02*
X173476560Y-112164600D01*
X173476560Y-112164600D02*
X177876560Y-112164600D01*
X177876560Y-112164600D02*
X177876560Y-112044600D01*
X177876560Y-111034600D02*
X177876560Y-109894600D01*
X177876560Y-108884600D02*
X177876560Y-108764600D01*
X165001300Y-108764600D02*
X160601300Y-108764600D01*
X160601300Y-108764600D02*
X160601300Y-108884600D01*
X160601300Y-109894600D02*
X160601300Y-111034600D01*
X160601300Y-112044600D02*
X160601300Y-112164600D01*
X160601300Y-112164600D02*
X165001300Y-112164600D01*
X165001300Y-112164600D02*
X165001300Y-112044600D01*
X165001300Y-111034600D02*
X165001300Y-109894600D01*
X165001300Y-108884600D02*
X165001300Y-108764600D01*
X115345640Y-104850840D02*
X117795640Y-104850840D01*
X117145640Y-101630840D02*
X115345640Y-101630840D01*
X106137640Y-98958902D02*
X106137640Y-99476058D01*
X107557640Y-98958902D02*
X107557640Y-99476058D01*
X107654160Y-92458038D02*
X107654160Y-91940882D01*
X106234160Y-92458038D02*
X106234160Y-91940882D01*
X96909122Y-114037180D02*
X97426278Y-114037180D01*
X96909122Y-112617180D02*
X97426278Y-112617180D01*
X179725860Y-98734661D02*
X179725860Y-99060219D01*
X180745860Y-98734661D02*
X180745860Y-99060219D01*
X168628600Y-98721961D02*
X168628600Y-99047519D01*
X169648600Y-98721961D02*
X169648600Y-99047519D01*
X177025300Y-105118860D02*
X178355300Y-105118860D01*
X178355300Y-105118860D02*
X178355300Y-106448860D01*
X175755300Y-105118860D02*
X175755300Y-107718860D01*
X175755300Y-107718860D02*
X178355300Y-107718860D01*
X178355300Y-107718860D02*
X178355300Y-107778860D01*
X173155300Y-107778860D02*
X178355300Y-107778860D01*
X173155300Y-105118860D02*
X173155300Y-107778860D01*
X173155300Y-105118860D02*
X175755300Y-105118860D01*
X166707820Y-105118860D02*
X168037820Y-105118860D01*
X168037820Y-105118860D02*
X168037820Y-106448860D01*
X165437820Y-105118860D02*
X165437820Y-107718860D01*
X165437820Y-107718860D02*
X168037820Y-107718860D01*
X168037820Y-107718860D02*
X168037820Y-107778860D01*
X162837820Y-107778860D02*
X168037820Y-107778860D01*
X162837820Y-105118860D02*
X162837820Y-107778860D01*
X162837820Y-105118860D02*
X165437820Y-105118860D01*
X120122520Y-95166540D02*
X117672520Y-95166540D01*
X118322520Y-98386540D02*
X120122520Y-98386540D01*
X162585940Y-72849521D02*
X162585940Y-73175079D01*
X163605940Y-72849521D02*
X163605940Y-73175079D01*
X160385541Y-69130640D02*
X160711099Y-69130640D01*
X160385541Y-68110640D02*
X160711099Y-68110640D01*
X144744980Y-72961281D02*
X144744980Y-73286839D01*
X145764980Y-72961281D02*
X145764980Y-73286839D01*
X142717301Y-69123020D02*
X143042859Y-69123020D01*
X142717301Y-68103020D02*
X143042859Y-68103020D01*
X164861780Y-71145520D02*
X163401780Y-71145520D01*
X164861780Y-67985520D02*
X162701780Y-67985520D01*
X164861780Y-67985520D02*
X164861780Y-68915520D01*
X164861780Y-71145520D02*
X164861780Y-70215520D01*
X147018280Y-71142980D02*
X145558280Y-71142980D01*
X147018280Y-67982980D02*
X144858280Y-67982980D01*
X147018280Y-67982980D02*
X147018280Y-68912980D01*
X147018280Y-71142980D02*
X147018280Y-70212980D01*
X157293660Y-66126700D02*
X157793660Y-66126700D01*
X157293660Y-65386700D02*
X157293660Y-66126700D01*
X163866660Y-62249700D02*
X163819660Y-62295700D01*
X166163660Y-59951700D02*
X166128660Y-59987700D01*
X164059660Y-62465700D02*
X164024660Y-62500700D01*
X166368660Y-60157700D02*
X166321660Y-60203700D01*
X167653660Y-55965700D02*
X167653660Y-65886700D01*
X157533660Y-55965700D02*
X157533660Y-65886700D01*
X157533660Y-65886700D02*
X167653660Y-65886700D01*
X157533660Y-55965700D02*
X167653660Y-55965700D01*
X157533660Y-58925700D02*
X167653660Y-58925700D01*
X157533660Y-63826700D02*
X167653660Y-63826700D01*
X157533660Y-65326700D02*
X167653660Y-65326700D01*
X166773660Y-61226700D02*
G75*
G03X166773660Y-61226700I-1680000J0D01*
G01*
X160122465Y-62906953D02*
G75*
G02X159409660Y-62761700I-28805J1680253D01*
G01*
X158558234Y-61909742D02*
G75*
G02X158558660Y-60542700I1535426J683042D01*
G01*
X159410618Y-59691274D02*
G75*
G02X160777660Y-59691700I683042J-1535426D01*
G01*
X161629086Y-60543658D02*
G75*
G02X161628660Y-61910700I-1535426J-683042D01*
G01*
X160776978Y-62761456D02*
G75*
G02X160093660Y-62906700I-683318J1534756D01*
G01*
X139460320Y-66096220D02*
X139960320Y-66096220D01*
X139460320Y-65356220D02*
X139460320Y-66096220D01*
X146033320Y-62219220D02*
X145986320Y-62265220D01*
X148330320Y-59921220D02*
X148295320Y-59957220D01*
X146226320Y-62435220D02*
X146191320Y-62470220D01*
X148535320Y-60127220D02*
X148488320Y-60173220D01*
X149820320Y-55935220D02*
X149820320Y-65856220D01*
X139700320Y-55935220D02*
X139700320Y-65856220D01*
X139700320Y-65856220D02*
X149820320Y-65856220D01*
X139700320Y-55935220D02*
X149820320Y-55935220D01*
X139700320Y-58895220D02*
X149820320Y-58895220D01*
X139700320Y-63796220D02*
X149820320Y-63796220D01*
X139700320Y-65296220D02*
X149820320Y-65296220D01*
X148940320Y-61196220D02*
G75*
G03X148940320Y-61196220I-1680000J0D01*
G01*
X142289125Y-62876473D02*
G75*
G02X141576320Y-62731220I-28805J1680253D01*
G01*
X140724894Y-61879262D02*
G75*
G02X140725320Y-60512220I1535426J683042D01*
G01*
X141577278Y-59660794D02*
G75*
G02X142944320Y-59661220I683042J-1535426D01*
G01*
X143795746Y-60513178D02*
G75*
G02X143795320Y-61880220I-1535426J-683042D01*
G01*
X142943638Y-62730976D02*
G75*
G02X142260320Y-62876220I-683318J1534756D01*
G01*
X116870600Y-64949800D02*
X116870600Y-66409800D01*
X113710600Y-64949800D02*
X113710600Y-67109800D01*
X113710600Y-64949800D02*
X114640600Y-64949800D01*
X116870600Y-64949800D02*
X115940600Y-64949800D01*
X117413821Y-69267800D02*
X117739379Y-69267800D01*
X117413821Y-68247800D02*
X117739379Y-68247800D01*
X113167379Y-68247800D02*
X112841821Y-68247800D01*
X113167379Y-69267800D02*
X112841821Y-69267800D01*
X108684600Y-74437021D02*
X108684600Y-74762579D01*
X109704600Y-74437021D02*
X109704600Y-74762579D01*
X115127821Y-72315800D02*
X115453379Y-72315800D01*
X115127821Y-71295800D02*
X115453379Y-71295800D01*
D15*
X123058380Y-67765800D02*
X107558380Y-67765800D01*
X107558380Y-51765800D02*
X123058380Y-51765800D01*
X108458380Y-72565800D02*
X122158380Y-72565800D01*
X122158380Y-72565800D02*
X122158380Y-71715800D01*
X122158380Y-67765800D02*
X122158380Y-68415800D01*
X108458380Y-72565800D02*
X108458380Y-71715800D01*
X108458380Y-67765800D02*
X108458380Y-68415800D01*
X107558380Y-67765800D02*
X107558380Y-58215800D01*
X107558380Y-51765800D02*
X107558380Y-54915800D01*
X123058380Y-51765800D02*
X123058380Y-54915800D01*
X123058380Y-67765800D02*
X123058380Y-58215800D01*
X115308380Y-67815800D02*
X115308380Y-69615800D01*
D14*
X129271880Y-97137320D02*
X126871880Y-97137320D01*
X129271880Y-98737320D02*
X129271880Y-97137320D01*
X126871880Y-98737320D02*
X129271880Y-98737320D01*
X172183520Y-110340359D02*
X172183520Y-110014801D01*
X171163520Y-110340359D02*
X171163520Y-110014801D01*
X159039020Y-110342899D02*
X159039020Y-110017341D01*
X158019020Y-110342899D02*
X158019020Y-110017341D01*
X172986481Y-101297200D02*
X173312039Y-101297200D01*
X172986481Y-100277200D02*
X173312039Y-100277200D01*
X176390081Y-101302280D02*
X176715639Y-101302280D01*
X176390081Y-100282280D02*
X176715639Y-100282280D01*
X180443921Y-109900180D02*
X180769479Y-109900180D01*
X180443921Y-108880180D02*
X180769479Y-108880180D01*
X167474681Y-109900180D02*
X167800239Y-109900180D01*
X167474681Y-108880180D02*
X167800239Y-108880180D01*
X167561800Y-81312801D02*
X167561800Y-81638359D01*
X168581800Y-81312801D02*
X168581800Y-81638359D01*
D15*
X172226300Y-82299020D02*
G75*
G02X172426300Y-82299020I100000J0D01*
G01*
X172426300Y-82299020D02*
G75*
G02X172226300Y-82299020I-100000J0D01*
G01*
D12*
X180726300Y-84599020D02*
X180726300Y-88399020D01*
X178226300Y-84599020D02*
X180726300Y-84599020D01*
X168926300Y-84599020D02*
X171426300Y-84599020D01*
X168926300Y-88399020D02*
X168926300Y-84599020D01*
D15*
X172426300Y-82299020D02*
X172426300Y-82299020D01*
X172226300Y-82299020D02*
X172226300Y-82299020D01*
D12*
X180726300Y-96599020D02*
X180726300Y-92799020D01*
X168926300Y-96599020D02*
X180726300Y-96599020D01*
X168926300Y-92799020D02*
X168926300Y-96599020D01*
D14*
X173662880Y-76684921D02*
X173662880Y-77010479D01*
X174682880Y-76684921D02*
X174682880Y-77010479D01*
X171795221Y-73141300D02*
X172120779Y-73141300D01*
X171795221Y-72121300D02*
X172120779Y-72121300D01*
X175938720Y-75168880D02*
X174478720Y-75168880D01*
X175938720Y-72008880D02*
X173778720Y-72008880D01*
X175938720Y-72008880D02*
X175938720Y-72938880D01*
X175938720Y-75168880D02*
X175938720Y-74238880D01*
X177218000Y-65780000D02*
X177218000Y-66280000D01*
X177958000Y-65780000D02*
X177218000Y-65780000D01*
X181095000Y-72353000D02*
X181049000Y-72306000D01*
X183393000Y-74650000D02*
X183357000Y-74615000D01*
X180879000Y-72546000D02*
X180844000Y-72511000D01*
X183187000Y-74855000D02*
X183141000Y-74808000D01*
X187379000Y-76140000D02*
X177458000Y-76140000D01*
X187379000Y-66020000D02*
X177458000Y-66020000D01*
X177458000Y-66020000D02*
X177458000Y-76140000D01*
X187379000Y-66020000D02*
X187379000Y-76140000D01*
X184419000Y-66020000D02*
X184419000Y-76140000D01*
X179518000Y-66020000D02*
X179518000Y-76140000D01*
X178018000Y-66020000D02*
X178018000Y-76140000D01*
X183798000Y-73580000D02*
G75*
G03X183798000Y-73580000I-1680000J0D01*
G01*
X180437747Y-68608805D02*
G75*
G02X180583000Y-67896000I1680253J28805D01*
G01*
X181434958Y-67044574D02*
G75*
G02X182802000Y-67045000I683042J-1535426D01*
G01*
X183653426Y-67896958D02*
G75*
G02X183653000Y-69264000I-1535426J-683042D01*
G01*
X182801042Y-70115426D02*
G75*
G02X181434000Y-70115000I-683042J1535426D01*
G01*
X180583244Y-69263318D02*
G75*
G02X180438000Y-68580000I1534756J683318D01*
G01*
X174220000Y-120502680D02*
G75*
G03X174220000Y-120502680I-1500000J0D01*
G01*
X145679700Y-117457001D02*
X145679700Y-117782559D01*
X146699700Y-117457001D02*
X146699700Y-117782559D01*
X146924700Y-122279780D02*
X146924700Y-119994780D01*
X145454700Y-122279780D02*
X146924700Y-122279780D01*
X145454700Y-119994780D02*
X145454700Y-122279780D01*
X159160000Y-118250000D02*
X159160000Y-117035000D01*
X159220000Y-122210000D02*
X159220000Y-124470000D01*
X159720000Y-122210000D02*
X159720000Y-124470000D01*
X162320000Y-120610000D02*
X163320000Y-120610000D01*
X162320000Y-122210000D02*
X162320000Y-120610000D01*
X163320000Y-122210000D02*
X162320000Y-122210000D01*
X163320000Y-120610000D02*
X163320000Y-122210000D01*
X159720000Y-120610000D02*
X158720000Y-120610000D01*
X159720000Y-122210000D02*
X159720000Y-120610000D01*
X158720000Y-122210000D02*
X159720000Y-122210000D01*
X158720000Y-120610000D02*
X158720000Y-122210000D01*
X164080000Y-118250000D02*
X163160000Y-118250000D01*
X157960000Y-118250000D02*
X158880000Y-118250000D01*
X161520000Y-120110000D02*
X161520000Y-124470000D01*
X160520000Y-120110000D02*
X161520000Y-120110000D01*
X160520000Y-124470000D02*
X160520000Y-120110000D01*
X163160000Y-118250000D02*
X162880000Y-118250000D01*
X163160000Y-116650000D02*
X163160000Y-118250000D01*
X164080000Y-116650000D02*
X163160000Y-116650000D01*
X164080000Y-124470000D02*
X164080000Y-116650000D01*
X157960000Y-124470000D02*
X164080000Y-124470000D01*
X157960000Y-116650000D02*
X157960000Y-124470000D01*
X158880000Y-116650000D02*
X157960000Y-116650000D01*
X158880000Y-118250000D02*
X158880000Y-116650000D01*
X159160000Y-118250000D02*
X158880000Y-118250000D01*
X135414000Y-98978620D02*
X135414000Y-99378620D01*
X135614000Y-98978620D02*
X135614000Y-99378620D01*
X139214000Y-98978620D02*
X139214000Y-99378620D01*
X135414000Y-96978620D02*
X135414000Y-98978620D01*
X136614000Y-99378620D02*
X136614000Y-99778620D01*
X136614000Y-99378620D02*
X135614000Y-99378620D01*
X135614000Y-98978620D02*
X135614000Y-96978620D01*
X135614000Y-96978620D02*
X136614000Y-96978620D01*
X138414000Y-96978620D02*
X139214000Y-96978620D01*
X139214000Y-96978620D02*
X139214000Y-98978620D01*
X139214000Y-99378620D02*
X138414000Y-99378620D01*
X130058240Y-117277180D02*
X130123240Y-117277180D01*
X130058240Y-120807180D02*
X130123240Y-120807180D01*
X123653240Y-117277180D02*
X123718240Y-117277180D01*
X123653240Y-120807180D02*
X123718240Y-120807180D01*
X123718240Y-122132180D02*
X123718240Y-120807180D01*
X130123240Y-120807180D02*
X130123240Y-117277180D01*
X123653240Y-120807180D02*
X123653240Y-117277180D01*
X117827740Y-76250800D02*
X117827740Y-72800800D01*
X117827740Y-76250800D02*
X117827740Y-78200800D01*
X112707740Y-76250800D02*
X112707740Y-74300800D01*
X112707740Y-76250800D02*
X112707740Y-78200800D01*
X126589000Y-84493620D02*
X125249000Y-84493620D01*
X126589000Y-83543620D02*
X126589000Y-84493620D01*
X127539000Y-83543620D02*
X126589000Y-83543620D01*
X136809000Y-83543620D02*
X136809000Y-84493620D01*
X135859000Y-83543620D02*
X136809000Y-83543620D01*
X126589000Y-93763620D02*
X126589000Y-92813620D01*
X127539000Y-93763620D02*
X126589000Y-93763620D01*
X136809000Y-93763620D02*
X136809000Y-92813620D01*
X135859000Y-93763620D02*
X136809000Y-93763620D01*
X99290000Y-67310000D02*
G75*
G03X99290000Y-67310000I-1500000J0D01*
G01*
X178284000Y-120502680D02*
G75*
G03X178284000Y-120502680I-1500000J0D01*
G01*
X99290000Y-71120000D02*
G75*
G03X99290000Y-71120000I-1500000J0D01*
G01*
X138901700Y-117037760D02*
X138901700Y-121437760D01*
X138901700Y-121437760D02*
X139021700Y-121437760D01*
X140031700Y-121437760D02*
X141171700Y-121437760D01*
X142181700Y-121437760D02*
X142301700Y-121437760D01*
X142301700Y-121437760D02*
X142301700Y-117037760D01*
X142301700Y-117037760D02*
X142181700Y-117037760D01*
X141171700Y-117037760D02*
X140031700Y-117037760D01*
X139021700Y-117037760D02*
X138901700Y-117037760D01*
X150190740Y-117462081D02*
X150190740Y-117787639D01*
X151210740Y-117462081D02*
X151210740Y-117787639D01*
X141166120Y-114254061D02*
X141166120Y-114579619D01*
X142186120Y-114254061D02*
X142186120Y-114579619D01*
X119701540Y-90791540D02*
X118301540Y-90791540D01*
X117601540Y-90091540D02*
X117601540Y-89491540D01*
X118301540Y-88791540D02*
X119701540Y-88791540D01*
X120401540Y-89491540D02*
X120401540Y-90091540D01*
X120401540Y-90091540D02*
G75*
G02X119701540Y-90791540I-700000J0D01*
G01*
X119701540Y-88791540D02*
G75*
G02X120401540Y-89491540I0J-700000D01*
G01*
X117601540Y-89491540D02*
G75*
G02X118301540Y-88791540I700000J0D01*
G01*
X118301540Y-90791540D02*
G75*
G02X117601540Y-90091540I0J700000D01*
G01*
X94080020Y-103585520D02*
X94340020Y-103585520D01*
X96620020Y-103585520D02*
X98390020Y-103585520D01*
X98390020Y-103585520D02*
X98390020Y-103965520D01*
X98390020Y-111205520D02*
X96620020Y-111205520D01*
X94340020Y-111205520D02*
X94080020Y-111205520D01*
X98390020Y-111205520D02*
X98390020Y-110825520D01*
X151440820Y-122279780D02*
X151440820Y-119994780D01*
X149970820Y-122279780D02*
X151440820Y-122279780D01*
X149970820Y-119994780D02*
X149970820Y-122279780D01*
X104933600Y-103080220D02*
X101983600Y-103080220D01*
X102533600Y-106180220D02*
X104933600Y-106180220D01*
X105183400Y-94180540D02*
X106643400Y-94180540D01*
X105183400Y-97340540D02*
X107343400Y-97340540D01*
X105183400Y-97340540D02*
X105183400Y-96410540D01*
X105183400Y-94180540D02*
X105183400Y-95110540D01*
X110820740Y-74437021D02*
X110820740Y-74762579D01*
X111840740Y-74437021D02*
X111840740Y-74762579D01*
X125453359Y-95489300D02*
X125127801Y-95489300D01*
X125453359Y-96509300D02*
X125127801Y-96509300D01*
X123098779Y-84206620D02*
X122773221Y-84206620D01*
X123098779Y-85226620D02*
X122773221Y-85226620D01*
X133475000Y-97888841D02*
X133475000Y-98214399D01*
X134495000Y-97888841D02*
X134495000Y-98214399D01*
X139977400Y-83741041D02*
X139977400Y-84066599D01*
X140997400Y-83741041D02*
X140997400Y-84066599D01*
X119134160Y-92371961D02*
X119134160Y-92697519D01*
X120154160Y-92371961D02*
X120154160Y-92697519D01*
X122807000Y-90649841D02*
X122807000Y-90975399D01*
X123827000Y-90649841D02*
X123827000Y-90975399D01*
X138063700Y-119527539D02*
X138063700Y-119201981D01*
X137043700Y-119527539D02*
X137043700Y-119201981D01*
X119817382Y-103480800D02*
X120334538Y-103480800D01*
X119817382Y-104900800D02*
X120334538Y-104900800D01*
D11*
X112623362Y-105939862D02*
X112575743Y-105987481D01*
X112432886Y-106035100D01*
X112337648Y-106035100D01*
X112194791Y-105987481D01*
X112099553Y-105892243D01*
X112051934Y-105797005D01*
X112004315Y-105606529D01*
X112004315Y-105463672D01*
X112051934Y-105273196D01*
X112099553Y-105177958D01*
X112194791Y-105082720D01*
X112337648Y-105035100D01*
X112432886Y-105035100D01*
X112575743Y-105082720D01*
X112623362Y-105130339D01*
X113004315Y-105130339D02*
X113051934Y-105082720D01*
X113147172Y-105035100D01*
X113385267Y-105035100D01*
X113480505Y-105082720D01*
X113528124Y-105130339D01*
X113575743Y-105225577D01*
X113575743Y-105320815D01*
X113528124Y-105463672D01*
X112956696Y-106035100D01*
X113575743Y-106035100D01*
X114194791Y-105035100D02*
X114290029Y-105035100D01*
X114385267Y-105082720D01*
X114432886Y-105130339D01*
X114480505Y-105225577D01*
X114528124Y-105416053D01*
X114528124Y-105654148D01*
X114480505Y-105844624D01*
X114432886Y-105939862D01*
X114385267Y-105987481D01*
X114290029Y-106035100D01*
X114194791Y-106035100D01*
X114099553Y-105987481D01*
X114051934Y-105939862D01*
X114004315Y-105844624D01*
X113956696Y-105654148D01*
X113956696Y-105416053D01*
X114004315Y-105225577D01*
X114051934Y-105130339D01*
X114099553Y-105082720D01*
X114194791Y-105035100D01*
X122101313Y-94883242D02*
X122053694Y-94930861D01*
X121910837Y-94978480D01*
X121815599Y-94978480D01*
X121672741Y-94930861D01*
X121577503Y-94835623D01*
X121529884Y-94740385D01*
X121482265Y-94549909D01*
X121482265Y-94407052D01*
X121529884Y-94216576D01*
X121577503Y-94121338D01*
X121672741Y-94026100D01*
X121815599Y-93978480D01*
X121910837Y-93978480D01*
X122053694Y-94026100D01*
X122101313Y-94073719D01*
X122958456Y-93978480D02*
X122767980Y-93978480D01*
X122672741Y-94026100D01*
X122625122Y-94073719D01*
X122529884Y-94216576D01*
X122482265Y-94407052D01*
X122482265Y-94788004D01*
X122529884Y-94883242D01*
X122577503Y-94930861D01*
X122672741Y-94978480D01*
X122863218Y-94978480D01*
X122958456Y-94930861D01*
X123006075Y-94883242D01*
X123053694Y-94788004D01*
X123053694Y-94549909D01*
X123006075Y-94454671D01*
X122958456Y-94407052D01*
X122863218Y-94359433D01*
X122672741Y-94359433D01*
X122577503Y-94407052D01*
X122529884Y-94454671D01*
X122482265Y-94549909D01*
X113732013Y-97123522D02*
X113684394Y-97171141D01*
X113541537Y-97218760D01*
X113446299Y-97218760D01*
X113303441Y-97171141D01*
X113208203Y-97075903D01*
X113160584Y-96980665D01*
X113112965Y-96790189D01*
X113112965Y-96647332D01*
X113160584Y-96456856D01*
X113208203Y-96361618D01*
X113303441Y-96266380D01*
X113446299Y-96218760D01*
X113541537Y-96218760D01*
X113684394Y-96266380D01*
X113732013Y-96313999D01*
X114636775Y-96218760D02*
X114160584Y-96218760D01*
X114112965Y-96694951D01*
X114160584Y-96647332D01*
X114255822Y-96599713D01*
X114493918Y-96599713D01*
X114589156Y-96647332D01*
X114636775Y-96694951D01*
X114684394Y-96790189D01*
X114684394Y-97028284D01*
X114636775Y-97123522D01*
X114589156Y-97171141D01*
X114493918Y-97218760D01*
X114255822Y-97218760D01*
X114160584Y-97171141D01*
X114112965Y-97123522D01*
D16*
X108521620Y-117199227D02*
X108703049Y-117259703D01*
X109005430Y-117259703D01*
X109126382Y-117199227D01*
X109186859Y-117138751D01*
X109247335Y-117017799D01*
X109247335Y-116896846D01*
X109186859Y-116775894D01*
X109126382Y-116715418D01*
X109005430Y-116654941D01*
X108763525Y-116594465D01*
X108642573Y-116533989D01*
X108582097Y-116473513D01*
X108521620Y-116352560D01*
X108521620Y-116231608D01*
X108582097Y-116110656D01*
X108642573Y-116050180D01*
X108763525Y-115989703D01*
X109065906Y-115989703D01*
X109247335Y-116050180D01*
X109791620Y-117259703D02*
X109791620Y-115989703D01*
X110094001Y-115989703D01*
X110275430Y-116050180D01*
X110396382Y-116171132D01*
X110456859Y-116292084D01*
X110517335Y-116533989D01*
X110517335Y-116715418D01*
X110456859Y-116957322D01*
X110396382Y-117078275D01*
X110275430Y-117199227D01*
X110094001Y-117259703D01*
X109791620Y-117259703D01*
X111726859Y-117259703D02*
X111001144Y-117259703D01*
X111364001Y-117259703D02*
X111364001Y-115989703D01*
X111243049Y-116171132D01*
X111122097Y-116292084D01*
X111001144Y-116352560D01*
D11*
X109701033Y-107096502D02*
X109653414Y-107144121D01*
X109510557Y-107191740D01*
X109415319Y-107191740D01*
X109272461Y-107144121D01*
X109177223Y-107048883D01*
X109129604Y-106953645D01*
X109081985Y-106763169D01*
X109081985Y-106620312D01*
X109129604Y-106429836D01*
X109177223Y-106334598D01*
X109272461Y-106239360D01*
X109415319Y-106191740D01*
X109510557Y-106191740D01*
X109653414Y-106239360D01*
X109701033Y-106286979D01*
X110034366Y-106191740D02*
X110701033Y-106191740D01*
X110272461Y-107191740D01*
X174411806Y-113543981D02*
X174554663Y-113591600D01*
X174792759Y-113591600D01*
X174887997Y-113543981D01*
X174935616Y-113496362D01*
X174983235Y-113401124D01*
X174983235Y-113305886D01*
X174935616Y-113210648D01*
X174887997Y-113163029D01*
X174792759Y-113115410D01*
X174602282Y-113067791D01*
X174507044Y-113020172D01*
X174459425Y-112972553D01*
X174411806Y-112877315D01*
X174411806Y-112782077D01*
X174459425Y-112686839D01*
X174507044Y-112639220D01*
X174602282Y-112591600D01*
X174840378Y-112591600D01*
X174983235Y-112639220D01*
X175316568Y-112591600D02*
X175554663Y-113591600D01*
X175745140Y-112877315D01*
X175935616Y-113591600D01*
X176173711Y-112591600D01*
X176459425Y-112591600D02*
X177078473Y-112591600D01*
X176745140Y-112972553D01*
X176887997Y-112972553D01*
X176983235Y-113020172D01*
X177030854Y-113067791D01*
X177078473Y-113163029D01*
X177078473Y-113401124D01*
X177030854Y-113496362D01*
X176983235Y-113543981D01*
X176887997Y-113591600D01*
X176602282Y-113591600D01*
X176507044Y-113543981D01*
X176459425Y-113496362D01*
X161473046Y-113480481D02*
X161615903Y-113528100D01*
X161853999Y-113528100D01*
X161949237Y-113480481D01*
X161996856Y-113432862D01*
X162044475Y-113337624D01*
X162044475Y-113242386D01*
X161996856Y-113147148D01*
X161949237Y-113099529D01*
X161853999Y-113051910D01*
X161663522Y-113004291D01*
X161568284Y-112956672D01*
X161520665Y-112909053D01*
X161473046Y-112813815D01*
X161473046Y-112718577D01*
X161520665Y-112623339D01*
X161568284Y-112575720D01*
X161663522Y-112528100D01*
X161901618Y-112528100D01*
X162044475Y-112575720D01*
X162377808Y-112528100D02*
X162615903Y-113528100D01*
X162806380Y-112813815D01*
X162996856Y-113528100D01*
X163234951Y-112528100D01*
X163568284Y-112623339D02*
X163615903Y-112575720D01*
X163711141Y-112528100D01*
X163949237Y-112528100D01*
X164044475Y-112575720D01*
X164092094Y-112623339D01*
X164139713Y-112718577D01*
X164139713Y-112813815D01*
X164092094Y-112956672D01*
X163520665Y-113528100D01*
X164139713Y-113528100D01*
X115483735Y-100153220D02*
X115483735Y-100962744D01*
X115531354Y-101057982D01*
X115578973Y-101105601D01*
X115674211Y-101153220D01*
X115864687Y-101153220D01*
X115959925Y-101105601D01*
X116007544Y-101057982D01*
X116055163Y-100962744D01*
X116055163Y-100153220D01*
X117007544Y-100153220D02*
X116531354Y-100153220D01*
X116483735Y-100629411D01*
X116531354Y-100581792D01*
X116626592Y-100534173D01*
X116864687Y-100534173D01*
X116959925Y-100581792D01*
X117007544Y-100629411D01*
X117055163Y-100724649D01*
X117055163Y-100962744D01*
X117007544Y-101057982D01*
X116959925Y-101105601D01*
X116864687Y-101153220D01*
X116626592Y-101153220D01*
X116531354Y-101105601D01*
X116483735Y-101057982D01*
X120855502Y-121292880D02*
X120522169Y-120816690D01*
X120284074Y-121292880D02*
X120284074Y-120292880D01*
X120665026Y-120292880D01*
X120760264Y-120340500D01*
X120807883Y-120388119D01*
X120855502Y-120483357D01*
X120855502Y-120626214D01*
X120807883Y-120721452D01*
X120760264Y-120769071D01*
X120665026Y-120816690D01*
X120284074Y-120816690D01*
X121807883Y-121292880D02*
X121236455Y-121292880D01*
X121522169Y-121292880D02*
X121522169Y-120292880D01*
X121426931Y-120435738D01*
X121331693Y-120530976D01*
X121236455Y-120578595D01*
X122379312Y-120721452D02*
X122284074Y-120673833D01*
X122236455Y-120626214D01*
X122188836Y-120530976D01*
X122188836Y-120483357D01*
X122236455Y-120388119D01*
X122284074Y-120340500D01*
X122379312Y-120292880D01*
X122569788Y-120292880D01*
X122665026Y-120340500D01*
X122712645Y-120388119D01*
X122760264Y-120483357D01*
X122760264Y-120530976D01*
X122712645Y-120626214D01*
X122665026Y-120673833D01*
X122569788Y-120721452D01*
X122379312Y-120721452D01*
X122284074Y-120769071D01*
X122236455Y-120816690D01*
X122188836Y-120911928D01*
X122188836Y-121102404D01*
X122236455Y-121197642D01*
X122284074Y-121245261D01*
X122379312Y-121292880D01*
X122569788Y-121292880D01*
X122665026Y-121245261D01*
X122712645Y-121197642D01*
X122760264Y-121102404D01*
X122760264Y-120911928D01*
X122712645Y-120816690D01*
X122665026Y-120769071D01*
X122569788Y-120721452D01*
X103865442Y-99574622D02*
X103817823Y-99622241D01*
X103674966Y-99669860D01*
X103579728Y-99669860D01*
X103436871Y-99622241D01*
X103341633Y-99527003D01*
X103294014Y-99431765D01*
X103246395Y-99241289D01*
X103246395Y-99098432D01*
X103294014Y-98907956D01*
X103341633Y-98812718D01*
X103436871Y-98717480D01*
X103579728Y-98669860D01*
X103674966Y-98669860D01*
X103817823Y-98717480D01*
X103865442Y-98765099D01*
X104817823Y-99669860D02*
X104246395Y-99669860D01*
X104532109Y-99669860D02*
X104532109Y-98669860D01*
X104436871Y-98812718D01*
X104341633Y-98907956D01*
X104246395Y-98955575D01*
X105674966Y-99003194D02*
X105674966Y-99669860D01*
X105436871Y-98622241D02*
X105198776Y-99336527D01*
X105817823Y-99336527D01*
X104923293Y-92645502D02*
X104875674Y-92693121D01*
X104732817Y-92740740D01*
X104637579Y-92740740D01*
X104494721Y-92693121D01*
X104399483Y-92597883D01*
X104351864Y-92502645D01*
X104304245Y-92312169D01*
X104304245Y-92169312D01*
X104351864Y-91978836D01*
X104399483Y-91883598D01*
X104494721Y-91788360D01*
X104637579Y-91740740D01*
X104732817Y-91740740D01*
X104875674Y-91788360D01*
X104923293Y-91835979D01*
X105304245Y-91835979D02*
X105351864Y-91788360D01*
X105447102Y-91740740D01*
X105685198Y-91740740D01*
X105780436Y-91788360D01*
X105828055Y-91835979D01*
X105875674Y-91931217D01*
X105875674Y-92026455D01*
X105828055Y-92169312D01*
X105256626Y-92740740D01*
X105875674Y-92740740D01*
X120821153Y-86723480D02*
X120487820Y-86247290D01*
X120249724Y-86723480D02*
X120249724Y-85723480D01*
X120630677Y-85723480D01*
X120725915Y-85771100D01*
X120773534Y-85818719D01*
X120821153Y-85913957D01*
X120821153Y-86056814D01*
X120773534Y-86152052D01*
X120725915Y-86199671D01*
X120630677Y-86247290D01*
X120249724Y-86247290D01*
X121678296Y-86056814D02*
X121678296Y-86723480D01*
X121440200Y-85675861D02*
X121202105Y-86390147D01*
X121821153Y-86390147D01*
X120838933Y-88493860D02*
X120505600Y-88017670D01*
X120267504Y-88493860D02*
X120267504Y-87493860D01*
X120648457Y-87493860D01*
X120743695Y-87541480D01*
X120791314Y-87589099D01*
X120838933Y-87684337D01*
X120838933Y-87827194D01*
X120791314Y-87922432D01*
X120743695Y-87970051D01*
X120648457Y-88017670D01*
X120267504Y-88017670D01*
X121172266Y-87493860D02*
X121791314Y-87493860D01*
X121457980Y-87874813D01*
X121600838Y-87874813D01*
X121696076Y-87922432D01*
X121743695Y-87970051D01*
X121791314Y-88065289D01*
X121791314Y-88303384D01*
X121743695Y-88398622D01*
X121696076Y-88446241D01*
X121600838Y-88493860D01*
X121315123Y-88493860D01*
X121219885Y-88446241D01*
X121172266Y-88398622D01*
X96334366Y-114805151D02*
X96001033Y-114805151D01*
X96001033Y-115328960D02*
X96001033Y-114328960D01*
X96477223Y-114328960D01*
X97191509Y-114805151D02*
X97334366Y-114852770D01*
X97381985Y-114900389D01*
X97429604Y-114995627D01*
X97429604Y-115138484D01*
X97381985Y-115233722D01*
X97334366Y-115281341D01*
X97239128Y-115328960D01*
X96858176Y-115328960D01*
X96858176Y-114328960D01*
X97191509Y-114328960D01*
X97286747Y-114376580D01*
X97334366Y-114424199D01*
X97381985Y-114519437D01*
X97381985Y-114614675D01*
X97334366Y-114709913D01*
X97286747Y-114757532D01*
X97191509Y-114805151D01*
X96858176Y-114805151D01*
X98381985Y-115328960D02*
X97810557Y-115328960D01*
X98096271Y-115328960D02*
X98096271Y-114328960D01*
X98001033Y-114471818D01*
X97905795Y-114567056D01*
X97810557Y-114614675D01*
X179844462Y-101455480D02*
X179511129Y-100979290D01*
X179273034Y-101455480D02*
X179273034Y-100455480D01*
X179653986Y-100455480D01*
X179749224Y-100503100D01*
X179796843Y-100550719D01*
X179844462Y-100645957D01*
X179844462Y-100788814D01*
X179796843Y-100884052D01*
X179749224Y-100931671D01*
X179653986Y-100979290D01*
X179273034Y-100979290D01*
X180796843Y-101455480D02*
X180225415Y-101455480D01*
X180511129Y-101455480D02*
X180511129Y-100455480D01*
X180415891Y-100598338D01*
X180320653Y-100693576D01*
X180225415Y-100741195D01*
X181130177Y-100455480D02*
X181796843Y-100455480D01*
X181368272Y-101455480D01*
X168495742Y-101521520D02*
X168162409Y-101045330D01*
X167924314Y-101521520D02*
X167924314Y-100521520D01*
X168305266Y-100521520D01*
X168400504Y-100569140D01*
X168448123Y-100616759D01*
X168495742Y-100711997D01*
X168495742Y-100854854D01*
X168448123Y-100950092D01*
X168400504Y-100997711D01*
X168305266Y-101045330D01*
X167924314Y-101045330D01*
X169448123Y-101521520D02*
X168876695Y-101521520D01*
X169162409Y-101521520D02*
X169162409Y-100521520D01*
X169067171Y-100664378D01*
X168971933Y-100759616D01*
X168876695Y-100807235D01*
X170305266Y-100521520D02*
X170114790Y-100521520D01*
X170019552Y-100569140D01*
X169971933Y-100616759D01*
X169876695Y-100759616D01*
X169829076Y-100950092D01*
X169829076Y-101331044D01*
X169876695Y-101426282D01*
X169924314Y-101473901D01*
X170019552Y-101521520D01*
X170210028Y-101521520D01*
X170305266Y-101473901D01*
X170352885Y-101426282D01*
X170400504Y-101331044D01*
X170400504Y-101092949D01*
X170352885Y-100997711D01*
X170305266Y-100950092D01*
X170210028Y-100902473D01*
X170019552Y-100902473D01*
X169924314Y-100950092D01*
X169876695Y-100997711D01*
X169829076Y-101092949D01*
X118666355Y-98654620D02*
X118666355Y-99464144D01*
X118713974Y-99559382D01*
X118761593Y-99607001D01*
X118856831Y-99654620D01*
X119047307Y-99654620D01*
X119142545Y-99607001D01*
X119190164Y-99559382D01*
X119237783Y-99464144D01*
X119237783Y-98654620D01*
X120237783Y-99654620D02*
X119666355Y-99654620D01*
X119952069Y-99654620D02*
X119952069Y-98654620D01*
X119856831Y-98797478D01*
X119761593Y-98892716D01*
X119666355Y-98940335D01*
X96906340Y-97004354D02*
X95906340Y-97004354D01*
X96906340Y-96432925D01*
X95906340Y-96432925D01*
X96906340Y-95432925D02*
X96906340Y-96004354D01*
X96906340Y-95718640D02*
X95906340Y-95718640D01*
X96049198Y-95813878D01*
X96144436Y-95909116D01*
X96192055Y-96004354D01*
X95906340Y-94575782D02*
X95906340Y-94766259D01*
X95953960Y-94861497D01*
X96001579Y-94909116D01*
X96144436Y-95004354D01*
X96334912Y-95051973D01*
X96715864Y-95051973D01*
X96811102Y-95004354D01*
X96858721Y-94956735D01*
X96906340Y-94861497D01*
X96906340Y-94671020D01*
X96858721Y-94575782D01*
X96811102Y-94528163D01*
X96715864Y-94480544D01*
X96477769Y-94480544D01*
X96382531Y-94528163D01*
X96334912Y-94575782D01*
X96287293Y-94671020D01*
X96287293Y-94861497D01*
X96334912Y-94956735D01*
X96382531Y-95004354D01*
X96477769Y-95051973D01*
X96906340Y-93528163D02*
X96906340Y-94099592D01*
X96906340Y-93813878D02*
X95906340Y-93813878D01*
X96049198Y-93909116D01*
X96144436Y-94004354D01*
X96192055Y-94099592D01*
X95906340Y-92671020D02*
X95906340Y-92861497D01*
X95953960Y-92956735D01*
X96001579Y-93004354D01*
X96144436Y-93099592D01*
X96334912Y-93147211D01*
X96715864Y-93147211D01*
X96811102Y-93099592D01*
X96858721Y-93051973D01*
X96906340Y-92956735D01*
X96906340Y-92766259D01*
X96858721Y-92671020D01*
X96811102Y-92623401D01*
X96715864Y-92575782D01*
X96477769Y-92575782D01*
X96382531Y-92623401D01*
X96334912Y-92671020D01*
X96287293Y-92766259D01*
X96287293Y-92956735D01*
X96334912Y-93051973D01*
X96382531Y-93099592D01*
X96477769Y-93147211D01*
X96906340Y-91671020D02*
X96906340Y-92147211D01*
X95906340Y-92147211D01*
X96811102Y-90766259D02*
X96858721Y-90813878D01*
X96906340Y-90956735D01*
X96906340Y-91051973D01*
X96858721Y-91194830D01*
X96763483Y-91290068D01*
X96668245Y-91337687D01*
X96477769Y-91385306D01*
X96334912Y-91385306D01*
X96144436Y-91337687D01*
X96049198Y-91290068D01*
X95953960Y-91194830D01*
X95906340Y-91051973D01*
X95906340Y-90956735D01*
X95953960Y-90813878D01*
X96001579Y-90766259D01*
X96906340Y-90337687D02*
X95906340Y-90337687D01*
X95906340Y-90099592D01*
X95953960Y-89956735D01*
X96049198Y-89861497D01*
X96144436Y-89813878D01*
X96334912Y-89766259D01*
X96477769Y-89766259D01*
X96668245Y-89813878D01*
X96763483Y-89861497D01*
X96858721Y-89956735D01*
X96906340Y-90099592D01*
X96906340Y-90337687D01*
X97001579Y-89575782D02*
X97001579Y-88813878D01*
X96858721Y-88623401D02*
X96906340Y-88480544D01*
X96906340Y-88242449D01*
X96858721Y-88147211D01*
X96811102Y-88099592D01*
X96715864Y-88051973D01*
X96620626Y-88051973D01*
X96525388Y-88099592D01*
X96477769Y-88147211D01*
X96430150Y-88242449D01*
X96382531Y-88432925D01*
X96334912Y-88528163D01*
X96287293Y-88575782D01*
X96192055Y-88623401D01*
X96096817Y-88623401D01*
X96001579Y-88575782D01*
X95953960Y-88528163D01*
X95906340Y-88432925D01*
X95906340Y-88194830D01*
X95953960Y-88051973D01*
X96906340Y-87623401D02*
X95906340Y-87623401D01*
X96906340Y-87194830D02*
X96382531Y-87194830D01*
X96287293Y-87242449D01*
X96239674Y-87337687D01*
X96239674Y-87480544D01*
X96287293Y-87575782D01*
X96334912Y-87623401D01*
X96906340Y-86718640D02*
X96239674Y-86718640D01*
X95906340Y-86718640D02*
X95953960Y-86766259D01*
X96001579Y-86718640D01*
X95953960Y-86671020D01*
X95906340Y-86718640D01*
X96001579Y-86718640D01*
X96858721Y-85861497D02*
X96906340Y-85956735D01*
X96906340Y-86147211D01*
X96858721Y-86242449D01*
X96763483Y-86290068D01*
X96382531Y-86290068D01*
X96287293Y-86242449D01*
X96239674Y-86147211D01*
X96239674Y-85956735D01*
X96287293Y-85861497D01*
X96382531Y-85813878D01*
X96477769Y-85813878D01*
X96573007Y-86290068D01*
X96906340Y-85242449D02*
X96858721Y-85337687D01*
X96763483Y-85385306D01*
X95906340Y-85385306D01*
X96906340Y-84432925D02*
X95906340Y-84432925D01*
X96858721Y-84432925D02*
X96906340Y-84528163D01*
X96906340Y-84718640D01*
X96858721Y-84813878D01*
X96811102Y-84861497D01*
X96715864Y-84909116D01*
X96430150Y-84909116D01*
X96334912Y-84861497D01*
X96287293Y-84813878D01*
X96239674Y-84718640D01*
X96239674Y-84528163D01*
X96287293Y-84432925D01*
X160169622Y-73584060D02*
X159836289Y-73107870D01*
X159598194Y-73584060D02*
X159598194Y-72584060D01*
X159979146Y-72584060D01*
X160074384Y-72631680D01*
X160122003Y-72679299D01*
X160169622Y-72774537D01*
X160169622Y-72917394D01*
X160122003Y-73012632D01*
X160074384Y-73060251D01*
X159979146Y-73107870D01*
X159598194Y-73107870D01*
X161122003Y-73584060D02*
X160550575Y-73584060D01*
X160836289Y-73584060D02*
X160836289Y-72584060D01*
X160741051Y-72726918D01*
X160645813Y-72822156D01*
X160550575Y-72869775D01*
X162026765Y-72584060D02*
X161550575Y-72584060D01*
X161502956Y-73060251D01*
X161550575Y-73012632D01*
X161645813Y-72965013D01*
X161883908Y-72965013D01*
X161979146Y-73012632D01*
X162026765Y-73060251D01*
X162074384Y-73155489D01*
X162074384Y-73393584D01*
X162026765Y-73488822D01*
X161979146Y-73536441D01*
X161883908Y-73584060D01*
X161645813Y-73584060D01*
X161550575Y-73536441D01*
X161502956Y-73488822D01*
X159905462Y-67643020D02*
X159572129Y-67166830D01*
X159334034Y-67643020D02*
X159334034Y-66643020D01*
X159714986Y-66643020D01*
X159810224Y-66690640D01*
X159857843Y-66738259D01*
X159905462Y-66833497D01*
X159905462Y-66976354D01*
X159857843Y-67071592D01*
X159810224Y-67119211D01*
X159714986Y-67166830D01*
X159334034Y-67166830D01*
X160857843Y-67643020D02*
X160286415Y-67643020D01*
X160572129Y-67643020D02*
X160572129Y-66643020D01*
X160476891Y-66785878D01*
X160381653Y-66881116D01*
X160286415Y-66928735D01*
X161714986Y-66976354D02*
X161714986Y-67643020D01*
X161476891Y-66595401D02*
X161238796Y-67309687D01*
X161857843Y-67309687D01*
X142379462Y-73576440D02*
X142046129Y-73100250D01*
X141808034Y-73576440D02*
X141808034Y-72576440D01*
X142188986Y-72576440D01*
X142284224Y-72624060D01*
X142331843Y-72671679D01*
X142379462Y-72766917D01*
X142379462Y-72909774D01*
X142331843Y-73005012D01*
X142284224Y-73052631D01*
X142188986Y-73100250D01*
X141808034Y-73100250D01*
X143331843Y-73576440D02*
X142760415Y-73576440D01*
X143046129Y-73576440D02*
X143046129Y-72576440D01*
X142950891Y-72719298D01*
X142855653Y-72814536D01*
X142760415Y-72862155D01*
X143665177Y-72576440D02*
X144284224Y-72576440D01*
X143950891Y-72957393D01*
X144093748Y-72957393D01*
X144188986Y-73005012D01*
X144236605Y-73052631D01*
X144284224Y-73147869D01*
X144284224Y-73385964D01*
X144236605Y-73481202D01*
X144188986Y-73528821D01*
X144093748Y-73576440D01*
X143808034Y-73576440D01*
X143712796Y-73528821D01*
X143665177Y-73481202D01*
X142713413Y-67635400D02*
X142380080Y-67159210D01*
X142141984Y-67635400D02*
X142141984Y-66635400D01*
X142522937Y-66635400D01*
X142618175Y-66683020D01*
X142665794Y-66730639D01*
X142713413Y-66825877D01*
X142713413Y-66968734D01*
X142665794Y-67063972D01*
X142618175Y-67111591D01*
X142522937Y-67159210D01*
X142141984Y-67159210D01*
X143094365Y-66730639D02*
X143141984Y-66683020D01*
X143237222Y-66635400D01*
X143475318Y-66635400D01*
X143570556Y-66683020D01*
X143618175Y-66730639D01*
X143665794Y-66825877D01*
X143665794Y-66921115D01*
X143618175Y-67063972D01*
X143046746Y-67635400D01*
X143665794Y-67635400D01*
X164006541Y-67613139D02*
X163911303Y-67565520D01*
X163816065Y-67470281D01*
X163673208Y-67327424D01*
X163577970Y-67279805D01*
X163482732Y-67279805D01*
X163530351Y-67517900D02*
X163435113Y-67470281D01*
X163339875Y-67375043D01*
X163292256Y-67184567D01*
X163292256Y-66851234D01*
X163339875Y-66660758D01*
X163435113Y-66565520D01*
X163530351Y-66517900D01*
X163720827Y-66517900D01*
X163816065Y-66565520D01*
X163911303Y-66660758D01*
X163958922Y-66851234D01*
X163958922Y-67184567D01*
X163911303Y-67375043D01*
X163816065Y-67470281D01*
X163720827Y-67517900D01*
X163530351Y-67517900D01*
X164292256Y-66517900D02*
X164911303Y-66517900D01*
X164577970Y-66898853D01*
X164720827Y-66898853D01*
X164816065Y-66946472D01*
X164863684Y-66994091D01*
X164911303Y-67089329D01*
X164911303Y-67327424D01*
X164863684Y-67422662D01*
X164816065Y-67470281D01*
X164720827Y-67517900D01*
X164435113Y-67517900D01*
X164339875Y-67470281D01*
X164292256Y-67422662D01*
X146163041Y-67610599D02*
X146067803Y-67562980D01*
X145972565Y-67467741D01*
X145829708Y-67324884D01*
X145734470Y-67277265D01*
X145639232Y-67277265D01*
X145686851Y-67515360D02*
X145591613Y-67467741D01*
X145496375Y-67372503D01*
X145448756Y-67182027D01*
X145448756Y-66848694D01*
X145496375Y-66658218D01*
X145591613Y-66562980D01*
X145686851Y-66515360D01*
X145877327Y-66515360D01*
X145972565Y-66562980D01*
X146067803Y-66658218D01*
X146115422Y-66848694D01*
X146115422Y-67182027D01*
X146067803Y-67372503D01*
X145972565Y-67467741D01*
X145877327Y-67515360D01*
X145686851Y-67515360D01*
X147067803Y-67515360D02*
X146496375Y-67515360D01*
X146782089Y-67515360D02*
X146782089Y-66515360D01*
X146686851Y-66658218D01*
X146591613Y-66753456D01*
X146496375Y-66801075D01*
X166778346Y-66246760D02*
X166778346Y-66961046D01*
X166730727Y-67103903D01*
X166635489Y-67199141D01*
X166492632Y-67246760D01*
X166397394Y-67246760D01*
X167397394Y-66675332D02*
X167302156Y-66627713D01*
X167254537Y-66580094D01*
X167206918Y-66484856D01*
X167206918Y-66437237D01*
X167254537Y-66341999D01*
X167302156Y-66294380D01*
X167397394Y-66246760D01*
X167587870Y-66246760D01*
X167683108Y-66294380D01*
X167730727Y-66341999D01*
X167778346Y-66437237D01*
X167778346Y-66484856D01*
X167730727Y-66580094D01*
X167683108Y-66627713D01*
X167587870Y-66675332D01*
X167397394Y-66675332D01*
X167302156Y-66722951D01*
X167254537Y-66770570D01*
X167206918Y-66865808D01*
X167206918Y-67056284D01*
X167254537Y-67151522D01*
X167302156Y-67199141D01*
X167397394Y-67246760D01*
X167587870Y-67246760D01*
X167683108Y-67199141D01*
X167730727Y-67151522D01*
X167778346Y-67056284D01*
X167778346Y-66865808D01*
X167730727Y-66770570D01*
X167683108Y-66722951D01*
X167587870Y-66675332D01*
X148630046Y-66297560D02*
X148630046Y-67011846D01*
X148582427Y-67154703D01*
X148487189Y-67249941D01*
X148344332Y-67297560D01*
X148249094Y-67297560D01*
X149010999Y-66297560D02*
X149677665Y-66297560D01*
X149249094Y-67297560D01*
X118028980Y-66701895D02*
X117028980Y-66701895D01*
X117028980Y-66463800D01*
X117076600Y-66320942D01*
X117171838Y-66225704D01*
X117267076Y-66178085D01*
X117457552Y-66130466D01*
X117600409Y-66130466D01*
X117790885Y-66178085D01*
X117886123Y-66225704D01*
X117981361Y-66320942D01*
X118028980Y-66463800D01*
X118028980Y-66701895D01*
X117124219Y-65749514D02*
X117076600Y-65701895D01*
X117028980Y-65606657D01*
X117028980Y-65368561D01*
X117076600Y-65273323D01*
X117124219Y-65225704D01*
X117219457Y-65178085D01*
X117314695Y-65178085D01*
X117457552Y-65225704D01*
X118028980Y-65797133D01*
X118028980Y-65178085D01*
X116235266Y-70210371D02*
X115901933Y-70210371D01*
X115901933Y-70734180D02*
X115901933Y-69734180D01*
X116378123Y-69734180D01*
X117092409Y-70210371D02*
X117235266Y-70257990D01*
X117282885Y-70305609D01*
X117330504Y-70400847D01*
X117330504Y-70543704D01*
X117282885Y-70638942D01*
X117235266Y-70686561D01*
X117140028Y-70734180D01*
X116759076Y-70734180D01*
X116759076Y-69734180D01*
X117092409Y-69734180D01*
X117187647Y-69781800D01*
X117235266Y-69829419D01*
X117282885Y-69924657D01*
X117282885Y-70019895D01*
X117235266Y-70115133D01*
X117187647Y-70162752D01*
X117092409Y-70210371D01*
X116759076Y-70210371D01*
X117663838Y-69734180D02*
X118282885Y-69734180D01*
X117949552Y-70115133D01*
X118092409Y-70115133D01*
X118187647Y-70162752D01*
X118235266Y-70210371D01*
X118282885Y-70305609D01*
X118282885Y-70543704D01*
X118235266Y-70638942D01*
X118187647Y-70686561D01*
X118092409Y-70734180D01*
X117806695Y-70734180D01*
X117711457Y-70686561D01*
X117663838Y-70638942D01*
X112679266Y-70210371D02*
X112345933Y-70210371D01*
X112345933Y-70734180D02*
X112345933Y-69734180D01*
X112822123Y-69734180D01*
X113536409Y-70210371D02*
X113679266Y-70257990D01*
X113726885Y-70305609D01*
X113774504Y-70400847D01*
X113774504Y-70543704D01*
X113726885Y-70638942D01*
X113679266Y-70686561D01*
X113584028Y-70734180D01*
X113203076Y-70734180D01*
X113203076Y-69734180D01*
X113536409Y-69734180D01*
X113631647Y-69781800D01*
X113679266Y-69829419D01*
X113726885Y-69924657D01*
X113726885Y-70019895D01*
X113679266Y-70115133D01*
X113631647Y-70162752D01*
X113536409Y-70210371D01*
X113203076Y-70210371D01*
X114155457Y-69829419D02*
X114203076Y-69781800D01*
X114298314Y-69734180D01*
X114536409Y-69734180D01*
X114631647Y-69781800D01*
X114679266Y-69829419D01*
X114726885Y-69924657D01*
X114726885Y-70019895D01*
X114679266Y-70162752D01*
X114107838Y-70734180D01*
X114726885Y-70734180D01*
X106359722Y-75014080D02*
X106026389Y-74537890D01*
X105788294Y-75014080D02*
X105788294Y-74014080D01*
X106169246Y-74014080D01*
X106264484Y-74061700D01*
X106312103Y-74109319D01*
X106359722Y-74204557D01*
X106359722Y-74347414D01*
X106312103Y-74442652D01*
X106264484Y-74490271D01*
X106169246Y-74537890D01*
X105788294Y-74537890D01*
X107312103Y-75014080D02*
X106740675Y-75014080D01*
X107026389Y-75014080D02*
X107026389Y-74014080D01*
X106931151Y-74156938D01*
X106835913Y-74252176D01*
X106740675Y-74299795D01*
X107693056Y-74109319D02*
X107740675Y-74061700D01*
X107835913Y-74014080D01*
X108074008Y-74014080D01*
X108169246Y-74061700D01*
X108216865Y-74109319D01*
X108264484Y-74204557D01*
X108264484Y-74299795D01*
X108216865Y-74442652D01*
X107645437Y-75014080D01*
X108264484Y-75014080D01*
X111599742Y-72162942D02*
X111552123Y-72210561D01*
X111409266Y-72258180D01*
X111314028Y-72258180D01*
X111171171Y-72210561D01*
X111075933Y-72115323D01*
X111028314Y-72020085D01*
X110980695Y-71829609D01*
X110980695Y-71686752D01*
X111028314Y-71496276D01*
X111075933Y-71401038D01*
X111171171Y-71305800D01*
X111314028Y-71258180D01*
X111409266Y-71258180D01*
X111552123Y-71305800D01*
X111599742Y-71353419D01*
X112552123Y-72258180D02*
X111980695Y-72258180D01*
X112266409Y-72258180D02*
X112266409Y-71258180D01*
X112171171Y-71401038D01*
X112075933Y-71496276D01*
X111980695Y-71543895D01*
X113028314Y-72258180D02*
X113218790Y-72258180D01*
X113314028Y-72210561D01*
X113361647Y-72162942D01*
X113456885Y-72020085D01*
X113504504Y-71829609D01*
X113504504Y-71448657D01*
X113456885Y-71353419D01*
X113409266Y-71305800D01*
X113314028Y-71258180D01*
X113123552Y-71258180D01*
X113028314Y-71305800D01*
X112980695Y-71353419D01*
X112933076Y-71448657D01*
X112933076Y-71686752D01*
X112980695Y-71781990D01*
X113028314Y-71829609D01*
X113123552Y-71877228D01*
X113314028Y-71877228D01*
X113409266Y-71829609D01*
X113456885Y-71781990D01*
X113504504Y-71686752D01*
X121149786Y-72970140D02*
X121149786Y-73684426D01*
X121102167Y-73827283D01*
X121006929Y-73922521D01*
X120864072Y-73970140D01*
X120768834Y-73970140D01*
X121530739Y-72970140D02*
X122149786Y-72970140D01*
X121816453Y-73351093D01*
X121959310Y-73351093D01*
X122054548Y-73398712D01*
X122102167Y-73446331D01*
X122149786Y-73541569D01*
X122149786Y-73779664D01*
X122102167Y-73874902D01*
X122054548Y-73922521D01*
X121959310Y-73970140D01*
X121673596Y-73970140D01*
X121578358Y-73922521D01*
X121530739Y-73874902D01*
X110715040Y-57703980D02*
X110715040Y-56703980D01*
X111095993Y-56703980D01*
X111191231Y-56751600D01*
X111238850Y-56799219D01*
X111286469Y-56894457D01*
X111286469Y-57037314D01*
X111238850Y-57132552D01*
X111191231Y-57180171D01*
X111095993Y-57227790D01*
X110715040Y-57227790D01*
X112286469Y-57608742D02*
X112238850Y-57656361D01*
X112095993Y-57703980D01*
X112000755Y-57703980D01*
X111857898Y-57656361D01*
X111762660Y-57561123D01*
X111715040Y-57465885D01*
X111667421Y-57275409D01*
X111667421Y-57132552D01*
X111715040Y-56942076D01*
X111762660Y-56846838D01*
X111857898Y-56751600D01*
X112000755Y-56703980D01*
X112095993Y-56703980D01*
X112238850Y-56751600D01*
X112286469Y-56799219D01*
X113286469Y-57608742D02*
X113238850Y-57656361D01*
X113095993Y-57703980D01*
X113000755Y-57703980D01*
X112857898Y-57656361D01*
X112762660Y-57561123D01*
X112715040Y-57465885D01*
X112667421Y-57275409D01*
X112667421Y-57132552D01*
X112715040Y-56942076D01*
X112762660Y-56846838D01*
X112857898Y-56751600D01*
X113000755Y-56703980D01*
X113095993Y-56703980D01*
X113238850Y-56751600D01*
X113286469Y-56799219D01*
X113715040Y-57323028D02*
X114476945Y-57323028D01*
X114905517Y-57656361D02*
X115048374Y-57703980D01*
X115286469Y-57703980D01*
X115381707Y-57656361D01*
X115429326Y-57608742D01*
X115476945Y-57513504D01*
X115476945Y-57418266D01*
X115429326Y-57323028D01*
X115381707Y-57275409D01*
X115286469Y-57227790D01*
X115095993Y-57180171D01*
X115000755Y-57132552D01*
X114953136Y-57084933D01*
X114905517Y-56989695D01*
X114905517Y-56894457D01*
X114953136Y-56799219D01*
X115000755Y-56751600D01*
X115095993Y-56703980D01*
X115334088Y-56703980D01*
X115476945Y-56751600D01*
X115905517Y-57703980D02*
X115905517Y-56703980D01*
X116238850Y-57418266D01*
X116572183Y-56703980D01*
X116572183Y-57703980D01*
X117048374Y-57703980D02*
X117048374Y-56703980D01*
X117429326Y-56703980D01*
X117524564Y-56751600D01*
X117572183Y-56799219D01*
X117619802Y-56894457D01*
X117619802Y-57037314D01*
X117572183Y-57132552D01*
X117524564Y-57180171D01*
X117429326Y-57227790D01*
X117048374Y-57227790D01*
X118048374Y-57323028D02*
X118810279Y-57323028D01*
X119286469Y-57703980D02*
X119286469Y-56703980D01*
X119857898Y-57703980D02*
X119429326Y-57132552D01*
X119857898Y-56703980D02*
X119286469Y-57275409D01*
D10*
X110446475Y-70208657D02*
X111970284Y-70208657D01*
X111208380Y-70970561D02*
X111208380Y-69446752D01*
X119234570Y-71170561D02*
X119234570Y-69170561D01*
X120377427Y-71170561D02*
X119520284Y-70027704D01*
X120377427Y-69170561D02*
X119234570Y-70313419D01*
D11*
X127595689Y-99713510D02*
X127595689Y-100189700D01*
X127262356Y-99189700D02*
X127595689Y-99713510D01*
X127929022Y-99189700D01*
X128214737Y-99284939D02*
X128262356Y-99237320D01*
X128357594Y-99189700D01*
X128595689Y-99189700D01*
X128690927Y-99237320D01*
X128738546Y-99284939D01*
X128786165Y-99380177D01*
X128786165Y-99475415D01*
X128738546Y-99618272D01*
X128167118Y-100189700D01*
X128786165Y-100189700D01*
X170677602Y-112849920D02*
X170344269Y-112373730D01*
X170106174Y-112849920D02*
X170106174Y-111849920D01*
X170487126Y-111849920D01*
X170582364Y-111897540D01*
X170629983Y-111945159D01*
X170677602Y-112040397D01*
X170677602Y-112183254D01*
X170629983Y-112278492D01*
X170582364Y-112326111D01*
X170487126Y-112373730D01*
X170106174Y-112373730D01*
X171629983Y-112849920D02*
X171058555Y-112849920D01*
X171344269Y-112849920D02*
X171344269Y-111849920D01*
X171249031Y-111992778D01*
X171153793Y-112088016D01*
X171058555Y-112135635D01*
X172582364Y-112849920D02*
X172010936Y-112849920D01*
X172296650Y-112849920D02*
X172296650Y-111849920D01*
X172201412Y-111992778D01*
X172106174Y-112088016D01*
X172010936Y-112135635D01*
X157817582Y-112811820D02*
X157484249Y-112335630D01*
X157246154Y-112811820D02*
X157246154Y-111811820D01*
X157627106Y-111811820D01*
X157722344Y-111859440D01*
X157769963Y-111907059D01*
X157817582Y-112002297D01*
X157817582Y-112145154D01*
X157769963Y-112240392D01*
X157722344Y-112288011D01*
X157627106Y-112335630D01*
X157246154Y-112335630D01*
X158769963Y-112811820D02*
X158198535Y-112811820D01*
X158484249Y-112811820D02*
X158484249Y-111811820D01*
X158389011Y-111954678D01*
X158293773Y-112049916D01*
X158198535Y-112097535D01*
X159389011Y-111811820D02*
X159484249Y-111811820D01*
X159579487Y-111859440D01*
X159627106Y-111907059D01*
X159674725Y-112002297D01*
X159722344Y-112192773D01*
X159722344Y-112430868D01*
X159674725Y-112621344D01*
X159627106Y-112716582D01*
X159579487Y-112764201D01*
X159484249Y-112811820D01*
X159389011Y-112811820D01*
X159293773Y-112764201D01*
X159246154Y-112716582D01*
X159198535Y-112621344D01*
X159150916Y-112430868D01*
X159150916Y-112192773D01*
X159198535Y-112002297D01*
X159246154Y-111907059D01*
X159293773Y-111859440D01*
X159389011Y-111811820D01*
X172572442Y-102625162D02*
X172524823Y-102672781D01*
X172381966Y-102720400D01*
X172286728Y-102720400D01*
X172143871Y-102672781D01*
X172048633Y-102577543D01*
X172001014Y-102482305D01*
X171953395Y-102291829D01*
X171953395Y-102148972D01*
X172001014Y-101958496D01*
X172048633Y-101863258D01*
X172143871Y-101768020D01*
X172286728Y-101720400D01*
X172381966Y-101720400D01*
X172524823Y-101768020D01*
X172572442Y-101815639D01*
X173524823Y-102720400D02*
X172953395Y-102720400D01*
X173239109Y-102720400D02*
X173239109Y-101720400D01*
X173143871Y-101863258D01*
X173048633Y-101958496D01*
X172953395Y-102006115D01*
X174096252Y-102148972D02*
X174001014Y-102101353D01*
X173953395Y-102053734D01*
X173905776Y-101958496D01*
X173905776Y-101910877D01*
X173953395Y-101815639D01*
X174001014Y-101768020D01*
X174096252Y-101720400D01*
X174286728Y-101720400D01*
X174381966Y-101768020D01*
X174429585Y-101815639D01*
X174477204Y-101910877D01*
X174477204Y-101958496D01*
X174429585Y-102053734D01*
X174381966Y-102101353D01*
X174286728Y-102148972D01*
X174096252Y-102148972D01*
X174001014Y-102196591D01*
X173953395Y-102244210D01*
X173905776Y-102339448D01*
X173905776Y-102529924D01*
X173953395Y-102625162D01*
X174001014Y-102672781D01*
X174096252Y-102720400D01*
X174286728Y-102720400D01*
X174381966Y-102672781D01*
X174429585Y-102625162D01*
X174477204Y-102529924D01*
X174477204Y-102339448D01*
X174429585Y-102244210D01*
X174381966Y-102196591D01*
X174286728Y-102148972D01*
X175874442Y-102625162D02*
X175826823Y-102672781D01*
X175683966Y-102720400D01*
X175588728Y-102720400D01*
X175445871Y-102672781D01*
X175350633Y-102577543D01*
X175303014Y-102482305D01*
X175255395Y-102291829D01*
X175255395Y-102148972D01*
X175303014Y-101958496D01*
X175350633Y-101863258D01*
X175445871Y-101768020D01*
X175588728Y-101720400D01*
X175683966Y-101720400D01*
X175826823Y-101768020D01*
X175874442Y-101815639D01*
X176826823Y-102720400D02*
X176255395Y-102720400D01*
X176541109Y-102720400D02*
X176541109Y-101720400D01*
X176445871Y-101863258D01*
X176350633Y-101958496D01*
X176255395Y-102006115D01*
X177160157Y-101720400D02*
X177826823Y-101720400D01*
X177398252Y-102720400D01*
X179831762Y-111220522D02*
X179784143Y-111268141D01*
X179641286Y-111315760D01*
X179546048Y-111315760D01*
X179403191Y-111268141D01*
X179307953Y-111172903D01*
X179260334Y-111077665D01*
X179212715Y-110887189D01*
X179212715Y-110744332D01*
X179260334Y-110553856D01*
X179307953Y-110458618D01*
X179403191Y-110363380D01*
X179546048Y-110315760D01*
X179641286Y-110315760D01*
X179784143Y-110363380D01*
X179831762Y-110410999D01*
X180784143Y-111315760D02*
X180212715Y-111315760D01*
X180498429Y-111315760D02*
X180498429Y-110315760D01*
X180403191Y-110458618D01*
X180307953Y-110553856D01*
X180212715Y-110601475D01*
X181641286Y-110315760D02*
X181450810Y-110315760D01*
X181355572Y-110363380D01*
X181307953Y-110410999D01*
X181212715Y-110553856D01*
X181165096Y-110744332D01*
X181165096Y-111125284D01*
X181212715Y-111220522D01*
X181260334Y-111268141D01*
X181355572Y-111315760D01*
X181546048Y-111315760D01*
X181641286Y-111268141D01*
X181688905Y-111220522D01*
X181736524Y-111125284D01*
X181736524Y-110887189D01*
X181688905Y-110791951D01*
X181641286Y-110744332D01*
X181546048Y-110696713D01*
X181355572Y-110696713D01*
X181260334Y-110744332D01*
X181212715Y-110791951D01*
X181165096Y-110887189D01*
X166898082Y-111139242D02*
X166850463Y-111186861D01*
X166707606Y-111234480D01*
X166612368Y-111234480D01*
X166469511Y-111186861D01*
X166374273Y-111091623D01*
X166326654Y-110996385D01*
X166279035Y-110805909D01*
X166279035Y-110663052D01*
X166326654Y-110472576D01*
X166374273Y-110377338D01*
X166469511Y-110282100D01*
X166612368Y-110234480D01*
X166707606Y-110234480D01*
X166850463Y-110282100D01*
X166898082Y-110329719D01*
X167850463Y-111234480D02*
X167279035Y-111234480D01*
X167564749Y-111234480D02*
X167564749Y-110234480D01*
X167469511Y-110377338D01*
X167374273Y-110472576D01*
X167279035Y-110520195D01*
X168755225Y-110234480D02*
X168279035Y-110234480D01*
X168231416Y-110710671D01*
X168279035Y-110663052D01*
X168374273Y-110615433D01*
X168612368Y-110615433D01*
X168707606Y-110663052D01*
X168755225Y-110710671D01*
X168802844Y-110805909D01*
X168802844Y-111044004D01*
X168755225Y-111139242D01*
X168707606Y-111186861D01*
X168612368Y-111234480D01*
X168374273Y-111234480D01*
X168279035Y-111186861D01*
X168231416Y-111139242D01*
X166292233Y-81963520D02*
X165958900Y-81487330D01*
X165720804Y-81963520D02*
X165720804Y-80963520D01*
X166101757Y-80963520D01*
X166196995Y-81011140D01*
X166244614Y-81058759D01*
X166292233Y-81153997D01*
X166292233Y-81296854D01*
X166244614Y-81392092D01*
X166196995Y-81439711D01*
X166101757Y-81487330D01*
X165720804Y-81487330D01*
X166768423Y-81963520D02*
X166958900Y-81963520D01*
X167054138Y-81915901D01*
X167101757Y-81868282D01*
X167196995Y-81725425D01*
X167244614Y-81534949D01*
X167244614Y-81153997D01*
X167196995Y-81058759D01*
X167149376Y-81011140D01*
X167054138Y-80963520D01*
X166863661Y-80963520D01*
X166768423Y-81011140D01*
X166720804Y-81058759D01*
X166673185Y-81153997D01*
X166673185Y-81392092D01*
X166720804Y-81487330D01*
X166768423Y-81534949D01*
X166863661Y-81582568D01*
X167054138Y-81582568D01*
X167149376Y-81534949D01*
X167196995Y-81487330D01*
X167244614Y-81392092D01*
D16*
X173611298Y-82514923D02*
X173611298Y-81244923D01*
X174941774Y-82393971D02*
X174881298Y-82454447D01*
X174699869Y-82514923D01*
X174578917Y-82514923D01*
X174397488Y-82454447D01*
X174276536Y-82333495D01*
X174216060Y-82212542D01*
X174155583Y-81970638D01*
X174155583Y-81789209D01*
X174216060Y-81547304D01*
X174276536Y-81426352D01*
X174397488Y-81305400D01*
X174578917Y-81244923D01*
X174699869Y-81244923D01*
X174881298Y-81305400D01*
X174941774Y-81365876D01*
X176151298Y-82514923D02*
X175425583Y-82514923D01*
X175788440Y-82514923D02*
X175788440Y-81244923D01*
X175667488Y-81426352D01*
X175546536Y-81547304D01*
X175425583Y-81607780D01*
D11*
X175502273Y-77312780D02*
X175168940Y-76836590D01*
X174930844Y-77312780D02*
X174930844Y-76312780D01*
X175311797Y-76312780D01*
X175407035Y-76360400D01*
X175454654Y-76408019D01*
X175502273Y-76503257D01*
X175502273Y-76646114D01*
X175454654Y-76741352D01*
X175407035Y-76788971D01*
X175311797Y-76836590D01*
X174930844Y-76836590D01*
X176073701Y-76741352D02*
X175978463Y-76693733D01*
X175930844Y-76646114D01*
X175883225Y-76550876D01*
X175883225Y-76503257D01*
X175930844Y-76408019D01*
X175978463Y-76360400D01*
X176073701Y-76312780D01*
X176264178Y-76312780D01*
X176359416Y-76360400D01*
X176407035Y-76408019D01*
X176454654Y-76503257D01*
X176454654Y-76550876D01*
X176407035Y-76646114D01*
X176359416Y-76693733D01*
X176264178Y-76741352D01*
X176073701Y-76741352D01*
X175978463Y-76788971D01*
X175930844Y-76836590D01*
X175883225Y-76931828D01*
X175883225Y-77122304D01*
X175930844Y-77217542D01*
X175978463Y-77265161D01*
X176073701Y-77312780D01*
X176264178Y-77312780D01*
X176359416Y-77265161D01*
X176407035Y-77217542D01*
X176454654Y-77122304D01*
X176454654Y-76931828D01*
X176407035Y-76836590D01*
X176359416Y-76788971D01*
X176264178Y-76741352D01*
X171791333Y-71653680D02*
X171458000Y-71177490D01*
X171219904Y-71653680D02*
X171219904Y-70653680D01*
X171600857Y-70653680D01*
X171696095Y-70701300D01*
X171743714Y-70748919D01*
X171791333Y-70844157D01*
X171791333Y-70987014D01*
X171743714Y-71082252D01*
X171696095Y-71129871D01*
X171600857Y-71177490D01*
X171219904Y-71177490D01*
X172124666Y-70653680D02*
X172791333Y-70653680D01*
X172362761Y-71653680D01*
X175083481Y-71636499D02*
X174988243Y-71588880D01*
X174893005Y-71493641D01*
X174750148Y-71350784D01*
X174654910Y-71303165D01*
X174559672Y-71303165D01*
X174607291Y-71541260D02*
X174512053Y-71493641D01*
X174416815Y-71398403D01*
X174369196Y-71207927D01*
X174369196Y-70874594D01*
X174416815Y-70684118D01*
X174512053Y-70588880D01*
X174607291Y-70541260D01*
X174797767Y-70541260D01*
X174893005Y-70588880D01*
X174988243Y-70684118D01*
X175035862Y-70874594D01*
X175035862Y-71207927D01*
X174988243Y-71398403D01*
X174893005Y-71493641D01*
X174797767Y-71541260D01*
X174607291Y-71541260D01*
X175416815Y-70636499D02*
X175464434Y-70588880D01*
X175559672Y-70541260D01*
X175797767Y-70541260D01*
X175893005Y-70588880D01*
X175940624Y-70636499D01*
X175988243Y-70731737D01*
X175988243Y-70826975D01*
X175940624Y-70969832D01*
X175369196Y-71541260D01*
X175988243Y-71541260D01*
X178891606Y-64504320D02*
X178891606Y-65218606D01*
X178843987Y-65361463D01*
X178748749Y-65456701D01*
X178605892Y-65504320D01*
X178510654Y-65504320D01*
X179796368Y-64504320D02*
X179605892Y-64504320D01*
X179510654Y-64551940D01*
X179463035Y-64599559D01*
X179367797Y-64742416D01*
X179320178Y-64932892D01*
X179320178Y-65313844D01*
X179367797Y-65409082D01*
X179415416Y-65456701D01*
X179510654Y-65504320D01*
X179701130Y-65504320D01*
X179796368Y-65456701D01*
X179843987Y-65409082D01*
X179891606Y-65313844D01*
X179891606Y-65075749D01*
X179843987Y-64980511D01*
X179796368Y-64932892D01*
X179701130Y-64885273D01*
X179510654Y-64885273D01*
X179415416Y-64932892D01*
X179367797Y-64980511D01*
X179320178Y-65075749D01*
X146083993Y-115811560D02*
X145750660Y-115335370D01*
X145512564Y-115811560D02*
X145512564Y-114811560D01*
X145893517Y-114811560D01*
X145988755Y-114859180D01*
X146036374Y-114906799D01*
X146083993Y-115002037D01*
X146083993Y-115144894D01*
X146036374Y-115240132D01*
X145988755Y-115287751D01*
X145893517Y-115335370D01*
X145512564Y-115335370D01*
X146941136Y-114811560D02*
X146750660Y-114811560D01*
X146655421Y-114859180D01*
X146607802Y-114906799D01*
X146512564Y-115049656D01*
X146464945Y-115240132D01*
X146464945Y-115621084D01*
X146512564Y-115716322D01*
X146560183Y-115763941D01*
X146655421Y-115811560D01*
X146845898Y-115811560D01*
X146941136Y-115763941D01*
X146988755Y-115716322D01*
X147036374Y-115621084D01*
X147036374Y-115382989D01*
X146988755Y-115287751D01*
X146941136Y-115240132D01*
X146845898Y-115192513D01*
X146655421Y-115192513D01*
X146560183Y-115240132D01*
X146512564Y-115287751D01*
X146464945Y-115382989D01*
X145398264Y-123807480D02*
X145398264Y-122807480D01*
X145636360Y-122807480D01*
X145779217Y-122855100D01*
X145874455Y-122950338D01*
X145922074Y-123045576D01*
X145969693Y-123236052D01*
X145969693Y-123378909D01*
X145922074Y-123569385D01*
X145874455Y-123664623D01*
X145779217Y-123759861D01*
X145636360Y-123807480D01*
X145398264Y-123807480D01*
X146874455Y-122807480D02*
X146398264Y-122807480D01*
X146350645Y-123283671D01*
X146398264Y-123236052D01*
X146493502Y-123188433D01*
X146731598Y-123188433D01*
X146826836Y-123236052D01*
X146874455Y-123283671D01*
X146922074Y-123378909D01*
X146922074Y-123617004D01*
X146874455Y-123712242D01*
X146826836Y-123759861D01*
X146731598Y-123807480D01*
X146493502Y-123807480D01*
X146398264Y-123759861D01*
X146350645Y-123712242D01*
X165068926Y-120219220D02*
X165068926Y-120933506D01*
X165021307Y-121076363D01*
X164926069Y-121171601D01*
X164783212Y-121219220D01*
X164687974Y-121219220D01*
X165973688Y-120552554D02*
X165973688Y-121219220D01*
X165735593Y-120171601D02*
X165497498Y-120885887D01*
X166116545Y-120885887D01*
X139985809Y-98027810D02*
X139985809Y-98504000D01*
X139652476Y-97504000D02*
X139985809Y-98027810D01*
X140319142Y-97504000D01*
X141176285Y-98504000D02*
X140604857Y-98504000D01*
X140890571Y-98504000D02*
X140890571Y-97504000D01*
X140795333Y-97646858D01*
X140700095Y-97742096D01*
X140604857Y-97789715D01*
X130842426Y-118812060D02*
X130842426Y-119526346D01*
X130794807Y-119669203D01*
X130699569Y-119764441D01*
X130556712Y-119812060D01*
X130461474Y-119812060D01*
X131842426Y-119812060D02*
X131270998Y-119812060D01*
X131556712Y-119812060D02*
X131556712Y-118812060D01*
X131461474Y-118954918D01*
X131366236Y-119050156D01*
X131270998Y-119097775D01*
X114973195Y-80508860D02*
X114973195Y-81318384D01*
X115020814Y-81413622D01*
X115068433Y-81461241D01*
X115163671Y-81508860D01*
X115354147Y-81508860D01*
X115449385Y-81461241D01*
X115497004Y-81413622D01*
X115544623Y-81318384D01*
X115544623Y-80508860D01*
X115925576Y-80508860D02*
X116544623Y-80508860D01*
X116211290Y-80889813D01*
X116354147Y-80889813D01*
X116449385Y-80937432D01*
X116497004Y-80985051D01*
X116544623Y-81080289D01*
X116544623Y-81318384D01*
X116497004Y-81413622D01*
X116449385Y-81461241D01*
X116354147Y-81508860D01*
X116068433Y-81508860D01*
X115973195Y-81461241D01*
X115925576Y-81413622D01*
X130937095Y-80706000D02*
X130937095Y-81515524D01*
X130984714Y-81610762D01*
X131032333Y-81658381D01*
X131127571Y-81706000D01*
X131318047Y-81706000D01*
X131413285Y-81658381D01*
X131460904Y-81610762D01*
X131508523Y-81515524D01*
X131508523Y-80706000D01*
X131937095Y-80801239D02*
X131984714Y-80753620D01*
X132079952Y-80706000D01*
X132318047Y-80706000D01*
X132413285Y-80753620D01*
X132460904Y-80801239D01*
X132508523Y-80896477D01*
X132508523Y-80991715D01*
X132460904Y-81134572D01*
X131889476Y-81706000D01*
X132508523Y-81706000D01*
X150640753Y-115991900D02*
X150307420Y-115515710D01*
X150069324Y-115991900D02*
X150069324Y-114991900D01*
X150450277Y-114991900D01*
X150545515Y-115039520D01*
X150593134Y-115087139D01*
X150640753Y-115182377D01*
X150640753Y-115325234D01*
X150593134Y-115420472D01*
X150545515Y-115468091D01*
X150450277Y-115515710D01*
X150069324Y-115515710D01*
X151545515Y-114991900D02*
X151069324Y-114991900D01*
X151021705Y-115468091D01*
X151069324Y-115420472D01*
X151164562Y-115372853D01*
X151402658Y-115372853D01*
X151497896Y-115420472D01*
X151545515Y-115468091D01*
X151593134Y-115563329D01*
X151593134Y-115801424D01*
X151545515Y-115896662D01*
X151497896Y-115944281D01*
X151402658Y-115991900D01*
X151164562Y-115991900D01*
X151069324Y-115944281D01*
X151021705Y-115896662D01*
X139896553Y-114996220D02*
X139563220Y-114520030D01*
X139325124Y-114996220D02*
X139325124Y-113996220D01*
X139706077Y-113996220D01*
X139801315Y-114043840D01*
X139848934Y-114091459D01*
X139896553Y-114186697D01*
X139896553Y-114329554D01*
X139848934Y-114424792D01*
X139801315Y-114472411D01*
X139706077Y-114520030D01*
X139325124Y-114520030D01*
X140848934Y-114996220D02*
X140277505Y-114996220D01*
X140563220Y-114996220D02*
X140563220Y-113996220D01*
X140467981Y-114139078D01*
X140372743Y-114234316D01*
X140277505Y-114281935D01*
X115371666Y-89348060D02*
X115371666Y-90062346D01*
X115324047Y-90205203D01*
X115228809Y-90300441D01*
X115085952Y-90348060D01*
X114990714Y-90348060D01*
X115847857Y-90348060D02*
X115847857Y-89348060D01*
X116228809Y-89348060D01*
X116324047Y-89395680D01*
X116371666Y-89443299D01*
X116419285Y-89538537D01*
X116419285Y-89681394D01*
X116371666Y-89776632D01*
X116324047Y-89824251D01*
X116228809Y-89871870D01*
X115847857Y-89871870D01*
X117371666Y-90348060D02*
X116800238Y-90348060D01*
X117085952Y-90348060D02*
X117085952Y-89348060D01*
X116990714Y-89490918D01*
X116895476Y-89586156D01*
X116800238Y-89633775D01*
X96092686Y-101640900D02*
X96092686Y-102355186D01*
X96045067Y-102498043D01*
X95949829Y-102593281D01*
X95806972Y-102640900D01*
X95711734Y-102640900D01*
X96521258Y-101736139D02*
X96568877Y-101688520D01*
X96664115Y-101640900D01*
X96902210Y-101640900D01*
X96997448Y-101688520D01*
X97045067Y-101736139D01*
X97092686Y-101831377D01*
X97092686Y-101926615D01*
X97045067Y-102069472D01*
X96473639Y-102640900D01*
X97092686Y-102640900D01*
X149980424Y-123754040D02*
X149980424Y-122754040D01*
X150218520Y-122754040D01*
X150361377Y-122801660D01*
X150456615Y-122896898D01*
X150504234Y-122992136D01*
X150551853Y-123182612D01*
X150551853Y-123325469D01*
X150504234Y-123515945D01*
X150456615Y-123611183D01*
X150361377Y-123706421D01*
X150218520Y-123754040D01*
X149980424Y-123754040D01*
X151408996Y-123087374D02*
X151408996Y-123754040D01*
X151170900Y-122706421D02*
X150932805Y-123420707D01*
X151551853Y-123420707D01*
X105878404Y-105023160D02*
X105878404Y-104023160D01*
X106116500Y-104023160D01*
X106259357Y-104070780D01*
X106354595Y-104166018D01*
X106402214Y-104261256D01*
X106449833Y-104451732D01*
X106449833Y-104594589D01*
X106402214Y-104785065D01*
X106354595Y-104880303D01*
X106259357Y-104975541D01*
X106116500Y-105023160D01*
X105878404Y-105023160D01*
X106783166Y-104023160D02*
X107402214Y-104023160D01*
X107068880Y-104404113D01*
X107211738Y-104404113D01*
X107306976Y-104451732D01*
X107354595Y-104499351D01*
X107402214Y-104594589D01*
X107402214Y-104832684D01*
X107354595Y-104927922D01*
X107306976Y-104975541D01*
X107211738Y-105023160D01*
X106926023Y-105023160D01*
X106830785Y-104975541D01*
X106783166Y-104927922D01*
X107854524Y-96235780D02*
X107854524Y-95235780D01*
X108092620Y-95235780D01*
X108235477Y-95283400D01*
X108330715Y-95378638D01*
X108378334Y-95473876D01*
X108425953Y-95664352D01*
X108425953Y-95807209D01*
X108378334Y-95997685D01*
X108330715Y-96092923D01*
X108235477Y-96188161D01*
X108092620Y-96235780D01*
X107854524Y-96235780D01*
X109378334Y-96235780D02*
X108806905Y-96235780D01*
X109092620Y-96235780D02*
X109092620Y-95235780D01*
X108997381Y-95378638D01*
X108902143Y-95473876D01*
X108806905Y-95521495D01*
X110342442Y-77372482D02*
X110294823Y-77420101D01*
X110151966Y-77467720D01*
X110056728Y-77467720D01*
X109913871Y-77420101D01*
X109818633Y-77324863D01*
X109771014Y-77229625D01*
X109723395Y-77039149D01*
X109723395Y-76896292D01*
X109771014Y-76705816D01*
X109818633Y-76610578D01*
X109913871Y-76515340D01*
X110056728Y-76467720D01*
X110151966Y-76467720D01*
X110294823Y-76515340D01*
X110342442Y-76562959D01*
X111294823Y-77467720D02*
X110723395Y-77467720D01*
X111009109Y-77467720D02*
X111009109Y-76467720D01*
X110913871Y-76610578D01*
X110818633Y-76705816D01*
X110723395Y-76753435D01*
X111628157Y-76467720D02*
X112247204Y-76467720D01*
X111913871Y-76848673D01*
X112056728Y-76848673D01*
X112151966Y-76896292D01*
X112199585Y-76943911D01*
X112247204Y-77039149D01*
X112247204Y-77277244D01*
X112199585Y-77372482D01*
X112151966Y-77420101D01*
X112056728Y-77467720D01*
X111771014Y-77467720D01*
X111675776Y-77420101D01*
X111628157Y-77372482D01*
X124238782Y-97771222D02*
X124191163Y-97818841D01*
X124048306Y-97866460D01*
X123953068Y-97866460D01*
X123810211Y-97818841D01*
X123714973Y-97723603D01*
X123667354Y-97628365D01*
X123619735Y-97437889D01*
X123619735Y-97295032D01*
X123667354Y-97104556D01*
X123714973Y-97009318D01*
X123810211Y-96914080D01*
X123953068Y-96866460D01*
X124048306Y-96866460D01*
X124191163Y-96914080D01*
X124238782Y-96961699D01*
X125191163Y-97866460D02*
X124619735Y-97866460D01*
X124905449Y-97866460D02*
X124905449Y-96866460D01*
X124810211Y-97009318D01*
X124714973Y-97104556D01*
X124619735Y-97152175D01*
X125572116Y-96961699D02*
X125619735Y-96914080D01*
X125714973Y-96866460D01*
X125953068Y-96866460D01*
X126048306Y-96914080D01*
X126095925Y-96961699D01*
X126143544Y-97056937D01*
X126143544Y-97152175D01*
X126095925Y-97295032D01*
X125524497Y-97866460D01*
X126143544Y-97866460D01*
X122420142Y-83676762D02*
X122372523Y-83724381D01*
X122229666Y-83772000D01*
X122134428Y-83772000D01*
X121991571Y-83724381D01*
X121896333Y-83629143D01*
X121848714Y-83533905D01*
X121801095Y-83343429D01*
X121801095Y-83200572D01*
X121848714Y-83010096D01*
X121896333Y-82914858D01*
X121991571Y-82819620D01*
X122134428Y-82772000D01*
X122229666Y-82772000D01*
X122372523Y-82819620D01*
X122420142Y-82867239D01*
X123372523Y-83772000D02*
X122801095Y-83772000D01*
X123086809Y-83772000D02*
X123086809Y-82772000D01*
X122991571Y-82914858D01*
X122896333Y-83010096D01*
X122801095Y-83057715D01*
X124324904Y-83772000D02*
X123753476Y-83772000D01*
X124039190Y-83772000D02*
X124039190Y-82772000D01*
X123943952Y-82914858D01*
X123848714Y-83010096D01*
X123753476Y-83057715D01*
X133342142Y-100567762D02*
X133294523Y-100615381D01*
X133151666Y-100663000D01*
X133056428Y-100663000D01*
X132913571Y-100615381D01*
X132818333Y-100520143D01*
X132770714Y-100424905D01*
X132723095Y-100234429D01*
X132723095Y-100091572D01*
X132770714Y-99901096D01*
X132818333Y-99805858D01*
X132913571Y-99710620D01*
X133056428Y-99663000D01*
X133151666Y-99663000D01*
X133294523Y-99710620D01*
X133342142Y-99758239D01*
X134294523Y-100663000D02*
X133723095Y-100663000D01*
X134008809Y-100663000D02*
X134008809Y-99663000D01*
X133913571Y-99805858D01*
X133818333Y-99901096D01*
X133723095Y-99948715D01*
X134913571Y-99663000D02*
X135008809Y-99663000D01*
X135104047Y-99710620D01*
X135151666Y-99758239D01*
X135199285Y-99853477D01*
X135246904Y-100043953D01*
X135246904Y-100282048D01*
X135199285Y-100472524D01*
X135151666Y-100567762D01*
X135104047Y-100615381D01*
X135008809Y-100663000D01*
X134913571Y-100663000D01*
X134818333Y-100615381D01*
X134770714Y-100567762D01*
X134723095Y-100472524D01*
X134675476Y-100282048D01*
X134675476Y-100043953D01*
X134723095Y-99853477D01*
X134770714Y-99758239D01*
X134818333Y-99710620D01*
X134913571Y-99663000D01*
X140320733Y-82101962D02*
X140273114Y-82149581D01*
X140130257Y-82197200D01*
X140035019Y-82197200D01*
X139892161Y-82149581D01*
X139796923Y-82054343D01*
X139749304Y-81959105D01*
X139701685Y-81768629D01*
X139701685Y-81625772D01*
X139749304Y-81435296D01*
X139796923Y-81340058D01*
X139892161Y-81244820D01*
X140035019Y-81197200D01*
X140130257Y-81197200D01*
X140273114Y-81244820D01*
X140320733Y-81292439D01*
X140796923Y-82197200D02*
X140987400Y-82197200D01*
X141082638Y-82149581D01*
X141130257Y-82101962D01*
X141225495Y-81959105D01*
X141273114Y-81768629D01*
X141273114Y-81387677D01*
X141225495Y-81292439D01*
X141177876Y-81244820D01*
X141082638Y-81197200D01*
X140892161Y-81197200D01*
X140796923Y-81244820D01*
X140749304Y-81292439D01*
X140701685Y-81387677D01*
X140701685Y-81625772D01*
X140749304Y-81721010D01*
X140796923Y-81768629D01*
X140892161Y-81816248D01*
X141082638Y-81816248D01*
X141177876Y-81768629D01*
X141225495Y-81721010D01*
X141273114Y-81625772D01*
X117826493Y-93051902D02*
X117778874Y-93099521D01*
X117636017Y-93147140D01*
X117540779Y-93147140D01*
X117397921Y-93099521D01*
X117302683Y-93004283D01*
X117255064Y-92909045D01*
X117207445Y-92718569D01*
X117207445Y-92575712D01*
X117255064Y-92385236D01*
X117302683Y-92289998D01*
X117397921Y-92194760D01*
X117540779Y-92147140D01*
X117636017Y-92147140D01*
X117778874Y-92194760D01*
X117826493Y-92242379D01*
X118397921Y-92575712D02*
X118302683Y-92528093D01*
X118255064Y-92480474D01*
X118207445Y-92385236D01*
X118207445Y-92337617D01*
X118255064Y-92242379D01*
X118302683Y-92194760D01*
X118397921Y-92147140D01*
X118588398Y-92147140D01*
X118683636Y-92194760D01*
X118731255Y-92242379D01*
X118778874Y-92337617D01*
X118778874Y-92385236D01*
X118731255Y-92480474D01*
X118683636Y-92528093D01*
X118588398Y-92575712D01*
X118397921Y-92575712D01*
X118302683Y-92623331D01*
X118255064Y-92670950D01*
X118207445Y-92766188D01*
X118207445Y-92956664D01*
X118255064Y-93051902D01*
X118302683Y-93099521D01*
X118397921Y-93147140D01*
X118588398Y-93147140D01*
X118683636Y-93099521D01*
X118731255Y-93051902D01*
X118778874Y-92956664D01*
X118778874Y-92766188D01*
X118731255Y-92670950D01*
X118683636Y-92623331D01*
X118588398Y-92575712D01*
X123150333Y-93201762D02*
X123102714Y-93249381D01*
X122959857Y-93297000D01*
X122864619Y-93297000D01*
X122721761Y-93249381D01*
X122626523Y-93154143D01*
X122578904Y-93058905D01*
X122531285Y-92868429D01*
X122531285Y-92725572D01*
X122578904Y-92535096D01*
X122626523Y-92439858D01*
X122721761Y-92344620D01*
X122864619Y-92297000D01*
X122959857Y-92297000D01*
X123102714Y-92344620D01*
X123150333Y-92392239D01*
X124007476Y-92630334D02*
X124007476Y-93297000D01*
X123769380Y-92249381D02*
X123531285Y-92963667D01*
X124150333Y-92963667D01*
X137371793Y-117481622D02*
X137324174Y-117529241D01*
X137181317Y-117576860D01*
X137086079Y-117576860D01*
X136943221Y-117529241D01*
X136847983Y-117434003D01*
X136800364Y-117338765D01*
X136752745Y-117148289D01*
X136752745Y-117005432D01*
X136800364Y-116814956D01*
X136847983Y-116719718D01*
X136943221Y-116624480D01*
X137086079Y-116576860D01*
X137181317Y-116576860D01*
X137324174Y-116624480D01*
X137371793Y-116672099D01*
X137705126Y-116576860D02*
X138324174Y-116576860D01*
X137990840Y-116957813D01*
X138133698Y-116957813D01*
X138228936Y-117005432D01*
X138276555Y-117053051D01*
X138324174Y-117148289D01*
X138324174Y-117386384D01*
X138276555Y-117481622D01*
X138228936Y-117529241D01*
X138133698Y-117576860D01*
X137847983Y-117576860D01*
X137752745Y-117529241D01*
X137705126Y-117481622D01*
X119909293Y-102897942D02*
X119861674Y-102945561D01*
X119718817Y-102993180D01*
X119623579Y-102993180D01*
X119480721Y-102945561D01*
X119385483Y-102850323D01*
X119337864Y-102755085D01*
X119290245Y-102564609D01*
X119290245Y-102421752D01*
X119337864Y-102231276D01*
X119385483Y-102136038D01*
X119480721Y-102040800D01*
X119623579Y-101993180D01*
X119718817Y-101993180D01*
X119861674Y-102040800D01*
X119909293Y-102088419D01*
X120861674Y-102993180D02*
X120290245Y-102993180D01*
X120575960Y-102993180D02*
X120575960Y-101993180D01*
X120480721Y-102136038D01*
X120385483Y-102231276D01*
X120290245Y-102278895D01*
M02*
