G04 #@! TF.GenerationSoftware,KiCad,Pcbnew,5.1.2-f72e74a~84~ubuntu18.04.1*
G04 #@! TF.CreationDate,2019-05-24T04:06:14+05:00*
G04 #@! TF.ProjectId,reflow_board,7265666c-6f77-45f6-926f-6172642e6b69,1*
G04 #@! TF.SameCoordinates,Original*
G04 #@! TF.FileFunction,Copper,L1,Top*
G04 #@! TF.FilePolarity,Positive*
%FSLAX46Y46*%
G04 Gerber Fmt 4.6, Leading zero omitted, Abs format (unit mm)*
G04 Created by KiCad (PCBNEW 5.1.2-f72e74a~84~ubuntu18.04.1) date 2019-05-24 04:06:14*
%MOMM*%
%LPD*%
G04 APERTURE LIST*
%ADD10C,0.254000*%
%ADD11C,2.600000*%
%ADD12R,2.600000X2.600000*%
%ADD13C,5.000000*%
%ADD14O,1.700000X1.700000*%
%ADD15R,1.700000X1.700000*%
%ADD16R,1.050000X0.650000*%
%ADD17C,0.100000*%
%ADD18C,0.875000*%
%ADD19C,1.200000*%
%ADD20C,0.600000*%
%ADD21C,1.000000*%
%ADD22C,0.400000*%
%ADD23C,0.600000*%
G04 APERTURE END LIST*
D10*
X53340000Y-203200000D02*
G75*
G02X50800000Y-200660000I0J2540000D01*
G01*
X154940000Y-200660000D02*
G75*
G02X152400000Y-203200000I-2540000J0D01*
G01*
X152400000Y-127000000D02*
G75*
G02X154940000Y-129540000I0J-2540000D01*
G01*
X50800000Y-129540000D02*
G75*
G02X53340000Y-127000000I2540000J0D01*
G01*
X152400000Y-127000000D02*
X53340000Y-127000000D01*
X154940000Y-200660000D02*
X154940000Y-129540000D01*
X53340000Y-203200000D02*
X152400000Y-203200000D01*
X50800000Y-129540000D02*
X50800000Y-200660000D01*
D11*
X119380000Y-182960000D03*
D12*
X119380000Y-187960000D03*
D13*
X150786440Y-198850860D03*
D14*
X144780000Y-160020000D03*
X144780000Y-157480000D03*
X144780000Y-154940000D03*
X144780000Y-152400000D03*
X144780000Y-149860000D03*
X144780000Y-147320000D03*
X144780000Y-144780000D03*
D15*
X144780000Y-142240000D03*
D16*
X113835000Y-199195000D03*
X109685000Y-199195000D03*
X113835000Y-197045000D03*
X109685000Y-197045000D03*
D17*
G36*
X107719691Y-197023053D02*
G01*
X107740926Y-197026203D01*
X107761750Y-197031419D01*
X107781962Y-197038651D01*
X107801368Y-197047830D01*
X107819781Y-197058866D01*
X107837024Y-197071654D01*
X107852930Y-197086070D01*
X107867346Y-197101976D01*
X107880134Y-197119219D01*
X107891170Y-197137632D01*
X107900349Y-197157038D01*
X107907581Y-197177250D01*
X107912797Y-197198074D01*
X107915947Y-197219309D01*
X107917000Y-197240750D01*
X107917000Y-197678250D01*
X107915947Y-197699691D01*
X107912797Y-197720926D01*
X107907581Y-197741750D01*
X107900349Y-197761962D01*
X107891170Y-197781368D01*
X107880134Y-197799781D01*
X107867346Y-197817024D01*
X107852930Y-197832930D01*
X107837024Y-197847346D01*
X107819781Y-197860134D01*
X107801368Y-197871170D01*
X107781962Y-197880349D01*
X107761750Y-197887581D01*
X107740926Y-197892797D01*
X107719691Y-197895947D01*
X107698250Y-197897000D01*
X107185750Y-197897000D01*
X107164309Y-197895947D01*
X107143074Y-197892797D01*
X107122250Y-197887581D01*
X107102038Y-197880349D01*
X107082632Y-197871170D01*
X107064219Y-197860134D01*
X107046976Y-197847346D01*
X107031070Y-197832930D01*
X107016654Y-197817024D01*
X107003866Y-197799781D01*
X106992830Y-197781368D01*
X106983651Y-197761962D01*
X106976419Y-197741750D01*
X106971203Y-197720926D01*
X106968053Y-197699691D01*
X106967000Y-197678250D01*
X106967000Y-197240750D01*
X106968053Y-197219309D01*
X106971203Y-197198074D01*
X106976419Y-197177250D01*
X106983651Y-197157038D01*
X106992830Y-197137632D01*
X107003866Y-197119219D01*
X107016654Y-197101976D01*
X107031070Y-197086070D01*
X107046976Y-197071654D01*
X107064219Y-197058866D01*
X107082632Y-197047830D01*
X107102038Y-197038651D01*
X107122250Y-197031419D01*
X107143074Y-197026203D01*
X107164309Y-197023053D01*
X107185750Y-197022000D01*
X107698250Y-197022000D01*
X107719691Y-197023053D01*
X107719691Y-197023053D01*
G37*
D18*
X107442000Y-197459500D03*
D17*
G36*
X107719691Y-198598053D02*
G01*
X107740926Y-198601203D01*
X107761750Y-198606419D01*
X107781962Y-198613651D01*
X107801368Y-198622830D01*
X107819781Y-198633866D01*
X107837024Y-198646654D01*
X107852930Y-198661070D01*
X107867346Y-198676976D01*
X107880134Y-198694219D01*
X107891170Y-198712632D01*
X107900349Y-198732038D01*
X107907581Y-198752250D01*
X107912797Y-198773074D01*
X107915947Y-198794309D01*
X107917000Y-198815750D01*
X107917000Y-199253250D01*
X107915947Y-199274691D01*
X107912797Y-199295926D01*
X107907581Y-199316750D01*
X107900349Y-199336962D01*
X107891170Y-199356368D01*
X107880134Y-199374781D01*
X107867346Y-199392024D01*
X107852930Y-199407930D01*
X107837024Y-199422346D01*
X107819781Y-199435134D01*
X107801368Y-199446170D01*
X107781962Y-199455349D01*
X107761750Y-199462581D01*
X107740926Y-199467797D01*
X107719691Y-199470947D01*
X107698250Y-199472000D01*
X107185750Y-199472000D01*
X107164309Y-199470947D01*
X107143074Y-199467797D01*
X107122250Y-199462581D01*
X107102038Y-199455349D01*
X107082632Y-199446170D01*
X107064219Y-199435134D01*
X107046976Y-199422346D01*
X107031070Y-199407930D01*
X107016654Y-199392024D01*
X107003866Y-199374781D01*
X106992830Y-199356368D01*
X106983651Y-199336962D01*
X106976419Y-199316750D01*
X106971203Y-199295926D01*
X106968053Y-199274691D01*
X106967000Y-199253250D01*
X106967000Y-198815750D01*
X106968053Y-198794309D01*
X106971203Y-198773074D01*
X106976419Y-198752250D01*
X106983651Y-198732038D01*
X106992830Y-198712632D01*
X107003866Y-198694219D01*
X107016654Y-198676976D01*
X107031070Y-198661070D01*
X107046976Y-198646654D01*
X107064219Y-198633866D01*
X107082632Y-198622830D01*
X107102038Y-198613651D01*
X107122250Y-198606419D01*
X107143074Y-198601203D01*
X107164309Y-198598053D01*
X107185750Y-198597000D01*
X107698250Y-198597000D01*
X107719691Y-198598053D01*
X107719691Y-198598053D01*
G37*
D18*
X107442000Y-199034500D03*
D14*
X76200000Y-142240000D03*
X76200000Y-144780000D03*
X76200000Y-147320000D03*
X76200000Y-149860000D03*
X76200000Y-152400000D03*
X76200000Y-154940000D03*
X76200000Y-157480000D03*
X76200000Y-160020000D03*
X76200000Y-162560000D03*
X76200000Y-165100000D03*
X76200000Y-167640000D03*
X76200000Y-170180000D03*
X76200000Y-172720000D03*
X76200000Y-175260000D03*
X76200000Y-177800000D03*
X76200000Y-180340000D03*
X76200000Y-182880000D03*
X76200000Y-185420000D03*
X76200000Y-187960000D03*
X76200000Y-190500000D03*
D15*
X76200000Y-193040000D03*
D14*
X88900000Y-142240000D03*
X88900000Y-144780000D03*
X88900000Y-147320000D03*
X88900000Y-149860000D03*
X88900000Y-152400000D03*
X88900000Y-154940000D03*
X88900000Y-157480000D03*
D15*
X88900000Y-160020000D03*
D14*
X58420000Y-193040000D03*
X58420000Y-190500000D03*
X58420000Y-187960000D03*
X58420000Y-185420000D03*
X58420000Y-182880000D03*
X58420000Y-180340000D03*
X58420000Y-177800000D03*
X58420000Y-175260000D03*
X58420000Y-172720000D03*
X58420000Y-170180000D03*
X58420000Y-167640000D03*
X58420000Y-165100000D03*
X58420000Y-162560000D03*
X58420000Y-160020000D03*
X58420000Y-157480000D03*
X58420000Y-154940000D03*
X58420000Y-152400000D03*
X58420000Y-149860000D03*
X58420000Y-147320000D03*
X58420000Y-144780000D03*
D15*
X58420000Y-142240000D03*
D14*
X88900000Y-180340000D03*
X88900000Y-177800000D03*
X88900000Y-175260000D03*
X88900000Y-172720000D03*
D15*
X88900000Y-170180000D03*
D17*
G36*
X116355691Y-196896053D02*
G01*
X116376926Y-196899203D01*
X116397750Y-196904419D01*
X116417962Y-196911651D01*
X116437368Y-196920830D01*
X116455781Y-196931866D01*
X116473024Y-196944654D01*
X116488930Y-196959070D01*
X116503346Y-196974976D01*
X116516134Y-196992219D01*
X116527170Y-197010632D01*
X116536349Y-197030038D01*
X116543581Y-197050250D01*
X116548797Y-197071074D01*
X116551947Y-197092309D01*
X116553000Y-197113750D01*
X116553000Y-197551250D01*
X116551947Y-197572691D01*
X116548797Y-197593926D01*
X116543581Y-197614750D01*
X116536349Y-197634962D01*
X116527170Y-197654368D01*
X116516134Y-197672781D01*
X116503346Y-197690024D01*
X116488930Y-197705930D01*
X116473024Y-197720346D01*
X116455781Y-197733134D01*
X116437368Y-197744170D01*
X116417962Y-197753349D01*
X116397750Y-197760581D01*
X116376926Y-197765797D01*
X116355691Y-197768947D01*
X116334250Y-197770000D01*
X115821750Y-197770000D01*
X115800309Y-197768947D01*
X115779074Y-197765797D01*
X115758250Y-197760581D01*
X115738038Y-197753349D01*
X115718632Y-197744170D01*
X115700219Y-197733134D01*
X115682976Y-197720346D01*
X115667070Y-197705930D01*
X115652654Y-197690024D01*
X115639866Y-197672781D01*
X115628830Y-197654368D01*
X115619651Y-197634962D01*
X115612419Y-197614750D01*
X115607203Y-197593926D01*
X115604053Y-197572691D01*
X115603000Y-197551250D01*
X115603000Y-197113750D01*
X115604053Y-197092309D01*
X115607203Y-197071074D01*
X115612419Y-197050250D01*
X115619651Y-197030038D01*
X115628830Y-197010632D01*
X115639866Y-196992219D01*
X115652654Y-196974976D01*
X115667070Y-196959070D01*
X115682976Y-196944654D01*
X115700219Y-196931866D01*
X115718632Y-196920830D01*
X115738038Y-196911651D01*
X115758250Y-196904419D01*
X115779074Y-196899203D01*
X115800309Y-196896053D01*
X115821750Y-196895000D01*
X116334250Y-196895000D01*
X116355691Y-196896053D01*
X116355691Y-196896053D01*
G37*
D18*
X116078000Y-197332500D03*
D17*
G36*
X116355691Y-198471053D02*
G01*
X116376926Y-198474203D01*
X116397750Y-198479419D01*
X116417962Y-198486651D01*
X116437368Y-198495830D01*
X116455781Y-198506866D01*
X116473024Y-198519654D01*
X116488930Y-198534070D01*
X116503346Y-198549976D01*
X116516134Y-198567219D01*
X116527170Y-198585632D01*
X116536349Y-198605038D01*
X116543581Y-198625250D01*
X116548797Y-198646074D01*
X116551947Y-198667309D01*
X116553000Y-198688750D01*
X116553000Y-199126250D01*
X116551947Y-199147691D01*
X116548797Y-199168926D01*
X116543581Y-199189750D01*
X116536349Y-199209962D01*
X116527170Y-199229368D01*
X116516134Y-199247781D01*
X116503346Y-199265024D01*
X116488930Y-199280930D01*
X116473024Y-199295346D01*
X116455781Y-199308134D01*
X116437368Y-199319170D01*
X116417962Y-199328349D01*
X116397750Y-199335581D01*
X116376926Y-199340797D01*
X116355691Y-199343947D01*
X116334250Y-199345000D01*
X115821750Y-199345000D01*
X115800309Y-199343947D01*
X115779074Y-199340797D01*
X115758250Y-199335581D01*
X115738038Y-199328349D01*
X115718632Y-199319170D01*
X115700219Y-199308134D01*
X115682976Y-199295346D01*
X115667070Y-199280930D01*
X115652654Y-199265024D01*
X115639866Y-199247781D01*
X115628830Y-199229368D01*
X115619651Y-199209962D01*
X115612419Y-199189750D01*
X115607203Y-199168926D01*
X115604053Y-199147691D01*
X115603000Y-199126250D01*
X115603000Y-198688750D01*
X115604053Y-198667309D01*
X115607203Y-198646074D01*
X115612419Y-198625250D01*
X115619651Y-198605038D01*
X115628830Y-198585632D01*
X115639866Y-198567219D01*
X115652654Y-198549976D01*
X115667070Y-198534070D01*
X115682976Y-198519654D01*
X115700219Y-198506866D01*
X115718632Y-198495830D01*
X115738038Y-198486651D01*
X115758250Y-198479419D01*
X115779074Y-198474203D01*
X115800309Y-198471053D01*
X115821750Y-198470000D01*
X116334250Y-198470000D01*
X116355691Y-198471053D01*
X116355691Y-198471053D01*
G37*
D18*
X116078000Y-198907500D03*
D19*
X72786240Y-193027300D03*
X61292740Y-192946020D03*
X73192640Y-147317460D03*
X94648020Y-143642080D03*
X119367300Y-179489100D03*
D20*
X67927220Y-196756020D03*
X102232460Y-198053960D03*
X80563720Y-157472380D03*
D21*
X76200000Y-193040000D02*
X72798940Y-193040000D01*
X72798940Y-193040000D02*
X72786240Y-193027300D01*
X76200000Y-147320000D02*
X73195180Y-147320000D01*
X73195180Y-147320000D02*
X73192640Y-147317460D01*
X119380000Y-182960000D02*
X119380000Y-179501800D01*
X119380000Y-179501800D02*
X119367300Y-179489100D01*
D22*
X107442000Y-199034500D02*
X108442860Y-199034500D01*
X108603360Y-199195000D02*
X109685000Y-199195000D01*
X108442860Y-199034500D02*
X108603360Y-199195000D01*
X109685000Y-199195000D02*
X113835000Y-199195000D01*
X115047500Y-198907500D02*
X116078000Y-198907500D01*
X113835000Y-199195000D02*
X114760000Y-199195000D01*
X114760000Y-199195000D02*
X115047500Y-198907500D01*
X66052800Y-199034500D02*
X107442000Y-199034500D01*
X65344040Y-198325740D02*
X66052800Y-199034500D01*
X65344040Y-160566100D02*
X65344040Y-198325740D01*
X58420000Y-160020000D02*
X64797940Y-160020000D01*
X64797940Y-160020000D02*
X65344040Y-160566100D01*
X76200000Y-177800000D02*
X88900000Y-177800000D01*
X76200000Y-175260000D02*
X88900000Y-175260000D01*
D21*
X88900000Y-160020000D02*
X92710000Y-160020000D01*
X92710000Y-160020000D02*
X93980000Y-161290000D01*
X93980000Y-161290000D02*
X93980000Y-171450000D01*
X92710000Y-172720000D02*
X88900000Y-172720000D01*
X93980000Y-171450000D02*
X92710000Y-172720000D01*
D22*
X98130360Y-196397880D02*
X97772220Y-196756020D01*
X97772220Y-196756020D02*
X67927220Y-196756020D01*
X99740720Y-187960000D02*
X98130360Y-189570360D01*
X119380000Y-187960000D02*
X99740720Y-187960000D01*
X98130360Y-189570360D02*
X98130360Y-196397880D01*
X102816760Y-197459500D02*
X107442000Y-197459500D01*
D23*
X102816760Y-197469660D02*
X102816760Y-197459500D01*
X102232460Y-198053960D02*
X102816760Y-197469660D01*
X102826920Y-197459500D02*
X107442000Y-197459500D01*
X102816760Y-197469660D02*
X102826920Y-197459500D01*
X86418420Y-142240000D02*
X88900000Y-142240000D01*
X85742780Y-144005300D02*
X85742780Y-142915640D01*
X85742780Y-142915640D02*
X86418420Y-142240000D01*
X76200000Y-144780000D02*
X84968080Y-144780000D01*
X84968080Y-144780000D02*
X85742780Y-144005300D01*
D22*
X76200000Y-160020000D02*
X78775560Y-160020000D01*
X78775560Y-160020000D02*
X79253080Y-159542480D01*
X79253080Y-159542480D02*
X79253080Y-153022300D01*
X79875380Y-152400000D02*
X88900000Y-152400000D01*
X79253080Y-153022300D02*
X79875380Y-152400000D01*
X80563720Y-157472380D02*
X81440020Y-157472380D01*
X81440020Y-157472380D02*
X81810860Y-157101540D01*
X81810860Y-157101540D02*
X81810860Y-155201620D01*
X82072480Y-154940000D02*
X88900000Y-154940000D01*
X81810860Y-155201620D02*
X82072480Y-154940000D01*
X76200000Y-165100000D02*
X84449920Y-165100000D01*
X84449920Y-165100000D02*
X84978240Y-164571680D01*
X84978240Y-164571680D02*
X84978240Y-157927040D01*
X85425280Y-157480000D02*
X88900000Y-157480000D01*
X84978240Y-157927040D02*
X85425280Y-157480000D01*
D10*
G36*
X152744635Y-127799446D02*
G01*
X153076153Y-127899536D01*
X153381909Y-128062110D01*
X153650265Y-128280976D01*
X153870999Y-128547798D01*
X154035704Y-128852413D01*
X154138105Y-129183217D01*
X154178001Y-129562805D01*
X154178000Y-200622735D01*
X154140554Y-201004639D01*
X154040463Y-201336154D01*
X153877891Y-201641908D01*
X153659025Y-201910264D01*
X153392202Y-202130999D01*
X153087586Y-202295704D01*
X152756783Y-202398105D01*
X152377204Y-202438000D01*
X53377265Y-202438000D01*
X52995361Y-202400554D01*
X52663846Y-202300463D01*
X52358092Y-202137891D01*
X52089736Y-201919025D01*
X51869001Y-201652202D01*
X51704296Y-201347586D01*
X51613419Y-201054008D01*
X148762897Y-201054008D01*
X149039067Y-201471978D01*
X149583997Y-201762509D01*
X150175136Y-201941147D01*
X150789768Y-202001028D01*
X151404271Y-201939850D01*
X151995032Y-201759963D01*
X152533813Y-201471978D01*
X152809983Y-201054008D01*
X150786440Y-199030465D01*
X148762897Y-201054008D01*
X51613419Y-201054008D01*
X51601895Y-201016783D01*
X51562000Y-200637204D01*
X51562000Y-198665204D01*
X53995000Y-198665204D01*
X53995000Y-199036516D01*
X54067439Y-199400694D01*
X54209534Y-199743742D01*
X54415825Y-200052478D01*
X54678382Y-200315035D01*
X54987118Y-200521326D01*
X55330166Y-200663421D01*
X55694344Y-200735860D01*
X56065656Y-200735860D01*
X56429834Y-200663421D01*
X56772882Y-200521326D01*
X57081618Y-200315035D01*
X57344175Y-200052478D01*
X57550466Y-199743742D01*
X57692561Y-199400694D01*
X57765000Y-199036516D01*
X57765000Y-198665204D01*
X57692561Y-198301026D01*
X57550466Y-197957978D01*
X57344175Y-197649242D01*
X57081618Y-197386685D01*
X56772882Y-197180394D01*
X56429834Y-197038299D01*
X56065656Y-196965860D01*
X55694344Y-196965860D01*
X55330166Y-197038299D01*
X54987118Y-197180394D01*
X54678382Y-197386685D01*
X54415825Y-197649242D01*
X54209534Y-197957978D01*
X54067439Y-198301026D01*
X53995000Y-198665204D01*
X51562000Y-198665204D01*
X51562000Y-193396890D01*
X56978524Y-193396890D01*
X57023175Y-193544099D01*
X57148359Y-193806920D01*
X57322412Y-194040269D01*
X57538645Y-194235178D01*
X57788748Y-194384157D01*
X58063109Y-194481481D01*
X58293000Y-194360814D01*
X58293000Y-193167000D01*
X58547000Y-193167000D01*
X58547000Y-194360814D01*
X58776891Y-194481481D01*
X59051252Y-194384157D01*
X59301355Y-194235178D01*
X59517588Y-194040269D01*
X59691641Y-193806920D01*
X59816825Y-193544099D01*
X59861476Y-193396890D01*
X59740155Y-193167000D01*
X58547000Y-193167000D01*
X58293000Y-193167000D01*
X57099845Y-193167000D01*
X56978524Y-193396890D01*
X51562000Y-193396890D01*
X51562000Y-144780000D01*
X56927815Y-144780000D01*
X56956487Y-145071111D01*
X57041401Y-145351034D01*
X57179294Y-145609014D01*
X57364866Y-145835134D01*
X57590986Y-146020706D01*
X57645791Y-146050000D01*
X57590986Y-146079294D01*
X57364866Y-146264866D01*
X57179294Y-146490986D01*
X57041401Y-146748966D01*
X56956487Y-147028889D01*
X56927815Y-147320000D01*
X56956487Y-147611111D01*
X57041401Y-147891034D01*
X57179294Y-148149014D01*
X57364866Y-148375134D01*
X57590986Y-148560706D01*
X57645791Y-148590000D01*
X57590986Y-148619294D01*
X57364866Y-148804866D01*
X57179294Y-149030986D01*
X57041401Y-149288966D01*
X56956487Y-149568889D01*
X56927815Y-149860000D01*
X56956487Y-150151111D01*
X57041401Y-150431034D01*
X57179294Y-150689014D01*
X57364866Y-150915134D01*
X57590986Y-151100706D01*
X57645791Y-151130000D01*
X57590986Y-151159294D01*
X57364866Y-151344866D01*
X57179294Y-151570986D01*
X57041401Y-151828966D01*
X56956487Y-152108889D01*
X56927815Y-152400000D01*
X56956487Y-152691111D01*
X57041401Y-152971034D01*
X57179294Y-153229014D01*
X57364866Y-153455134D01*
X57590986Y-153640706D01*
X57645791Y-153670000D01*
X57590986Y-153699294D01*
X57364866Y-153884866D01*
X57179294Y-154110986D01*
X57041401Y-154368966D01*
X56956487Y-154648889D01*
X56927815Y-154940000D01*
X56956487Y-155231111D01*
X57041401Y-155511034D01*
X57179294Y-155769014D01*
X57364866Y-155995134D01*
X57590986Y-156180706D01*
X57645791Y-156210000D01*
X57590986Y-156239294D01*
X57364866Y-156424866D01*
X57179294Y-156650986D01*
X57041401Y-156908966D01*
X56956487Y-157188889D01*
X56927815Y-157480000D01*
X56956487Y-157771111D01*
X57041401Y-158051034D01*
X57179294Y-158309014D01*
X57364866Y-158535134D01*
X57590986Y-158720706D01*
X57645791Y-158750000D01*
X57590986Y-158779294D01*
X57364866Y-158964866D01*
X57179294Y-159190986D01*
X57041401Y-159448966D01*
X56956487Y-159728889D01*
X56927815Y-160020000D01*
X56956487Y-160311111D01*
X57041401Y-160591034D01*
X57179294Y-160849014D01*
X57364866Y-161075134D01*
X57590986Y-161260706D01*
X57645791Y-161290000D01*
X57590986Y-161319294D01*
X57364866Y-161504866D01*
X57179294Y-161730986D01*
X57041401Y-161988966D01*
X56956487Y-162268889D01*
X56927815Y-162560000D01*
X56956487Y-162851111D01*
X57041401Y-163131034D01*
X57179294Y-163389014D01*
X57364866Y-163615134D01*
X57590986Y-163800706D01*
X57645791Y-163830000D01*
X57590986Y-163859294D01*
X57364866Y-164044866D01*
X57179294Y-164270986D01*
X57041401Y-164528966D01*
X56956487Y-164808889D01*
X56927815Y-165100000D01*
X56956487Y-165391111D01*
X57041401Y-165671034D01*
X57179294Y-165929014D01*
X57364866Y-166155134D01*
X57590986Y-166340706D01*
X57645791Y-166370000D01*
X57590986Y-166399294D01*
X57364866Y-166584866D01*
X57179294Y-166810986D01*
X57041401Y-167068966D01*
X56956487Y-167348889D01*
X56927815Y-167640000D01*
X56956487Y-167931111D01*
X57041401Y-168211034D01*
X57179294Y-168469014D01*
X57364866Y-168695134D01*
X57590986Y-168880706D01*
X57645791Y-168910000D01*
X57590986Y-168939294D01*
X57364866Y-169124866D01*
X57179294Y-169350986D01*
X57041401Y-169608966D01*
X56956487Y-169888889D01*
X56927815Y-170180000D01*
X56956487Y-170471111D01*
X57041401Y-170751034D01*
X57179294Y-171009014D01*
X57364866Y-171235134D01*
X57590986Y-171420706D01*
X57645791Y-171450000D01*
X57590986Y-171479294D01*
X57364866Y-171664866D01*
X57179294Y-171890986D01*
X57041401Y-172148966D01*
X56956487Y-172428889D01*
X56927815Y-172720000D01*
X56956487Y-173011111D01*
X57041401Y-173291034D01*
X57179294Y-173549014D01*
X57364866Y-173775134D01*
X57590986Y-173960706D01*
X57645791Y-173990000D01*
X57590986Y-174019294D01*
X57364866Y-174204866D01*
X57179294Y-174430986D01*
X57041401Y-174688966D01*
X56956487Y-174968889D01*
X56927815Y-175260000D01*
X56956487Y-175551111D01*
X57041401Y-175831034D01*
X57179294Y-176089014D01*
X57364866Y-176315134D01*
X57590986Y-176500706D01*
X57645791Y-176530000D01*
X57590986Y-176559294D01*
X57364866Y-176744866D01*
X57179294Y-176970986D01*
X57041401Y-177228966D01*
X56956487Y-177508889D01*
X56927815Y-177800000D01*
X56956487Y-178091111D01*
X57041401Y-178371034D01*
X57179294Y-178629014D01*
X57364866Y-178855134D01*
X57590986Y-179040706D01*
X57645791Y-179070000D01*
X57590986Y-179099294D01*
X57364866Y-179284866D01*
X57179294Y-179510986D01*
X57041401Y-179768966D01*
X56956487Y-180048889D01*
X56927815Y-180340000D01*
X56956487Y-180631111D01*
X57041401Y-180911034D01*
X57179294Y-181169014D01*
X57364866Y-181395134D01*
X57590986Y-181580706D01*
X57645791Y-181610000D01*
X57590986Y-181639294D01*
X57364866Y-181824866D01*
X57179294Y-182050986D01*
X57041401Y-182308966D01*
X56956487Y-182588889D01*
X56927815Y-182880000D01*
X56956487Y-183171111D01*
X57041401Y-183451034D01*
X57179294Y-183709014D01*
X57364866Y-183935134D01*
X57590986Y-184120706D01*
X57645791Y-184150000D01*
X57590986Y-184179294D01*
X57364866Y-184364866D01*
X57179294Y-184590986D01*
X57041401Y-184848966D01*
X56956487Y-185128889D01*
X56927815Y-185420000D01*
X56956487Y-185711111D01*
X57041401Y-185991034D01*
X57179294Y-186249014D01*
X57364866Y-186475134D01*
X57590986Y-186660706D01*
X57645791Y-186690000D01*
X57590986Y-186719294D01*
X57364866Y-186904866D01*
X57179294Y-187130986D01*
X57041401Y-187388966D01*
X56956487Y-187668889D01*
X56927815Y-187960000D01*
X56956487Y-188251111D01*
X57041401Y-188531034D01*
X57179294Y-188789014D01*
X57364866Y-189015134D01*
X57590986Y-189200706D01*
X57645791Y-189230000D01*
X57590986Y-189259294D01*
X57364866Y-189444866D01*
X57179294Y-189670986D01*
X57041401Y-189928966D01*
X56956487Y-190208889D01*
X56927815Y-190500000D01*
X56956487Y-190791111D01*
X57041401Y-191071034D01*
X57179294Y-191329014D01*
X57364866Y-191555134D01*
X57590986Y-191740706D01*
X57655523Y-191775201D01*
X57538645Y-191844822D01*
X57322412Y-192039731D01*
X57148359Y-192273080D01*
X57023175Y-192535901D01*
X56978524Y-192683110D01*
X57099845Y-192913000D01*
X58293000Y-192913000D01*
X58293000Y-192893000D01*
X58547000Y-192893000D01*
X58547000Y-192913000D01*
X59740155Y-192913000D01*
X59861476Y-192683110D01*
X59816825Y-192535901D01*
X59691641Y-192273080D01*
X59517588Y-192039731D01*
X59301355Y-191844822D01*
X59184477Y-191775201D01*
X59249014Y-191740706D01*
X59475134Y-191555134D01*
X59660706Y-191329014D01*
X59798599Y-191071034D01*
X59883513Y-190791111D01*
X59912185Y-190500000D01*
X59883513Y-190208889D01*
X59798599Y-189928966D01*
X59660706Y-189670986D01*
X59475134Y-189444866D01*
X59249014Y-189259294D01*
X59194209Y-189230000D01*
X59249014Y-189200706D01*
X59475134Y-189015134D01*
X59660706Y-188789014D01*
X59798599Y-188531034D01*
X59883513Y-188251111D01*
X59912185Y-187960000D01*
X59883513Y-187668889D01*
X59798599Y-187388966D01*
X59660706Y-187130986D01*
X59475134Y-186904866D01*
X59249014Y-186719294D01*
X59194209Y-186690000D01*
X59249014Y-186660706D01*
X59475134Y-186475134D01*
X59660706Y-186249014D01*
X59798599Y-185991034D01*
X59883513Y-185711111D01*
X59912185Y-185420000D01*
X59883513Y-185128889D01*
X59798599Y-184848966D01*
X59660706Y-184590986D01*
X59475134Y-184364866D01*
X59249014Y-184179294D01*
X59194209Y-184150000D01*
X59249014Y-184120706D01*
X59475134Y-183935134D01*
X59660706Y-183709014D01*
X59798599Y-183451034D01*
X59883513Y-183171111D01*
X59912185Y-182880000D01*
X59883513Y-182588889D01*
X59798599Y-182308966D01*
X59660706Y-182050986D01*
X59475134Y-181824866D01*
X59249014Y-181639294D01*
X59194209Y-181610000D01*
X59249014Y-181580706D01*
X59475134Y-181395134D01*
X59660706Y-181169014D01*
X59798599Y-180911034D01*
X59883513Y-180631111D01*
X59912185Y-180340000D01*
X59883513Y-180048889D01*
X59798599Y-179768966D01*
X59660706Y-179510986D01*
X59475134Y-179284866D01*
X59249014Y-179099294D01*
X59194209Y-179070000D01*
X59249014Y-179040706D01*
X59475134Y-178855134D01*
X59660706Y-178629014D01*
X59798599Y-178371034D01*
X59883513Y-178091111D01*
X59912185Y-177800000D01*
X59883513Y-177508889D01*
X59798599Y-177228966D01*
X59660706Y-176970986D01*
X59475134Y-176744866D01*
X59249014Y-176559294D01*
X59194209Y-176530000D01*
X59249014Y-176500706D01*
X59475134Y-176315134D01*
X59660706Y-176089014D01*
X59798599Y-175831034D01*
X59883513Y-175551111D01*
X59912185Y-175260000D01*
X59883513Y-174968889D01*
X59798599Y-174688966D01*
X59660706Y-174430986D01*
X59475134Y-174204866D01*
X59249014Y-174019294D01*
X59194209Y-173990000D01*
X59249014Y-173960706D01*
X59475134Y-173775134D01*
X59660706Y-173549014D01*
X59798599Y-173291034D01*
X59883513Y-173011111D01*
X59912185Y-172720000D01*
X59883513Y-172428889D01*
X59798599Y-172148966D01*
X59660706Y-171890986D01*
X59475134Y-171664866D01*
X59249014Y-171479294D01*
X59194209Y-171450000D01*
X59249014Y-171420706D01*
X59475134Y-171235134D01*
X59660706Y-171009014D01*
X59798599Y-170751034D01*
X59883513Y-170471111D01*
X59912185Y-170180000D01*
X59883513Y-169888889D01*
X59798599Y-169608966D01*
X59660706Y-169350986D01*
X59475134Y-169124866D01*
X59249014Y-168939294D01*
X59194209Y-168910000D01*
X59249014Y-168880706D01*
X59475134Y-168695134D01*
X59660706Y-168469014D01*
X59798599Y-168211034D01*
X59883513Y-167931111D01*
X59912185Y-167640000D01*
X59883513Y-167348889D01*
X59798599Y-167068966D01*
X59660706Y-166810986D01*
X59475134Y-166584866D01*
X59249014Y-166399294D01*
X59194209Y-166370000D01*
X59249014Y-166340706D01*
X59475134Y-166155134D01*
X59660706Y-165929014D01*
X59798599Y-165671034D01*
X59883513Y-165391111D01*
X59912185Y-165100000D01*
X59883513Y-164808889D01*
X59798599Y-164528966D01*
X59660706Y-164270986D01*
X59475134Y-164044866D01*
X59249014Y-163859294D01*
X59194209Y-163830000D01*
X59249014Y-163800706D01*
X59475134Y-163615134D01*
X59660706Y-163389014D01*
X59798599Y-163131034D01*
X59883513Y-162851111D01*
X59912185Y-162560000D01*
X59883513Y-162268889D01*
X59798599Y-161988966D01*
X59660706Y-161730986D01*
X59475134Y-161504866D01*
X59249014Y-161319294D01*
X59194209Y-161290000D01*
X59249014Y-161260706D01*
X59475134Y-161075134D01*
X59655793Y-160855000D01*
X64452073Y-160855000D01*
X64509040Y-160911967D01*
X64509041Y-198284711D01*
X64505000Y-198325740D01*
X64521122Y-198489428D01*
X64568868Y-198646826D01*
X64622724Y-198747583D01*
X64646405Y-198791886D01*
X64750750Y-198919031D01*
X64782614Y-198945181D01*
X65433358Y-199595926D01*
X65459509Y-199627791D01*
X65526382Y-199682672D01*
X65586654Y-199732136D01*
X65731713Y-199809672D01*
X65889111Y-199857418D01*
X66052799Y-199873540D01*
X66093818Y-199869500D01*
X106592539Y-199869500D01*
X106709725Y-199965671D01*
X106857858Y-200044850D01*
X107018592Y-200093608D01*
X107185750Y-200110072D01*
X107698250Y-200110072D01*
X107865408Y-200093608D01*
X108026142Y-200044850D01*
X108174275Y-199965671D01*
X108213550Y-199933439D01*
X108282273Y-199970172D01*
X108439671Y-200017918D01*
X108562341Y-200030000D01*
X108562351Y-200030000D01*
X108603359Y-200034039D01*
X108644367Y-200030000D01*
X108780482Y-200030000D01*
X108805506Y-200050537D01*
X108915820Y-200109502D01*
X109035518Y-200145812D01*
X109160000Y-200158072D01*
X110210000Y-200158072D01*
X110334482Y-200145812D01*
X110454180Y-200109502D01*
X110564494Y-200050537D01*
X110589518Y-200030000D01*
X112930482Y-200030000D01*
X112955506Y-200050537D01*
X113065820Y-200109502D01*
X113185518Y-200145812D01*
X113310000Y-200158072D01*
X114360000Y-200158072D01*
X114484482Y-200145812D01*
X114604180Y-200109502D01*
X114714494Y-200050537D01*
X114737318Y-200031806D01*
X114760000Y-200034040D01*
X114801018Y-200030000D01*
X114801019Y-200030000D01*
X114923689Y-200017918D01*
X115081087Y-199970172D01*
X115226146Y-199892636D01*
X115318814Y-199816586D01*
X115345725Y-199838671D01*
X115493858Y-199917850D01*
X115654592Y-199966608D01*
X115821750Y-199983072D01*
X116334250Y-199983072D01*
X116501408Y-199966608D01*
X116662142Y-199917850D01*
X116810275Y-199838671D01*
X116940115Y-199732115D01*
X117046671Y-199602275D01*
X117125850Y-199454142D01*
X117174608Y-199293408D01*
X117191072Y-199126250D01*
X117191072Y-198854188D01*
X147636272Y-198854188D01*
X147697450Y-199468691D01*
X147877337Y-200059452D01*
X148165322Y-200598233D01*
X148583292Y-200874403D01*
X150606835Y-198850860D01*
X150966045Y-198850860D01*
X152989588Y-200874403D01*
X153407558Y-200598233D01*
X153698089Y-200053303D01*
X153876727Y-199462164D01*
X153936608Y-198847532D01*
X153875430Y-198233029D01*
X153695543Y-197642268D01*
X153407558Y-197103487D01*
X152989588Y-196827317D01*
X150966045Y-198850860D01*
X150606835Y-198850860D01*
X148583292Y-196827317D01*
X148165322Y-197103487D01*
X147874791Y-197648417D01*
X147696153Y-198239556D01*
X147636272Y-198854188D01*
X117191072Y-198854188D01*
X117191072Y-198688750D01*
X117174608Y-198521592D01*
X117125850Y-198360858D01*
X117046671Y-198212725D01*
X117028900Y-198191070D01*
X117083537Y-198124494D01*
X117142502Y-198014180D01*
X117178812Y-197894482D01*
X117191072Y-197770000D01*
X117188000Y-197618250D01*
X117029250Y-197459500D01*
X116205000Y-197459500D01*
X116205000Y-197479500D01*
X115951000Y-197479500D01*
X115951000Y-197459500D01*
X115931000Y-197459500D01*
X115931000Y-197205500D01*
X115951000Y-197205500D01*
X115951000Y-196418750D01*
X116205000Y-196418750D01*
X116205000Y-197205500D01*
X117029250Y-197205500D01*
X117188000Y-197046750D01*
X117191072Y-196895000D01*
X117178812Y-196770518D01*
X117142502Y-196650820D01*
X117140841Y-196647712D01*
X148762897Y-196647712D01*
X150786440Y-198671255D01*
X152809983Y-196647712D01*
X152533813Y-196229742D01*
X151988883Y-195939211D01*
X151397744Y-195760573D01*
X150783112Y-195700692D01*
X150168609Y-195761870D01*
X149577848Y-195941757D01*
X149039067Y-196229742D01*
X148762897Y-196647712D01*
X117140841Y-196647712D01*
X117083537Y-196540506D01*
X117004185Y-196443815D01*
X116907494Y-196364463D01*
X116797180Y-196305498D01*
X116677482Y-196269188D01*
X116553000Y-196256928D01*
X116363750Y-196260000D01*
X116205000Y-196418750D01*
X115951000Y-196418750D01*
X115792250Y-196260000D01*
X115603000Y-196256928D01*
X115478518Y-196269188D01*
X115358820Y-196305498D01*
X115248506Y-196364463D01*
X115151815Y-196443815D01*
X115072463Y-196540506D01*
X115013498Y-196650820D01*
X114996709Y-196706165D01*
X114985812Y-196595518D01*
X114949502Y-196475820D01*
X114890537Y-196365506D01*
X114811185Y-196268815D01*
X114714494Y-196189463D01*
X114604180Y-196130498D01*
X114484482Y-196094188D01*
X114360000Y-196081928D01*
X114120750Y-196085000D01*
X113962000Y-196243750D01*
X113962000Y-196918000D01*
X113982000Y-196918000D01*
X113982000Y-197172000D01*
X113962000Y-197172000D01*
X113962000Y-197846250D01*
X114120750Y-198005000D01*
X114360000Y-198008072D01*
X114484482Y-197995812D01*
X114604180Y-197959502D01*
X114714494Y-197900537D01*
X114811185Y-197821185D01*
X114890537Y-197724494D01*
X114949502Y-197614180D01*
X114985812Y-197494482D01*
X114989257Y-197459502D01*
X115126748Y-197459502D01*
X114968000Y-197618250D01*
X114964928Y-197770000D01*
X114977188Y-197894482D01*
X115013498Y-198014180D01*
X115042762Y-198068928D01*
X115006491Y-198072500D01*
X115006481Y-198072500D01*
X114883811Y-198084582D01*
X114726413Y-198132328D01*
X114581354Y-198209864D01*
X114524674Y-198256380D01*
X114484482Y-198244188D01*
X114360000Y-198231928D01*
X113310000Y-198231928D01*
X113185518Y-198244188D01*
X113065820Y-198280498D01*
X112955506Y-198339463D01*
X112930482Y-198360000D01*
X110589518Y-198360000D01*
X110564494Y-198339463D01*
X110454180Y-198280498D01*
X110334482Y-198244188D01*
X110210000Y-198231928D01*
X109160000Y-198231928D01*
X109035518Y-198244188D01*
X108915820Y-198280498D01*
X108859687Y-198310502D01*
X108763947Y-198259328D01*
X108606549Y-198211582D01*
X108483879Y-198199500D01*
X108483878Y-198199500D01*
X108442860Y-198195460D01*
X108401842Y-198199500D01*
X108373556Y-198199500D01*
X108410671Y-198154275D01*
X108489850Y-198006142D01*
X108538608Y-197845408D01*
X108555072Y-197678250D01*
X108555072Y-197563327D01*
X108570498Y-197614180D01*
X108629463Y-197724494D01*
X108708815Y-197821185D01*
X108805506Y-197900537D01*
X108915820Y-197959502D01*
X109035518Y-197995812D01*
X109160000Y-198008072D01*
X109399250Y-198005000D01*
X109558000Y-197846250D01*
X109558000Y-197172000D01*
X109812000Y-197172000D01*
X109812000Y-197846250D01*
X109970750Y-198005000D01*
X110210000Y-198008072D01*
X110334482Y-197995812D01*
X110454180Y-197959502D01*
X110564494Y-197900537D01*
X110661185Y-197821185D01*
X110740537Y-197724494D01*
X110799502Y-197614180D01*
X110835812Y-197494482D01*
X110848072Y-197370000D01*
X112671928Y-197370000D01*
X112684188Y-197494482D01*
X112720498Y-197614180D01*
X112779463Y-197724494D01*
X112858815Y-197821185D01*
X112955506Y-197900537D01*
X113065820Y-197959502D01*
X113185518Y-197995812D01*
X113310000Y-198008072D01*
X113549250Y-198005000D01*
X113708000Y-197846250D01*
X113708000Y-197172000D01*
X112833750Y-197172000D01*
X112675000Y-197330750D01*
X112671928Y-197370000D01*
X110848072Y-197370000D01*
X110845000Y-197330750D01*
X110686250Y-197172000D01*
X109812000Y-197172000D01*
X109558000Y-197172000D01*
X109538000Y-197172000D01*
X109538000Y-196918000D01*
X109558000Y-196918000D01*
X109558000Y-196243750D01*
X109812000Y-196243750D01*
X109812000Y-196918000D01*
X110686250Y-196918000D01*
X110845000Y-196759250D01*
X110848072Y-196720000D01*
X112671928Y-196720000D01*
X112675000Y-196759250D01*
X112833750Y-196918000D01*
X113708000Y-196918000D01*
X113708000Y-196243750D01*
X113549250Y-196085000D01*
X113310000Y-196081928D01*
X113185518Y-196094188D01*
X113065820Y-196130498D01*
X112955506Y-196189463D01*
X112858815Y-196268815D01*
X112779463Y-196365506D01*
X112720498Y-196475820D01*
X112684188Y-196595518D01*
X112671928Y-196720000D01*
X110848072Y-196720000D01*
X110835812Y-196595518D01*
X110799502Y-196475820D01*
X110740537Y-196365506D01*
X110661185Y-196268815D01*
X110564494Y-196189463D01*
X110454180Y-196130498D01*
X110334482Y-196094188D01*
X110210000Y-196081928D01*
X109970750Y-196085000D01*
X109812000Y-196243750D01*
X109558000Y-196243750D01*
X109399250Y-196085000D01*
X109160000Y-196081928D01*
X109035518Y-196094188D01*
X108915820Y-196130498D01*
X108805506Y-196189463D01*
X108708815Y-196268815D01*
X108629463Y-196365506D01*
X108570498Y-196475820D01*
X108534188Y-196595518D01*
X108521928Y-196720000D01*
X108525000Y-196759250D01*
X108683748Y-196917998D01*
X108525000Y-196917998D01*
X108525000Y-197028732D01*
X108489850Y-196912858D01*
X108410671Y-196764725D01*
X108304115Y-196634885D01*
X108174275Y-196528329D01*
X108026142Y-196449150D01*
X107865408Y-196400392D01*
X107698250Y-196383928D01*
X107185750Y-196383928D01*
X107018592Y-196400392D01*
X106857858Y-196449150D01*
X106716889Y-196524500D01*
X102872851Y-196524500D01*
X102826919Y-196519976D01*
X102821840Y-196520476D01*
X102816760Y-196519976D01*
X102633469Y-196538029D01*
X102457221Y-196591493D01*
X102294789Y-196678314D01*
X102152416Y-196795156D01*
X102076631Y-196887500D01*
X101636435Y-197327696D01*
X101636432Y-197327698D01*
X101506198Y-197457932D01*
X101480549Y-197496318D01*
X101451275Y-197531989D01*
X101429522Y-197572686D01*
X101403874Y-197611071D01*
X101386208Y-197653722D01*
X101364454Y-197694420D01*
X101351057Y-197738583D01*
X101333392Y-197781231D01*
X101324387Y-197826503D01*
X101310989Y-197870669D01*
X101306465Y-197916600D01*
X101297460Y-197961871D01*
X101297460Y-198008028D01*
X101292936Y-198053960D01*
X101297460Y-198099892D01*
X101297460Y-198146049D01*
X101306465Y-198191320D01*
X101307271Y-198199500D01*
X66398668Y-198199500D01*
X66179040Y-197979873D01*
X66179040Y-196663931D01*
X66992220Y-196663931D01*
X66992220Y-196848109D01*
X67028152Y-197028749D01*
X67098634Y-197198909D01*
X67200958Y-197352048D01*
X67331192Y-197482282D01*
X67484331Y-197584606D01*
X67654491Y-197655088D01*
X67835131Y-197691020D01*
X68019309Y-197691020D01*
X68199949Y-197655088D01*
X68354624Y-197591020D01*
X97731202Y-197591020D01*
X97772220Y-197595060D01*
X97813238Y-197591020D01*
X97813239Y-197591020D01*
X97935909Y-197578938D01*
X98093307Y-197531192D01*
X98238366Y-197453656D01*
X98365511Y-197349311D01*
X98391666Y-197317441D01*
X98691781Y-197017326D01*
X98723651Y-196991171D01*
X98827996Y-196864026D01*
X98905532Y-196718967D01*
X98953278Y-196561569D01*
X98965360Y-196438899D01*
X98965360Y-196438889D01*
X98969399Y-196397881D01*
X98965360Y-196356873D01*
X98965360Y-189916227D01*
X100086589Y-188795000D01*
X117441928Y-188795000D01*
X117441928Y-189260000D01*
X117454188Y-189384482D01*
X117490498Y-189504180D01*
X117549463Y-189614494D01*
X117628815Y-189711185D01*
X117725506Y-189790537D01*
X117835820Y-189849502D01*
X117955518Y-189885812D01*
X118080000Y-189898072D01*
X120680000Y-189898072D01*
X120804482Y-189885812D01*
X120924180Y-189849502D01*
X121034494Y-189790537D01*
X121131185Y-189711185D01*
X121210537Y-189614494D01*
X121269502Y-189504180D01*
X121305812Y-189384482D01*
X121318072Y-189260000D01*
X121318072Y-186660000D01*
X121305812Y-186535518D01*
X121269502Y-186415820D01*
X121210537Y-186305506D01*
X121131185Y-186208815D01*
X121034494Y-186129463D01*
X120924180Y-186070498D01*
X120804482Y-186034188D01*
X120680000Y-186021928D01*
X118080000Y-186021928D01*
X117955518Y-186034188D01*
X117835820Y-186070498D01*
X117725506Y-186129463D01*
X117628815Y-186208815D01*
X117549463Y-186305506D01*
X117490498Y-186415820D01*
X117454188Y-186535518D01*
X117441928Y-186660000D01*
X117441928Y-187125000D01*
X99781738Y-187125000D01*
X99740720Y-187120960D01*
X99699701Y-187125000D01*
X99577031Y-187137082D01*
X99419633Y-187184828D01*
X99274574Y-187262364D01*
X99147429Y-187366709D01*
X99121283Y-187398568D01*
X97568939Y-188950914D01*
X97537069Y-188977069D01*
X97432725Y-189104214D01*
X97432724Y-189104215D01*
X97355188Y-189249274D01*
X97307442Y-189406672D01*
X97291320Y-189570360D01*
X97295360Y-189611379D01*
X97295361Y-195921020D01*
X68354624Y-195921020D01*
X68199949Y-195856952D01*
X68019309Y-195821020D01*
X67835131Y-195821020D01*
X67654491Y-195856952D01*
X67484331Y-195927434D01*
X67331192Y-196029758D01*
X67200958Y-196159992D01*
X67098634Y-196313131D01*
X67028152Y-196483291D01*
X66992220Y-196663931D01*
X66179040Y-196663931D01*
X66179040Y-193890000D01*
X74711928Y-193890000D01*
X74724188Y-194014482D01*
X74760498Y-194134180D01*
X74819463Y-194244494D01*
X74898815Y-194341185D01*
X74995506Y-194420537D01*
X75105820Y-194479502D01*
X75225518Y-194515812D01*
X75350000Y-194528072D01*
X75914250Y-194525000D01*
X76073000Y-194366250D01*
X76073000Y-193167000D01*
X76327000Y-193167000D01*
X76327000Y-194366250D01*
X76485750Y-194525000D01*
X77050000Y-194528072D01*
X77174482Y-194515812D01*
X77294180Y-194479502D01*
X77404494Y-194420537D01*
X77501185Y-194341185D01*
X77580537Y-194244494D01*
X77639502Y-194134180D01*
X77675812Y-194014482D01*
X77688072Y-193890000D01*
X77685000Y-193325750D01*
X77526250Y-193167000D01*
X76327000Y-193167000D01*
X76073000Y-193167000D01*
X74873750Y-193167000D01*
X74715000Y-193325750D01*
X74711928Y-193890000D01*
X66179040Y-193890000D01*
X66179040Y-160607118D01*
X66183080Y-160566099D01*
X66166958Y-160402411D01*
X66119212Y-160245013D01*
X66041676Y-160099954D01*
X65937331Y-159972809D01*
X65905462Y-159946655D01*
X65417386Y-159458579D01*
X65391231Y-159426709D01*
X65264086Y-159322364D01*
X65119027Y-159244828D01*
X64961629Y-159197082D01*
X64838959Y-159185000D01*
X64838958Y-159185000D01*
X64797940Y-159180960D01*
X64756922Y-159185000D01*
X59655793Y-159185000D01*
X59475134Y-158964866D01*
X59249014Y-158779294D01*
X59194209Y-158750000D01*
X59249014Y-158720706D01*
X59475134Y-158535134D01*
X59660706Y-158309014D01*
X59798599Y-158051034D01*
X59883513Y-157771111D01*
X59912185Y-157480000D01*
X59883513Y-157188889D01*
X59798599Y-156908966D01*
X59660706Y-156650986D01*
X59475134Y-156424866D01*
X59249014Y-156239294D01*
X59194209Y-156210000D01*
X59249014Y-156180706D01*
X59475134Y-155995134D01*
X59660706Y-155769014D01*
X59798599Y-155511034D01*
X59883513Y-155231111D01*
X59912185Y-154940000D01*
X59883513Y-154648889D01*
X59798599Y-154368966D01*
X59660706Y-154110986D01*
X59475134Y-153884866D01*
X59249014Y-153699294D01*
X59194209Y-153670000D01*
X59249014Y-153640706D01*
X59475134Y-153455134D01*
X59660706Y-153229014D01*
X59798599Y-152971034D01*
X59883513Y-152691111D01*
X59912185Y-152400000D01*
X59883513Y-152108889D01*
X59798599Y-151828966D01*
X59660706Y-151570986D01*
X59475134Y-151344866D01*
X59249014Y-151159294D01*
X59194209Y-151130000D01*
X59249014Y-151100706D01*
X59475134Y-150915134D01*
X59660706Y-150689014D01*
X59798599Y-150431034D01*
X59883513Y-150151111D01*
X59912185Y-149860000D01*
X74707815Y-149860000D01*
X74736487Y-150151111D01*
X74821401Y-150431034D01*
X74959294Y-150689014D01*
X75144866Y-150915134D01*
X75370986Y-151100706D01*
X75425791Y-151130000D01*
X75370986Y-151159294D01*
X75144866Y-151344866D01*
X74959294Y-151570986D01*
X74821401Y-151828966D01*
X74736487Y-152108889D01*
X74707815Y-152400000D01*
X74736487Y-152691111D01*
X74821401Y-152971034D01*
X74959294Y-153229014D01*
X75144866Y-153455134D01*
X75370986Y-153640706D01*
X75425791Y-153670000D01*
X75370986Y-153699294D01*
X75144866Y-153884866D01*
X74959294Y-154110986D01*
X74821401Y-154368966D01*
X74736487Y-154648889D01*
X74707815Y-154940000D01*
X74736487Y-155231111D01*
X74821401Y-155511034D01*
X74959294Y-155769014D01*
X75144866Y-155995134D01*
X75370986Y-156180706D01*
X75425791Y-156210000D01*
X75370986Y-156239294D01*
X75144866Y-156424866D01*
X74959294Y-156650986D01*
X74821401Y-156908966D01*
X74736487Y-157188889D01*
X74707815Y-157480000D01*
X74736487Y-157771111D01*
X74821401Y-158051034D01*
X74959294Y-158309014D01*
X75144866Y-158535134D01*
X75370986Y-158720706D01*
X75425791Y-158750000D01*
X75370986Y-158779294D01*
X75144866Y-158964866D01*
X74959294Y-159190986D01*
X74821401Y-159448966D01*
X74736487Y-159728889D01*
X74707815Y-160020000D01*
X74736487Y-160311111D01*
X74821401Y-160591034D01*
X74959294Y-160849014D01*
X75144866Y-161075134D01*
X75370986Y-161260706D01*
X75425791Y-161290000D01*
X75370986Y-161319294D01*
X75144866Y-161504866D01*
X74959294Y-161730986D01*
X74821401Y-161988966D01*
X74736487Y-162268889D01*
X74707815Y-162560000D01*
X74736487Y-162851111D01*
X74821401Y-163131034D01*
X74959294Y-163389014D01*
X75144866Y-163615134D01*
X75370986Y-163800706D01*
X75425791Y-163830000D01*
X75370986Y-163859294D01*
X75144866Y-164044866D01*
X74959294Y-164270986D01*
X74821401Y-164528966D01*
X74736487Y-164808889D01*
X74707815Y-165100000D01*
X74736487Y-165391111D01*
X74821401Y-165671034D01*
X74959294Y-165929014D01*
X75144866Y-166155134D01*
X75370986Y-166340706D01*
X75425791Y-166370000D01*
X75370986Y-166399294D01*
X75144866Y-166584866D01*
X74959294Y-166810986D01*
X74821401Y-167068966D01*
X74736487Y-167348889D01*
X74707815Y-167640000D01*
X74736487Y-167931111D01*
X74821401Y-168211034D01*
X74959294Y-168469014D01*
X75144866Y-168695134D01*
X75370986Y-168880706D01*
X75425791Y-168910000D01*
X75370986Y-168939294D01*
X75144866Y-169124866D01*
X74959294Y-169350986D01*
X74821401Y-169608966D01*
X74736487Y-169888889D01*
X74707815Y-170180000D01*
X74736487Y-170471111D01*
X74821401Y-170751034D01*
X74959294Y-171009014D01*
X75144866Y-171235134D01*
X75370986Y-171420706D01*
X75425791Y-171450000D01*
X75370986Y-171479294D01*
X75144866Y-171664866D01*
X74959294Y-171890986D01*
X74821401Y-172148966D01*
X74736487Y-172428889D01*
X74707815Y-172720000D01*
X74736487Y-173011111D01*
X74821401Y-173291034D01*
X74959294Y-173549014D01*
X75144866Y-173775134D01*
X75370986Y-173960706D01*
X75425791Y-173990000D01*
X75370986Y-174019294D01*
X75144866Y-174204866D01*
X74959294Y-174430986D01*
X74821401Y-174688966D01*
X74736487Y-174968889D01*
X74707815Y-175260000D01*
X74736487Y-175551111D01*
X74821401Y-175831034D01*
X74959294Y-176089014D01*
X75144866Y-176315134D01*
X75370986Y-176500706D01*
X75425791Y-176530000D01*
X75370986Y-176559294D01*
X75144866Y-176744866D01*
X74959294Y-176970986D01*
X74821401Y-177228966D01*
X74736487Y-177508889D01*
X74707815Y-177800000D01*
X74736487Y-178091111D01*
X74821401Y-178371034D01*
X74959294Y-178629014D01*
X75144866Y-178855134D01*
X75370986Y-179040706D01*
X75425791Y-179070000D01*
X75370986Y-179099294D01*
X75144866Y-179284866D01*
X74959294Y-179510986D01*
X74821401Y-179768966D01*
X74736487Y-180048889D01*
X74707815Y-180340000D01*
X74736487Y-180631111D01*
X74821401Y-180911034D01*
X74959294Y-181169014D01*
X75144866Y-181395134D01*
X75370986Y-181580706D01*
X75425791Y-181610000D01*
X75370986Y-181639294D01*
X75144866Y-181824866D01*
X74959294Y-182050986D01*
X74821401Y-182308966D01*
X74736487Y-182588889D01*
X74707815Y-182880000D01*
X74736487Y-183171111D01*
X74821401Y-183451034D01*
X74959294Y-183709014D01*
X75144866Y-183935134D01*
X75370986Y-184120706D01*
X75425791Y-184150000D01*
X75370986Y-184179294D01*
X75144866Y-184364866D01*
X74959294Y-184590986D01*
X74821401Y-184848966D01*
X74736487Y-185128889D01*
X74707815Y-185420000D01*
X74736487Y-185711111D01*
X74821401Y-185991034D01*
X74959294Y-186249014D01*
X75144866Y-186475134D01*
X75370986Y-186660706D01*
X75425791Y-186690000D01*
X75370986Y-186719294D01*
X75144866Y-186904866D01*
X74959294Y-187130986D01*
X74821401Y-187388966D01*
X74736487Y-187668889D01*
X74707815Y-187960000D01*
X74736487Y-188251111D01*
X74821401Y-188531034D01*
X74959294Y-188789014D01*
X75144866Y-189015134D01*
X75370986Y-189200706D01*
X75425791Y-189230000D01*
X75370986Y-189259294D01*
X75144866Y-189444866D01*
X74959294Y-189670986D01*
X74821401Y-189928966D01*
X74736487Y-190208889D01*
X74707815Y-190500000D01*
X74736487Y-190791111D01*
X74821401Y-191071034D01*
X74959294Y-191329014D01*
X75144866Y-191555134D01*
X75174687Y-191579607D01*
X75105820Y-191600498D01*
X74995506Y-191659463D01*
X74898815Y-191738815D01*
X74819463Y-191835506D01*
X74760498Y-191945820D01*
X74724188Y-192065518D01*
X74711928Y-192190000D01*
X74715000Y-192754250D01*
X74873750Y-192913000D01*
X76073000Y-192913000D01*
X76073000Y-192893000D01*
X76327000Y-192893000D01*
X76327000Y-192913000D01*
X77526250Y-192913000D01*
X77685000Y-192754250D01*
X77688072Y-192190000D01*
X77675812Y-192065518D01*
X77639502Y-191945820D01*
X77580537Y-191835506D01*
X77501185Y-191738815D01*
X77404494Y-191659463D01*
X77294180Y-191600498D01*
X77225313Y-191579607D01*
X77255134Y-191555134D01*
X77440706Y-191329014D01*
X77578599Y-191071034D01*
X77663513Y-190791111D01*
X77692185Y-190500000D01*
X77663513Y-190208889D01*
X77578599Y-189928966D01*
X77440706Y-189670986D01*
X77255134Y-189444866D01*
X77029014Y-189259294D01*
X76974209Y-189230000D01*
X77029014Y-189200706D01*
X77255134Y-189015134D01*
X77440706Y-188789014D01*
X77578599Y-188531034D01*
X77663513Y-188251111D01*
X77692185Y-187960000D01*
X77663513Y-187668889D01*
X77578599Y-187388966D01*
X77440706Y-187130986D01*
X77255134Y-186904866D01*
X77029014Y-186719294D01*
X76974209Y-186690000D01*
X77029014Y-186660706D01*
X77255134Y-186475134D01*
X77440706Y-186249014D01*
X77578599Y-185991034D01*
X77663513Y-185711111D01*
X77692185Y-185420000D01*
X77663513Y-185128889D01*
X77578599Y-184848966D01*
X77440706Y-184590986D01*
X77255134Y-184364866D01*
X77187335Y-184309224D01*
X118210381Y-184309224D01*
X118342317Y-184604312D01*
X118683045Y-184775159D01*
X119050557Y-184876250D01*
X119430729Y-184903701D01*
X119808951Y-184856457D01*
X120170690Y-184736333D01*
X120417683Y-184604312D01*
X120549619Y-184309224D01*
X119380000Y-183139605D01*
X118210381Y-184309224D01*
X77187335Y-184309224D01*
X77029014Y-184179294D01*
X76974209Y-184150000D01*
X77029014Y-184120706D01*
X77255134Y-183935134D01*
X77440706Y-183709014D01*
X77578599Y-183451034D01*
X77663513Y-183171111D01*
X77679309Y-183010729D01*
X117436299Y-183010729D01*
X117483543Y-183388951D01*
X117603667Y-183750690D01*
X117735688Y-183997683D01*
X118030776Y-184129619D01*
X119200395Y-182960000D01*
X119559605Y-182960000D01*
X120729224Y-184129619D01*
X121024312Y-183997683D01*
X121195159Y-183656955D01*
X121296250Y-183289443D01*
X121323701Y-182909271D01*
X121276457Y-182531049D01*
X121156333Y-182169310D01*
X121024312Y-181922317D01*
X120729224Y-181790381D01*
X119559605Y-182960000D01*
X119200395Y-182960000D01*
X118030776Y-181790381D01*
X117735688Y-181922317D01*
X117564841Y-182263045D01*
X117463750Y-182630557D01*
X117436299Y-183010729D01*
X77679309Y-183010729D01*
X77692185Y-182880000D01*
X77663513Y-182588889D01*
X77578599Y-182308966D01*
X77440706Y-182050986D01*
X77255134Y-181824866D01*
X77029014Y-181639294D01*
X76974209Y-181610000D01*
X77029014Y-181580706D01*
X77255134Y-181395134D01*
X77440706Y-181169014D01*
X77578599Y-180911034D01*
X77663513Y-180631111D01*
X77692185Y-180340000D01*
X77663513Y-180048889D01*
X77578599Y-179768966D01*
X77440706Y-179510986D01*
X77255134Y-179284866D01*
X77029014Y-179099294D01*
X76974209Y-179070000D01*
X77029014Y-179040706D01*
X77255134Y-178855134D01*
X77435793Y-178635000D01*
X87664207Y-178635000D01*
X87844866Y-178855134D01*
X88070986Y-179040706D01*
X88125791Y-179070000D01*
X88070986Y-179099294D01*
X87844866Y-179284866D01*
X87659294Y-179510986D01*
X87521401Y-179768966D01*
X87436487Y-180048889D01*
X87407815Y-180340000D01*
X87436487Y-180631111D01*
X87521401Y-180911034D01*
X87659294Y-181169014D01*
X87844866Y-181395134D01*
X88070986Y-181580706D01*
X88328966Y-181718599D01*
X88608889Y-181803513D01*
X88827050Y-181825000D01*
X88972950Y-181825000D01*
X89191111Y-181803513D01*
X89471034Y-181718599D01*
X89672756Y-181610776D01*
X118210381Y-181610776D01*
X119380000Y-182780395D01*
X120549619Y-181610776D01*
X120417683Y-181315688D01*
X120076955Y-181144841D01*
X119709443Y-181043750D01*
X119329271Y-181016299D01*
X118951049Y-181063543D01*
X118589310Y-181183667D01*
X118342317Y-181315688D01*
X118210381Y-181610776D01*
X89672756Y-181610776D01*
X89729014Y-181580706D01*
X89955134Y-181395134D01*
X90140706Y-181169014D01*
X90278599Y-180911034D01*
X90363513Y-180631111D01*
X90392185Y-180340000D01*
X90363513Y-180048889D01*
X90278599Y-179768966D01*
X90140706Y-179510986D01*
X89955134Y-179284866D01*
X89729014Y-179099294D01*
X89674209Y-179070000D01*
X89729014Y-179040706D01*
X89955134Y-178855134D01*
X90140706Y-178629014D01*
X90278599Y-178371034D01*
X90363513Y-178091111D01*
X90392185Y-177800000D01*
X90363513Y-177508889D01*
X90278599Y-177228966D01*
X90140706Y-176970986D01*
X89955134Y-176744866D01*
X89729014Y-176559294D01*
X89674209Y-176530000D01*
X89729014Y-176500706D01*
X89955134Y-176315134D01*
X90140706Y-176089014D01*
X90278599Y-175831034D01*
X90363513Y-175551111D01*
X90392185Y-175260000D01*
X90363513Y-174968889D01*
X90278599Y-174688966D01*
X90140706Y-174430986D01*
X89955134Y-174204866D01*
X89729014Y-174019294D01*
X89674209Y-173990000D01*
X89729014Y-173960706D01*
X89857817Y-173855000D01*
X92654249Y-173855000D01*
X92710000Y-173860491D01*
X92765751Y-173855000D01*
X92765752Y-173855000D01*
X92932499Y-173838577D01*
X93146447Y-173773676D01*
X93343623Y-173668284D01*
X93516449Y-173526449D01*
X93551996Y-173483135D01*
X94743140Y-172291992D01*
X94786449Y-172256449D01*
X94928284Y-172083623D01*
X95033676Y-171886447D01*
X95098577Y-171672499D01*
X95115000Y-171505752D01*
X95115000Y-171505745D01*
X95120490Y-171450001D01*
X95115000Y-171394257D01*
X95115000Y-161345743D01*
X95120490Y-161289999D01*
X95115000Y-161234255D01*
X95115000Y-161234248D01*
X95098577Y-161067501D01*
X95033676Y-160853553D01*
X94928284Y-160656377D01*
X94786449Y-160483551D01*
X94743140Y-160448008D01*
X93551996Y-159256865D01*
X93516449Y-159213551D01*
X93343623Y-159071716D01*
X93146447Y-158966324D01*
X92932499Y-158901423D01*
X92765752Y-158885000D01*
X92765751Y-158885000D01*
X92710000Y-158879509D01*
X92654249Y-158885000D01*
X90317683Y-158885000D01*
X90280537Y-158815506D01*
X90201185Y-158718815D01*
X90104494Y-158639463D01*
X89994180Y-158580498D01*
X89925313Y-158559607D01*
X89955134Y-158535134D01*
X90140706Y-158309014D01*
X90278599Y-158051034D01*
X90363513Y-157771111D01*
X90392185Y-157480000D01*
X90363513Y-157188889D01*
X90278599Y-156908966D01*
X90140706Y-156650986D01*
X89955134Y-156424866D01*
X89729014Y-156239294D01*
X89674209Y-156210000D01*
X89729014Y-156180706D01*
X89955134Y-155995134D01*
X90140706Y-155769014D01*
X90278599Y-155511034D01*
X90363513Y-155231111D01*
X90392185Y-154940000D01*
X90363513Y-154648889D01*
X90278599Y-154368966D01*
X90140706Y-154110986D01*
X89955134Y-153884866D01*
X89729014Y-153699294D01*
X89674209Y-153670000D01*
X89729014Y-153640706D01*
X89955134Y-153455134D01*
X90140706Y-153229014D01*
X90278599Y-152971034D01*
X90363513Y-152691111D01*
X90392185Y-152400000D01*
X90363513Y-152108889D01*
X90278599Y-151828966D01*
X90140706Y-151570986D01*
X89955134Y-151344866D01*
X89729014Y-151159294D01*
X89674209Y-151130000D01*
X89729014Y-151100706D01*
X89955134Y-150915134D01*
X90140706Y-150689014D01*
X90278599Y-150431034D01*
X90363513Y-150151111D01*
X90392185Y-149860000D01*
X90363513Y-149568889D01*
X90278599Y-149288966D01*
X90140706Y-149030986D01*
X89955134Y-148804866D01*
X89729014Y-148619294D01*
X89674209Y-148590000D01*
X89729014Y-148560706D01*
X89955134Y-148375134D01*
X90140706Y-148149014D01*
X90278599Y-147891034D01*
X90363513Y-147611111D01*
X90392185Y-147320000D01*
X90363513Y-147028889D01*
X90278599Y-146748966D01*
X90140706Y-146490986D01*
X89955134Y-146264866D01*
X89729014Y-146079294D01*
X89664477Y-146044799D01*
X89781355Y-145975178D01*
X89997588Y-145780269D01*
X90171641Y-145546920D01*
X90296825Y-145284099D01*
X90341476Y-145136890D01*
X90220155Y-144907000D01*
X89027000Y-144907000D01*
X89027000Y-144927000D01*
X88773000Y-144927000D01*
X88773000Y-144907000D01*
X87579845Y-144907000D01*
X87458524Y-145136890D01*
X87503175Y-145284099D01*
X87628359Y-145546920D01*
X87802412Y-145780269D01*
X88018645Y-145975178D01*
X88135523Y-146044799D01*
X88070986Y-146079294D01*
X87844866Y-146264866D01*
X87659294Y-146490986D01*
X87521401Y-146748966D01*
X87436487Y-147028889D01*
X87407815Y-147320000D01*
X87436487Y-147611111D01*
X87521401Y-147891034D01*
X87659294Y-148149014D01*
X87844866Y-148375134D01*
X88070986Y-148560706D01*
X88125791Y-148590000D01*
X88070986Y-148619294D01*
X87844866Y-148804866D01*
X87659294Y-149030986D01*
X87521401Y-149288966D01*
X87436487Y-149568889D01*
X87407815Y-149860000D01*
X87436487Y-150151111D01*
X87521401Y-150431034D01*
X87659294Y-150689014D01*
X87844866Y-150915134D01*
X88070986Y-151100706D01*
X88125791Y-151130000D01*
X88070986Y-151159294D01*
X87844866Y-151344866D01*
X87664207Y-151565000D01*
X79916398Y-151565000D01*
X79875379Y-151560960D01*
X79834361Y-151565000D01*
X79711691Y-151577082D01*
X79554293Y-151624828D01*
X79409234Y-151702364D01*
X79282089Y-151806709D01*
X79255938Y-151838574D01*
X78691654Y-152402859D01*
X78659790Y-152429009D01*
X78633642Y-152460871D01*
X78555444Y-152556155D01*
X78477908Y-152701214D01*
X78430162Y-152858612D01*
X78414040Y-153022300D01*
X78418081Y-153063328D01*
X78418080Y-159185000D01*
X77435793Y-159185000D01*
X77255134Y-158964866D01*
X77029014Y-158779294D01*
X76974209Y-158750000D01*
X77029014Y-158720706D01*
X77255134Y-158535134D01*
X77440706Y-158309014D01*
X77578599Y-158051034D01*
X77663513Y-157771111D01*
X77692185Y-157480000D01*
X77663513Y-157188889D01*
X77578599Y-156908966D01*
X77440706Y-156650986D01*
X77255134Y-156424866D01*
X77029014Y-156239294D01*
X76974209Y-156210000D01*
X77029014Y-156180706D01*
X77255134Y-155995134D01*
X77440706Y-155769014D01*
X77578599Y-155511034D01*
X77663513Y-155231111D01*
X77692185Y-154940000D01*
X77663513Y-154648889D01*
X77578599Y-154368966D01*
X77440706Y-154110986D01*
X77255134Y-153884866D01*
X77029014Y-153699294D01*
X76974209Y-153670000D01*
X77029014Y-153640706D01*
X77255134Y-153455134D01*
X77440706Y-153229014D01*
X77578599Y-152971034D01*
X77663513Y-152691111D01*
X77692185Y-152400000D01*
X77663513Y-152108889D01*
X77578599Y-151828966D01*
X77440706Y-151570986D01*
X77255134Y-151344866D01*
X77029014Y-151159294D01*
X76974209Y-151130000D01*
X77029014Y-151100706D01*
X77255134Y-150915134D01*
X77440706Y-150689014D01*
X77578599Y-150431034D01*
X77663513Y-150151111D01*
X77692185Y-149860000D01*
X77663513Y-149568889D01*
X77578599Y-149288966D01*
X77440706Y-149030986D01*
X77255134Y-148804866D01*
X77029014Y-148619294D01*
X76964477Y-148584799D01*
X77081355Y-148515178D01*
X77297588Y-148320269D01*
X77471641Y-148086920D01*
X77596825Y-147824099D01*
X77641476Y-147676890D01*
X77520155Y-147447000D01*
X76327000Y-147447000D01*
X76327000Y-147467000D01*
X76073000Y-147467000D01*
X76073000Y-147447000D01*
X74879845Y-147447000D01*
X74758524Y-147676890D01*
X74803175Y-147824099D01*
X74928359Y-148086920D01*
X75102412Y-148320269D01*
X75318645Y-148515178D01*
X75435523Y-148584799D01*
X75370986Y-148619294D01*
X75144866Y-148804866D01*
X74959294Y-149030986D01*
X74821401Y-149288966D01*
X74736487Y-149568889D01*
X74707815Y-149860000D01*
X59912185Y-149860000D01*
X59883513Y-149568889D01*
X59798599Y-149288966D01*
X59660706Y-149030986D01*
X59475134Y-148804866D01*
X59249014Y-148619294D01*
X59194209Y-148590000D01*
X59249014Y-148560706D01*
X59475134Y-148375134D01*
X59660706Y-148149014D01*
X59798599Y-147891034D01*
X59883513Y-147611111D01*
X59912185Y-147320000D01*
X59883513Y-147028889D01*
X59798599Y-146748966D01*
X59660706Y-146490986D01*
X59475134Y-146264866D01*
X59249014Y-146079294D01*
X59194209Y-146050000D01*
X59249014Y-146020706D01*
X59475134Y-145835134D01*
X59660706Y-145609014D01*
X59798599Y-145351034D01*
X59883513Y-145071111D01*
X59912185Y-144780000D01*
X59883513Y-144488889D01*
X59798599Y-144208966D01*
X59660706Y-143950986D01*
X59475134Y-143724866D01*
X59445313Y-143700393D01*
X59514180Y-143679502D01*
X59624494Y-143620537D01*
X59721185Y-143541185D01*
X59800537Y-143444494D01*
X59859502Y-143334180D01*
X59895812Y-143214482D01*
X59908072Y-143090000D01*
X59908072Y-142240000D01*
X74707815Y-142240000D01*
X74736487Y-142531111D01*
X74821401Y-142811034D01*
X74959294Y-143069014D01*
X75144866Y-143295134D01*
X75370986Y-143480706D01*
X75425791Y-143510000D01*
X75370986Y-143539294D01*
X75144866Y-143724866D01*
X74959294Y-143950986D01*
X74821401Y-144208966D01*
X74736487Y-144488889D01*
X74707815Y-144780000D01*
X74736487Y-145071111D01*
X74821401Y-145351034D01*
X74959294Y-145609014D01*
X75144866Y-145835134D01*
X75370986Y-146020706D01*
X75435523Y-146055201D01*
X75318645Y-146124822D01*
X75102412Y-146319731D01*
X74928359Y-146553080D01*
X74803175Y-146815901D01*
X74758524Y-146963110D01*
X74879845Y-147193000D01*
X76073000Y-147193000D01*
X76073000Y-147173000D01*
X76327000Y-147173000D01*
X76327000Y-147193000D01*
X77520155Y-147193000D01*
X77641476Y-146963110D01*
X77596825Y-146815901D01*
X77471641Y-146553080D01*
X77297588Y-146319731D01*
X77081355Y-146124822D01*
X76964477Y-146055201D01*
X77029014Y-146020706D01*
X77255134Y-145835134D01*
X77353725Y-145715000D01*
X84922148Y-145715000D01*
X84968080Y-145719524D01*
X85014012Y-145715000D01*
X85151372Y-145701471D01*
X85327620Y-145648007D01*
X85490052Y-145561186D01*
X85632424Y-145444344D01*
X85661710Y-145408659D01*
X86290369Y-144780000D01*
X143287815Y-144780000D01*
X143316487Y-145071111D01*
X143401401Y-145351034D01*
X143539294Y-145609014D01*
X143724866Y-145835134D01*
X143950986Y-146020706D01*
X144005791Y-146050000D01*
X143950986Y-146079294D01*
X143724866Y-146264866D01*
X143539294Y-146490986D01*
X143401401Y-146748966D01*
X143316487Y-147028889D01*
X143287815Y-147320000D01*
X143316487Y-147611111D01*
X143401401Y-147891034D01*
X143539294Y-148149014D01*
X143724866Y-148375134D01*
X143950986Y-148560706D01*
X144005791Y-148590000D01*
X143950986Y-148619294D01*
X143724866Y-148804866D01*
X143539294Y-149030986D01*
X143401401Y-149288966D01*
X143316487Y-149568889D01*
X143287815Y-149860000D01*
X143316487Y-150151111D01*
X143401401Y-150431034D01*
X143539294Y-150689014D01*
X143724866Y-150915134D01*
X143950986Y-151100706D01*
X144005791Y-151130000D01*
X143950986Y-151159294D01*
X143724866Y-151344866D01*
X143539294Y-151570986D01*
X143401401Y-151828966D01*
X143316487Y-152108889D01*
X143287815Y-152400000D01*
X143316487Y-152691111D01*
X143401401Y-152971034D01*
X143539294Y-153229014D01*
X143724866Y-153455134D01*
X143950986Y-153640706D01*
X144005791Y-153670000D01*
X143950986Y-153699294D01*
X143724866Y-153884866D01*
X143539294Y-154110986D01*
X143401401Y-154368966D01*
X143316487Y-154648889D01*
X143287815Y-154940000D01*
X143316487Y-155231111D01*
X143401401Y-155511034D01*
X143539294Y-155769014D01*
X143724866Y-155995134D01*
X143950986Y-156180706D01*
X144005791Y-156210000D01*
X143950986Y-156239294D01*
X143724866Y-156424866D01*
X143539294Y-156650986D01*
X143401401Y-156908966D01*
X143316487Y-157188889D01*
X143287815Y-157480000D01*
X143316487Y-157771111D01*
X143401401Y-158051034D01*
X143539294Y-158309014D01*
X143724866Y-158535134D01*
X143950986Y-158720706D01*
X144005791Y-158750000D01*
X143950986Y-158779294D01*
X143724866Y-158964866D01*
X143539294Y-159190986D01*
X143401401Y-159448966D01*
X143316487Y-159728889D01*
X143287815Y-160020000D01*
X143316487Y-160311111D01*
X143401401Y-160591034D01*
X143539294Y-160849014D01*
X143724866Y-161075134D01*
X143950986Y-161260706D01*
X144208966Y-161398599D01*
X144488889Y-161483513D01*
X144707050Y-161505000D01*
X144852950Y-161505000D01*
X145071111Y-161483513D01*
X145351034Y-161398599D01*
X145609014Y-161260706D01*
X145835134Y-161075134D01*
X146020706Y-160849014D01*
X146158599Y-160591034D01*
X146243513Y-160311111D01*
X146272185Y-160020000D01*
X146243513Y-159728889D01*
X146158599Y-159448966D01*
X146020706Y-159190986D01*
X145835134Y-158964866D01*
X145609014Y-158779294D01*
X145554209Y-158750000D01*
X145609014Y-158720706D01*
X145835134Y-158535134D01*
X146020706Y-158309014D01*
X146158599Y-158051034D01*
X146243513Y-157771111D01*
X146272185Y-157480000D01*
X146243513Y-157188889D01*
X146158599Y-156908966D01*
X146020706Y-156650986D01*
X145835134Y-156424866D01*
X145609014Y-156239294D01*
X145554209Y-156210000D01*
X145609014Y-156180706D01*
X145835134Y-155995134D01*
X146020706Y-155769014D01*
X146158599Y-155511034D01*
X146243513Y-155231111D01*
X146272185Y-154940000D01*
X146243513Y-154648889D01*
X146158599Y-154368966D01*
X146020706Y-154110986D01*
X145835134Y-153884866D01*
X145609014Y-153699294D01*
X145554209Y-153670000D01*
X145609014Y-153640706D01*
X145835134Y-153455134D01*
X146020706Y-153229014D01*
X146158599Y-152971034D01*
X146243513Y-152691111D01*
X146272185Y-152400000D01*
X146243513Y-152108889D01*
X146158599Y-151828966D01*
X146020706Y-151570986D01*
X145835134Y-151344866D01*
X145609014Y-151159294D01*
X145554209Y-151130000D01*
X145609014Y-151100706D01*
X145835134Y-150915134D01*
X146020706Y-150689014D01*
X146158599Y-150431034D01*
X146243513Y-150151111D01*
X146272185Y-149860000D01*
X146243513Y-149568889D01*
X146158599Y-149288966D01*
X146020706Y-149030986D01*
X145835134Y-148804866D01*
X145609014Y-148619294D01*
X145554209Y-148590000D01*
X145609014Y-148560706D01*
X145835134Y-148375134D01*
X146020706Y-148149014D01*
X146158599Y-147891034D01*
X146243513Y-147611111D01*
X146272185Y-147320000D01*
X146243513Y-147028889D01*
X146158599Y-146748966D01*
X146020706Y-146490986D01*
X145835134Y-146264866D01*
X145609014Y-146079294D01*
X145554209Y-146050000D01*
X145609014Y-146020706D01*
X145835134Y-145835134D01*
X146020706Y-145609014D01*
X146158599Y-145351034D01*
X146243513Y-145071111D01*
X146272185Y-144780000D01*
X146243513Y-144488889D01*
X146158599Y-144208966D01*
X146020706Y-143950986D01*
X145835134Y-143724866D01*
X145805313Y-143700393D01*
X145874180Y-143679502D01*
X145984494Y-143620537D01*
X146081185Y-143541185D01*
X146160537Y-143444494D01*
X146219502Y-143334180D01*
X146255812Y-143214482D01*
X146268072Y-143090000D01*
X146268072Y-141390000D01*
X146255812Y-141265518D01*
X146219502Y-141145820D01*
X146160537Y-141035506D01*
X146081185Y-140938815D01*
X145984494Y-140859463D01*
X145874180Y-140800498D01*
X145754482Y-140764188D01*
X145630000Y-140751928D01*
X143930000Y-140751928D01*
X143805518Y-140764188D01*
X143685820Y-140800498D01*
X143575506Y-140859463D01*
X143478815Y-140938815D01*
X143399463Y-141035506D01*
X143340498Y-141145820D01*
X143304188Y-141265518D01*
X143291928Y-141390000D01*
X143291928Y-143090000D01*
X143304188Y-143214482D01*
X143340498Y-143334180D01*
X143399463Y-143444494D01*
X143478815Y-143541185D01*
X143575506Y-143620537D01*
X143685820Y-143679502D01*
X143754687Y-143700393D01*
X143724866Y-143724866D01*
X143539294Y-143950986D01*
X143401401Y-144208966D01*
X143316487Y-144488889D01*
X143287815Y-144780000D01*
X86290369Y-144780000D01*
X86371445Y-144698925D01*
X86407124Y-144669644D01*
X86523966Y-144527272D01*
X86610787Y-144364840D01*
X86664251Y-144188592D01*
X86677780Y-144051232D01*
X86677780Y-144051231D01*
X86682304Y-144005301D01*
X86677780Y-143959369D01*
X86677780Y-143302929D01*
X86805710Y-143175000D01*
X87746275Y-143175000D01*
X87844866Y-143295134D01*
X88070986Y-143480706D01*
X88135523Y-143515201D01*
X88018645Y-143584822D01*
X87802412Y-143779731D01*
X87628359Y-144013080D01*
X87503175Y-144275901D01*
X87458524Y-144423110D01*
X87579845Y-144653000D01*
X88773000Y-144653000D01*
X88773000Y-144633000D01*
X89027000Y-144633000D01*
X89027000Y-144653000D01*
X90220155Y-144653000D01*
X90341476Y-144423110D01*
X90296825Y-144275901D01*
X90171641Y-144013080D01*
X89997588Y-143779731D01*
X89781355Y-143584822D01*
X89664477Y-143515201D01*
X89729014Y-143480706D01*
X89955134Y-143295134D01*
X90140706Y-143069014D01*
X90278599Y-142811034D01*
X90363513Y-142531111D01*
X90392185Y-142240000D01*
X90363513Y-141948889D01*
X90278599Y-141668966D01*
X90140706Y-141410986D01*
X89955134Y-141184866D01*
X89729014Y-140999294D01*
X89471034Y-140861401D01*
X89191111Y-140776487D01*
X88972950Y-140755000D01*
X88827050Y-140755000D01*
X88608889Y-140776487D01*
X88328966Y-140861401D01*
X88070986Y-140999294D01*
X87844866Y-141184866D01*
X87746275Y-141305000D01*
X86464351Y-141305000D01*
X86418419Y-141300476D01*
X86235127Y-141318529D01*
X86181663Y-141334747D01*
X86058880Y-141371993D01*
X85896448Y-141458814D01*
X85754076Y-141575656D01*
X85724794Y-141611336D01*
X85114116Y-142222015D01*
X85078437Y-142251296D01*
X84961595Y-142393668D01*
X84888131Y-142531111D01*
X84874774Y-142556100D01*
X84821309Y-142732349D01*
X84803256Y-142915640D01*
X84807781Y-142961581D01*
X84807780Y-143618010D01*
X84580791Y-143845000D01*
X77353725Y-143845000D01*
X77255134Y-143724866D01*
X77029014Y-143539294D01*
X76974209Y-143510000D01*
X77029014Y-143480706D01*
X77255134Y-143295134D01*
X77440706Y-143069014D01*
X77578599Y-142811034D01*
X77663513Y-142531111D01*
X77692185Y-142240000D01*
X77663513Y-141948889D01*
X77578599Y-141668966D01*
X77440706Y-141410986D01*
X77255134Y-141184866D01*
X77029014Y-140999294D01*
X76771034Y-140861401D01*
X76491111Y-140776487D01*
X76272950Y-140755000D01*
X76127050Y-140755000D01*
X75908889Y-140776487D01*
X75628966Y-140861401D01*
X75370986Y-140999294D01*
X75144866Y-141184866D01*
X74959294Y-141410986D01*
X74821401Y-141668966D01*
X74736487Y-141948889D01*
X74707815Y-142240000D01*
X59908072Y-142240000D01*
X59908072Y-141390000D01*
X59895812Y-141265518D01*
X59859502Y-141145820D01*
X59800537Y-141035506D01*
X59721185Y-140938815D01*
X59624494Y-140859463D01*
X59514180Y-140800498D01*
X59394482Y-140764188D01*
X59270000Y-140751928D01*
X57570000Y-140751928D01*
X57445518Y-140764188D01*
X57325820Y-140800498D01*
X57215506Y-140859463D01*
X57118815Y-140938815D01*
X57039463Y-141035506D01*
X56980498Y-141145820D01*
X56944188Y-141265518D01*
X56931928Y-141390000D01*
X56931928Y-143090000D01*
X56944188Y-143214482D01*
X56980498Y-143334180D01*
X57039463Y-143444494D01*
X57118815Y-143541185D01*
X57215506Y-143620537D01*
X57325820Y-143679502D01*
X57394687Y-143700393D01*
X57364866Y-143724866D01*
X57179294Y-143950986D01*
X57041401Y-144208966D01*
X56956487Y-144488889D01*
X56927815Y-144780000D01*
X51562000Y-144780000D01*
X51562000Y-131894344D01*
X53995000Y-131894344D01*
X53995000Y-132265656D01*
X54067439Y-132629834D01*
X54209534Y-132972882D01*
X54415825Y-133281618D01*
X54678382Y-133544175D01*
X54987118Y-133750466D01*
X55330166Y-133892561D01*
X55694344Y-133965000D01*
X56065656Y-133965000D01*
X56429834Y-133892561D01*
X56772882Y-133750466D01*
X57081618Y-133544175D01*
X57344175Y-133281618D01*
X57550466Y-132972882D01*
X57692561Y-132629834D01*
X57765000Y-132265656D01*
X57765000Y-131894344D01*
X148901440Y-131894344D01*
X148901440Y-132265656D01*
X148973879Y-132629834D01*
X149115974Y-132972882D01*
X149322265Y-133281618D01*
X149584822Y-133544175D01*
X149893558Y-133750466D01*
X150236606Y-133892561D01*
X150600784Y-133965000D01*
X150972096Y-133965000D01*
X151336274Y-133892561D01*
X151679322Y-133750466D01*
X151988058Y-133544175D01*
X152250615Y-133281618D01*
X152456906Y-132972882D01*
X152599001Y-132629834D01*
X152671440Y-132265656D01*
X152671440Y-131894344D01*
X152599001Y-131530166D01*
X152456906Y-131187118D01*
X152250615Y-130878382D01*
X151988058Y-130615825D01*
X151679322Y-130409534D01*
X151336274Y-130267439D01*
X150972096Y-130195000D01*
X150600784Y-130195000D01*
X150236606Y-130267439D01*
X149893558Y-130409534D01*
X149584822Y-130615825D01*
X149322265Y-130878382D01*
X149115974Y-131187118D01*
X148973879Y-131530166D01*
X148901440Y-131894344D01*
X57765000Y-131894344D01*
X57692561Y-131530166D01*
X57550466Y-131187118D01*
X57344175Y-130878382D01*
X57081618Y-130615825D01*
X56772882Y-130409534D01*
X56429834Y-130267439D01*
X56065656Y-130195000D01*
X55694344Y-130195000D01*
X55330166Y-130267439D01*
X54987118Y-130409534D01*
X54678382Y-130615825D01*
X54415825Y-130878382D01*
X54209534Y-131187118D01*
X54067439Y-131530166D01*
X53995000Y-131894344D01*
X51562000Y-131894344D01*
X51562000Y-129577265D01*
X51599446Y-129195365D01*
X51699536Y-128863847D01*
X51862110Y-128558091D01*
X52080976Y-128289735D01*
X52347798Y-128069001D01*
X52652413Y-127904296D01*
X52983217Y-127801895D01*
X53362796Y-127762000D01*
X152362735Y-127762000D01*
X152744635Y-127799446D01*
X152744635Y-127799446D01*
G37*
X152744635Y-127799446D02*
X153076153Y-127899536D01*
X153381909Y-128062110D01*
X153650265Y-128280976D01*
X153870999Y-128547798D01*
X154035704Y-128852413D01*
X154138105Y-129183217D01*
X154178001Y-129562805D01*
X154178000Y-200622735D01*
X154140554Y-201004639D01*
X154040463Y-201336154D01*
X153877891Y-201641908D01*
X153659025Y-201910264D01*
X153392202Y-202130999D01*
X153087586Y-202295704D01*
X152756783Y-202398105D01*
X152377204Y-202438000D01*
X53377265Y-202438000D01*
X52995361Y-202400554D01*
X52663846Y-202300463D01*
X52358092Y-202137891D01*
X52089736Y-201919025D01*
X51869001Y-201652202D01*
X51704296Y-201347586D01*
X51613419Y-201054008D01*
X148762897Y-201054008D01*
X149039067Y-201471978D01*
X149583997Y-201762509D01*
X150175136Y-201941147D01*
X150789768Y-202001028D01*
X151404271Y-201939850D01*
X151995032Y-201759963D01*
X152533813Y-201471978D01*
X152809983Y-201054008D01*
X150786440Y-199030465D01*
X148762897Y-201054008D01*
X51613419Y-201054008D01*
X51601895Y-201016783D01*
X51562000Y-200637204D01*
X51562000Y-198665204D01*
X53995000Y-198665204D01*
X53995000Y-199036516D01*
X54067439Y-199400694D01*
X54209534Y-199743742D01*
X54415825Y-200052478D01*
X54678382Y-200315035D01*
X54987118Y-200521326D01*
X55330166Y-200663421D01*
X55694344Y-200735860D01*
X56065656Y-200735860D01*
X56429834Y-200663421D01*
X56772882Y-200521326D01*
X57081618Y-200315035D01*
X57344175Y-200052478D01*
X57550466Y-199743742D01*
X57692561Y-199400694D01*
X57765000Y-199036516D01*
X57765000Y-198665204D01*
X57692561Y-198301026D01*
X57550466Y-197957978D01*
X57344175Y-197649242D01*
X57081618Y-197386685D01*
X56772882Y-197180394D01*
X56429834Y-197038299D01*
X56065656Y-196965860D01*
X55694344Y-196965860D01*
X55330166Y-197038299D01*
X54987118Y-197180394D01*
X54678382Y-197386685D01*
X54415825Y-197649242D01*
X54209534Y-197957978D01*
X54067439Y-198301026D01*
X53995000Y-198665204D01*
X51562000Y-198665204D01*
X51562000Y-193396890D01*
X56978524Y-193396890D01*
X57023175Y-193544099D01*
X57148359Y-193806920D01*
X57322412Y-194040269D01*
X57538645Y-194235178D01*
X57788748Y-194384157D01*
X58063109Y-194481481D01*
X58293000Y-194360814D01*
X58293000Y-193167000D01*
X58547000Y-193167000D01*
X58547000Y-194360814D01*
X58776891Y-194481481D01*
X59051252Y-194384157D01*
X59301355Y-194235178D01*
X59517588Y-194040269D01*
X59691641Y-193806920D01*
X59816825Y-193544099D01*
X59861476Y-193396890D01*
X59740155Y-193167000D01*
X58547000Y-193167000D01*
X58293000Y-193167000D01*
X57099845Y-193167000D01*
X56978524Y-193396890D01*
X51562000Y-193396890D01*
X51562000Y-144780000D01*
X56927815Y-144780000D01*
X56956487Y-145071111D01*
X57041401Y-145351034D01*
X57179294Y-145609014D01*
X57364866Y-145835134D01*
X57590986Y-146020706D01*
X57645791Y-146050000D01*
X57590986Y-146079294D01*
X57364866Y-146264866D01*
X57179294Y-146490986D01*
X57041401Y-146748966D01*
X56956487Y-147028889D01*
X56927815Y-147320000D01*
X56956487Y-147611111D01*
X57041401Y-147891034D01*
X57179294Y-148149014D01*
X57364866Y-148375134D01*
X57590986Y-148560706D01*
X57645791Y-148590000D01*
X57590986Y-148619294D01*
X57364866Y-148804866D01*
X57179294Y-149030986D01*
X57041401Y-149288966D01*
X56956487Y-149568889D01*
X56927815Y-149860000D01*
X56956487Y-150151111D01*
X57041401Y-150431034D01*
X57179294Y-150689014D01*
X57364866Y-150915134D01*
X57590986Y-151100706D01*
X57645791Y-151130000D01*
X57590986Y-151159294D01*
X57364866Y-151344866D01*
X57179294Y-151570986D01*
X57041401Y-151828966D01*
X56956487Y-152108889D01*
X56927815Y-152400000D01*
X56956487Y-152691111D01*
X57041401Y-152971034D01*
X57179294Y-153229014D01*
X57364866Y-153455134D01*
X57590986Y-153640706D01*
X57645791Y-153670000D01*
X57590986Y-153699294D01*
X57364866Y-153884866D01*
X57179294Y-154110986D01*
X57041401Y-154368966D01*
X56956487Y-154648889D01*
X56927815Y-154940000D01*
X56956487Y-155231111D01*
X57041401Y-155511034D01*
X57179294Y-155769014D01*
X57364866Y-155995134D01*
X57590986Y-156180706D01*
X57645791Y-156210000D01*
X57590986Y-156239294D01*
X57364866Y-156424866D01*
X57179294Y-156650986D01*
X57041401Y-156908966D01*
X56956487Y-157188889D01*
X56927815Y-157480000D01*
X56956487Y-157771111D01*
X57041401Y-158051034D01*
X57179294Y-158309014D01*
X57364866Y-158535134D01*
X57590986Y-158720706D01*
X57645791Y-158750000D01*
X57590986Y-158779294D01*
X57364866Y-158964866D01*
X57179294Y-159190986D01*
X57041401Y-159448966D01*
X56956487Y-159728889D01*
X56927815Y-160020000D01*
X56956487Y-160311111D01*
X57041401Y-160591034D01*
X57179294Y-160849014D01*
X57364866Y-161075134D01*
X57590986Y-161260706D01*
X57645791Y-161290000D01*
X57590986Y-161319294D01*
X57364866Y-161504866D01*
X57179294Y-161730986D01*
X57041401Y-161988966D01*
X56956487Y-162268889D01*
X56927815Y-162560000D01*
X56956487Y-162851111D01*
X57041401Y-163131034D01*
X57179294Y-163389014D01*
X57364866Y-163615134D01*
X57590986Y-163800706D01*
X57645791Y-163830000D01*
X57590986Y-163859294D01*
X57364866Y-164044866D01*
X57179294Y-164270986D01*
X57041401Y-164528966D01*
X56956487Y-164808889D01*
X56927815Y-165100000D01*
X56956487Y-165391111D01*
X57041401Y-165671034D01*
X57179294Y-165929014D01*
X57364866Y-166155134D01*
X57590986Y-166340706D01*
X57645791Y-166370000D01*
X57590986Y-166399294D01*
X57364866Y-166584866D01*
X57179294Y-166810986D01*
X57041401Y-167068966D01*
X56956487Y-167348889D01*
X56927815Y-167640000D01*
X56956487Y-167931111D01*
X57041401Y-168211034D01*
X57179294Y-168469014D01*
X57364866Y-168695134D01*
X57590986Y-168880706D01*
X57645791Y-168910000D01*
X57590986Y-168939294D01*
X57364866Y-169124866D01*
X57179294Y-169350986D01*
X57041401Y-169608966D01*
X56956487Y-169888889D01*
X56927815Y-170180000D01*
X56956487Y-170471111D01*
X57041401Y-170751034D01*
X57179294Y-171009014D01*
X57364866Y-171235134D01*
X57590986Y-171420706D01*
X57645791Y-171450000D01*
X57590986Y-171479294D01*
X57364866Y-171664866D01*
X57179294Y-171890986D01*
X57041401Y-172148966D01*
X56956487Y-172428889D01*
X56927815Y-172720000D01*
X56956487Y-173011111D01*
X57041401Y-173291034D01*
X57179294Y-173549014D01*
X57364866Y-173775134D01*
X57590986Y-173960706D01*
X57645791Y-173990000D01*
X57590986Y-174019294D01*
X57364866Y-174204866D01*
X57179294Y-174430986D01*
X57041401Y-174688966D01*
X56956487Y-174968889D01*
X56927815Y-175260000D01*
X56956487Y-175551111D01*
X57041401Y-175831034D01*
X57179294Y-176089014D01*
X57364866Y-176315134D01*
X57590986Y-176500706D01*
X57645791Y-176530000D01*
X57590986Y-176559294D01*
X57364866Y-176744866D01*
X57179294Y-176970986D01*
X57041401Y-177228966D01*
X56956487Y-177508889D01*
X56927815Y-177800000D01*
X56956487Y-178091111D01*
X57041401Y-178371034D01*
X57179294Y-178629014D01*
X57364866Y-178855134D01*
X57590986Y-179040706D01*
X57645791Y-179070000D01*
X57590986Y-179099294D01*
X57364866Y-179284866D01*
X57179294Y-179510986D01*
X57041401Y-179768966D01*
X56956487Y-180048889D01*
X56927815Y-180340000D01*
X56956487Y-180631111D01*
X57041401Y-180911034D01*
X57179294Y-181169014D01*
X57364866Y-181395134D01*
X57590986Y-181580706D01*
X57645791Y-181610000D01*
X57590986Y-181639294D01*
X57364866Y-181824866D01*
X57179294Y-182050986D01*
X57041401Y-182308966D01*
X56956487Y-182588889D01*
X56927815Y-182880000D01*
X56956487Y-183171111D01*
X57041401Y-183451034D01*
X57179294Y-183709014D01*
X57364866Y-183935134D01*
X57590986Y-184120706D01*
X57645791Y-184150000D01*
X57590986Y-184179294D01*
X57364866Y-184364866D01*
X57179294Y-184590986D01*
X57041401Y-184848966D01*
X56956487Y-185128889D01*
X56927815Y-185420000D01*
X56956487Y-185711111D01*
X57041401Y-185991034D01*
X57179294Y-186249014D01*
X57364866Y-186475134D01*
X57590986Y-186660706D01*
X57645791Y-186690000D01*
X57590986Y-186719294D01*
X57364866Y-186904866D01*
X57179294Y-187130986D01*
X57041401Y-187388966D01*
X56956487Y-187668889D01*
X56927815Y-187960000D01*
X56956487Y-188251111D01*
X57041401Y-188531034D01*
X57179294Y-188789014D01*
X57364866Y-189015134D01*
X57590986Y-189200706D01*
X57645791Y-189230000D01*
X57590986Y-189259294D01*
X57364866Y-189444866D01*
X57179294Y-189670986D01*
X57041401Y-189928966D01*
X56956487Y-190208889D01*
X56927815Y-190500000D01*
X56956487Y-190791111D01*
X57041401Y-191071034D01*
X57179294Y-191329014D01*
X57364866Y-191555134D01*
X57590986Y-191740706D01*
X57655523Y-191775201D01*
X57538645Y-191844822D01*
X57322412Y-192039731D01*
X57148359Y-192273080D01*
X57023175Y-192535901D01*
X56978524Y-192683110D01*
X57099845Y-192913000D01*
X58293000Y-192913000D01*
X58293000Y-192893000D01*
X58547000Y-192893000D01*
X58547000Y-192913000D01*
X59740155Y-192913000D01*
X59861476Y-192683110D01*
X59816825Y-192535901D01*
X59691641Y-192273080D01*
X59517588Y-192039731D01*
X59301355Y-191844822D01*
X59184477Y-191775201D01*
X59249014Y-191740706D01*
X59475134Y-191555134D01*
X59660706Y-191329014D01*
X59798599Y-191071034D01*
X59883513Y-190791111D01*
X59912185Y-190500000D01*
X59883513Y-190208889D01*
X59798599Y-189928966D01*
X59660706Y-189670986D01*
X59475134Y-189444866D01*
X59249014Y-189259294D01*
X59194209Y-189230000D01*
X59249014Y-189200706D01*
X59475134Y-189015134D01*
X59660706Y-188789014D01*
X59798599Y-188531034D01*
X59883513Y-188251111D01*
X59912185Y-187960000D01*
X59883513Y-187668889D01*
X59798599Y-187388966D01*
X59660706Y-187130986D01*
X59475134Y-186904866D01*
X59249014Y-186719294D01*
X59194209Y-186690000D01*
X59249014Y-186660706D01*
X59475134Y-186475134D01*
X59660706Y-186249014D01*
X59798599Y-185991034D01*
X59883513Y-185711111D01*
X59912185Y-185420000D01*
X59883513Y-185128889D01*
X59798599Y-184848966D01*
X59660706Y-184590986D01*
X59475134Y-184364866D01*
X59249014Y-184179294D01*
X59194209Y-184150000D01*
X59249014Y-184120706D01*
X59475134Y-183935134D01*
X59660706Y-183709014D01*
X59798599Y-183451034D01*
X59883513Y-183171111D01*
X59912185Y-182880000D01*
X59883513Y-182588889D01*
X59798599Y-182308966D01*
X59660706Y-182050986D01*
X59475134Y-181824866D01*
X59249014Y-181639294D01*
X59194209Y-181610000D01*
X59249014Y-181580706D01*
X59475134Y-181395134D01*
X59660706Y-181169014D01*
X59798599Y-180911034D01*
X59883513Y-180631111D01*
X59912185Y-180340000D01*
X59883513Y-180048889D01*
X59798599Y-179768966D01*
X59660706Y-179510986D01*
X59475134Y-179284866D01*
X59249014Y-179099294D01*
X59194209Y-179070000D01*
X59249014Y-179040706D01*
X59475134Y-178855134D01*
X59660706Y-178629014D01*
X59798599Y-178371034D01*
X59883513Y-178091111D01*
X59912185Y-177800000D01*
X59883513Y-177508889D01*
X59798599Y-177228966D01*
X59660706Y-176970986D01*
X59475134Y-176744866D01*
X59249014Y-176559294D01*
X59194209Y-176530000D01*
X59249014Y-176500706D01*
X59475134Y-176315134D01*
X59660706Y-176089014D01*
X59798599Y-175831034D01*
X59883513Y-175551111D01*
X59912185Y-175260000D01*
X59883513Y-174968889D01*
X59798599Y-174688966D01*
X59660706Y-174430986D01*
X59475134Y-174204866D01*
X59249014Y-174019294D01*
X59194209Y-173990000D01*
X59249014Y-173960706D01*
X59475134Y-173775134D01*
X59660706Y-173549014D01*
X59798599Y-173291034D01*
X59883513Y-173011111D01*
X59912185Y-172720000D01*
X59883513Y-172428889D01*
X59798599Y-172148966D01*
X59660706Y-171890986D01*
X59475134Y-171664866D01*
X59249014Y-171479294D01*
X59194209Y-171450000D01*
X59249014Y-171420706D01*
X59475134Y-171235134D01*
X59660706Y-171009014D01*
X59798599Y-170751034D01*
X59883513Y-170471111D01*
X59912185Y-170180000D01*
X59883513Y-169888889D01*
X59798599Y-169608966D01*
X59660706Y-169350986D01*
X59475134Y-169124866D01*
X59249014Y-168939294D01*
X59194209Y-168910000D01*
X59249014Y-168880706D01*
X59475134Y-168695134D01*
X59660706Y-168469014D01*
X59798599Y-168211034D01*
X59883513Y-167931111D01*
X59912185Y-167640000D01*
X59883513Y-167348889D01*
X59798599Y-167068966D01*
X59660706Y-166810986D01*
X59475134Y-166584866D01*
X59249014Y-166399294D01*
X59194209Y-166370000D01*
X59249014Y-166340706D01*
X59475134Y-166155134D01*
X59660706Y-165929014D01*
X59798599Y-165671034D01*
X59883513Y-165391111D01*
X59912185Y-165100000D01*
X59883513Y-164808889D01*
X59798599Y-164528966D01*
X59660706Y-164270986D01*
X59475134Y-164044866D01*
X59249014Y-163859294D01*
X59194209Y-163830000D01*
X59249014Y-163800706D01*
X59475134Y-163615134D01*
X59660706Y-163389014D01*
X59798599Y-163131034D01*
X59883513Y-162851111D01*
X59912185Y-162560000D01*
X59883513Y-162268889D01*
X59798599Y-161988966D01*
X59660706Y-161730986D01*
X59475134Y-161504866D01*
X59249014Y-161319294D01*
X59194209Y-161290000D01*
X59249014Y-161260706D01*
X59475134Y-161075134D01*
X59655793Y-160855000D01*
X64452073Y-160855000D01*
X64509040Y-160911967D01*
X64509041Y-198284711D01*
X64505000Y-198325740D01*
X64521122Y-198489428D01*
X64568868Y-198646826D01*
X64622724Y-198747583D01*
X64646405Y-198791886D01*
X64750750Y-198919031D01*
X64782614Y-198945181D01*
X65433358Y-199595926D01*
X65459509Y-199627791D01*
X65526382Y-199682672D01*
X65586654Y-199732136D01*
X65731713Y-199809672D01*
X65889111Y-199857418D01*
X66052799Y-199873540D01*
X66093818Y-199869500D01*
X106592539Y-199869500D01*
X106709725Y-199965671D01*
X106857858Y-200044850D01*
X107018592Y-200093608D01*
X107185750Y-200110072D01*
X107698250Y-200110072D01*
X107865408Y-200093608D01*
X108026142Y-200044850D01*
X108174275Y-199965671D01*
X108213550Y-199933439D01*
X108282273Y-199970172D01*
X108439671Y-200017918D01*
X108562341Y-200030000D01*
X108562351Y-200030000D01*
X108603359Y-200034039D01*
X108644367Y-200030000D01*
X108780482Y-200030000D01*
X108805506Y-200050537D01*
X108915820Y-200109502D01*
X109035518Y-200145812D01*
X109160000Y-200158072D01*
X110210000Y-200158072D01*
X110334482Y-200145812D01*
X110454180Y-200109502D01*
X110564494Y-200050537D01*
X110589518Y-200030000D01*
X112930482Y-200030000D01*
X112955506Y-200050537D01*
X113065820Y-200109502D01*
X113185518Y-200145812D01*
X113310000Y-200158072D01*
X114360000Y-200158072D01*
X114484482Y-200145812D01*
X114604180Y-200109502D01*
X114714494Y-200050537D01*
X114737318Y-200031806D01*
X114760000Y-200034040D01*
X114801018Y-200030000D01*
X114801019Y-200030000D01*
X114923689Y-200017918D01*
X115081087Y-199970172D01*
X115226146Y-199892636D01*
X115318814Y-199816586D01*
X115345725Y-199838671D01*
X115493858Y-199917850D01*
X115654592Y-199966608D01*
X115821750Y-199983072D01*
X116334250Y-199983072D01*
X116501408Y-199966608D01*
X116662142Y-199917850D01*
X116810275Y-199838671D01*
X116940115Y-199732115D01*
X117046671Y-199602275D01*
X117125850Y-199454142D01*
X117174608Y-199293408D01*
X117191072Y-199126250D01*
X117191072Y-198854188D01*
X147636272Y-198854188D01*
X147697450Y-199468691D01*
X147877337Y-200059452D01*
X148165322Y-200598233D01*
X148583292Y-200874403D01*
X150606835Y-198850860D01*
X150966045Y-198850860D01*
X152989588Y-200874403D01*
X153407558Y-200598233D01*
X153698089Y-200053303D01*
X153876727Y-199462164D01*
X153936608Y-198847532D01*
X153875430Y-198233029D01*
X153695543Y-197642268D01*
X153407558Y-197103487D01*
X152989588Y-196827317D01*
X150966045Y-198850860D01*
X150606835Y-198850860D01*
X148583292Y-196827317D01*
X148165322Y-197103487D01*
X147874791Y-197648417D01*
X147696153Y-198239556D01*
X147636272Y-198854188D01*
X117191072Y-198854188D01*
X117191072Y-198688750D01*
X117174608Y-198521592D01*
X117125850Y-198360858D01*
X117046671Y-198212725D01*
X117028900Y-198191070D01*
X117083537Y-198124494D01*
X117142502Y-198014180D01*
X117178812Y-197894482D01*
X117191072Y-197770000D01*
X117188000Y-197618250D01*
X117029250Y-197459500D01*
X116205000Y-197459500D01*
X116205000Y-197479500D01*
X115951000Y-197479500D01*
X115951000Y-197459500D01*
X115931000Y-197459500D01*
X115931000Y-197205500D01*
X115951000Y-197205500D01*
X115951000Y-196418750D01*
X116205000Y-196418750D01*
X116205000Y-197205500D01*
X117029250Y-197205500D01*
X117188000Y-197046750D01*
X117191072Y-196895000D01*
X117178812Y-196770518D01*
X117142502Y-196650820D01*
X117140841Y-196647712D01*
X148762897Y-196647712D01*
X150786440Y-198671255D01*
X152809983Y-196647712D01*
X152533813Y-196229742D01*
X151988883Y-195939211D01*
X151397744Y-195760573D01*
X150783112Y-195700692D01*
X150168609Y-195761870D01*
X149577848Y-195941757D01*
X149039067Y-196229742D01*
X148762897Y-196647712D01*
X117140841Y-196647712D01*
X117083537Y-196540506D01*
X117004185Y-196443815D01*
X116907494Y-196364463D01*
X116797180Y-196305498D01*
X116677482Y-196269188D01*
X116553000Y-196256928D01*
X116363750Y-196260000D01*
X116205000Y-196418750D01*
X115951000Y-196418750D01*
X115792250Y-196260000D01*
X115603000Y-196256928D01*
X115478518Y-196269188D01*
X115358820Y-196305498D01*
X115248506Y-196364463D01*
X115151815Y-196443815D01*
X115072463Y-196540506D01*
X115013498Y-196650820D01*
X114996709Y-196706165D01*
X114985812Y-196595518D01*
X114949502Y-196475820D01*
X114890537Y-196365506D01*
X114811185Y-196268815D01*
X114714494Y-196189463D01*
X114604180Y-196130498D01*
X114484482Y-196094188D01*
X114360000Y-196081928D01*
X114120750Y-196085000D01*
X113962000Y-196243750D01*
X113962000Y-196918000D01*
X113982000Y-196918000D01*
X113982000Y-197172000D01*
X113962000Y-197172000D01*
X113962000Y-197846250D01*
X114120750Y-198005000D01*
X114360000Y-198008072D01*
X114484482Y-197995812D01*
X114604180Y-197959502D01*
X114714494Y-197900537D01*
X114811185Y-197821185D01*
X114890537Y-197724494D01*
X114949502Y-197614180D01*
X114985812Y-197494482D01*
X114989257Y-197459502D01*
X115126748Y-197459502D01*
X114968000Y-197618250D01*
X114964928Y-197770000D01*
X114977188Y-197894482D01*
X115013498Y-198014180D01*
X115042762Y-198068928D01*
X115006491Y-198072500D01*
X115006481Y-198072500D01*
X114883811Y-198084582D01*
X114726413Y-198132328D01*
X114581354Y-198209864D01*
X114524674Y-198256380D01*
X114484482Y-198244188D01*
X114360000Y-198231928D01*
X113310000Y-198231928D01*
X113185518Y-198244188D01*
X113065820Y-198280498D01*
X112955506Y-198339463D01*
X112930482Y-198360000D01*
X110589518Y-198360000D01*
X110564494Y-198339463D01*
X110454180Y-198280498D01*
X110334482Y-198244188D01*
X110210000Y-198231928D01*
X109160000Y-198231928D01*
X109035518Y-198244188D01*
X108915820Y-198280498D01*
X108859687Y-198310502D01*
X108763947Y-198259328D01*
X108606549Y-198211582D01*
X108483879Y-198199500D01*
X108483878Y-198199500D01*
X108442860Y-198195460D01*
X108401842Y-198199500D01*
X108373556Y-198199500D01*
X108410671Y-198154275D01*
X108489850Y-198006142D01*
X108538608Y-197845408D01*
X108555072Y-197678250D01*
X108555072Y-197563327D01*
X108570498Y-197614180D01*
X108629463Y-197724494D01*
X108708815Y-197821185D01*
X108805506Y-197900537D01*
X108915820Y-197959502D01*
X109035518Y-197995812D01*
X109160000Y-198008072D01*
X109399250Y-198005000D01*
X109558000Y-197846250D01*
X109558000Y-197172000D01*
X109812000Y-197172000D01*
X109812000Y-197846250D01*
X109970750Y-198005000D01*
X110210000Y-198008072D01*
X110334482Y-197995812D01*
X110454180Y-197959502D01*
X110564494Y-197900537D01*
X110661185Y-197821185D01*
X110740537Y-197724494D01*
X110799502Y-197614180D01*
X110835812Y-197494482D01*
X110848072Y-197370000D01*
X112671928Y-197370000D01*
X112684188Y-197494482D01*
X112720498Y-197614180D01*
X112779463Y-197724494D01*
X112858815Y-197821185D01*
X112955506Y-197900537D01*
X113065820Y-197959502D01*
X113185518Y-197995812D01*
X113310000Y-198008072D01*
X113549250Y-198005000D01*
X113708000Y-197846250D01*
X113708000Y-197172000D01*
X112833750Y-197172000D01*
X112675000Y-197330750D01*
X112671928Y-197370000D01*
X110848072Y-197370000D01*
X110845000Y-197330750D01*
X110686250Y-197172000D01*
X109812000Y-197172000D01*
X109558000Y-197172000D01*
X109538000Y-197172000D01*
X109538000Y-196918000D01*
X109558000Y-196918000D01*
X109558000Y-196243750D01*
X109812000Y-196243750D01*
X109812000Y-196918000D01*
X110686250Y-196918000D01*
X110845000Y-196759250D01*
X110848072Y-196720000D01*
X112671928Y-196720000D01*
X112675000Y-196759250D01*
X112833750Y-196918000D01*
X113708000Y-196918000D01*
X113708000Y-196243750D01*
X113549250Y-196085000D01*
X113310000Y-196081928D01*
X113185518Y-196094188D01*
X113065820Y-196130498D01*
X112955506Y-196189463D01*
X112858815Y-196268815D01*
X112779463Y-196365506D01*
X112720498Y-196475820D01*
X112684188Y-196595518D01*
X112671928Y-196720000D01*
X110848072Y-196720000D01*
X110835812Y-196595518D01*
X110799502Y-196475820D01*
X110740537Y-196365506D01*
X110661185Y-196268815D01*
X110564494Y-196189463D01*
X110454180Y-196130498D01*
X110334482Y-196094188D01*
X110210000Y-196081928D01*
X109970750Y-196085000D01*
X109812000Y-196243750D01*
X109558000Y-196243750D01*
X109399250Y-196085000D01*
X109160000Y-196081928D01*
X109035518Y-196094188D01*
X108915820Y-196130498D01*
X108805506Y-196189463D01*
X108708815Y-196268815D01*
X108629463Y-196365506D01*
X108570498Y-196475820D01*
X108534188Y-196595518D01*
X108521928Y-196720000D01*
X108525000Y-196759250D01*
X108683748Y-196917998D01*
X108525000Y-196917998D01*
X108525000Y-197028732D01*
X108489850Y-196912858D01*
X108410671Y-196764725D01*
X108304115Y-196634885D01*
X108174275Y-196528329D01*
X108026142Y-196449150D01*
X107865408Y-196400392D01*
X107698250Y-196383928D01*
X107185750Y-196383928D01*
X107018592Y-196400392D01*
X106857858Y-196449150D01*
X106716889Y-196524500D01*
X102872851Y-196524500D01*
X102826919Y-196519976D01*
X102821840Y-196520476D01*
X102816760Y-196519976D01*
X102633469Y-196538029D01*
X102457221Y-196591493D01*
X102294789Y-196678314D01*
X102152416Y-196795156D01*
X102076631Y-196887500D01*
X101636435Y-197327696D01*
X101636432Y-197327698D01*
X101506198Y-197457932D01*
X101480549Y-197496318D01*
X101451275Y-197531989D01*
X101429522Y-197572686D01*
X101403874Y-197611071D01*
X101386208Y-197653722D01*
X101364454Y-197694420D01*
X101351057Y-197738583D01*
X101333392Y-197781231D01*
X101324387Y-197826503D01*
X101310989Y-197870669D01*
X101306465Y-197916600D01*
X101297460Y-197961871D01*
X101297460Y-198008028D01*
X101292936Y-198053960D01*
X101297460Y-198099892D01*
X101297460Y-198146049D01*
X101306465Y-198191320D01*
X101307271Y-198199500D01*
X66398668Y-198199500D01*
X66179040Y-197979873D01*
X66179040Y-196663931D01*
X66992220Y-196663931D01*
X66992220Y-196848109D01*
X67028152Y-197028749D01*
X67098634Y-197198909D01*
X67200958Y-197352048D01*
X67331192Y-197482282D01*
X67484331Y-197584606D01*
X67654491Y-197655088D01*
X67835131Y-197691020D01*
X68019309Y-197691020D01*
X68199949Y-197655088D01*
X68354624Y-197591020D01*
X97731202Y-197591020D01*
X97772220Y-197595060D01*
X97813238Y-197591020D01*
X97813239Y-197591020D01*
X97935909Y-197578938D01*
X98093307Y-197531192D01*
X98238366Y-197453656D01*
X98365511Y-197349311D01*
X98391666Y-197317441D01*
X98691781Y-197017326D01*
X98723651Y-196991171D01*
X98827996Y-196864026D01*
X98905532Y-196718967D01*
X98953278Y-196561569D01*
X98965360Y-196438899D01*
X98965360Y-196438889D01*
X98969399Y-196397881D01*
X98965360Y-196356873D01*
X98965360Y-189916227D01*
X100086589Y-188795000D01*
X117441928Y-188795000D01*
X117441928Y-189260000D01*
X117454188Y-189384482D01*
X117490498Y-189504180D01*
X117549463Y-189614494D01*
X117628815Y-189711185D01*
X117725506Y-189790537D01*
X117835820Y-189849502D01*
X117955518Y-189885812D01*
X118080000Y-189898072D01*
X120680000Y-189898072D01*
X120804482Y-189885812D01*
X120924180Y-189849502D01*
X121034494Y-189790537D01*
X121131185Y-189711185D01*
X121210537Y-189614494D01*
X121269502Y-189504180D01*
X121305812Y-189384482D01*
X121318072Y-189260000D01*
X121318072Y-186660000D01*
X121305812Y-186535518D01*
X121269502Y-186415820D01*
X121210537Y-186305506D01*
X121131185Y-186208815D01*
X121034494Y-186129463D01*
X120924180Y-186070498D01*
X120804482Y-186034188D01*
X120680000Y-186021928D01*
X118080000Y-186021928D01*
X117955518Y-186034188D01*
X117835820Y-186070498D01*
X117725506Y-186129463D01*
X117628815Y-186208815D01*
X117549463Y-186305506D01*
X117490498Y-186415820D01*
X117454188Y-186535518D01*
X117441928Y-186660000D01*
X117441928Y-187125000D01*
X99781738Y-187125000D01*
X99740720Y-187120960D01*
X99699701Y-187125000D01*
X99577031Y-187137082D01*
X99419633Y-187184828D01*
X99274574Y-187262364D01*
X99147429Y-187366709D01*
X99121283Y-187398568D01*
X97568939Y-188950914D01*
X97537069Y-188977069D01*
X97432725Y-189104214D01*
X97432724Y-189104215D01*
X97355188Y-189249274D01*
X97307442Y-189406672D01*
X97291320Y-189570360D01*
X97295360Y-189611379D01*
X97295361Y-195921020D01*
X68354624Y-195921020D01*
X68199949Y-195856952D01*
X68019309Y-195821020D01*
X67835131Y-195821020D01*
X67654491Y-195856952D01*
X67484331Y-195927434D01*
X67331192Y-196029758D01*
X67200958Y-196159992D01*
X67098634Y-196313131D01*
X67028152Y-196483291D01*
X66992220Y-196663931D01*
X66179040Y-196663931D01*
X66179040Y-193890000D01*
X74711928Y-193890000D01*
X74724188Y-194014482D01*
X74760498Y-194134180D01*
X74819463Y-194244494D01*
X74898815Y-194341185D01*
X74995506Y-194420537D01*
X75105820Y-194479502D01*
X75225518Y-194515812D01*
X75350000Y-194528072D01*
X75914250Y-194525000D01*
X76073000Y-194366250D01*
X76073000Y-193167000D01*
X76327000Y-193167000D01*
X76327000Y-194366250D01*
X76485750Y-194525000D01*
X77050000Y-194528072D01*
X77174482Y-194515812D01*
X77294180Y-194479502D01*
X77404494Y-194420537D01*
X77501185Y-194341185D01*
X77580537Y-194244494D01*
X77639502Y-194134180D01*
X77675812Y-194014482D01*
X77688072Y-193890000D01*
X77685000Y-193325750D01*
X77526250Y-193167000D01*
X76327000Y-193167000D01*
X76073000Y-193167000D01*
X74873750Y-193167000D01*
X74715000Y-193325750D01*
X74711928Y-193890000D01*
X66179040Y-193890000D01*
X66179040Y-160607118D01*
X66183080Y-160566099D01*
X66166958Y-160402411D01*
X66119212Y-160245013D01*
X66041676Y-160099954D01*
X65937331Y-159972809D01*
X65905462Y-159946655D01*
X65417386Y-159458579D01*
X65391231Y-159426709D01*
X65264086Y-159322364D01*
X65119027Y-159244828D01*
X64961629Y-159197082D01*
X64838959Y-159185000D01*
X64838958Y-159185000D01*
X64797940Y-159180960D01*
X64756922Y-159185000D01*
X59655793Y-159185000D01*
X59475134Y-158964866D01*
X59249014Y-158779294D01*
X59194209Y-158750000D01*
X59249014Y-158720706D01*
X59475134Y-158535134D01*
X59660706Y-158309014D01*
X59798599Y-158051034D01*
X59883513Y-157771111D01*
X59912185Y-157480000D01*
X59883513Y-157188889D01*
X59798599Y-156908966D01*
X59660706Y-156650986D01*
X59475134Y-156424866D01*
X59249014Y-156239294D01*
X59194209Y-156210000D01*
X59249014Y-156180706D01*
X59475134Y-155995134D01*
X59660706Y-155769014D01*
X59798599Y-155511034D01*
X59883513Y-155231111D01*
X59912185Y-154940000D01*
X59883513Y-154648889D01*
X59798599Y-154368966D01*
X59660706Y-154110986D01*
X59475134Y-153884866D01*
X59249014Y-153699294D01*
X59194209Y-153670000D01*
X59249014Y-153640706D01*
X59475134Y-153455134D01*
X59660706Y-153229014D01*
X59798599Y-152971034D01*
X59883513Y-152691111D01*
X59912185Y-152400000D01*
X59883513Y-152108889D01*
X59798599Y-151828966D01*
X59660706Y-151570986D01*
X59475134Y-151344866D01*
X59249014Y-151159294D01*
X59194209Y-151130000D01*
X59249014Y-151100706D01*
X59475134Y-150915134D01*
X59660706Y-150689014D01*
X59798599Y-150431034D01*
X59883513Y-150151111D01*
X59912185Y-149860000D01*
X74707815Y-149860000D01*
X74736487Y-150151111D01*
X74821401Y-150431034D01*
X74959294Y-150689014D01*
X75144866Y-150915134D01*
X75370986Y-151100706D01*
X75425791Y-151130000D01*
X75370986Y-151159294D01*
X75144866Y-151344866D01*
X74959294Y-151570986D01*
X74821401Y-151828966D01*
X74736487Y-152108889D01*
X74707815Y-152400000D01*
X74736487Y-152691111D01*
X74821401Y-152971034D01*
X74959294Y-153229014D01*
X75144866Y-153455134D01*
X75370986Y-153640706D01*
X75425791Y-153670000D01*
X75370986Y-153699294D01*
X75144866Y-153884866D01*
X74959294Y-154110986D01*
X74821401Y-154368966D01*
X74736487Y-154648889D01*
X74707815Y-154940000D01*
X74736487Y-155231111D01*
X74821401Y-155511034D01*
X74959294Y-155769014D01*
X75144866Y-155995134D01*
X75370986Y-156180706D01*
X75425791Y-156210000D01*
X75370986Y-156239294D01*
X75144866Y-156424866D01*
X74959294Y-156650986D01*
X74821401Y-156908966D01*
X74736487Y-157188889D01*
X74707815Y-157480000D01*
X74736487Y-157771111D01*
X74821401Y-158051034D01*
X74959294Y-158309014D01*
X75144866Y-158535134D01*
X75370986Y-158720706D01*
X75425791Y-158750000D01*
X75370986Y-158779294D01*
X75144866Y-158964866D01*
X74959294Y-159190986D01*
X74821401Y-159448966D01*
X74736487Y-159728889D01*
X74707815Y-160020000D01*
X74736487Y-160311111D01*
X74821401Y-160591034D01*
X74959294Y-160849014D01*
X75144866Y-161075134D01*
X75370986Y-161260706D01*
X75425791Y-161290000D01*
X75370986Y-161319294D01*
X75144866Y-161504866D01*
X74959294Y-161730986D01*
X74821401Y-161988966D01*
X74736487Y-162268889D01*
X74707815Y-162560000D01*
X74736487Y-162851111D01*
X74821401Y-163131034D01*
X74959294Y-163389014D01*
X75144866Y-163615134D01*
X75370986Y-163800706D01*
X75425791Y-163830000D01*
X75370986Y-163859294D01*
X75144866Y-164044866D01*
X74959294Y-164270986D01*
X74821401Y-164528966D01*
X74736487Y-164808889D01*
X74707815Y-165100000D01*
X74736487Y-165391111D01*
X74821401Y-165671034D01*
X74959294Y-165929014D01*
X75144866Y-166155134D01*
X75370986Y-166340706D01*
X75425791Y-166370000D01*
X75370986Y-166399294D01*
X75144866Y-166584866D01*
X74959294Y-166810986D01*
X74821401Y-167068966D01*
X74736487Y-167348889D01*
X74707815Y-167640000D01*
X74736487Y-167931111D01*
X74821401Y-168211034D01*
X74959294Y-168469014D01*
X75144866Y-168695134D01*
X75370986Y-168880706D01*
X75425791Y-168910000D01*
X75370986Y-168939294D01*
X75144866Y-169124866D01*
X74959294Y-169350986D01*
X74821401Y-169608966D01*
X74736487Y-169888889D01*
X74707815Y-170180000D01*
X74736487Y-170471111D01*
X74821401Y-170751034D01*
X74959294Y-171009014D01*
X75144866Y-171235134D01*
X75370986Y-171420706D01*
X75425791Y-171450000D01*
X75370986Y-171479294D01*
X75144866Y-171664866D01*
X74959294Y-171890986D01*
X74821401Y-172148966D01*
X74736487Y-172428889D01*
X74707815Y-172720000D01*
X74736487Y-173011111D01*
X74821401Y-173291034D01*
X74959294Y-173549014D01*
X75144866Y-173775134D01*
X75370986Y-173960706D01*
X75425791Y-173990000D01*
X75370986Y-174019294D01*
X75144866Y-174204866D01*
X74959294Y-174430986D01*
X74821401Y-174688966D01*
X74736487Y-174968889D01*
X74707815Y-175260000D01*
X74736487Y-175551111D01*
X74821401Y-175831034D01*
X74959294Y-176089014D01*
X75144866Y-176315134D01*
X75370986Y-176500706D01*
X75425791Y-176530000D01*
X75370986Y-176559294D01*
X75144866Y-176744866D01*
X74959294Y-176970986D01*
X74821401Y-177228966D01*
X74736487Y-177508889D01*
X74707815Y-177800000D01*
X74736487Y-178091111D01*
X74821401Y-178371034D01*
X74959294Y-178629014D01*
X75144866Y-178855134D01*
X75370986Y-179040706D01*
X75425791Y-179070000D01*
X75370986Y-179099294D01*
X75144866Y-179284866D01*
X74959294Y-179510986D01*
X74821401Y-179768966D01*
X74736487Y-180048889D01*
X74707815Y-180340000D01*
X74736487Y-180631111D01*
X74821401Y-180911034D01*
X74959294Y-181169014D01*
X75144866Y-181395134D01*
X75370986Y-181580706D01*
X75425791Y-181610000D01*
X75370986Y-181639294D01*
X75144866Y-181824866D01*
X74959294Y-182050986D01*
X74821401Y-182308966D01*
X74736487Y-182588889D01*
X74707815Y-182880000D01*
X74736487Y-183171111D01*
X74821401Y-183451034D01*
X74959294Y-183709014D01*
X75144866Y-183935134D01*
X75370986Y-184120706D01*
X75425791Y-184150000D01*
X75370986Y-184179294D01*
X75144866Y-184364866D01*
X74959294Y-184590986D01*
X74821401Y-184848966D01*
X74736487Y-185128889D01*
X74707815Y-185420000D01*
X74736487Y-185711111D01*
X74821401Y-185991034D01*
X74959294Y-186249014D01*
X75144866Y-186475134D01*
X75370986Y-186660706D01*
X75425791Y-186690000D01*
X75370986Y-186719294D01*
X75144866Y-186904866D01*
X74959294Y-187130986D01*
X74821401Y-187388966D01*
X74736487Y-187668889D01*
X74707815Y-187960000D01*
X74736487Y-188251111D01*
X74821401Y-188531034D01*
X74959294Y-188789014D01*
X75144866Y-189015134D01*
X75370986Y-189200706D01*
X75425791Y-189230000D01*
X75370986Y-189259294D01*
X75144866Y-189444866D01*
X74959294Y-189670986D01*
X74821401Y-189928966D01*
X74736487Y-190208889D01*
X74707815Y-190500000D01*
X74736487Y-190791111D01*
X74821401Y-191071034D01*
X74959294Y-191329014D01*
X75144866Y-191555134D01*
X75174687Y-191579607D01*
X75105820Y-191600498D01*
X74995506Y-191659463D01*
X74898815Y-191738815D01*
X74819463Y-191835506D01*
X74760498Y-191945820D01*
X74724188Y-192065518D01*
X74711928Y-192190000D01*
X74715000Y-192754250D01*
X74873750Y-192913000D01*
X76073000Y-192913000D01*
X76073000Y-192893000D01*
X76327000Y-192893000D01*
X76327000Y-192913000D01*
X77526250Y-192913000D01*
X77685000Y-192754250D01*
X77688072Y-192190000D01*
X77675812Y-192065518D01*
X77639502Y-191945820D01*
X77580537Y-191835506D01*
X77501185Y-191738815D01*
X77404494Y-191659463D01*
X77294180Y-191600498D01*
X77225313Y-191579607D01*
X77255134Y-191555134D01*
X77440706Y-191329014D01*
X77578599Y-191071034D01*
X77663513Y-190791111D01*
X77692185Y-190500000D01*
X77663513Y-190208889D01*
X77578599Y-189928966D01*
X77440706Y-189670986D01*
X77255134Y-189444866D01*
X77029014Y-189259294D01*
X76974209Y-189230000D01*
X77029014Y-189200706D01*
X77255134Y-189015134D01*
X77440706Y-188789014D01*
X77578599Y-188531034D01*
X77663513Y-188251111D01*
X77692185Y-187960000D01*
X77663513Y-187668889D01*
X77578599Y-187388966D01*
X77440706Y-187130986D01*
X77255134Y-186904866D01*
X77029014Y-186719294D01*
X76974209Y-186690000D01*
X77029014Y-186660706D01*
X77255134Y-186475134D01*
X77440706Y-186249014D01*
X77578599Y-185991034D01*
X77663513Y-185711111D01*
X77692185Y-185420000D01*
X77663513Y-185128889D01*
X77578599Y-184848966D01*
X77440706Y-184590986D01*
X77255134Y-184364866D01*
X77187335Y-184309224D01*
X118210381Y-184309224D01*
X118342317Y-184604312D01*
X118683045Y-184775159D01*
X119050557Y-184876250D01*
X119430729Y-184903701D01*
X119808951Y-184856457D01*
X120170690Y-184736333D01*
X120417683Y-184604312D01*
X120549619Y-184309224D01*
X119380000Y-183139605D01*
X118210381Y-184309224D01*
X77187335Y-184309224D01*
X77029014Y-184179294D01*
X76974209Y-184150000D01*
X77029014Y-184120706D01*
X77255134Y-183935134D01*
X77440706Y-183709014D01*
X77578599Y-183451034D01*
X77663513Y-183171111D01*
X77679309Y-183010729D01*
X117436299Y-183010729D01*
X117483543Y-183388951D01*
X117603667Y-183750690D01*
X117735688Y-183997683D01*
X118030776Y-184129619D01*
X119200395Y-182960000D01*
X119559605Y-182960000D01*
X120729224Y-184129619D01*
X121024312Y-183997683D01*
X121195159Y-183656955D01*
X121296250Y-183289443D01*
X121323701Y-182909271D01*
X121276457Y-182531049D01*
X121156333Y-182169310D01*
X121024312Y-181922317D01*
X120729224Y-181790381D01*
X119559605Y-182960000D01*
X119200395Y-182960000D01*
X118030776Y-181790381D01*
X117735688Y-181922317D01*
X117564841Y-182263045D01*
X117463750Y-182630557D01*
X117436299Y-183010729D01*
X77679309Y-183010729D01*
X77692185Y-182880000D01*
X77663513Y-182588889D01*
X77578599Y-182308966D01*
X77440706Y-182050986D01*
X77255134Y-181824866D01*
X77029014Y-181639294D01*
X76974209Y-181610000D01*
X77029014Y-181580706D01*
X77255134Y-181395134D01*
X77440706Y-181169014D01*
X77578599Y-180911034D01*
X77663513Y-180631111D01*
X77692185Y-180340000D01*
X77663513Y-180048889D01*
X77578599Y-179768966D01*
X77440706Y-179510986D01*
X77255134Y-179284866D01*
X77029014Y-179099294D01*
X76974209Y-179070000D01*
X77029014Y-179040706D01*
X77255134Y-178855134D01*
X77435793Y-178635000D01*
X87664207Y-178635000D01*
X87844866Y-178855134D01*
X88070986Y-179040706D01*
X88125791Y-179070000D01*
X88070986Y-179099294D01*
X87844866Y-179284866D01*
X87659294Y-179510986D01*
X87521401Y-179768966D01*
X87436487Y-180048889D01*
X87407815Y-180340000D01*
X87436487Y-180631111D01*
X87521401Y-180911034D01*
X87659294Y-181169014D01*
X87844866Y-181395134D01*
X88070986Y-181580706D01*
X88328966Y-181718599D01*
X88608889Y-181803513D01*
X88827050Y-181825000D01*
X88972950Y-181825000D01*
X89191111Y-181803513D01*
X89471034Y-181718599D01*
X89672756Y-181610776D01*
X118210381Y-181610776D01*
X119380000Y-182780395D01*
X120549619Y-181610776D01*
X120417683Y-181315688D01*
X120076955Y-181144841D01*
X119709443Y-181043750D01*
X119329271Y-181016299D01*
X118951049Y-181063543D01*
X118589310Y-181183667D01*
X118342317Y-181315688D01*
X118210381Y-181610776D01*
X89672756Y-181610776D01*
X89729014Y-181580706D01*
X89955134Y-181395134D01*
X90140706Y-181169014D01*
X90278599Y-180911034D01*
X90363513Y-180631111D01*
X90392185Y-180340000D01*
X90363513Y-180048889D01*
X90278599Y-179768966D01*
X90140706Y-179510986D01*
X89955134Y-179284866D01*
X89729014Y-179099294D01*
X89674209Y-179070000D01*
X89729014Y-179040706D01*
X89955134Y-178855134D01*
X90140706Y-178629014D01*
X90278599Y-178371034D01*
X90363513Y-178091111D01*
X90392185Y-177800000D01*
X90363513Y-177508889D01*
X90278599Y-177228966D01*
X90140706Y-176970986D01*
X89955134Y-176744866D01*
X89729014Y-176559294D01*
X89674209Y-176530000D01*
X89729014Y-176500706D01*
X89955134Y-176315134D01*
X90140706Y-176089014D01*
X90278599Y-175831034D01*
X90363513Y-175551111D01*
X90392185Y-175260000D01*
X90363513Y-174968889D01*
X90278599Y-174688966D01*
X90140706Y-174430986D01*
X89955134Y-174204866D01*
X89729014Y-174019294D01*
X89674209Y-173990000D01*
X89729014Y-173960706D01*
X89857817Y-173855000D01*
X92654249Y-173855000D01*
X92710000Y-173860491D01*
X92765751Y-173855000D01*
X92765752Y-173855000D01*
X92932499Y-173838577D01*
X93146447Y-173773676D01*
X93343623Y-173668284D01*
X93516449Y-173526449D01*
X93551996Y-173483135D01*
X94743140Y-172291992D01*
X94786449Y-172256449D01*
X94928284Y-172083623D01*
X95033676Y-171886447D01*
X95098577Y-171672499D01*
X95115000Y-171505752D01*
X95115000Y-171505745D01*
X95120490Y-171450001D01*
X95115000Y-171394257D01*
X95115000Y-161345743D01*
X95120490Y-161289999D01*
X95115000Y-161234255D01*
X95115000Y-161234248D01*
X95098577Y-161067501D01*
X95033676Y-160853553D01*
X94928284Y-160656377D01*
X94786449Y-160483551D01*
X94743140Y-160448008D01*
X93551996Y-159256865D01*
X93516449Y-159213551D01*
X93343623Y-159071716D01*
X93146447Y-158966324D01*
X92932499Y-158901423D01*
X92765752Y-158885000D01*
X92765751Y-158885000D01*
X92710000Y-158879509D01*
X92654249Y-158885000D01*
X90317683Y-158885000D01*
X90280537Y-158815506D01*
X90201185Y-158718815D01*
X90104494Y-158639463D01*
X89994180Y-158580498D01*
X89925313Y-158559607D01*
X89955134Y-158535134D01*
X90140706Y-158309014D01*
X90278599Y-158051034D01*
X90363513Y-157771111D01*
X90392185Y-157480000D01*
X90363513Y-157188889D01*
X90278599Y-156908966D01*
X90140706Y-156650986D01*
X89955134Y-156424866D01*
X89729014Y-156239294D01*
X89674209Y-156210000D01*
X89729014Y-156180706D01*
X89955134Y-155995134D01*
X90140706Y-155769014D01*
X90278599Y-155511034D01*
X90363513Y-155231111D01*
X90392185Y-154940000D01*
X90363513Y-154648889D01*
X90278599Y-154368966D01*
X90140706Y-154110986D01*
X89955134Y-153884866D01*
X89729014Y-153699294D01*
X89674209Y-153670000D01*
X89729014Y-153640706D01*
X89955134Y-153455134D01*
X90140706Y-153229014D01*
X90278599Y-152971034D01*
X90363513Y-152691111D01*
X90392185Y-152400000D01*
X90363513Y-152108889D01*
X90278599Y-151828966D01*
X90140706Y-151570986D01*
X89955134Y-151344866D01*
X89729014Y-151159294D01*
X89674209Y-151130000D01*
X89729014Y-151100706D01*
X89955134Y-150915134D01*
X90140706Y-150689014D01*
X90278599Y-150431034D01*
X90363513Y-150151111D01*
X90392185Y-149860000D01*
X90363513Y-149568889D01*
X90278599Y-149288966D01*
X90140706Y-149030986D01*
X89955134Y-148804866D01*
X89729014Y-148619294D01*
X89674209Y-148590000D01*
X89729014Y-148560706D01*
X89955134Y-148375134D01*
X90140706Y-148149014D01*
X90278599Y-147891034D01*
X90363513Y-147611111D01*
X90392185Y-147320000D01*
X90363513Y-147028889D01*
X90278599Y-146748966D01*
X90140706Y-146490986D01*
X89955134Y-146264866D01*
X89729014Y-146079294D01*
X89664477Y-146044799D01*
X89781355Y-145975178D01*
X89997588Y-145780269D01*
X90171641Y-145546920D01*
X90296825Y-145284099D01*
X90341476Y-145136890D01*
X90220155Y-144907000D01*
X89027000Y-144907000D01*
X89027000Y-144927000D01*
X88773000Y-144927000D01*
X88773000Y-144907000D01*
X87579845Y-144907000D01*
X87458524Y-145136890D01*
X87503175Y-145284099D01*
X87628359Y-145546920D01*
X87802412Y-145780269D01*
X88018645Y-145975178D01*
X88135523Y-146044799D01*
X88070986Y-146079294D01*
X87844866Y-146264866D01*
X87659294Y-146490986D01*
X87521401Y-146748966D01*
X87436487Y-147028889D01*
X87407815Y-147320000D01*
X87436487Y-147611111D01*
X87521401Y-147891034D01*
X87659294Y-148149014D01*
X87844866Y-148375134D01*
X88070986Y-148560706D01*
X88125791Y-148590000D01*
X88070986Y-148619294D01*
X87844866Y-148804866D01*
X87659294Y-149030986D01*
X87521401Y-149288966D01*
X87436487Y-149568889D01*
X87407815Y-149860000D01*
X87436487Y-150151111D01*
X87521401Y-150431034D01*
X87659294Y-150689014D01*
X87844866Y-150915134D01*
X88070986Y-151100706D01*
X88125791Y-151130000D01*
X88070986Y-151159294D01*
X87844866Y-151344866D01*
X87664207Y-151565000D01*
X79916398Y-151565000D01*
X79875379Y-151560960D01*
X79834361Y-151565000D01*
X79711691Y-151577082D01*
X79554293Y-151624828D01*
X79409234Y-151702364D01*
X79282089Y-151806709D01*
X79255938Y-151838574D01*
X78691654Y-152402859D01*
X78659790Y-152429009D01*
X78633642Y-152460871D01*
X78555444Y-152556155D01*
X78477908Y-152701214D01*
X78430162Y-152858612D01*
X78414040Y-153022300D01*
X78418081Y-153063328D01*
X78418080Y-159185000D01*
X77435793Y-159185000D01*
X77255134Y-158964866D01*
X77029014Y-158779294D01*
X76974209Y-158750000D01*
X77029014Y-158720706D01*
X77255134Y-158535134D01*
X77440706Y-158309014D01*
X77578599Y-158051034D01*
X77663513Y-157771111D01*
X77692185Y-157480000D01*
X77663513Y-157188889D01*
X77578599Y-156908966D01*
X77440706Y-156650986D01*
X77255134Y-156424866D01*
X77029014Y-156239294D01*
X76974209Y-156210000D01*
X77029014Y-156180706D01*
X77255134Y-155995134D01*
X77440706Y-155769014D01*
X77578599Y-155511034D01*
X77663513Y-155231111D01*
X77692185Y-154940000D01*
X77663513Y-154648889D01*
X77578599Y-154368966D01*
X77440706Y-154110986D01*
X77255134Y-153884866D01*
X77029014Y-153699294D01*
X76974209Y-153670000D01*
X77029014Y-153640706D01*
X77255134Y-153455134D01*
X77440706Y-153229014D01*
X77578599Y-152971034D01*
X77663513Y-152691111D01*
X77692185Y-152400000D01*
X77663513Y-152108889D01*
X77578599Y-151828966D01*
X77440706Y-151570986D01*
X77255134Y-151344866D01*
X77029014Y-151159294D01*
X76974209Y-151130000D01*
X77029014Y-151100706D01*
X77255134Y-150915134D01*
X77440706Y-150689014D01*
X77578599Y-150431034D01*
X77663513Y-150151111D01*
X77692185Y-149860000D01*
X77663513Y-149568889D01*
X77578599Y-149288966D01*
X77440706Y-149030986D01*
X77255134Y-148804866D01*
X77029014Y-148619294D01*
X76964477Y-148584799D01*
X77081355Y-148515178D01*
X77297588Y-148320269D01*
X77471641Y-148086920D01*
X77596825Y-147824099D01*
X77641476Y-147676890D01*
X77520155Y-147447000D01*
X76327000Y-147447000D01*
X76327000Y-147467000D01*
X76073000Y-147467000D01*
X76073000Y-147447000D01*
X74879845Y-147447000D01*
X74758524Y-147676890D01*
X74803175Y-147824099D01*
X74928359Y-148086920D01*
X75102412Y-148320269D01*
X75318645Y-148515178D01*
X75435523Y-148584799D01*
X75370986Y-148619294D01*
X75144866Y-148804866D01*
X74959294Y-149030986D01*
X74821401Y-149288966D01*
X74736487Y-149568889D01*
X74707815Y-149860000D01*
X59912185Y-149860000D01*
X59883513Y-149568889D01*
X59798599Y-149288966D01*
X59660706Y-149030986D01*
X59475134Y-148804866D01*
X59249014Y-148619294D01*
X59194209Y-148590000D01*
X59249014Y-148560706D01*
X59475134Y-148375134D01*
X59660706Y-148149014D01*
X59798599Y-147891034D01*
X59883513Y-147611111D01*
X59912185Y-147320000D01*
X59883513Y-147028889D01*
X59798599Y-146748966D01*
X59660706Y-146490986D01*
X59475134Y-146264866D01*
X59249014Y-146079294D01*
X59194209Y-146050000D01*
X59249014Y-146020706D01*
X59475134Y-145835134D01*
X59660706Y-145609014D01*
X59798599Y-145351034D01*
X59883513Y-145071111D01*
X59912185Y-144780000D01*
X59883513Y-144488889D01*
X59798599Y-144208966D01*
X59660706Y-143950986D01*
X59475134Y-143724866D01*
X59445313Y-143700393D01*
X59514180Y-143679502D01*
X59624494Y-143620537D01*
X59721185Y-143541185D01*
X59800537Y-143444494D01*
X59859502Y-143334180D01*
X59895812Y-143214482D01*
X59908072Y-143090000D01*
X59908072Y-142240000D01*
X74707815Y-142240000D01*
X74736487Y-142531111D01*
X74821401Y-142811034D01*
X74959294Y-143069014D01*
X75144866Y-143295134D01*
X75370986Y-143480706D01*
X75425791Y-143510000D01*
X75370986Y-143539294D01*
X75144866Y-143724866D01*
X74959294Y-143950986D01*
X74821401Y-144208966D01*
X74736487Y-144488889D01*
X74707815Y-144780000D01*
X74736487Y-145071111D01*
X74821401Y-145351034D01*
X74959294Y-145609014D01*
X75144866Y-145835134D01*
X75370986Y-146020706D01*
X75435523Y-146055201D01*
X75318645Y-146124822D01*
X75102412Y-146319731D01*
X74928359Y-146553080D01*
X74803175Y-146815901D01*
X74758524Y-146963110D01*
X74879845Y-147193000D01*
X76073000Y-147193000D01*
X76073000Y-147173000D01*
X76327000Y-147173000D01*
X76327000Y-147193000D01*
X77520155Y-147193000D01*
X77641476Y-146963110D01*
X77596825Y-146815901D01*
X77471641Y-146553080D01*
X77297588Y-146319731D01*
X77081355Y-146124822D01*
X76964477Y-146055201D01*
X77029014Y-146020706D01*
X77255134Y-145835134D01*
X77353725Y-145715000D01*
X84922148Y-145715000D01*
X84968080Y-145719524D01*
X85014012Y-145715000D01*
X85151372Y-145701471D01*
X85327620Y-145648007D01*
X85490052Y-145561186D01*
X85632424Y-145444344D01*
X85661710Y-145408659D01*
X86290369Y-144780000D01*
X143287815Y-144780000D01*
X143316487Y-145071111D01*
X143401401Y-145351034D01*
X143539294Y-145609014D01*
X143724866Y-145835134D01*
X143950986Y-146020706D01*
X144005791Y-146050000D01*
X143950986Y-146079294D01*
X143724866Y-146264866D01*
X143539294Y-146490986D01*
X143401401Y-146748966D01*
X143316487Y-147028889D01*
X143287815Y-147320000D01*
X143316487Y-147611111D01*
X143401401Y-147891034D01*
X143539294Y-148149014D01*
X143724866Y-148375134D01*
X143950986Y-148560706D01*
X144005791Y-148590000D01*
X143950986Y-148619294D01*
X143724866Y-148804866D01*
X143539294Y-149030986D01*
X143401401Y-149288966D01*
X143316487Y-149568889D01*
X143287815Y-149860000D01*
X143316487Y-150151111D01*
X143401401Y-150431034D01*
X143539294Y-150689014D01*
X143724866Y-150915134D01*
X143950986Y-151100706D01*
X144005791Y-151130000D01*
X143950986Y-151159294D01*
X143724866Y-151344866D01*
X143539294Y-151570986D01*
X143401401Y-151828966D01*
X143316487Y-152108889D01*
X143287815Y-152400000D01*
X143316487Y-152691111D01*
X143401401Y-152971034D01*
X143539294Y-153229014D01*
X143724866Y-153455134D01*
X143950986Y-153640706D01*
X144005791Y-153670000D01*
X143950986Y-153699294D01*
X143724866Y-153884866D01*
X143539294Y-154110986D01*
X143401401Y-154368966D01*
X143316487Y-154648889D01*
X143287815Y-154940000D01*
X143316487Y-155231111D01*
X143401401Y-155511034D01*
X143539294Y-155769014D01*
X143724866Y-155995134D01*
X143950986Y-156180706D01*
X144005791Y-156210000D01*
X143950986Y-156239294D01*
X143724866Y-156424866D01*
X143539294Y-156650986D01*
X143401401Y-156908966D01*
X143316487Y-157188889D01*
X143287815Y-157480000D01*
X143316487Y-157771111D01*
X143401401Y-158051034D01*
X143539294Y-158309014D01*
X143724866Y-158535134D01*
X143950986Y-158720706D01*
X144005791Y-158750000D01*
X143950986Y-158779294D01*
X143724866Y-158964866D01*
X143539294Y-159190986D01*
X143401401Y-159448966D01*
X143316487Y-159728889D01*
X143287815Y-160020000D01*
X143316487Y-160311111D01*
X143401401Y-160591034D01*
X143539294Y-160849014D01*
X143724866Y-161075134D01*
X143950986Y-161260706D01*
X144208966Y-161398599D01*
X144488889Y-161483513D01*
X144707050Y-161505000D01*
X144852950Y-161505000D01*
X145071111Y-161483513D01*
X145351034Y-161398599D01*
X145609014Y-161260706D01*
X145835134Y-161075134D01*
X146020706Y-160849014D01*
X146158599Y-160591034D01*
X146243513Y-160311111D01*
X146272185Y-160020000D01*
X146243513Y-159728889D01*
X146158599Y-159448966D01*
X146020706Y-159190986D01*
X145835134Y-158964866D01*
X145609014Y-158779294D01*
X145554209Y-158750000D01*
X145609014Y-158720706D01*
X145835134Y-158535134D01*
X146020706Y-158309014D01*
X146158599Y-158051034D01*
X146243513Y-157771111D01*
X146272185Y-157480000D01*
X146243513Y-157188889D01*
X146158599Y-156908966D01*
X146020706Y-156650986D01*
X145835134Y-156424866D01*
X145609014Y-156239294D01*
X145554209Y-156210000D01*
X145609014Y-156180706D01*
X145835134Y-155995134D01*
X146020706Y-155769014D01*
X146158599Y-155511034D01*
X146243513Y-155231111D01*
X146272185Y-154940000D01*
X146243513Y-154648889D01*
X146158599Y-154368966D01*
X146020706Y-154110986D01*
X145835134Y-153884866D01*
X145609014Y-153699294D01*
X145554209Y-153670000D01*
X145609014Y-153640706D01*
X145835134Y-153455134D01*
X146020706Y-153229014D01*
X146158599Y-152971034D01*
X146243513Y-152691111D01*
X146272185Y-152400000D01*
X146243513Y-152108889D01*
X146158599Y-151828966D01*
X146020706Y-151570986D01*
X145835134Y-151344866D01*
X145609014Y-151159294D01*
X145554209Y-151130000D01*
X145609014Y-151100706D01*
X145835134Y-150915134D01*
X146020706Y-150689014D01*
X146158599Y-150431034D01*
X146243513Y-150151111D01*
X146272185Y-149860000D01*
X146243513Y-149568889D01*
X146158599Y-149288966D01*
X146020706Y-149030986D01*
X145835134Y-148804866D01*
X145609014Y-148619294D01*
X145554209Y-148590000D01*
X145609014Y-148560706D01*
X145835134Y-148375134D01*
X146020706Y-148149014D01*
X146158599Y-147891034D01*
X146243513Y-147611111D01*
X146272185Y-147320000D01*
X146243513Y-147028889D01*
X146158599Y-146748966D01*
X146020706Y-146490986D01*
X145835134Y-146264866D01*
X145609014Y-146079294D01*
X145554209Y-146050000D01*
X145609014Y-146020706D01*
X145835134Y-145835134D01*
X146020706Y-145609014D01*
X146158599Y-145351034D01*
X146243513Y-145071111D01*
X146272185Y-144780000D01*
X146243513Y-144488889D01*
X146158599Y-144208966D01*
X146020706Y-143950986D01*
X145835134Y-143724866D01*
X145805313Y-143700393D01*
X145874180Y-143679502D01*
X145984494Y-143620537D01*
X146081185Y-143541185D01*
X146160537Y-143444494D01*
X146219502Y-143334180D01*
X146255812Y-143214482D01*
X146268072Y-143090000D01*
X146268072Y-141390000D01*
X146255812Y-141265518D01*
X146219502Y-141145820D01*
X146160537Y-141035506D01*
X146081185Y-140938815D01*
X145984494Y-140859463D01*
X145874180Y-140800498D01*
X145754482Y-140764188D01*
X145630000Y-140751928D01*
X143930000Y-140751928D01*
X143805518Y-140764188D01*
X143685820Y-140800498D01*
X143575506Y-140859463D01*
X143478815Y-140938815D01*
X143399463Y-141035506D01*
X143340498Y-141145820D01*
X143304188Y-141265518D01*
X143291928Y-141390000D01*
X143291928Y-143090000D01*
X143304188Y-143214482D01*
X143340498Y-143334180D01*
X143399463Y-143444494D01*
X143478815Y-143541185D01*
X143575506Y-143620537D01*
X143685820Y-143679502D01*
X143754687Y-143700393D01*
X143724866Y-143724866D01*
X143539294Y-143950986D01*
X143401401Y-144208966D01*
X143316487Y-144488889D01*
X143287815Y-144780000D01*
X86290369Y-144780000D01*
X86371445Y-144698925D01*
X86407124Y-144669644D01*
X86523966Y-144527272D01*
X86610787Y-144364840D01*
X86664251Y-144188592D01*
X86677780Y-144051232D01*
X86677780Y-144051231D01*
X86682304Y-144005301D01*
X86677780Y-143959369D01*
X86677780Y-143302929D01*
X86805710Y-143175000D01*
X87746275Y-143175000D01*
X87844866Y-143295134D01*
X88070986Y-143480706D01*
X88135523Y-143515201D01*
X88018645Y-143584822D01*
X87802412Y-143779731D01*
X87628359Y-144013080D01*
X87503175Y-144275901D01*
X87458524Y-144423110D01*
X87579845Y-144653000D01*
X88773000Y-144653000D01*
X88773000Y-144633000D01*
X89027000Y-144633000D01*
X89027000Y-144653000D01*
X90220155Y-144653000D01*
X90341476Y-144423110D01*
X90296825Y-144275901D01*
X90171641Y-144013080D01*
X89997588Y-143779731D01*
X89781355Y-143584822D01*
X89664477Y-143515201D01*
X89729014Y-143480706D01*
X89955134Y-143295134D01*
X90140706Y-143069014D01*
X90278599Y-142811034D01*
X90363513Y-142531111D01*
X90392185Y-142240000D01*
X90363513Y-141948889D01*
X90278599Y-141668966D01*
X90140706Y-141410986D01*
X89955134Y-141184866D01*
X89729014Y-140999294D01*
X89471034Y-140861401D01*
X89191111Y-140776487D01*
X88972950Y-140755000D01*
X88827050Y-140755000D01*
X88608889Y-140776487D01*
X88328966Y-140861401D01*
X88070986Y-140999294D01*
X87844866Y-141184866D01*
X87746275Y-141305000D01*
X86464351Y-141305000D01*
X86418419Y-141300476D01*
X86235127Y-141318529D01*
X86181663Y-141334747D01*
X86058880Y-141371993D01*
X85896448Y-141458814D01*
X85754076Y-141575656D01*
X85724794Y-141611336D01*
X85114116Y-142222015D01*
X85078437Y-142251296D01*
X84961595Y-142393668D01*
X84888131Y-142531111D01*
X84874774Y-142556100D01*
X84821309Y-142732349D01*
X84803256Y-142915640D01*
X84807781Y-142961581D01*
X84807780Y-143618010D01*
X84580791Y-143845000D01*
X77353725Y-143845000D01*
X77255134Y-143724866D01*
X77029014Y-143539294D01*
X76974209Y-143510000D01*
X77029014Y-143480706D01*
X77255134Y-143295134D01*
X77440706Y-143069014D01*
X77578599Y-142811034D01*
X77663513Y-142531111D01*
X77692185Y-142240000D01*
X77663513Y-141948889D01*
X77578599Y-141668966D01*
X77440706Y-141410986D01*
X77255134Y-141184866D01*
X77029014Y-140999294D01*
X76771034Y-140861401D01*
X76491111Y-140776487D01*
X76272950Y-140755000D01*
X76127050Y-140755000D01*
X75908889Y-140776487D01*
X75628966Y-140861401D01*
X75370986Y-140999294D01*
X75144866Y-141184866D01*
X74959294Y-141410986D01*
X74821401Y-141668966D01*
X74736487Y-141948889D01*
X74707815Y-142240000D01*
X59908072Y-142240000D01*
X59908072Y-141390000D01*
X59895812Y-141265518D01*
X59859502Y-141145820D01*
X59800537Y-141035506D01*
X59721185Y-140938815D01*
X59624494Y-140859463D01*
X59514180Y-140800498D01*
X59394482Y-140764188D01*
X59270000Y-140751928D01*
X57570000Y-140751928D01*
X57445518Y-140764188D01*
X57325820Y-140800498D01*
X57215506Y-140859463D01*
X57118815Y-140938815D01*
X57039463Y-141035506D01*
X56980498Y-141145820D01*
X56944188Y-141265518D01*
X56931928Y-141390000D01*
X56931928Y-143090000D01*
X56944188Y-143214482D01*
X56980498Y-143334180D01*
X57039463Y-143444494D01*
X57118815Y-143541185D01*
X57215506Y-143620537D01*
X57325820Y-143679502D01*
X57394687Y-143700393D01*
X57364866Y-143724866D01*
X57179294Y-143950986D01*
X57041401Y-144208966D01*
X56956487Y-144488889D01*
X56927815Y-144780000D01*
X51562000Y-144780000D01*
X51562000Y-131894344D01*
X53995000Y-131894344D01*
X53995000Y-132265656D01*
X54067439Y-132629834D01*
X54209534Y-132972882D01*
X54415825Y-133281618D01*
X54678382Y-133544175D01*
X54987118Y-133750466D01*
X55330166Y-133892561D01*
X55694344Y-133965000D01*
X56065656Y-133965000D01*
X56429834Y-133892561D01*
X56772882Y-133750466D01*
X57081618Y-133544175D01*
X57344175Y-133281618D01*
X57550466Y-132972882D01*
X57692561Y-132629834D01*
X57765000Y-132265656D01*
X57765000Y-131894344D01*
X148901440Y-131894344D01*
X148901440Y-132265656D01*
X148973879Y-132629834D01*
X149115974Y-132972882D01*
X149322265Y-133281618D01*
X149584822Y-133544175D01*
X149893558Y-133750466D01*
X150236606Y-133892561D01*
X150600784Y-133965000D01*
X150972096Y-133965000D01*
X151336274Y-133892561D01*
X151679322Y-133750466D01*
X151988058Y-133544175D01*
X152250615Y-133281618D01*
X152456906Y-132972882D01*
X152599001Y-132629834D01*
X152671440Y-132265656D01*
X152671440Y-131894344D01*
X152599001Y-131530166D01*
X152456906Y-131187118D01*
X152250615Y-130878382D01*
X151988058Y-130615825D01*
X151679322Y-130409534D01*
X151336274Y-130267439D01*
X150972096Y-130195000D01*
X150600784Y-130195000D01*
X150236606Y-130267439D01*
X149893558Y-130409534D01*
X149584822Y-130615825D01*
X149322265Y-130878382D01*
X149115974Y-131187118D01*
X148973879Y-131530166D01*
X148901440Y-131894344D01*
X57765000Y-131894344D01*
X57692561Y-131530166D01*
X57550466Y-131187118D01*
X57344175Y-130878382D01*
X57081618Y-130615825D01*
X56772882Y-130409534D01*
X56429834Y-130267439D01*
X56065656Y-130195000D01*
X55694344Y-130195000D01*
X55330166Y-130267439D01*
X54987118Y-130409534D01*
X54678382Y-130615825D01*
X54415825Y-130878382D01*
X54209534Y-131187118D01*
X54067439Y-131530166D01*
X53995000Y-131894344D01*
X51562000Y-131894344D01*
X51562000Y-129577265D01*
X51599446Y-129195365D01*
X51699536Y-128863847D01*
X51862110Y-128558091D01*
X52080976Y-128289735D01*
X52347798Y-128069001D01*
X52652413Y-127904296D01*
X52983217Y-127801895D01*
X53362796Y-127762000D01*
X152362735Y-127762000D01*
X152744635Y-127799446D01*
G36*
X87844866Y-158535134D02*
G01*
X87874687Y-158559607D01*
X87805820Y-158580498D01*
X87695506Y-158639463D01*
X87598815Y-158718815D01*
X87519463Y-158815506D01*
X87460498Y-158925820D01*
X87424188Y-159045518D01*
X87411928Y-159170000D01*
X87411928Y-160870000D01*
X87424188Y-160994482D01*
X87460498Y-161114180D01*
X87519463Y-161224494D01*
X87598815Y-161321185D01*
X87695506Y-161400537D01*
X87805820Y-161459502D01*
X87925518Y-161495812D01*
X88050000Y-161508072D01*
X89750000Y-161508072D01*
X89874482Y-161495812D01*
X89994180Y-161459502D01*
X90104494Y-161400537D01*
X90201185Y-161321185D01*
X90280537Y-161224494D01*
X90317683Y-161155000D01*
X92239869Y-161155000D01*
X92845000Y-161760132D01*
X92845001Y-170979867D01*
X92239869Y-171585000D01*
X90058728Y-171585000D01*
X90104494Y-171560537D01*
X90201185Y-171481185D01*
X90280537Y-171384494D01*
X90339502Y-171274180D01*
X90375812Y-171154482D01*
X90388072Y-171030000D01*
X90385000Y-170465750D01*
X90226250Y-170307000D01*
X89027000Y-170307000D01*
X89027000Y-170327000D01*
X88773000Y-170327000D01*
X88773000Y-170307000D01*
X87573750Y-170307000D01*
X87415000Y-170465750D01*
X87411928Y-171030000D01*
X87424188Y-171154482D01*
X87460498Y-171274180D01*
X87519463Y-171384494D01*
X87598815Y-171481185D01*
X87695506Y-171560537D01*
X87805820Y-171619502D01*
X87874687Y-171640393D01*
X87844866Y-171664866D01*
X87659294Y-171890986D01*
X87521401Y-172148966D01*
X87436487Y-172428889D01*
X87407815Y-172720000D01*
X87436487Y-173011111D01*
X87521401Y-173291034D01*
X87659294Y-173549014D01*
X87844866Y-173775134D01*
X88070986Y-173960706D01*
X88125791Y-173990000D01*
X88070986Y-174019294D01*
X87844866Y-174204866D01*
X87664207Y-174425000D01*
X77435793Y-174425000D01*
X77255134Y-174204866D01*
X77029014Y-174019294D01*
X76974209Y-173990000D01*
X77029014Y-173960706D01*
X77255134Y-173775134D01*
X77440706Y-173549014D01*
X77578599Y-173291034D01*
X77663513Y-173011111D01*
X77692185Y-172720000D01*
X77663513Y-172428889D01*
X77578599Y-172148966D01*
X77440706Y-171890986D01*
X77255134Y-171664866D01*
X77029014Y-171479294D01*
X76974209Y-171450000D01*
X77029014Y-171420706D01*
X77255134Y-171235134D01*
X77440706Y-171009014D01*
X77578599Y-170751034D01*
X77663513Y-170471111D01*
X77692185Y-170180000D01*
X77663513Y-169888889D01*
X77578599Y-169608966D01*
X77440706Y-169350986D01*
X77423484Y-169330000D01*
X87411928Y-169330000D01*
X87415000Y-169894250D01*
X87573750Y-170053000D01*
X88773000Y-170053000D01*
X88773000Y-168853750D01*
X89027000Y-168853750D01*
X89027000Y-170053000D01*
X90226250Y-170053000D01*
X90385000Y-169894250D01*
X90388072Y-169330000D01*
X90375812Y-169205518D01*
X90339502Y-169085820D01*
X90280537Y-168975506D01*
X90201185Y-168878815D01*
X90104494Y-168799463D01*
X89994180Y-168740498D01*
X89874482Y-168704188D01*
X89750000Y-168691928D01*
X89185750Y-168695000D01*
X89027000Y-168853750D01*
X88773000Y-168853750D01*
X88614250Y-168695000D01*
X88050000Y-168691928D01*
X87925518Y-168704188D01*
X87805820Y-168740498D01*
X87695506Y-168799463D01*
X87598815Y-168878815D01*
X87519463Y-168975506D01*
X87460498Y-169085820D01*
X87424188Y-169205518D01*
X87411928Y-169330000D01*
X77423484Y-169330000D01*
X77255134Y-169124866D01*
X77029014Y-168939294D01*
X76974209Y-168910000D01*
X77029014Y-168880706D01*
X77255134Y-168695134D01*
X77440706Y-168469014D01*
X77578599Y-168211034D01*
X77663513Y-167931111D01*
X77692185Y-167640000D01*
X77663513Y-167348889D01*
X77578599Y-167068966D01*
X77440706Y-166810986D01*
X77255134Y-166584866D01*
X77029014Y-166399294D01*
X76974209Y-166370000D01*
X77029014Y-166340706D01*
X77255134Y-166155134D01*
X77435793Y-165935000D01*
X84408902Y-165935000D01*
X84449920Y-165939040D01*
X84490938Y-165935000D01*
X84490939Y-165935000D01*
X84613609Y-165922918D01*
X84771007Y-165875172D01*
X84916066Y-165797636D01*
X85043211Y-165693291D01*
X85069366Y-165661421D01*
X85539662Y-165191125D01*
X85571531Y-165164971D01*
X85675876Y-165037826D01*
X85753412Y-164892767D01*
X85801158Y-164735369D01*
X85813240Y-164612699D01*
X85813240Y-164612689D01*
X85817279Y-164571681D01*
X85813240Y-164530673D01*
X85813240Y-158315000D01*
X87664207Y-158315000D01*
X87844866Y-158535134D01*
X87844866Y-158535134D01*
G37*
X87844866Y-158535134D02*
X87874687Y-158559607D01*
X87805820Y-158580498D01*
X87695506Y-158639463D01*
X87598815Y-158718815D01*
X87519463Y-158815506D01*
X87460498Y-158925820D01*
X87424188Y-159045518D01*
X87411928Y-159170000D01*
X87411928Y-160870000D01*
X87424188Y-160994482D01*
X87460498Y-161114180D01*
X87519463Y-161224494D01*
X87598815Y-161321185D01*
X87695506Y-161400537D01*
X87805820Y-161459502D01*
X87925518Y-161495812D01*
X88050000Y-161508072D01*
X89750000Y-161508072D01*
X89874482Y-161495812D01*
X89994180Y-161459502D01*
X90104494Y-161400537D01*
X90201185Y-161321185D01*
X90280537Y-161224494D01*
X90317683Y-161155000D01*
X92239869Y-161155000D01*
X92845000Y-161760132D01*
X92845001Y-170979867D01*
X92239869Y-171585000D01*
X90058728Y-171585000D01*
X90104494Y-171560537D01*
X90201185Y-171481185D01*
X90280537Y-171384494D01*
X90339502Y-171274180D01*
X90375812Y-171154482D01*
X90388072Y-171030000D01*
X90385000Y-170465750D01*
X90226250Y-170307000D01*
X89027000Y-170307000D01*
X89027000Y-170327000D01*
X88773000Y-170327000D01*
X88773000Y-170307000D01*
X87573750Y-170307000D01*
X87415000Y-170465750D01*
X87411928Y-171030000D01*
X87424188Y-171154482D01*
X87460498Y-171274180D01*
X87519463Y-171384494D01*
X87598815Y-171481185D01*
X87695506Y-171560537D01*
X87805820Y-171619502D01*
X87874687Y-171640393D01*
X87844866Y-171664866D01*
X87659294Y-171890986D01*
X87521401Y-172148966D01*
X87436487Y-172428889D01*
X87407815Y-172720000D01*
X87436487Y-173011111D01*
X87521401Y-173291034D01*
X87659294Y-173549014D01*
X87844866Y-173775134D01*
X88070986Y-173960706D01*
X88125791Y-173990000D01*
X88070986Y-174019294D01*
X87844866Y-174204866D01*
X87664207Y-174425000D01*
X77435793Y-174425000D01*
X77255134Y-174204866D01*
X77029014Y-174019294D01*
X76974209Y-173990000D01*
X77029014Y-173960706D01*
X77255134Y-173775134D01*
X77440706Y-173549014D01*
X77578599Y-173291034D01*
X77663513Y-173011111D01*
X77692185Y-172720000D01*
X77663513Y-172428889D01*
X77578599Y-172148966D01*
X77440706Y-171890986D01*
X77255134Y-171664866D01*
X77029014Y-171479294D01*
X76974209Y-171450000D01*
X77029014Y-171420706D01*
X77255134Y-171235134D01*
X77440706Y-171009014D01*
X77578599Y-170751034D01*
X77663513Y-170471111D01*
X77692185Y-170180000D01*
X77663513Y-169888889D01*
X77578599Y-169608966D01*
X77440706Y-169350986D01*
X77423484Y-169330000D01*
X87411928Y-169330000D01*
X87415000Y-169894250D01*
X87573750Y-170053000D01*
X88773000Y-170053000D01*
X88773000Y-168853750D01*
X89027000Y-168853750D01*
X89027000Y-170053000D01*
X90226250Y-170053000D01*
X90385000Y-169894250D01*
X90388072Y-169330000D01*
X90375812Y-169205518D01*
X90339502Y-169085820D01*
X90280537Y-168975506D01*
X90201185Y-168878815D01*
X90104494Y-168799463D01*
X89994180Y-168740498D01*
X89874482Y-168704188D01*
X89750000Y-168691928D01*
X89185750Y-168695000D01*
X89027000Y-168853750D01*
X88773000Y-168853750D01*
X88614250Y-168695000D01*
X88050000Y-168691928D01*
X87925518Y-168704188D01*
X87805820Y-168740498D01*
X87695506Y-168799463D01*
X87598815Y-168878815D01*
X87519463Y-168975506D01*
X87460498Y-169085820D01*
X87424188Y-169205518D01*
X87411928Y-169330000D01*
X77423484Y-169330000D01*
X77255134Y-169124866D01*
X77029014Y-168939294D01*
X76974209Y-168910000D01*
X77029014Y-168880706D01*
X77255134Y-168695134D01*
X77440706Y-168469014D01*
X77578599Y-168211034D01*
X77663513Y-167931111D01*
X77692185Y-167640000D01*
X77663513Y-167348889D01*
X77578599Y-167068966D01*
X77440706Y-166810986D01*
X77255134Y-166584866D01*
X77029014Y-166399294D01*
X76974209Y-166370000D01*
X77029014Y-166340706D01*
X77255134Y-166155134D01*
X77435793Y-165935000D01*
X84408902Y-165935000D01*
X84449920Y-165939040D01*
X84490938Y-165935000D01*
X84490939Y-165935000D01*
X84613609Y-165922918D01*
X84771007Y-165875172D01*
X84916066Y-165797636D01*
X85043211Y-165693291D01*
X85069366Y-165661421D01*
X85539662Y-165191125D01*
X85571531Y-165164971D01*
X85675876Y-165037826D01*
X85753412Y-164892767D01*
X85801158Y-164735369D01*
X85813240Y-164612699D01*
X85813240Y-164612689D01*
X85817279Y-164571681D01*
X85813240Y-164530673D01*
X85813240Y-158315000D01*
X87664207Y-158315000D01*
X87844866Y-158535134D01*
M02*
