G04 #@! TF.GenerationSoftware,KiCad,Pcbnew,5.1.2-f72e74a~84~ubuntu18.04.1*
G04 #@! TF.CreationDate,2019-05-24T04:06:14+05:00*
G04 #@! TF.ProjectId,reflow_board,7265666c-6f77-45f6-926f-6172642e6b69,1*
G04 #@! TF.SameCoordinates,Original*
G04 #@! TF.FileFunction,Legend,Top*
G04 #@! TF.FilePolarity,Positive*
%FSLAX46Y46*%
G04 Gerber Fmt 4.6, Leading zero omitted, Abs format (unit mm)*
G04 Created by KiCad (PCBNEW 5.1.2-f72e74a~84~ubuntu18.04.1) date 2019-05-24 04:06:14*
%MOMM*%
%LPD*%
G04 APERTURE LIST*
%ADD10C,0.254000*%
%ADD11C,0.120000*%
G04 APERTURE END LIST*
D10*
X53340000Y-203200000D02*
G75*
G02X50800000Y-200660000I0J2540000D01*
G01*
X154940000Y-200660000D02*
G75*
G02X152400000Y-203200000I-2540000J0D01*
G01*
X152400000Y-127000000D02*
G75*
G02X154940000Y-129540000I0J-2540000D01*
G01*
X50800000Y-129540000D02*
G75*
G02X53340000Y-127000000I2540000J0D01*
G01*
X152400000Y-127000000D02*
X53340000Y-127000000D01*
X154940000Y-200660000D02*
X154940000Y-129540000D01*
X53340000Y-203200000D02*
X152400000Y-203200000D01*
X50800000Y-129540000D02*
X50800000Y-200660000D01*
D11*
X124280000Y-190760000D02*
X124280000Y-190260000D01*
X123540000Y-190760000D02*
X124280000Y-190760000D01*
X120403000Y-184187000D02*
X120449000Y-184234000D01*
X118105000Y-181890000D02*
X118141000Y-181925000D01*
X120619000Y-183994000D02*
X120654000Y-184029000D01*
X118311000Y-181685000D02*
X118357000Y-181732000D01*
X114119000Y-180400000D02*
X124040000Y-180400000D01*
X114119000Y-190520000D02*
X124040000Y-190520000D01*
X124040000Y-190520000D02*
X124040000Y-180400000D01*
X114119000Y-190520000D02*
X114119000Y-180400000D01*
X117079000Y-190520000D02*
X117079000Y-180400000D01*
X121980000Y-190520000D02*
X121980000Y-180400000D01*
X123480000Y-190520000D02*
X123480000Y-180400000D01*
X121060000Y-182960000D02*
G75*
G03X121060000Y-182960000I-1680000J0D01*
G01*
X121060253Y-187931195D02*
G75*
G02X120915000Y-188644000I-1680253J-28805D01*
G01*
X120063042Y-189495426D02*
G75*
G02X118696000Y-189495000I-683042J1535426D01*
G01*
X117844574Y-188643042D02*
G75*
G02X117845000Y-187276000I1535426J683042D01*
G01*
X118696958Y-186424574D02*
G75*
G02X120064000Y-186425000I683042J-1535426D01*
G01*
X120914756Y-187276682D02*
G75*
G02X121060000Y-187960000I-1534756J-683318D01*
G01*
X144780000Y-140910000D02*
X146110000Y-140910000D01*
X146110000Y-140910000D02*
X146110000Y-142240000D01*
X146110000Y-143510000D02*
X146110000Y-161350000D01*
X143450000Y-161350000D02*
X146110000Y-161350000D01*
X143450000Y-143510000D02*
X143450000Y-161350000D01*
X143450000Y-143510000D02*
X146110000Y-143510000D01*
X113960000Y-196420000D02*
X109560000Y-196420000D01*
X109560000Y-196420000D02*
X109560000Y-196540000D01*
X109560000Y-197550000D02*
X109560000Y-198690000D01*
X109560000Y-199700000D02*
X109560000Y-199820000D01*
X109560000Y-199820000D02*
X113960000Y-199820000D01*
X113960000Y-199820000D02*
X113960000Y-199700000D01*
X113960000Y-198690000D02*
X113960000Y-197550000D01*
X113960000Y-196540000D02*
X113960000Y-196420000D01*
X107952000Y-198409779D02*
X107952000Y-198084221D01*
X106932000Y-198409779D02*
X106932000Y-198084221D01*
X76200000Y-194370000D02*
X74870000Y-194370000D01*
X74870000Y-194370000D02*
X74870000Y-193040000D01*
X74870000Y-191770000D02*
X74870000Y-140910000D01*
X77530000Y-140910000D02*
X74870000Y-140910000D01*
X77530000Y-191770000D02*
X77530000Y-140910000D01*
X77530000Y-191770000D02*
X74870000Y-191770000D01*
X88900000Y-161350000D02*
X87570000Y-161350000D01*
X87570000Y-161350000D02*
X87570000Y-160020000D01*
X87570000Y-158750000D02*
X87570000Y-140910000D01*
X90230000Y-140910000D02*
X87570000Y-140910000D01*
X90230000Y-158750000D02*
X90230000Y-140910000D01*
X90230000Y-158750000D02*
X87570000Y-158750000D01*
X58420000Y-140910000D02*
X59750000Y-140910000D01*
X59750000Y-140910000D02*
X59750000Y-142240000D01*
X59750000Y-143510000D02*
X59750000Y-194370000D01*
X57090000Y-194370000D02*
X59750000Y-194370000D01*
X57090000Y-143510000D02*
X57090000Y-194370000D01*
X57090000Y-143510000D02*
X59750000Y-143510000D01*
X88900000Y-168850000D02*
X90230000Y-168850000D01*
X90230000Y-168850000D02*
X90230000Y-170180000D01*
X90230000Y-171450000D02*
X90230000Y-181670000D01*
X87570000Y-181670000D02*
X90230000Y-181670000D01*
X87570000Y-171450000D02*
X87570000Y-181670000D01*
X87570000Y-171450000D02*
X90230000Y-171450000D01*
X116588000Y-198282779D02*
X116588000Y-197957221D01*
X115568000Y-198282779D02*
X115568000Y-197957221D01*
M02*
