M48
; DRILL file {KiCad 5.1.2-f72e74a~84~ubuntu18.04.1} date Fri 24 May 2019 04:06:22 PKT
; FORMAT={-:-/ absolute / inch / decimal}
; #@! TF.CreationDate,2019-05-24T04:06:22+05:00
; #@! TF.GenerationSoftware,Kicad,Pcbnew,5.1.2-f72e74a~84~ubuntu18.04.1
FMAT,2
INCH
T1C0.0079
T2C0.0118
T3C0.0236
T4C0.0394
T5C0.0512
T6C0.0984
T7C0.0984
%
G90
G05
T1
X2.6743Y-7.7463
X3.1718Y-6.1997
T2
X4.0249Y-7.7974
T3
X2.4131Y-7.5963
X2.8656Y-7.5995
X2.8816Y-5.7999
X3.7263Y-5.6552
X4.6995Y-7.0665
T4
X3.5Y-5.6
X3.5Y-5.7
X3.5Y-5.8
X3.5Y-5.9
X3.5Y-6.0
X3.5Y-6.1
X3.5Y-6.2
X3.5Y-6.3
X3.0Y-5.6
X3.0Y-5.7
X3.0Y-5.8
X3.0Y-5.9
X3.0Y-6.0
X3.0Y-6.1
X3.0Y-6.2
X3.0Y-6.3
X3.0Y-6.4
X3.0Y-6.5
X3.0Y-6.6
X3.0Y-6.7
X3.0Y-6.8
X3.0Y-6.9
X3.0Y-7.0
X3.0Y-7.1
X3.0Y-7.2
X3.0Y-7.3
X3.0Y-7.4
X3.0Y-7.5
X3.0Y-7.6
X2.3Y-5.6
X2.3Y-5.7
X2.3Y-5.8
X2.3Y-5.9
X2.3Y-6.0
X2.3Y-6.1
X2.3Y-6.2
X2.3Y-6.3
X2.3Y-6.4
X2.3Y-6.5
X2.3Y-6.6
X2.3Y-6.7
X2.3Y-6.8
X2.3Y-6.9
X2.3Y-7.0
X2.3Y-7.1
X2.3Y-7.2
X2.3Y-7.3
X2.3Y-7.4
X2.3Y-7.5
X2.3Y-7.6
X5.7Y-5.6
X5.7Y-5.7
X5.7Y-5.8
X5.7Y-5.9
X5.7Y-6.0
X5.7Y-6.1
X5.7Y-6.2
X5.7Y-6.3
X3.5Y-6.7
X3.5Y-6.8
X3.5Y-6.9
X3.5Y-7.0
X3.5Y-7.1
T5
X4.7Y-7.2031
X4.7Y-7.4
T6
X5.9365Y-7.8288
T7
X2.2Y-5.2
X5.9365Y-5.2
X2.2Y-7.8288
T0
M30
